<?xml version="1.0" encoding="UTF-8"?>
<!DOCTYPE svg PUBLIC "-//W3C//DTD SVG 1.1//EN" "http://www.w3.org/Graphics/SVG/1.1/DTD/svg11.dtd">
<!-- Creator: CorelDRAW -->
<svg xmlns="http://www.w3.org/2000/svg" xml:space="preserve" width="29.7972mm" height="29.7971mm" version="1.1" style="shape-rendering:geometricPrecision; text-rendering:geometricPrecision; image-rendering:optimizeQuality; fill-rule:evenodd; clip-rule:evenodd"
viewBox="0 0 264.54 264.54"
 xmlns:xlink="http://www.w3.org/1999/xlink"
 xmlns:xodm="http://www.corel.com/coreldraw/odm/2003">
 <defs>
  <style type="text/css">
   <![CDATA[
    .fil1 {fill:#2B2A29}
    .fil0 {fill:#C0A57C}
   ]]>
  </style>
 </defs>
 <g id="Слой_x0020_1">
  <metadata id="CorelCorpID_0Corel-Layer"/>
  <g id="_2450387542528">
   <path class="fil0" d="M84.6 0l95.34 0c46.72,0 84.6,37.89 84.6,84.6l-0 95.34c0,46.72 -37.89,84.6 -84.6,84.6l-95.34 0c-46.72,0 -84.6,-37.89 -84.6,-84.6l-0 -95.34c0,-46.72 37.89,-84.6 84.6,-84.6z"/>
   <g>
    <path class="fil1" d="M114.7 189.33l0.04 -12.21 34.61 -16.23c3.62,-1.83 14.76,-6.62 17.35,-8.09 1.57,-0.85 2.86,-1.25 4.29,-1.97l12.92 -6.26c5.72,-2.46 11.63,-5.63 17.35,-8.14 7.96,-3.44 18.33,-8.81 26.07,-12.07 6.22,-2.59 15.07,-7.11 21.82,-10.11 0.94,-0.4 3.58,-1.79 4.29,-1.92l-0.04 10.37c-0.81,0.58 -3.09,1.48 -4.11,1.97 -8,3.67 -18.51,9.21 -26.16,12.57 -1.52,0.67 -2.82,1.48 -4.34,2.15 -2.68,1.12 -6.17,2.82 -8.67,4.07l-34.61 16.81c-3.09,1.48 -5.72,3 -8.72,4.29 -2.64,1.12 -9.48,4.78 -12.92,6.26 -6.17,2.64 -15.79,7.78 -21.82,10.37l-6.48 3c-0.81,0.45 -1.3,0.76 -2.1,1.12l-4.47 2.06c-1.39,0.58 -3.17,1.61 -4.34,2.01l0.05 -0.05zm-62.11 -51.16c-1.12,-0.81 -2.06,-1.65 -3.13,-2.55l-8.85 -7.38c-0.89,-0.85 -2.15,-1.7 -3.13,-2.59l-11.85 -9.79c-4.47,-3.44 -3.58,-3.04 -3.58,-7.15 0,-1.83 -0.04,-3.67 0,-5.46l25.4 20.84c3.58,2.68 10.06,8.41 14.13,11.58l15.61 12.83c0.67,0.58 0.72,0.58 1.34,1.07l25.44 20.84c0.67,0.58 0.85,0.67 1.48,1.21 0.63,0.49 0.76,0.58 1.39,1.07 0.63,0.49 0.94,0.76 1.48,1.21 5.05,4.38 3.8,0.85 3.89,14.13l-15.11 -12.39c-0.36,-0.31 -0.31,-0.31 -0.67,-0.67 -2.86,-2.59 -8.9,-7.11 -11.27,-9.35 -1.03,-0.98 -1.79,-1.65 -2.91,-2.5l-11.89 -10.02c-0.63,-0.54 -0.81,-0.76 -1.43,-1.25l-16.32 -13.68 0 0zm148.55 -55.99c1.57,0.49 4.96,2.68 6.57,3.44l38.72 20.84c1.65,0.85 4.87,2.86 6.44,3.22l-1.52 0.72c-5.23,2.06 -14.67,6.93 -20.39,9.35 -4.92,2.1 -11.54,5.59 -16.37,7.69 -1.74,0.76 -3.85,1.57 -5.5,2.37l-27.14 12.88c-4.25,2.06 -15.02,0.67 -20.52,0.98 -0.4,0 -0.63,0.04 -1.03,0.18 -0.67,0.22 -0.18,-0.09 -0.58,0.36 1.3,0.67 15.83,0.4 18.47,0.22 -0.81,0.72 -3.13,1.34 -4.2,1.83l-36.35 17.22c-2.68,1.16 -5.37,2.64 -8.14,3.8l-16.1 7.47c-0.67,-0.4 -1.79,-1.43 -2.37,-1.92 -2.46,-2.15 -14.67,-12.21 -15.83,-12.7 0.04,-0.04 0.18,-0.09 0.18,-0.09 0.04,-0.04 0.13,-0.09 0.18,-0.09l0.63 -0.45c-1.12,0.22 -0.4,0.18 -0.85,-0.13 -0.98,0.22 -1.57,-0.49 -2.24,-1.12l-27.19 -22.31c-0.49,-0.4 -0.54,-0.45 -1.03,-0.89 -4.29,-3.85 -11.67,-9.26 -16.05,-13.19 -3.8,-3.4 -9.12,-7.33 -13.15,-10.69l-2.91 -2.46c-1.79,-1.43 -1.65,-0.85 -1.43,-1.7 -0.85,0.27 -0.98,0.49 -1.34,-0.49 -0.81,-1.03 -3.85,-3.22 -5.01,-4.16l-1.34 -1.39c5.54,-1.52 17.08,-5.63 23.16,-7.69 6.04,-2.01 17.62,-6.13 23.16,-7.69 3.89,-1.12 7.83,-2.46 11.58,-3.85 3.85,-1.39 7.87,-2.55 11.72,-3.76 3.8,-1.21 7.56,-2.59 11.49,-3.89l34.48 -11.54c3.85,-1.25 7.69,-2.64 11.54,-3.89 2.19,-0.72 3.35,-1.74 5.37,-0.54l7.65 4.02c1.03,0.49 1.25,0.89 2.37,1.39l4.96 2.64c3.31,2.06 8.63,4.56 12.65,6.84l17.31 9.21 -0.05 -0.04zm-77.94 106.16c0.76,1.48 -0.13,29.87 0.36,32.69 0.13,0.85 0.72,1.3 1.34,0.63 0.36,-0.36 0.09,-8.05 0.09,-8.72 -0.04,-2.95 -0.04,-5.95 -0.04,-8.94l0.04 -16.41c0.18,-1.16 0.04,-0.54 0.27,-0.45 1.74,-0.4 5.37,-2.41 7.29,-3.26l9.08 -4.25c0.72,-0.31 0.94,-0.58 1.7,-0.94l38.9 -18.56c5.5,-3.04 12.07,-5.95 17.75,-8.76 2.28,-1.12 4.43,-2.5 6.84,-3.44 1.48,-0.58 2.06,-1.07 3.44,-1.7 1.34,-0.63 2.5,-1.03 3.76,-1.7 5.81,-3 12.07,-5.63 17.84,-8.45 0.81,-0.4 6.13,-3.26 6.66,-3.04 0.89,-0.04 0.49,4.38 0.49,5.14 -0.22,8.72 -0.04,20.79 0,29.78l0 8.94c0.04,1.48 -0.09,1.74 1.3,1.88 1.34,-2.06 -0.67,-44.63 0.72,-47.89l1.03 0c1.39,-0.22 10.2,-4.65 12.34,-5.59 1.43,-0.63 1.57,-1.12 1.65,-2.91 0.45,-15.92 0.49,-13.15 -5.28,-16.81l-37.88 -20.3c-5.95,-3.13 -14.71,-7.51 -20.39,-10.73 -1.7,-0.98 -4.02,-2.33 -5.77,-3.13l-11.72 -6.17c-5.19,-2.91 -12.61,-6.57 -17.39,-9.39 -3.26,-1.88 -3.13,-1.12 -6.71,0l-53.57 17.89c-13.1,4.47 -27.19,8.67 -40.07,13.24 -4.56,1.61 -9.03,2.95 -13.46,4.43l-20.03 6.75c-3.26,1.07 -4.07,1.03 -4.16,5.05 -0.22,11.85 -0.85,10.2 3.98,14.13l7.38 6.13c0.58,0.49 0.58,0.58 1.12,1.03l7.24 5.99c4.87,3.89 13.01,11.18 16.95,14.17 0.49,0.4 0.76,0.54 1.25,0.94 4.34,3.93 8.99,7.33 13.37,11.22 0.45,0.4 0.63,0.54 1.16,0.98l9.79 8.09c0.49,0.49 0,0.09 0.67,0.67l28.57 23.7c3.04,2.41 2.28,2.28 6.13,0.58 1.39,-0.63 4.65,-2.46 5.99,-2.64l-0.05 0.14z"/>
    <path class="fil1" d="M101.73 125.34c0.94,-0.04 17.31,-6.08 19.45,-6.98 5.81,-2.37 13.5,-4.83 19.54,-7.29 1.03,-0.4 1.39,-0.18 2.28,0.36 0.76,0.49 1.21,0.76 2.01,1.21l21.02 12.3c1.48,0.89 2.86,1.7 4.25,2.5 1.3,0.81 2.86,1.52 4.11,2.37 -3.09,1.34 -6.44,2.59 -9.61,4.16l-19.36 8.27c-8.99,3.58 -12.39,6.31 -20.35,0.63 -5.28,-3.76 -10.42,-8.05 -15.61,-11.76 -1.3,-0.94 -2.55,-1.97 -3.89,-2.86l-3.85 -2.91zm41.72 -42.26c3.44,0.72 5.46,2.24 8.05,3.58l14.58 8.18c2.33,1.43 4.83,2.64 7.24,4.11l25.31 14.44c1.07,0.54 2.82,1.39 3.13,2.5 0.58,1.92 -0.98,2.73 -2.28,3.31l-11.98 5.1c-2.73,1.12 -5.28,2.28 -7.96,3.44 -2.19,0.94 -1.52,1.21 -3.67,-0.04 -10.33,-5.95 -22.36,-13.37 -32.46,-18.74l-0.04 -25.89 0.09 -0zm-2.41 25.31c-1.83,0.31 -13.91,5.1 -17.13,6.17 -5.63,1.92 -11.36,4.2 -16.81,6.17 -1.39,0.49 -2.68,1.07 -4.25,1.65 -2.86,1.03 -2.77,1.61 -3.76,1.03l-16.5 -12.21c-2.59,-1.97 -5.59,-3.53 -5.19,-6.17 0.27,-1.7 1.61,-2.06 3,-2.59 2.73,-1.07 5.81,-1.97 8.54,-2.86l43.02 -14.62c2.91,-1.03 5.77,-2.15 9.17,-2.15l0 25.53 -0.09 0.04zm19.99 -19.23c-0.76,0 -0.98,-0.31 -1.43,-0.58 -0.54,-0.36 -0.58,-0.22 -1.03,-0.81l-0.22 -0.09c-0.94,-1.16 -6.22,-3.67 -7.91,-4.56 -11.22,-5.86 -15.16,-1.79 -28.4,2.5l-18.42 6.22c-1.48,0.54 -3.4,1.12 -4.7,1.52 -3.22,0.98 -21.24,7.11 -22.54,8.05 -1.65,1.21 -2.73,5.72 0.36,8.63l43.6 32.73c4.92,3.58 8.05,6.8 15.47,5.63 3.22,-0.49 13.95,-5.19 17.62,-6.75 11.58,-4.96 22.98,-9.66 34.39,-14.58 2.82,-1.21 5.9,-2.37 8.76,-3.71 2.73,-1.3 6.48,-2.06 7.65,-4.61 1.74,-3.89 -1.48,-6.17 -4.11,-7.69l-19.54 -11c-3.44,-1.92 -17.71,-10.24 -19.54,-10.96l-0 0.04z"/>
    <path class="fil1" d="M128.6 129.45l5.05 3.53c-1.61,0.63 -5.46,2.37 -6.98,2.46 -0.63,-0.49 -0.72,-0.45 -1.3,-0.85l-3.53 -2.68 6.71 -2.46 0.05 0zm-9.39 0.94c-0.31,1.39 -0.58,2.06 0.36,3.09 0.54,0.63 5.19,4.2 6.39,4.52 1.65,0.45 9.93,-2.77 10.6,-3.76 1.43,-2.1 -1.97,-4.07 -4.2,-5.46 -3.76,-2.33 -2.95,-2.5 -7.96,-0.49 -1.57,0.63 -3.85,1.39 -5.14,2.1l-0.05 0z"/>
    <path class="fil1" d="M30.09 106.51c0.31,0.98 0.45,0.76 1.34,0.49 2.73,0.4 6.08,-1.12 11.58,0.76 6.98,2.33 5.95,7.6 15.02,10.15 3.26,0.89 7.24,1.07 10.37,2.1 8.27,2.73 5.59,9.12 12.39,12.79 3.22,1.74 5.59,2.15 9.57,3.13 4.29,1.03 4.7,1.88 7.11,3.98 0.72,0.63 -0.09,0.18 0.85,0.58 -0.89,-4.92 -12.52,-5.68 -17.57,-8.54 -6.35,-3.53 -3.13,-9.84 -13.1,-12.88 -7.47,-2.28 -11.72,-0.13 -18.24,-7.74 -7.24,-8.45 -17.71,-3.93 -19.32,-4.83l0 0z"/>
    <path class="fil1" d="M99.18 84.11c1.61,-1.43 4.74,-1.83 6.62,-0.36 -0.36,1.25 -1.65,1.43 -3.17,1.57 -1.65,0.13 -2.73,-0.18 -3.44,-1.21zm1.88 -3.4c-2.19,0.54 -5.77,1.83 -3.98,4.61 1.03,1.61 4.52,2.46 7.2,2.06 7.33,-1.12 3.89,-8.36 -3.17,-6.66l-0.04 0z"/>
    <path class="fil1" d="M158.34 87.64l0.22 0.09c0.4,0.58 0.45,0.45 1.03,0.81 0.45,0.31 0.67,0.58 1.43,0.58l-1.07 -0.67c8.63,-2.82 8.45,-6.84 19.05,-4.43 4.43,1.03 6.75,0.22 10.64,-0.67 3.93,-0.89 8.09,0.04 11.98,-0.54l-0.45 -0.67c-4.2,0.27 -8.27,-0.45 -12.25,0.72 -13.19,3.71 -9.61,-5.1 -26.25,3.58 -3.4,1.74 -2.64,1.7 -4.29,1.16l-0.04 0.04z"/>
    <path class="fil1" d="M95.43 159.37c0.45,0.31 -0.27,0.36 0.85,0.13 1.43,0.04 3.93,-0.81 5.28,-1.21 8.14,-2.33 8.94,-0.63 15.34,1.16 4.65,1.3 7.24,0.45 11.72,0.76 4.65,0.31 7.74,2.64 9.75,2.68 -1.03,-1.52 -6.93,-3.13 -9.75,-3.35 -4.65,-0.4 -7.42,0.67 -12.07,-0.85 -3.67,-1.21 -6.31,-2.64 -10.96,-1.97 -2.5,0.36 -8.14,1.79 -10.2,2.64l0.05 0z"/>
    <path class="fil1" d="M212.4 103.34c3.26,-1.21 5.41,-3.62 9.88,-2.82 2.5,0.49 8.23,1.03 10.46,-1.03 -0.85,-0.45 -3.71,0.81 -5.37,0.89 -2.5,0.09 -3.76,-0.31 -5.95,-0.67 -3.31,-0.49 -8.59,2.1 -9.03,3.62z"/>
   </g>
  </g>
 </g>
</svg>
