<?xml version="1.0" encoding="UTF-8"?>
<!DOCTYPE svg PUBLIC "-//W3C//DTD SVG 1.1//EN" "http://www.w3.org/Graphics/SVG/1.1/DTD/svg11.dtd">
<!-- Creator: CorelDRAW -->
<svg xmlns="http://www.w3.org/2000/svg" xml:space="preserve" width="25.6872mm" height="25.6874mm" version="1.1" style="shape-rendering:geometricPrecision; text-rendering:geometricPrecision; image-rendering:optimizeQuality; fill-rule:evenodd; clip-rule:evenodd"
viewBox="0 0 197.46 197.46"
 xmlns:xlink="http://www.w3.org/1999/xlink"
 xmlns:xodm="http://www.corel.com/coreldraw/odm/2003">
 <defs>
  <style type="text/css">
   <![CDATA[
    .fil0 {fill:#383231}
   ]]>
  </style>
 </defs>
 <g id="Слой_x0020_1">
  <metadata id="CorelCorpID_0Corel-Layer"/>
  <path class="fil0" d="M111.47 8.75l-2.67 -0.27c0.74,2.05 3.56,1.82 6.16,1.9 5.11,0.15 2.67,-0.58 5.11,-2.71l3.21 0.93 -1.28 1.43 1.43 0c1.74,-0.58 1.32,-1.08 3.45,-0.43 2.01,0.66 7.28,2.44 8.94,3.52l0.5 0.39c-2.09,0.46 -0.93,-0.23 -3.25,-0.5 0.89,2.48 3.95,2.32 3.99,4.37 -1.51,1.47 -1.67,-0.54 -4.26,0.08 -1.74,0.43 -1.9,1.59 -4.03,0.7 0.23,-1.7 0.89,-1.7 1.82,-2.9l-0.62 -0.39c-1.59,1.74 -4.37,2.21 -6.54,2.44l-0.85 0.23c-0.46,0.7 0.08,0.39 -1.01,1.05 -0.23,0.12 -0.74,0.31 -1.08,0.43 -0.85,0.27 -1.74,0.43 -2.44,0.66l-5.65 2.83 -1.12 0.74c-0.7,0.7 -1.08,1.2 -1.74,2.21 0.5,1.51 0.7,0.81 0.89,1.7 0,0.08 0.04,0.19 0.04,0.23 0.43,3.48 -0.74,1.05 3.14,2.17l5.23 2.94c1.51,0.31 3.14,0.04 4.3,0.7 -0.04,1.9 0.31,0.93 -0.7,1.7 -0.19,0.31 -0.97,2.71 -1.01,3.06 -0.12,1.28 0.93,1.86 2.09,2.32 1.24,-1.43 1.63,-0.62 2.4,-2.32 0.7,-1.51 0.27,-2.4 1.28,-3.72 1.08,-0.46 2.28,-0.23 3.68,-0.62 1.16,-0.31 1.9,-0.85 2.9,-1.2 0.81,-1.01 1.97,-1.97 2.25,-3.95 0.43,-2.71 -0.89,-3.02 0.81,-4.65l0.43 -0.5c0.43,-1.36 0.43,-0.97 1.24,-2.05 0.46,-0.62 0.7,-0.97 1.16,-1.55 1.94,-0.31 1.78,0.12 3.41,0.39l3.72 -0.04 0.43 1.08c0.62,0.19 1.01,0.43 1.43,0.74l1.01 1.32c-0.85,2.79 -0.93,4.3 3.14,3.56 0.31,-0.31 2.36,-1.78 2.71,-1.97 3.99,2.09 2.75,2.71 3.48,7.51 3.91,2.17 2.83,0.58 3.29,2.21 3.29,2.59 1.82,3.17 1.05,4.61 -0.27,0.5 -0.19,0.43 -0.35,0.77l-0.5 1.05c-0.46,0.7 -0.7,0.74 -0.81,1.94 1.24,0.97 1.78,0.54 3.1,1.2 0.04,3.6 0.19,6.12 -1.97,4.3 -3.29,-1.43 -5.96,-0.54 -7.86,-1.63 0.66,-0.93 0.5,-0.62 1.2,-1.08 0.31,-1.01 -0.08,-0.39 0.81,-1.36 0.35,-0.39 0.97,-0.89 1.39,-1.32 0.81,-0.77 2.01,-1.32 2.17,-2.71l-0.7 -0.08c-2.13,0.35 -2.56,1.32 -4.3,1.86 -1.59,0.54 -3.91,0.15 -6.04,0.5 0.19,0.93 0.74,0.89 1.08,1.86 -3.45,-0.12 -0.93,-0.89 -3.1,-2.01 -2.52,-0.15 -4.14,-0.31 -4.88,1.59 1.7,0.43 2.36,-0.19 3.83,0.77 -0.31,1.01 -0.15,0.7 -0.77,1.24 -0.66,1.05 -1.67,1.59 -1.08,3.25 0.54,1.63 1.55,1.16 2.56,1.01 1.97,0.89 1.63,0.04 2.87,-0.77 2.05,-1.36 2.75,1.32 -1.78,2.63 -1.32,0.39 -2.09,0.7 -3.45,0.62 -0.89,0.89 -0.54,0.35 -2.25,1.36 -0.85,0.5 -1.39,0.93 -2.4,0.93l-0.23 -0.62c0,-0.46 -0.08,-0.43 0.12,-0.81 0.31,-0.66 0.46,0 1.05,-1.59l-1.2 0c-0.08,0.08 -0.19,0.04 -0.27,0.19 -0.04,0.12 -0.19,0.15 -0.27,0.19 -3.41,2.09 -6.35,1.51 -8.87,4.41l-0.39 0.5 0.27 1.43c-1.01,0.66 0,0.35 -1.39,0.23 -0.39,0.35 -0.08,0.15 -0.77,0.46 -0.23,0.12 -0.66,0.23 -0.85,0.35 -0.97,0.39 -1.16,0.5 -2.17,0.85 -1.08,0.54 -1.01,0.04 -2.13,1.01l-3.68 3.68c-1.47,1.55 -1.55,0.15 -2.71,1.47 0.19,0.58 0.31,1.63 0.27,2.32 -0.12,1.9 -0.19,1.51 -1.2,1.78 -0.58,1.08 -1.24,1.32 -2.52,1.82 -1.08,0.97 -1.9,0.93 -3.29,1.67 -1.05,0.54 -1.97,1.36 -2.98,2.05 -2.83,1.97 -3.29,1.82 -4.34,5.92 0.46,0.54 0.15,-0.15 0.46,0.77 0.15,0.5 0.12,0.5 0.19,1.05 0.08,0.7 0.12,1.63 0.19,2.36l0.19 2.01c-2.01,-0.19 -3.33,-0.89 -4.68,-1.67 0.27,-3.29 0.97,-2.56 -0.77,-4.96 -1.86,-0.04 -1.9,0.62 -3.41,-0.08 -1.97,-0.93 -5.15,-1.39 -6.97,0.15 -0.89,0.74 -1.32,1.51 -3.06,1.32 -2.56,-0.31 -3.91,-2.09 -7.2,-0.39 -1.51,0.77 -4.18,2.36 -5.54,3.37l-0.66 0.46c0.08,2.79 -1.05,4.84 -2.17,6.7 -0.19,1.08 -0.31,2.59 -0.89,3.33 1.08,3.95 1.67,8.6 6.93,7.7 2.4,-0.39 4.07,-0.39 5.27,-2.05 1.32,-1.86 1.16,-3.64 3.68,-3.45l0.58 -0.31c0.35,-0.12 0.23,-0.43 2.59,-0.23 0.54,1.78 0.08,4.45 -1.39,5.65 -0.27,1.51 -1.59,3.33 -1.82,5.23 4.18,0.66 7.4,-1.12 9.37,1.9 0.15,1.78 -0.89,4.07 -1.16,6.16 -0.27,1.78 0.15,2.44 0.74,3.87 0.89,0.35 1.59,1.32 2.75,1.97l2.17 -0.15c2.83,-1.67 4.1,-1.2 6.16,0.89 2.05,-0.27 0.77,-0.39 2.13,-0.77l0.97 -1.59c0.85,-2.4 1.97,-3.17 4.84,-2.87 0.89,-1.01 2.32,-2.09 3.79,-2.13l-0.5 2.28c1.55,-0.04 0.85,0.15 1.94,-0.43l1.2 -1.05c2.21,0.46 2.28,1.36 3.68,2.13 1.05,0.58 2.52,0.12 4.53,0.89 2.63,1.01 1.63,-0.85 4.18,-0.89 2.94,-0.04 1.59,2.32 4.07,0.7l0.27 1.32 0.46 0.7c0.77,1.9 0.62,1.08 2.48,2.13 1.12,0.62 1.39,1.2 2.32,2.28 2.63,3.06 2.59,2.05 7.01,2.32 2.56,0.39 4.03,1.63 5.58,2.87 1.36,1.08 1.01,0.89 1.47,2.4 0.5,1.7 0.85,1.82 1.43,3.17 1.32,1.01 -0.39,1.12 1.16,2.71 0.43,0.43 2.01,1.55 2.36,1.86 2.01,0.08 2.94,0.27 4.57,0.81 6.78,2.28 -1.63,1.43 5.03,2.67 1.43,0.27 0.5,-0.31 1.47,0.58 1.51,-0.19 5.27,0.23 6.39,0.85l1.39 0.97c-1.28,2.71 -3.1,4.76 -4.96,7.36 -1.43,1.97 -4.1,5.61 -6.04,6.81 -0.43,1.2 -2.9,3.68 -4.1,4.1 -0.7,1.28 -0.93,1.28 -2.25,2.13 -0.12,0.97 0.43,0.08 -0.58,0.93 0,0 -0.66,0.46 -0.7,0.5 -0.77,0.43 0.08,0.08 -0.81,0.31 -0.54,1.28 -1.16,1.51 -2.32,2.36 -0.85,0.62 -1.97,1.51 -2.87,2.17 -1.78,1.28 -4.22,3.25 -6.08,3.91 -1.01,0.81 -1.01,1.08 -2.52,1.24 -0.46,0.58 -0.04,0.19 -0.62,0.7 -0.27,0.23 -0.35,0.27 -0.66,0.46 -1.01,0.66 -1.01,0.54 -2.13,0.89 -0.5,0.58 -0.19,0.23 -1.01,0.66 -0.5,0.27 -1.05,0.46 -1.55,0.74 -1.55,0.81 -1.7,1.2 -3.41,1.16 -1.01,1.47 -8.9,3.95 -11.42,4.37l-3.52 1.01c-0.27,-2.59 -0.7,-5.73 -0.19,-8.29l-0.5 -0.74c-0.46,-5.92 -4.53,-5.96 -8.25,-8.44 -0.85,-0.23 -1.78,-0.77 -2.52,-1.28 -0.58,-0.39 -0.5,-0.31 -1.08,-0.85 -0.77,-0.77 -0.54,-0.5 -1.01,-1.39 -0.43,-0.93 -0.77,-1.82 -0.85,-2.79 -0.93,-0.58 -0.58,-0.27 -1.28,-1.2 -0.46,-0.62 -0.74,-0.97 -1.05,-1.67 -0.81,-1.82 -2.9,-5.27 -4.07,-7.09 -1.36,-2.17 -1.74,-1.67 -2.83,-2.94 -0.46,-0.54 -1.59,-2.94 -1.01,-3.64 0.77,-1.74 0.97,-1.05 1.82,-2.71 -0.31,-0.85 -0.23,-0.62 -0.74,-1.43 -1.55,-2.21 0.66,-5.23 2.21,-6.81 1.08,-1.12 1.28,-1.74 2.52,-2.9 1.32,-1.24 1.39,-1.51 1.55,-3.48l-0.04 -2.4c0,-2.52 -0.04,-1.74 -1.01,-3.56 -0.81,-1.59 -0.39,-1.7 -1.7,-2.87 -1.32,0.12 -1.55,0.58 -2.28,1.16 -0.19,1.43 -0.04,1.08 -0.81,2.01 -1.55,-0.19 -2.21,-0.93 -2.94,-1.9 -1.43,0.23 -1.78,0.23 -2.71,-0.7 -0.35,-0.35 -0.5,-0.54 -0.74,-0.89 -0.7,-0.89 -0.35,-0.23 -0.54,-0.93 -0.46,-0.12 -0.77,-0.15 -1.16,-0.35 -0.85,-0.5 -0.12,0.04 -0.7,-0.62 -1.51,0.08 -0.39,-1.12 -1.43,-2.67 -0.62,-0.89 -1.2,-1.32 -1.7,-2.52 -1.05,-0.58 -0.74,-0.19 -1.47,-1.32 -2.52,0.27 -6.81,-1.12 -7.94,-2.48 -0.58,-0.23 -0.35,0.27 -0.66,-0.77 -1.43,-1.08 -2.05,-2.09 -4.68,-2.52 -1.28,1.51 -3.91,1.59 -5.19,-0.04 -2.48,-0.12 -10.34,-4.34 -12.89,-6.66 0,-2.56 1.28,-2.63 0.43,-5.11 -0.58,-1.74 -1.7,-2.44 -2.25,-3.83 -0.62,-0.43 -1.47,-1.16 -2.05,-1.86 -1.2,-1.47 -0.54,-1.24 -1.16,-2.75 -0.81,-1.86 -2.59,-2.87 -3.37,-5.03 -0.97,-2.44 1.32,-4.88 -2.83,-4.45 -0.04,0.12 -0.08,0.15 -0.12,0.35 -0.04,0.15 -0.08,0.23 -0.12,0.31 -0.66,1.08 -0.04,0.19 -0.58,0.77 0.54,1.32 1.28,2.48 1.63,3.45l2.52 7.51c0.62,2.36 1.28,1.43 1.36,3.6 -1.2,-0.19 -2.83,-1.86 -3.83,-2.59l0.04 -3.17 -0.93 -0.62 -1.9 -1.16 -0.46 -0.81c0.58,-1.24 0.62,-0.74 1.2,-2.01 -0.74,-1.67 -2.32,-2.67 -1.7,-5.23 -0.15,-0.27 -0.27,-0.27 -0.43,-0.93 -0.12,-0.5 -0.04,-0.66 -0.08,-1.16 -0.04,-2.28 -0.89,-2.75 -1.97,-3.76 -2.75,-0.81 -2.52,-0.97 -2.98,-3.95l0 -7.7c0.74,-1.9 1.39,-1.82 2.17,-3.56 2.01,-4.61 1.32,-1.94 4.84,-6.43 0.89,-1.12 1.36,-2.52 2.28,-3.14 0.19,-0.54 0.23,-0.81 0.43,-1.36 0.04,-0.12 0.19,-0.5 0.27,-0.62 0.46,-0.93 0.15,-0.39 0.5,-0.81 -0.46,-0.93 -1.74,-2.52 -1.86,-2.87 -0.58,-1.97 1.01,-0.58 1.36,-3.25 0.15,-1.39 -0.08,-1.47 -0.12,-2.71 -0.04,-0.97 -0.23,-0.39 0.12,-1.43 0.23,-0.74 0.35,-0.7 0.62,-0.93l0.15 -1.55 -2.67 0.12c-0.54,-0.74 -0.31,0.15 -0.31,-1.08 0,-0.31 0.12,-0.46 0.15,-0.97 0.19,-1.51 -0.35,-1.7 0.7,-2.21 -0.08,-1.59 -0.46,-1.86 -1.24,-3.17 0.12,-0.12 0.15,-0.27 0.5,-0.58 1.12,-1.01 0.93,-0.62 1.47,-0.74 0.66,-1.28 0.85,-1.08 2.17,-1.7 0.31,-0.7 2.13,-1.82 2.87,-2.21 0.81,-0.43 0.27,-0.19 1.16,-0.35 0.77,-1.39 3.6,-2.59 5.07,-3.48 1.16,-0.7 4.14,-2.28 5.42,-2.59 1.24,-0.89 4.37,-1.97 6.2,-2.71 2.21,-0.89 4.18,-1.28 6.23,-2.17l5.85 -1.55c2.28,-0.35 2.87,-0.97 4.76,-0.5 1.43,0.35 2.36,0.19 4.14,0.62 0.54,-0.5 0,-0.39 1.32,-0.5 3.02,0.08 4.53,2.01 7.16,1.12l1.39 -2.83c2.87,-1.16 8.98,0.12 12.47,0.15 0.66,0.08 1.36,0.15 2.01,0.27 0.35,0.08 0.7,0.12 1.05,0.23 0.93,0.27 0.46,0.08 0.97,0.39 1.12,-0.19 1.12,-0.12 2.36,0.08l2.01 0.58 -2.56 1.2c-1.12,0.54 -2.01,0.43 -3.14,0.23l-0.12 -0.15zm-45.15 -3.45c-1.43,0.85 -4.34,1.7 -6.12,2.48 -2.21,0.97 -4.03,1.97 -6.2,2.79l-1.36 0.85c-0.58,0.31 -0.7,0.35 -1.24,0.7l-7.7 4.65c-1.2,0.81 -0.5,0.66 -1.78,0.81 -0.7,1.32 -2.32,2.28 -3.64,3.02 -1.05,0.93 -2.44,2.4 -3.79,2.71 -0.54,1.36 -2.05,2.4 -3.17,2.87 -0.39,0.89 -0.5,0.77 -1.32,1.59 -0.81,0.81 -0.66,1.05 -1.51,1.16 -0.89,1.32 -1.59,2.32 -2.9,3.02 -0.27,0.93 0.04,0.27 -0.62,1.2 -0.31,0.43 -0.46,0.58 -0.89,1.05 -0.5,0.54 -1.08,1.24 -1.67,1.78 -0.39,0.74 0,0.15 -0.58,0.93 0,0 -0.46,0.54 -0.54,0.62 -0.89,1.08 -0.19,0.66 -1.47,1.36 -0.15,0.81 0.04,0.27 -0.39,1.05 -0.27,0.46 -0.5,0.7 -0.81,1.05l-6.12 9.76c-0.66,1.01 -0.43,0.74 -1.16,1.28 -0.08,1.16 -2.01,4.8 -2.59,6.16 -0.58,1.32 -2.21,5.34 -2.63,5.89 -0.27,1.12 -0.46,1.78 -0.85,2.94 -0.08,0.27 -0.27,0.89 -0.39,1.12 -0.66,1.47 0,0.46 -0.81,1.24 0.12,1.32 -2.13,9.64 -2.56,12.04 -0.08,0.39 -0.23,1.7 -0.31,1.97 -0.31,1.39 0.31,-0.81 -0.15,0.66 -0.31,0.93 -0.04,0.35 -0.39,0.85l-0.43 7.74 -0.23 5.73 0.19 5.81 0.19 2.36c0.04,2.75 0.93,5.77 0.58,8.21 1.05,1.01 1.01,3.79 1.36,5.34l3.41 12.47 0.35 0.54c0.08,0.12 0.35,0.7 0.43,0.81l1.78 4.41 0.27 0.93 1.28 2.52c0.77,1.43 0.81,1.36 1.24,2.87l6.54 10.45c0.35,0.74 0.08,0.04 0.27,0.81 1.24,0.74 1.08,0.85 1.7,2.25 0.7,0.31 0,-0.27 0.85,0.74 0.43,0.54 0.62,0.85 1.01,1.36 0.81,1.01 1.39,1.51 2.01,2.56 1.2,1.08 1.28,0.89 1.97,2.32 0.58,0.43 0.66,0.5 1.2,1.08 0.08,0.08 0.5,0.62 0.5,0.62 0.39,0.58 0.12,0.12 0.35,0.74 1.32,0.7 3.06,2.52 3.64,3.52 0.66,0.23 0.08,-0.12 0.7,0.31 0.04,0.04 0.58,0.46 0.62,0.54 0.81,0.7 0.89,0.5 1.05,1.28 1.74,0.93 1.78,1.43 3.48,2.32 0.19,0.58 -0.39,-0.08 0.66,0.81 0.43,0.39 0.74,0.58 1.12,0.85 0.77,0.58 1.63,1.05 2.09,1.86l1.67 0.93c1.82,0.93 4.07,2.59 5.92,3.76 1.59,0.97 4.68,2.4 5.92,3.41 2.01,0.7 3.72,1.63 5.89,2.52 0.97,0.39 1.67,0.7 2.75,1.12l2.25 0.89c0.62,0.39 0.31,0.15 0.74,0.58l14.17 3.41c4.34,0.89 15.8,1.7 16.15,1.82l8.9 0c1.59,-0.7 9.91,-1.36 12.54,-1.86 2.32,-0.46 10.3,-2.71 11.5,-2.63l6.2 -2.44 1.12 -0.27c0.35,-0.31 0.19,-0.27 0.74,-0.62 0.31,-0.19 0.66,-0.39 1.01,-0.54 0.89,-0.39 1.67,-0.62 2.52,-0.89 1.39,-1.01 4.26,-2.21 5.77,-3.14 1.78,-1.08 4.3,-2.75 6.16,-3.52l1.67 -1.39c1.05,-0.74 1.08,-0.77 2.25,-1.16 0.27,-0.5 -0.08,-0.27 0.74,-0.85 1.12,-0.77 0.5,-0.35 1.28,-0.54l10.49 -9.64c1.7,-1.63 3.02,-3.21 4.76,-5.27 1.01,-1.2 3.72,-5.03 4.88,-5.65 0.19,-0.81 0,-0.23 0.39,-1.05 0.08,-0.15 0.62,-1.01 0.74,-1.16 0.62,-0.93 1.05,-1.55 1.63,-2.25 0.46,-1.2 0.77,-1.74 1.82,-2.4 0.15,-1.32 -0.15,-0.12 0.46,-1.43 1.59,-3.33 2.75,-4.45 5.07,-9.95l2.75 -6.23c0.35,-2.87 2.4,-7.43 3.1,-11.03l1.47 -6.47 0.85 -8.56 0.19 -2.36 0.19 -5.81 -0.23 -5.73c-0.23,-1.47 -0.66,-6.39 -0.43,-7.78 -0.08,-0.08 -0.12,-0.31 -0.15,-0.27l-0.43 -1.24c-0.08,-0.35 -0.23,-1.59 -0.27,-1.97 -0.39,-2.01 -1.36,-4.45 -1.08,-6.47 -0.08,-0.08 -0.15,-0.35 -0.19,-0.27l-0.81 -2.05c-0.23,-0.93 -0.46,-1.82 -0.62,-2.79 -0.74,-1.97 -1.36,-3.99 -2.13,-6 -0.58,-1.55 -2.4,-4.84 -2.36,-6.35l-1.51 -2.52c-1.32,-2.9 -3.72,-6.27 -4.41,-8.29 -0.39,-0.27 -0.19,0.04 -0.74,-0.77 -0.81,-1.2 -0.46,-0.43 -0.62,-1.59 -1.05,-0.66 -0.66,-0.39 -1.39,-1.43 -0.5,-0.7 -0.7,-1.05 -1.16,-1.9 -1.55,-1.51 -3.25,-4.18 -4.84,-6 -7.47,-8.63 -8.56,-8.75 -16.46,-15.57 -1.28,-0.58 -1.01,-0.27 -1.63,-1.47 -1.05,-0.23 -1.08,-0.27 -2.09,-0.97 -0.66,-0.5 -0.93,-0.74 -1.16,-1.12 -2.09,-0.81 -4.22,-2.28 -6.2,-3.41 -1.43,-0.81 -4.72,-2.01 -5.61,-3.33 -0.97,-0.04 -10.22,-3.72 -12.12,-4.49 -3.95,-0.74 -7.86,-2.17 -12.08,-2.9 -2.52,-0.43 -11.42,-1.05 -12.78,-1.67l-9.25 0c-1.36,0.5 -12.08,1.28 -14.98,1.86 -2.36,0.5 -4.76,0.97 -6.89,1.59 -2.17,0.66 -4.41,1.36 -6.54,1.86l0.04 0z"/>
 </g>
</svg>
