<?xml version="1.0" encoding="UTF-8"?>
<!DOCTYPE svg PUBLIC "-//W3C//DTD SVG 1.1//EN" "http://www.w3.org/Graphics/SVG/1.1/DTD/svg11.dtd">
<!-- Creator: CorelDRAW -->
<svg xmlns="http://www.w3.org/2000/svg" xml:space="preserve" width="25.6543mm" height="25.675mm" version="1.1" style="shape-rendering:geometricPrecision; text-rendering:geometricPrecision; image-rendering:optimizeQuality; fill-rule:evenodd; clip-rule:evenodd"
viewBox="0 0 286.39 286.62"
 xmlns:xlink="http://www.w3.org/1999/xlink"
 xmlns:xodm="http://www.corel.com/coreldraw/odm/2003">
 <defs>
  <style type="text/css">
   <![CDATA[
    .fil0 {fill:#383231}
   ]]>
  </style>
 </defs>
 <g id="Слой_x0020_1">
  <metadata id="CorelCorpID_0Corel-Layer"/>
  <g id="_2452324855184">
   <path class="fil0" d="M83.91 191.32c-2.76,2.76 -2.19,2.19 -3.99,4.95 -0.73,1.12 -0.34,1.29 -0.62,2.76 -1.12,0.56 -2.59,1.86 -3.88,-0.06 -1.12,-1.57 -0.84,-1.86 0.11,-3.82 0.39,-0.84 1.57,-2.36 2.19,-3.21 0.73,-1.01 1.69,-2.36 2.64,-2.76 0.51,-0.84 1.12,-1.52 2.53,-1.46 1.18,1.69 2.59,1.24 1.8,2.87 -0.06,0.06 -0.22,0.28 -0.28,0.39 -0.34,0.34 0.06,0 -0.45,0.34l-0.06 0zm75.01 -142.2c0.34,-0.96 0.79,-1.41 1.74,-1.8 0.67,-0.73 1.97,-0.84 2.47,-1.07 0.22,-0.06 0.34,-0.22 0.67,-0.34 2.81,-0.84 6.92,3.09 8.04,5.73l0.56 1.35c0,0.06 0.06,0.11 0.06,0.17 0,0.06 0.06,0.11 0.06,0.17 1.63,5.12 1.63,8.43 -0.39,13.72 -0.22,1.97 -3.49,6.02 -3.99,2.19l-1.07 -0.11c-0.28,-1.46 -0.17,-1.35 0.28,-2.36 0.34,-0.84 -0.06,-1.41 0.84,-1.97 0.22,-2.31 0.67,-0.84 0.73,-3.99 0.11,-4.67 -0.56,-4.1 -1.18,-6.3 -0.28,-0.96 -0.28,-0.73 -0.73,-1.69 -2.7,-6.13 -2.81,-0.11 -8.21,0.11l-0.79 -0.11c-0.62,-0.62 0.73,-3.26 0.79,-3.71l0.11 0zm-49.48 6.58c-1.18,-0.06 -1.35,-0.06 -2.47,-1.12l-1.41 -1.86c-0.34,-0.56 -0.51,-0.73 -0.45,-1.57 3.49,-0.73 2.08,0.51 7.93,0.73 1.74,0.28 4.61,-1.29 6.13,-1.86 1.91,-0.73 8.15,-5 9.84,-6.07 1.97,-1.18 3.49,-1.91 6.13,-1.69 0.67,1.01 2.08,4.27 2.53,5.12 3.65,6.13 5.79,6.24 10.18,12.59 0.96,0.67 1.18,1.24 1.07,2.31 -0.96,0 -2.47,0.39 -3.15,-0.45 -0.62,-0.39 -2.08,-0.73 -4.1,-2.47 -1.12,-0.9 -2.53,-2.14 -3.54,-3.37 -1.12,-1.35 -2.19,-2.36 -3.09,-3.77 -0.51,-0.73 -0.9,-1.29 -1.35,-2.08 -0.45,-0.79 -0.67,-1.69 -1.12,-2.42 -1.63,-0.11 -8.04,4.78 -9.39,5.4 -0.06,0 -0.11,0.06 -0.17,0.06l-0.73 0.34c-0.67,0.34 -0.73,0.39 -1.41,0.73 -2.08,1.07 -2.81,0.9 -4.67,1.24 -0.79,0.17 -0.62,0.39 -1.52,0.51 -0.56,0.06 -1.35,0 -1.91,0 -3.09,0 -1.86,-0.17 -3.32,-0.39l-0 0.11zm-18.89 -2.92c0.62,0.34 0.39,0.06 1.07,0.96 1.74,2.36 1.74,1.46 2.53,2.64 1.52,1.86 5.79,2.31 7.87,2.7 1.07,0.22 2.25,0.06 3.43,0.17 0.67,1.35 1.07,2.31 1.35,3.82 0.17,1.07 0.28,0.67 0.51,1.41 0.51,1.91 0.45,4.33 1.01,6.18 0.73,2.31 0.84,2.64 2.59,4.5 0.45,0.51 1.41,1.12 1.91,1.57 1.52,1.18 2.87,-0.06 3.37,1.12 0.11,0.79 0.06,1.63 0.11,2.42 0.11,1.74 0.51,0.79 0.62,2.14 0.17,1.69 -0.06,3.82 -0.17,5.23 -0.22,2.42 0.67,7.98 0.73,10.4 0.06,1.91 0.45,2.92 1.18,4.27 0.17,0.28 0.34,0.62 0.45,0.79 1.46,2.14 3.54,1.46 5.28,0.51 0.06,0 0.11,-0.06 0.17,-0.06l1.29 -0.84c0.9,-0.56 2.7,-2.25 3.77,-1.86 0.45,0.17 0.11,0.34 1.18,1.63 3.77,4.55 5.06,6.75 9.84,11.36 0.51,0.51 2.81,2.19 3.49,2.53 1.12,0.51 3.37,1.29 4.5,1.41 1.52,0.17 1.29,0.51 2.53,0.56 1.07,0.06 1.57,-0.28 2.42,-0.62 0.9,-0.34 0.39,-0.17 1.01,-0.51 8.32,-4.67 12.43,-16.08 14.96,-8.72 0.73,2.19 2.59,3.54 3.71,5.28 1.07,1.69 5.4,8.04 6.92,8.21 1.8,-0.22 4.16,-3.15 5.62,-4.1l0.9 -0.96c1.52,-1.41 3.15,-2.87 4.27,-4.33 0.51,-0.62 1.18,-1.41 1.86,-1.8 1.69,-2.25 2.14,-3.32 3.43,-5.23 1.12,-1.69 1.91,-3.37 2.87,-5.17 0.17,-0.34 0.17,-0.34 0.28,-0.56 0.45,-0.79 0.67,-1.35 0.96,-2.02l2.47 -6.41c0.22,-0.79 0.39,-1.8 0.62,-2.47 0.28,-0.73 0.17,-0.06 0.39,-1.18 0.17,-0.84 0,-0.45 0.28,-1.12 0.79,-1.8 -0.17,-2.81 1.35,-4.5 0.96,-1.01 3.04,-1.52 4.16,-0.45 0.62,1.24 -1.41,8.43 -2.08,10.4 -2.64,7.65 -6.24,15.35 -11.19,21.7l-2.59 2.98c0,0.06 -0.06,0.06 -0.11,0.11 0,0.06 -0.06,0.06 -0.11,0.11l-1.01 0.96c-2.53,2.36 -1.86,2.14 -4.95,4.5 -1.46,1.12 -3.54,3.6 -5.9,3.65 -4.27,0.17 -3.32,-0.28 -4.95,-1.29 -3.77,-2.42 -7.31,-7.08 -9.45,-11.13 -1.35,-2.64 -1.52,0.28 -5.51,3.6 -1.74,1.41 -2.64,2.59 -5,4.27 -0.45,0.34 -1.01,0.56 -1.46,0.79l-1.57 0.73c-0.56,0.22 -0.9,0.51 -1.63,0.62l-1.91 0.45c-3.09,0.51 -2.64,0.45 -4.67,4.72l-4.33 9.56c-0.28,0.62 -0.45,1.12 -0.73,1.63l-6.24 14.56c-0.17,0.62 -0.51,1.35 -0.79,1.97l-1.91 4.55c-0.45,0.84 0.06,0.34 -0.51,0.9l-5.23 12.14c-0.73,1.74 -3.04,6.3 -2.98,7.37 4.16,0.45 3.71,-0.06 7.65,1.35l1.41 0.51c1.18,0.39 1.8,0.79 2.64,1.24 3.04,1.63 5.96,4.39 8.1,7.08 0.9,1.07 3.54,4.55 3.49,6.07l0.67 1.69c0.39,1.91 0.06,2.42 -1.74,2.25 -0.67,-0.06 -0.79,-0.22 -1.35,-0.56 -1.07,-0.62 -1.57,-0.96 -2.02,-2.19 -0.73,-0.9 -2.47,-4.39 -4.67,-6.41 -1.52,-1.35 -2.59,-2.47 -4.61,-3.6 -1.35,-0.73 -3.15,-1.57 -4.78,-1.86 -1.12,-0.22 -1.24,-0.51 -2.59,-0.62 -1.29,-0.11 -1.63,-0.34 -2.64,-0.51 -0.96,-0.17 -1.97,-0.06 -2.98,-0.28 -2.98,-0.62 -3.32,-0.22 -5.68,-0.9l-5.68 -0.79c-0.73,-0.17 -1.46,-0.96 -2.36,-0.96l-3.94 -2.02c-0.79,-0.56 -0.96,-1.07 -2.02,-1.29l-1.01 -0.34c-0.67,-0.45 -0.11,-0.11 -0.51,-1.18 -0.62,-0.11 -0.96,-0.34 -1.57,-0.51 -0.67,-0.17 -1.63,-0.28 -2.25,-0.67l-0.22 -0.17c-0.06,-0.06 -0.17,-0.17 -0.22,-0.22 -0.17,-0.11 -0.51,-0.34 -0.67,-0.45 -0.06,0 -0.11,-0.06 -0.17,-0.06 -0.06,0 -0.11,-0.06 -0.17,-0.06 -0.28,-0.06 -0.34,-0.06 -0.56,-0.11l-2.87 -1.18c-0.56,-0.22 -2.25,-0.9 -2.36,-1.57 0.06,-1.18 -0.06,-0.28 0.17,-0.73 0.22,-0.45 -0.06,0.17 0.22,-0.39 0,-0.06 0.06,-0.11 0.06,-0.17l0.34 -0.9c0,-0.06 0.06,-0.11 0.11,-0.11l0.62 -1.57c0.28,-0.79 1.29,-2.19 1.35,-2.53l-0.11 -0.51c0.84,-0.17 0.73,-0.06 1.46,-2.36 0.22,-0.73 0.22,-1.18 0.67,-1.8l0.28 -0.34c0.56,-0.73 0.79,-1.74 0.79,-2.87 -0.34,0.39 -0.34,0.22 0.62,0.22 0,-1.29 0.39,-1.97 0.9,-3.09l0.22 -0.73c0,-0.06 0,-0.11 0.06,-0.17 0.11,-0.45 0.34,-0.56 0.28,-1.46l-0.17 -1.57c0,-0.06 0,-0.17 0,-0.17l-0.22 -0.34c0,0 -0.11,-0.06 -0.11,-0.06l-1.35 -1.12 -1.74 -0.17c-1.07,0.06 -1.69,0.39 -2.47,0.9 -0.73,0.51 -0.39,0.79 -1.57,1.29 0,1.69 -0.56,2.36 -1.12,3.49l-1.46 3.32c-0.45,1.12 -0.9,0.84 -1.18,2.08l-1.07 2.59c-0.34,0.9 -0.45,0.79 -0.45,2.02 -1.07,0.06 -0.84,0.67 -1.46,2.36 -0.45,1.24 -1.24,1.8 -1.52,3.04l-0.73 2.02c-0.34,0.67 -0.06,-0.34 -0.45,0.9 -0.22,0.73 0.06,0.56 -0.28,1.18l-0.56 0.73c-0.56,0.79 -0.17,-0.11 -0.56,1.07 -0.73,2.08 -1.8,2.31 -1.91,3.6 -0.34,0.28 -0.17,0.06 -0.73,0.11 -0.45,0.51 -5.4,11.75 -6.3,13.66l-3.54 7.65c-0.22,0.56 -0.45,1.07 -0.67,1.52l-8.66 19.45c-1.12,3.15 -1.63,5.06 -1.41,8.94 2.19,-0.06 2.59,-1.35 5.96,-2.36 3.37,-0.96 3.09,-1.97 5.12,-5.85l2.98 -6.75c0.45,-1.01 0.96,-2.53 1.41,-3.32l0.28 -0.56c0.45,-0.9 0.84,-1.74 1.46,-2.36 1.46,0.11 0.28,0.67 2.76,0.62 1.63,-0.06 1.74,-0.39 3.09,-0.56 0.67,-0.11 0.9,-0.06 1.46,-0.28 0.73,-0.22 0.51,-0.28 1.46,-0.39 0.84,-0.11 2.19,-0.45 2.98,-0.73l5.34 -1.69c1.18,-0.22 0.56,-0.11 1.35,-0.45 0.06,0 3.88,-1.18 4.61,-0.51 0.62,0.56 0.17,1.74 -0.28,2.47 -0.56,0.96 -3.37,2.25 -4.1,2.47 -0.56,0.17 -0.9,0.11 -1.46,0.28 -0.62,0.17 -0.56,0.34 -1.24,0.45l-8.27 1.86c-1.12,0.06 -1.97,0.28 -2.76,0.73 -0.11,1.46 0.34,2.59 1.18,3.32 2.64,2.19 6.47,1.57 9.39,0.73 1.74,-0.51 3.71,-0.96 5.28,-1.57 3.82,-1.63 4.61,-1.86 6.41,-5.17 1.01,-1.86 -0.39,-2.08 1.46,-1.69 0.56,0.11 0.73,0.11 1.41,0.11 6.69,0.06 4.55,0.17 9.95,1.91l2.14 0.9c3.26,1.41 7.03,2.42 10.06,3.49 0.51,0.17 -0.28,0 0.51,0.17l2.98 1.24c0.06,0 0.11,0.06 0.17,0.06l5.45 2.87c0.51,0.28 1.8,0.79 2.14,1.01 1.29,0.56 2.31,1.29 3.49,0.62 1.01,-0.56 -0.17,-0.34 0.96,-0.67 2.02,-0.56 0.73,0.73 3.94,-2.59 1.8,-1.86 9.56,-9.05 12.48,-9.67 0.79,-0.17 0.51,0 1.12,-0.39 0.96,-0.56 0.79,-1.07 1.74,-3.04 0.28,-0.62 0.56,-1.8 0.79,-2.53 0.22,-0.67 0.62,-1.52 0.96,-2.19l3.32 -9.5c0.17,-0.56 0.22,-0.39 0.45,-1.07 0.62,-1.97 1.57,-3.65 0.45,-6.18 -0.62,-1.41 -1.63,-3.26 -2.02,-4.5l-0.79 -2.31c-0.73,-2.92 -1.29,-2.31 -1.91,-7.7 -0.45,-4.05 -0.45,-8.27 0.22,-12.2 1.07,-0.79 1.46,-0.34 2.19,-0.79 0.67,-0.45 0.45,-1.12 1.57,-1.18 0.06,1.46 0.28,2.36 0.28,3.99 0,1.8 -0.11,4.84 0.22,6.52 0.62,2.92 0.22,1.29 0.39,3.94 0.11,1.29 0.22,0.84 0.45,1.91 0.17,0.79 0.11,1.12 0.34,1.86 0.84,2.53 2.87,7.42 4.16,9.73l0.45 1.07c0.67,0.28 0.11,-0.22 0.9,0.62 0.11,-0.17 0.56,-0.51 0.22,-0.62 0.11,1.52 0.9,1.35 1.07,2.87 0.17,1.18 0.45,1.18 0.9,1.97l0.96 2.31c0,0.06 0.06,0.11 0.11,0.17 0.51,0.79 0.62,1.69 1.12,2.53 0.45,0.67 0.51,0.51 0.51,1.46 1.01,-0.28 0.9,-0.28 0.62,-0.45 0,1.8 0.45,1.97 0.56,2.31l1.57 5.28 1.07 0c0,0.84 -0.11,1.07 0.28,1.63 0.62,0.96 0.22,0.11 0.96,0.79 0.45,0.39 0.51,0.56 1.12,0.67 0.56,0.11 0.39,0.06 0.56,0 0,0 0.06,0 0.11,0l0.22 -0.11c-1.29,0.34 -1.07,0.9 -1.07,3.04l0.39 -0.34c0.34,-0.34 1.01,-1.01 0.45,-1.18 0.34,0.79 0.62,0.67 1.52,0.67 0,-0.06 0,-0.17 0,-0.17 0,0.06 0,-0.11 0,-0.17 0,0 0,-0.11 0,-0.11 -0.06,-0.39 -0.39,-0.62 -0.22,-0.84 0.28,0.62 0.11,0.28 0.73,0.45 0.67,0.22 0.62,0.34 0.96,-0.06 -0.56,0.39 -0.39,-0.39 -0.34,0.9 0,0.51 0,0.79 0.34,0.39 -0.67,0 -1.91,-0.11 -2.47,0.11 -0.84,0.34 -0.34,0 -0.96,0.73 0.79,0.28 1.29,0.22 2.14,0.51 0.06,0 0.11,0.06 0.17,0.06 0.06,0 0.11,0.06 0.17,0.06l2.02 0.22c-0.11,-1.29 -0.84,-0.79 0.17,-1.74 1.24,-1.12 -0.28,1.18 0.45,-0.45 0.11,0.62 0.17,0.62 0.62,0.9l0 0.22c-1.46,0.28 -0.79,0.06 -1.07,1.07 1.01,0.28 0.45,0.17 1.12,-0.06 0,0 0.39,-0.22 0.39,-0.22l1.07 -0.51c0.06,-0.06 0.22,-0.17 0.22,-0.22 0.51,-0.45 0.34,-0.11 0.56,-0.73 0,0.28 -0.56,0.56 -0.84,1.52 1.97,0 4.22,0.11 6.18,0l3.94 -0.62c0.28,-0.06 0.51,-0.06 0.79,-0.06 0.06,0 0.11,0 0.17,-0.06l2.19 -0.22c0.96,-0.28 1.12,-0.79 2.31,-0.79l1.29 -0.06c0.84,-0.17 0.84,-0.34 1.91,-0.34 1.63,-0.06 0.84,-0.06 1.63,-0.45l3.26 -0.62c0.22,-0.39 0.96,-0.17 0.22,-0.84l2.59 0c0.62,-0.67 0.06,-0.51 0.73,-0.67l1.91 -0.22c0.51,-0.17 -0.28,-0.06 0.62,-0.17 0.45,-0.06 1.01,0.06 1.46,0 1.12,-0.17 0.22,-0.06 0.96,-0.45 0.45,-0.22 1.18,-0.22 2.31,-0.67 1.12,-0.45 1.97,-0.22 3.77,-1.24 1.24,-0.67 -0.79,0 0.51,-0.28 0.39,-0.06 0.96,0 1.41,-0.06 1.18,-0.17 2.53,-0.96 3.43,-1.07 0.39,-0.06 1.24,0 1.69,0 0,-1.18 0.11,-2.59 -0.17,-3.43 -0.39,-1.46 -0.06,-1.74 -0.28,-3.15 -0.28,-1.63 -0.51,-0.06 -0.84,-4.16 -0.11,-1.01 0.34,-0.79 -0.45,-1.29 0,-0.67 0.06,-1.52 0,-2.19 -0.06,-1.8 -0.67,-1.29 -0.67,-1.29 0,-2.64 -0.28,-4.05 -0.84,-6.41 -0.34,-1.52 0.06,-1.97 -0.22,-3.21 -0.28,-1.35 -0.84,-1.52 -0.84,-2.98 0,-1.41 -0.22,-2.02 -0.39,-3.37 -0.06,-0.62 0,-1.29 0,-1.91l-1.29 -6.52c-0.11,-1.24 0.34,-0.79 -0.62,-1.29 0,-1.18 0.39,-2.87 -0.34,-3.82l-0.28 -0.11c0,-0.9 0.11,-2.47 -0.06,-3.26l-0.51 -2.53c-0.17,-0.96 -0.22,-1.52 -0.39,-2.64 -0.11,-0.96 0,-2.08 -0.51,-2.87 -0.34,-0.56 -0.28,0.39 -0.28,-1.07 0,-0.51 0,-1.07 0,-1.52 0,-1.07 0,-2.19 0,-3.26 0,-0.79 -0.11,-2.36 0,-3.04 0.11,-0.84 0.22,-0.34 0.45,-0.96 0.45,-1.29 0.06,-0.22 0,-1.24 0.96,-0.62 0.84,-0.56 1.29,-0.45 0.34,-0.45 0.9,-0.56 1.46,-0.62 0.67,-0.06 1.69,0 2.36,0 0.11,1.24 0.39,0.56 0.28,1.8 -0.56,2.59 0.51,5.96 0.56,8.38 0.06,1.57 0.17,2.7 0.34,4.16 0.28,2.25 0.56,6.41 1.01,8.32 0.67,2.81 1.8,11.58 1.97,12.2 0.22,0.84 0.17,1.12 0.22,2.02 0.06,0.9 0.28,1.07 0.45,1.8l0.84 6.02c0.17,0.73 0.39,0.96 0.45,1.97 0.17,2.59 0.9,5.62 1.18,8.1 0.11,0.79 0,1.57 0.11,2.31 0.17,0.96 0.34,0.73 0.45,1.97 0.34,4.16 0.39,2.19 0.56,3.94 0.22,1.63 0,2.87 0.34,4.44 1.24,0.17 1.07,-0.17 2.02,-0.28 0.79,-0.11 1.91,-0.06 2.76,-0.06 1.97,0 3.04,-0.51 4.89,-0.51 2.02,0 3.04,0.39 4.89,0.51 2.25,0.11 1.91,1.07 3.49,1.91 0.11,2.87 -0.62,2.92 -2.64,2.87 -1.63,-0.06 -1.35,-0.28 -1.97,-0.39 -2.19,-0.45 -9,-0.06 -11.13,0.62l-4.95 1.07c-0.9,0.22 -0.06,0.11 -0.84,0.39l-5.79 1.46c-0.56,0.11 -1.12,0.39 -1.8,0.51l-2.87 0.79c-1.69,0.51 -2.98,0.62 -4.78,1.24l-3.77 1.07c-1.12,0.22 -2.7,0.67 -3.77,1.01 -1.24,0.39 -2.98,0.51 -4.16,0.84 -3.15,0.96 -4.39,1.29 -7.87,1.74 -0.67,0.11 -1.07,0.39 -1.8,0.51 -0.79,0.11 -1.52,0.06 -2.25,0.11 -1.57,0.17 -2.19,0.56 -4.27,0.56 -2.47,0 -9.56,0.39 -11.53,-0.34 -0.45,-0.17 -3.43,-0.45 -6.07,-1.24 -0.84,-0.28 -1.35,-0.11 -2.14,-0.28 -0.45,-0.11 -1.07,-0.45 -1.86,-0.51 -3.6,-0.39 -1.46,-0.56 -4.27,-0.67 -6.02,-0.22 -10.96,-0.62 -15.97,3.37 -1.41,1.12 -1.46,1.52 -3.82,3.32 -5.79,4.39 -6.02,6.18 -8.43,8.77 -0.39,0.39 -0.73,0.73 -1.07,1.29 -0.39,0.56 -0.62,1.07 -1.18,1.52 -0.39,0.9 -1.18,1.69 -2.25,4.33 -0.45,1.12 -1.41,4.27 -1.91,4.84 -0.06,0.62 -1.12,2.47 -0.11,4.44 2.7,5.23 8.66,-1.07 9.84,-3.94 0.28,-0.67 0.11,-0.28 0.45,-0.84 2.36,-4.27 0.84,-1.41 3.32,-4.89 0.84,-1.18 1.69,-1.91 2.42,-2.98l2.47 -2.98c0.28,-0.73 1.18,-1.52 1.52,-1.86 0.34,-0.34 4.27,-2.81 4.33,-0.34 0,0.34 -0.06,0.62 -0.11,0.96l-0.39 1.29c-0.28,0.39 -0.11,0.17 -0.39,0.45 -0.56,1.57 -3.54,3.82 -5.45,6.41 -0.62,0.84 -1.24,1.46 -1.86,2.25 -2.02,2.59 -7.08,8.38 -4.44,10.96 1.29,1.29 5.17,0.79 7.37,-1.07 1.35,-1.12 6.02,-6.8 9.45,-9.5l4.1 -3.04c0.39,-0.28 1.12,-0.73 1.35,-0.84 0.9,-1.12 1.97,-1.07 3.04,-0.45 0.11,1.41 -0.22,1.91 -0.79,2.76 -0.45,0.62 -1.24,1.46 -2.08,1.8 -1.01,0.84 -1.86,1.69 -2.92,2.47 -1.74,1.29 -4.61,3.94 -5.57,6.07 -0.73,1.63 -0.11,3.77 0.84,4.39 1.24,0.84 2.98,-0.28 4.16,-0.79 0.79,-0.34 0.39,-0.17 0.84,-0.39l2.7 -1.01c3.99,-2.19 3.26,-3.6 9.33,-2.36 0.9,0.17 10.4,0.22 11.19,0.06 0.84,-0.22 0.06,-0.11 0.96,-0.34 0.51,-0.11 0.79,-0.11 1.29,-0.22l8.83 -2.7c4.33,-1.91 14.06,-1.57 18.05,-0.62 -0.28,1.01 -0.11,0.62 -1.07,0.96 -0.9,0.28 -0.56,0.39 -1.57,0.56 -1.12,0.22 -0.62,0 -1.52,0.39l-4.84 1.41c-1.29,0.22 -4.67,1.52 -6.47,1.8 -1.29,0.22 -2.02,0.45 -3.26,0.79l-16.03 4.5c-1.12,0.34 -2.42,0.51 -3.6,0.79l-3.04 1.01c-2.02,0.67 -3.82,0.9 -6.41,1.74l-9.67 2.64c-0.45,0.06 -2.87,0.67 -3.32,0.84 -0.62,0.22 -2.25,0.45 -3.99,1.18 -1.35,0.56 -2.59,0.73 -4.05,1.07 -0.79,0.17 -0.51,0.39 -1.52,0.56l-9.95 2.59c-7.14,2.42 -8.49,1.01 -15.63,-2.02 -1.12,-0.45 -1.8,-0.9 -2.81,-1.24 -0.96,-0.34 -2.31,-0.73 -2.76,-1.24 -0.84,-0.17 -1.52,-0.51 -2.19,-0.84 -0.96,-0.45 -1.29,-0.28 -2.02,-1.07 -0.84,0.06 -0.39,-0.06 -1.86,-0.62l-5.9 -2.53c-2.92,-1.07 -5.23,-2.19 -7.93,-3.49l-16.92 -7.31c-0.45,-0.17 -0.79,-0.39 -1.29,-0.62l-48.58 -20.97c-0.67,-0.28 -0.73,-0.34 -0.96,-0.96 2.36,-0.9 10.06,-2.36 11.24,-2.87 0.67,-0.28 0.22,-0.11 1.07,-0.39 1.01,-0.28 0.39,-0.17 1.07,-0.45 0.73,-0.28 1.74,-0.11 2.59,-0.17 1.07,-0.06 1.63,-0.39 2.59,-0.51 1.91,-0.28 1.29,-0.96 2.53,-1.74 0.22,-0.17 0.17,-0.06 0.39,-0.22 2.14,-1.18 3.49,-0.17 5.12,-1.52 0.56,-0.45 1.97,-3.77 2.42,-4.72l14.11 -31.32c0.39,-0.84 1.74,-3.43 1.41,-4.05 0.06,-0.34 0.17,-1.57 0.22,-1.8 0,-0.06 0,-0.11 0.06,-0.11 0,-0.06 0.06,-0.11 0.06,-0.11 0,-0.06 0.06,-0.11 0.06,-0.11l1.35 -3.26c0,-0.06 0,-0.11 0,-0.17l-0.06 -0.84c-0.96,-0.39 -2.02,-0.17 -2.98,-0.73 -1.41,-0.79 -6.63,-0.45 -8.04,0 -0.62,0.22 0,0 -0.62,0.22 -0.06,0 -0.28,0.06 -0.34,0.11 -0.9,0.34 -0.96,0.73 -2.08,0.79l-0.73 1.46c-1.12,1.29 -1.24,2.47 -1.52,3.99 -0.06,0.34 -0.06,0.51 -0.06,0.9 -0.06,1.29 -0.11,2.42 -0.56,3.65 0,0.06 -0.17,0.34 -0.17,0.51 -0.17,0.56 -0.06,0.34 -0.11,0.84l-0.28 1.35c0,0.06 -0.11,0.22 -0.11,0.28 -0.17,0.22 0.06,0.11 -0.39,0.28 -1.97,0.79 -0.79,0.67 -2.25,1.24l-0.62 0.28c-0.62,0.34 -0.67,0.67 -0.79,1.29 -0.06,0.17 -0.11,0.51 -0.11,0.51 -0.11,0.51 -0.17,0.51 -0.22,0.79l-0.45 2.7c-0.22,1.52 -0.22,-0.06 -0.62,1.52 -0.11,0.39 -0.06,1.52 -0.06,1.97l0.11 1.29c0,0.06 0.06,0.11 0.06,0.17 0.28,0.62 0,-0.11 0.22,0.39 0.39,0.73 0.11,1.01 0.34,1.8 0.45,1.29 0.45,0 0.51,1.52 0.06,2.14 0.28,4.67 -0.45,6.63 0,0.06 -0.11,0.28 -0.11,0.34 -1.01,3.04 -1.52,1.24 -3.43,2.42 -0.9,0.56 -1.52,0.39 -2.64,0.39 -0.28,0.39 -1.41,0.39 -1.86,0.62 -0.22,0.11 -0.56,0.34 -0.67,0.39 -0.06,0 -3.09,0.28 -3.21,0.28l-0.22 0.62c0,0 0,0.06 0,0.06 -2.31,0 -2.64,0.84 -5.73,0.84l-0.17 0.28c-0.62,0.9 0.45,-0.34 -0.22,0.34 -0.39,0.39 -0.96,0.22 -1.52,0.45 -1.18,0.51 0.22,0.17 -0.67,0.51 -0.9,0.06 -1.01,-0.11 -1.86,0.17 -1.35,0.39 -2.42,0.28 -3.6,0.67l-1.74 0.39c-1.29,0.34 -0.34,0.45 -1.52,0.51l-1.86 0.39c-0.96,0.28 -2.08,-0.34 -2.81,0.56l-0.06 0.34c0,0 0,0.06 0.06,0.06 -1.01,0 -1.52,-0.22 -1.91,0.45 -3.15,0 -1.57,0.06 -2.92,0.62l-1.52 0.06c-0.45,1.12 -0.84,0.67 -2.59,0.67 -0.11,0.56 -0.11,-0.17 -0.11,0.56 0.06,0.9 0,0.11 0.11,0.11 -0.9,0 -1.18,0.11 -1.8,0.51l-2.87 1.63c-0.96,0.67 -0.56,0.34 -1.01,1.52 -0.62,1.74 -1.41,0.06 -1.35,3.26 0,2.19 0.45,2.7 0.45,4.55 2.47,0.96 0.06,0.56 3.54,2.36 0.06,0 0.11,0.06 0.17,0.06l2.36 0.73c0.06,0 0.45,0.06 0.56,0 0.06,0 0.11,0 0.22,-0.06l0.45 -0.11c-0.51,0.39 -0.17,0.62 0,1.07 0.62,0.11 2.25,0.45 2.87,0.96 0.06,0.06 0.17,0.17 0.22,0.22l0.34 0.17c0.62,0.28 0.45,0.06 0.9,0.17 1.63,0.45 -0.9,-0.62 0.51,0.28 0.06,0 0.11,0.06 0.11,0.11l6.52 2.42c-0.06,0 -0.11,-0.84 -0.11,0.11 0,0.67 -0.06,0 0.11,0.56 0.45,0.11 0.9,0.22 1.24,0.34l4.72 2.19c1.57,0.67 1.97,1.18 4.05,1.18l0.45 1.07 1.74 0.06c0,0 0,0.06 0,0.06 0,0 0,0.06 0,0.11 0,0 0.06,0.11 0.06,0.11 0.84,0.96 2.31,-0.22 2.7,0.62 0,0.06 -0.17,-0.73 0.06,0.28l0.39 0.51c0.06,0 0.45,0.17 0.51,0.17 1.01,0.39 1.46,1.01 2.76,1.52 0.96,0.39 1.86,0.56 2.76,1.07l2.42 0.84c0.79,0.34 0.73,0.73 1.52,1.07l2.7 0.62c0.62,0 0.56,0.17 0.73,0.79 1.69,0 1.69,-0.11 2.7,0.73 0.96,0.79 1.35,0.34 1.8,0.96l0.17 0.28c0.17,0 0.51,0 0.67,0 0.56,-0.11 0.51,-0.17 0.62,-0.22 -0.9,0.84 0.67,0.9 1.35,1.12 0.06,0 0.28,0.06 0.34,0.11 0.9,0.28 1.69,1.01 2.64,1.41 0.56,0.22 0.22,0.06 0.73,0.22 1.01,0.28 1.01,0.56 1.86,0.9l3.82 1.52c0.06,0 0.06,0.06 0.11,0.11l9.33 4.22c1.57,0.84 1.69,0.28 3.6,1.69 0.67,0.51 0.06,0.22 0.96,0.45 1.07,0.22 2.98,0.62 3.94,1.52 0.06,0.06 0.34,0.22 0.39,0.84 0,0.45 -0.22,0 0.17,0.28 0.28,0.22 0.11,0.11 0.56,0.28 0.39,0.17 0.67,0.28 1.24,0.51 0.73,0.34 1.74,0.84 2.36,1.07l9.39 3.94c0.56,0.22 1.29,0.67 2.25,1.01l24.51 10.4c4.61,1.57 6.69,1.18 11.19,0.06 0.62,-0.17 1.07,-0.06 1.63,-0.17 0.96,-0.17 0.17,-0.11 1.01,-0.39 2.14,-0.73 5.96,-1.52 7.93,-2.14 0.62,-0.22 0.39,-0.28 1.18,-0.45 2.81,-0.56 3.09,-0.9 3.88,-1.12 0.62,-0.17 0.84,-0.06 1.52,-0.28l10.51 -2.92c0.79,-0.17 0.45,-0.22 1.12,-0.39 0.62,-0.17 0.9,-0.06 1.46,-0.28l5 -1.57c0.56,-0.17 0.9,-0.11 1.46,-0.28 0.51,-0.17 0.51,-0.34 1.24,-0.45l5.4 -1.35c1.74,-0.56 3.6,-0.79 5.23,-1.46l5.17 -1.46c1.52,-0.22 1.12,-0.45 2.53,-0.67l5.23 -1.46c1.24,-0.51 2.59,-0.67 3.88,-1.07 0.51,-0.17 0.56,-0.28 1.24,-0.45 1.12,-0.22 3.04,-0.51 3.99,-0.96l7.93 -2.19c0.56,-0.17 0.39,-0.28 1.24,-0.45l6.47 -1.74c4.72,-1.01 12.76,-2.59 12.82,-8.88 0,-1.07 0.17,-2.53 -0.17,-3.37l-1.07 -2.42c-0.51,-0.73 -1.18,-1.18 -1.18,-2.31 2.36,-0.22 5.12,0.11 7.48,-0.17 1.12,-0.11 1.97,-0.51 3.21,-0.51 1.18,0 2.7,0 3.82,-0.11 1.35,-0.11 1.52,-0.45 3.43,-0.45 1.8,0 1.97,0 3.37,-0.39 1.24,-0.34 2.31,-0.11 3.6,-0.28 1.29,-0.17 1.46,-0.56 3.26,-0.56 2.47,-0.06 5.28,-1.07 7.87,-1.29 1.18,-0.11 0.84,-0.28 1.57,-0.45 3.49,-0.79 2.36,-0.22 6.13,-1.63 1.07,-0.39 1.74,-0.73 2.76,-1.18 2.08,-0.96 2.87,-1.86 4.27,-3.49 1.46,-1.74 2.42,-4.5 2.64,-6.97 0.17,-1.97 0.56,-1.35 0.56,-5.23 0,-4.05 0.34,-15.8 -0.11,-19.34 -0.17,-1.52 -0.39,-1.57 -0.45,-3.49 -0.06,-4.67 -1.18,-9.67 -1.24,-14.34 0,-3.71 -0.67,-6.75 -1.07,-10.4 -0.11,-1.12 -0.06,-2.47 -0.22,-3.65l-0.96 -6.8c-0.17,-1.12 -0.06,-2.59 -0.22,-3.6 -0.28,-1.69 -0.51,-1.46 -0.51,-3.37 0,-0.62 0,-1.35 -0.06,-1.97 -0.11,-0.67 -0.28,-0.96 -0.39,-1.57 -0.28,-1.69 -0.51,-5.17 -0.84,-6.8 -0.28,-1.18 -0.34,-2.47 -0.56,-3.43 -0.22,-0.96 -0.28,-0.56 -0.45,-1.52 -0.22,-1.57 -0.45,-3.32 -1.01,-4.84 -0.39,-1.07 -0.62,-3.65 -0.84,-5.06l-2.31 -7.37c-1.29,-3.71 -2.64,-7.42 -4.39,-11.02l-2.59 -5.17c-2.36,-5 -6.24,-9.28 -10.35,-12.76l-9 -6.69c-0.62,-0.06 -0.9,-0.28 -1.52,-0.67 -0.67,-0.39 -0.79,-0.51 -1.52,-0.9 -1.07,-0.56 -1.91,-1.18 -3.04,-1.69l-10.18 -4.27c-1.18,-0.39 -3.94,-1.52 -5.4,-1.86 -0.9,-0.22 -0.84,-0.39 -1.97,-0.45 -1.52,-0.11 -0.73,0.06 -1.8,-0.45 -0.45,-0.22 -6.02,-1.18 -7.82,-1.8 -0.9,-0.34 -1.41,-0.11 -2.31,-0.34 -0.73,-0.17 -0.84,-0.39 -1.8,-0.51 -0.45,-0.06 -0.56,0 -0.96,-0.11 -0.96,-0.28 -0.28,-0.22 -0.84,-0.39l-4.27 -0.73c-0.84,-0.11 -1.01,-0.39 -1.8,-0.51l-9.56 -2.47c-0.67,-0.17 -2.76,-1.24 -3.15,-1.69 0.17,-1.07 1.86,-1.8 1.29,-5.9 -0.34,-2.31 -2.31,-2.64 -3.09,-4.1 -0.79,-1.57 -0.67,-4.39 -0.67,-6.52 -0.06,-4.67 -0.56,-2.42 -0.56,-6.75 -0.06,-5.23 -0.22,-3.09 -0.56,-6.58 -0.11,-1.12 -0.06,-2.31 -0.11,-3.43 -0.11,-1.35 -0.45,-1.46 -0.45,-3.26 0,-1.35 -0.39,-1.8 -0.56,-2.81l-1.41 -5.9c-1.8,-4.78 -2.98,-7.31 -6.35,-11.58 -1.57,-2.02 -3.88,-3.54 -6.13,-4.67l-8.21 -2.53c-3.6,-0.34 -1.52,-0.06 -4.95,-2.25l-4.78 -2.31c-3.6,-1.35 -4.67,-0.84 -6.13,-1.24 -2.19,-0.51 -4.22,-0.39 -6.41,0.06 -1.18,0.22 -2.02,0.06 -3.04,0.45l-7.98 2.76c-3.88,1.86 -5.62,3.43 -9,5.4 -4.61,2.7 -8.38,5.45 -12.09,9.45 -1.24,1.35 -2.14,2.64 -3.26,3.88 -1.35,1.46 -2.19,3.09 -3.77,5.12 -2.59,3.26 -0.96,2.81 -4.84,4.16 -0.79,0.28 -1.8,0.84 -2.47,1.18 -1.18,0.62 -3.04,2.08 -3.99,3.09 -1.24,1.35 -2.25,2.98 -2.59,4.72 -0.84,4.78 -0.73,3.77 0.06,8.04 0.22,1.07 1.57,3.32 1.57,3.71l0.23 0.44z"/>
   <path class="fil0" d="M84.19 268.35c-0.06,-0.62 -0.34,-0.79 -0.39,-0.84 -0.9,-0.9 -2.87,-1.29 -3.94,-1.52 -0.9,-0.22 -0.28,0.06 -0.96,-0.45 -1.91,-1.46 -2.02,-0.9 -3.6,-1.69l-9.33 -4.22c-0.06,0 -0.06,-0.06 -0.11,-0.11l-3.82 -1.52c-0.84,-0.28 -0.84,-0.62 -1.86,-0.9 -0.51,-0.11 -0.17,0 -0.73,-0.22 -0.9,-0.39 -1.74,-1.12 -2.64,-1.41 -0.06,0 -0.28,-0.06 -0.34,-0.11 -0.67,-0.22 -2.25,-0.28 -1.35,-1.12 -0.11,0.06 -0.06,0.11 -0.62,0.22 -0.17,0.06 -0.51,0 -0.67,0l-0.17 -0.28c-0.45,-0.62 -0.9,-0.11 -1.8,-0.96 -1.01,-0.84 -1.07,-0.73 -2.7,-0.73 -0.11,-0.62 -0.11,-0.84 -0.73,-0.79l-2.7 -0.62c-0.79,-0.34 -0.73,-0.73 -1.52,-1.07l-2.42 -0.84c-0.9,-0.51 -1.74,-0.67 -2.76,-1.07 -1.35,-0.51 -1.8,-1.12 -2.76,-1.52 -0.06,0 -0.45,-0.17 -0.51,-0.17l-0.39 -0.51c-0.22,-0.96 -0.06,-0.22 -0.06,-0.28 -0.39,-0.79 -1.86,0.34 -2.7,-0.62 0,0 -0.06,-0.11 -0.06,-0.11 0,0 0,-0.06 0,-0.11 0,0 0,-0.06 0,-0.06l-1.74 -0.06 -0.45 -1.07c-2.14,0 -2.47,-0.56 -4.05,-1.18l-4.72 -2.19c-0.34,-0.11 -0.79,-0.22 -1.24,-0.34 -0.17,-0.56 -0.06,0.11 -0.11,-0.56 -0.06,-0.96 0.06,-0.11 0.11,-0.11l-6.52 -2.42c-0.06,0 -0.11,-0.06 -0.11,-0.11 -1.41,-0.9 1.12,0.17 -0.51,-0.28 -0.51,-0.11 -0.34,0.06 -0.9,-0.17l-0.34 -0.17c-0.06,-0.06 -0.17,-0.17 -0.22,-0.22 -0.62,-0.51 -2.25,-0.84 -2.87,-0.96 -0.17,-0.45 -0.51,-0.67 0,-1.07l-0.45 0.11c-0.06,0 -0.11,0 -0.22,0.06 -0.17,0 -0.51,0 -0.56,0l-2.36 -0.73c-0.06,0 -0.11,-0.06 -0.17,-0.06 -3.49,-1.8 -1.07,-1.41 -3.54,-2.36 0,-1.91 -0.45,-2.42 -0.45,-4.55 0,-3.26 0.73,-1.52 1.35,-3.26 0.45,-1.18 0.06,-0.84 1.01,-1.52l2.87 -1.63c0.62,-0.45 0.9,-0.51 1.8,-0.51 -0.06,0.06 -0.06,0.79 -0.11,-0.11 -0.06,-0.67 -0.06,0 0.11,-0.56 1.74,0 2.08,0.51 2.59,-0.67l1.52 -0.06c1.35,-0.56 -0.22,-0.62 2.92,-0.62 0.39,-0.67 0.96,-0.45 1.91,-0.45 0,0 -0.06,-0.06 -0.06,-0.06l0.06 -0.34c0.73,-0.9 1.86,-0.28 2.81,-0.56l1.86 -0.39c1.24,-0.11 0.22,-0.17 1.52,-0.51l1.74 -0.39c1.24,-0.39 2.31,-0.22 3.6,-0.67 0.84,-0.28 0.96,-0.11 1.86,-0.17 0.84,-0.34 -0.51,0 0.67,-0.51 0.56,-0.22 1.07,0 1.52,-0.45 0.67,-0.62 -0.39,0.56 0.22,-0.34l0.17 -0.28c3.09,0 3.49,-0.84 5.73,-0.84 0,0 0,-0.06 0,-0.06l0.22 -0.62c0.11,0 3.21,-0.28 3.21,-0.28 0.11,-0.06 0.45,-0.28 0.67,-0.39 0.51,-0.22 1.57,-0.22 1.86,-0.62 1.12,0 1.74,0.11 2.64,-0.39 1.97,-1.18 2.47,0.62 3.43,-2.42 0,-0.06 0.11,-0.28 0.11,-0.34 0.73,-1.97 0.51,-4.5 0.45,-6.63 -0.06,-1.57 -0.06,-0.28 -0.51,-1.52 -0.28,-0.79 0,-1.07 -0.34,-1.8 -0.28,-0.51 0,0.22 -0.22,-0.39 0,-0.06 -0.06,-0.11 -0.06,-0.17l-0.11 -1.29c0,-0.45 0,-1.63 0.06,-1.97 0.39,-1.57 0.39,0 0.62,-1.52l0.45 -2.7c0.11,-0.28 0.11,-0.28 0.22,-0.79 0,0 0.06,-0.34 0.11,-0.51 0.17,-0.62 0.22,-1.01 0.79,-1.29l0.62 -0.28c1.41,-0.56 0.28,-0.45 2.25,-1.24 0.39,-0.17 0.22,-0.06 0.39,-0.28 0,0 0.11,-0.22 0.11,-0.28l0.28 -1.35c0.06,-0.51 0,-0.28 0.11,-0.84 0.06,-0.17 0.17,-0.45 0.17,-0.51 0.45,-1.24 0.51,-2.36 0.56,-3.65 0,-0.39 0,-0.51 0.06,-0.9 0.28,-1.52 0.39,-2.7 1.52,-3.99l0.73 -1.46c1.18,-0.06 1.24,-0.45 2.08,-0.79 0.06,0 0.28,-0.06 0.34,-0.11 0.62,-0.22 0,0 0.62,-0.22 1.41,-0.51 6.63,-0.79 8.04,0 0.96,0.56 2.02,0.34 2.98,0.73l0.06 0.84c0,0.06 0,0.11 0,0.17l-1.35 3.26c0,0.06 -0.06,0.11 -0.06,0.11 0,0.06 -0.06,0.11 -0.06,0.11 0,0.06 0,0.11 -0.06,0.11 -0.06,0.22 -0.17,1.46 -0.22,1.8 1.12,-0.51 0.22,0.22 0.79,-0.9l1.12 -2.53c0.51,-1.24 1.24,-2.36 1.07,-3.65 -0.62,-0.11 -1.24,-0.11 -1.8,-0.22 -0.45,-0.11 -0.73,-0.34 -1.24,-0.39 -2.31,-0.56 -6.52,-1.41 -9.05,-0.45l-1.46 0.45c-0.9,0.34 -2.08,0.96 -2.7,1.63 -0.56,0.62 -1.8,2.98 -2.02,3.82 -0.28,0.9 -0.22,0.9 -0.51,1.63 -0.84,2.08 0.51,5.57 -1.29,6.97 -1.29,1.01 -3.15,1.24 -4.27,3.71 -0.79,1.74 -0.34,1.57 -0.67,3.43 -0.62,3.21 -0.73,2.64 0,5.4 0.17,0.67 0.06,1.18 0.22,1.74 0.45,1.63 0.51,-0.22 0.51,3.6 0,3.6 0.62,6.13 -1.69,6.58l-3.04 0.79c-0.84,0.28 -0.62,0.22 -1.69,0.34 -1.12,0.11 -0.79,0.28 -1.57,0.51 -1.01,0.34 -0.17,-0.17 -2.36,0.56l-4.27 0.9c-0.73,0.17 -0.45,0.34 -1.41,0.45 -1.63,0.28 -2.7,0.9 -4.72,1.24l-1.52 0.45c-0.73,0.28 -1.07,0.11 -1.8,0.34 -2.08,0.62 -1.63,0.22 -3.26,0.84 -0.73,0.28 -0.96,0.17 -1.69,0.28l-6.13 1.69c-0.73,0.17 -1.07,0.11 -1.8,0.39 -2.98,0.96 -5.62,0.9 -8.94,3.15 -1.46,1.01 -3.15,2.36 -3.82,4.33 -1.63,4.55 0.28,8.55 4.61,10.29 4.1,1.63 7.42,3.26 11.3,4.84l5.57 2.36c0.39,0.17 1.01,0.39 1.41,0.56 0.34,0.11 0.45,0.17 0.79,0.28l9.05 3.99c0.73,0.28 0.67,0.28 1.35,0.56l14 6.18c5.79,2.47 15.29,6.47 21.03,9.28 0.73,0.34 0.28,0.22 1.29,0.62l4.27 1.8c1.29,0.62 7.7,3.43 8.88,3.6l0.06 0z"/>
   <path class="fil0" d="M169.65 185.76c0.28,0.9 0.73,1.69 1.07,2.42l4.44 10.01c1.12,2.7 5.51,13.66 6.86,14.34 1.18,0.62 6.24,0.73 8.6,0.22 0.9,-0.17 2.19,-0.06 3.15,-0.06 0.84,-0.06 4.72,-0.62 5.51,-0.84 1.8,-0.56 4.44,-0.84 6.52,-1.41 0.62,-0.17 0.96,-0.11 1.57,-0.22l2.42 -0.67c0.73,-0.22 2.19,-0.39 2.76,-0.56 0.56,-0.17 0.28,-0.28 1.07,-0.45 1.8,-0.39 -0.17,0.28 2.53,-0.62l3.94 -1.01c1.24,-0.51 2.87,-0.79 3.65,-1.01 1.24,-0.39 0.06,-0.22 1.18,-0.45l10.18 -2.81c0.56,-0.67 -0.17,-1.52 -0.34,-4.05l-1.01 -6.8c-0.17,-0.9 -0.11,-1.69 -0.17,-2.59 -0.06,-1.12 -0.28,-1.01 -0.51,-2.02 -0.17,-0.79 -0.11,-1.57 -0.22,-2.42l-1.01 -6.63c-0.06,-1.41 0.06,-1.07 -0.39,-2.14 -0.34,-0.9 -0.17,-1.29 -0.34,-2.36 -0.11,-0.96 -0.39,-1.24 -0.51,-2.08 -0.11,-0.79 0,-1.8 -0.17,-2.53 -0.17,-0.96 -0.39,-0.62 -0.51,-2.02 -0.06,-1.12 -0.06,-1.07 -0.34,-2.02 -0.34,-0.96 -0.11,-1.35 -0.28,-2.31 -0.11,-0.67 -0.39,-1.24 -0.51,-2.02l-2.42 -15.86c-0.06,-1.8 -0.17,-3.43 -0.11,-5.23 0.17,-3.37 -0.17,-4.95 3.04,-4.84 0.73,0.06 0.56,-0.06 1.01,0.28l0.73 0.73c0.11,-1.24 -0.17,-0.56 -0.28,-1.8 -0.67,0 -1.74,-0.06 -2.36,0 -0.56,0.06 -1.12,0.17 -1.46,0.62 -0.45,-0.11 -0.28,-0.22 -1.29,0.45 0.06,0.96 0.45,-0.06 0,1.24 -0.22,0.62 -0.34,0.17 -0.45,0.96 -0.11,0.67 0,2.25 0,3.04 0,1.07 0,2.19 0,3.26 0,0.51 -0.06,1.07 0,1.52 0.06,1.46 -0.06,0.45 0.28,1.07 0.45,0.84 0.34,1.97 0.51,2.87 0.17,1.12 0.22,1.69 0.39,2.64l0.51 2.53c0.17,0.79 0.06,2.42 0.06,3.26l0.28 0.11c0.73,0.96 0.34,2.64 0.34,3.82 0.96,0.51 0.51,0.06 0.62,1.29l1.29 6.52c0,0.62 -0.06,1.29 0,1.91 0.17,1.29 0.39,1.91 0.39,3.37 0,1.46 0.51,1.63 0.84,2.98 0.28,1.24 -0.11,1.69 0.22,3.21 0.56,2.36 0.84,3.77 0.84,6.41 0,-0.06 0.62,-0.51 0.67,1.29 0,0.67 0,1.52 0,2.19 0.79,0.45 0.34,0.22 0.45,1.29 0.34,4.1 0.56,2.47 0.84,4.16 0.22,1.41 -0.11,1.69 0.28,3.15 0.22,0.84 0.17,2.25 0.17,3.43 -0.45,0 -1.29,-0.06 -1.69,0 -0.9,0.11 -2.25,0.9 -3.43,1.07 -0.45,0.06 -1.07,-0.06 -1.41,0.06 -1.29,0.28 0.73,-0.45 -0.51,0.28 -1.74,1.01 -2.64,0.79 -3.77,1.24 -1.12,0.45 -1.86,0.39 -2.31,0.67 -0.67,0.39 0.17,0.22 -0.96,0.45 -0.45,0.06 -1.01,0 -1.46,0 -0.9,0.11 -0.11,0 -0.62,0.17l-1.91 0.22c-0.67,0.17 -0.11,0 -0.73,0.67l-2.59 0c0.73,0.67 0,0.51 -0.22,0.84l-3.26 0.62c-0.79,0.39 0,0.45 -1.63,0.45 -1.07,0 -1.07,0.17 -1.91,0.34l-1.29 0.06c-1.18,0 -1.35,0.51 -2.31,0.79l-2.19 0.22c-0.06,0 -0.11,0 -0.17,0.06 -0.28,0.06 -0.51,0.06 -0.79,0.06l-3.94 0.62c-1.97,0.11 -4.22,0 -6.18,0 0.28,-0.96 0.84,-1.24 0.84,-1.52 -0.22,0.62 -0.06,0.28 -0.56,0.73 -0.06,0.06 -0.17,0.17 -0.22,0.22l-1.07 0.51c-0.06,0 -0.39,0.22 -0.39,0.22 -0.67,0.28 -0.11,0.34 -1.12,0.06 0.28,-1.07 -0.39,-0.84 1.07,-1.07l0 -0.22c-0.45,-0.22 -0.51,-0.28 -0.62,-0.9 -0.73,1.57 0.79,-0.67 -0.45,0.45 -1.01,0.96 -0.34,0.45 -0.17,1.74l-2.02 -0.22c-0.06,0 -0.11,-0.06 -0.17,-0.06 -0.06,0 -0.11,-0.06 -0.17,-0.06 -0.84,-0.34 -1.35,-0.22 -2.14,-0.51 0.56,-0.73 0.06,-0.39 0.96,-0.73 0.56,-0.22 1.8,-0.11 2.47,-0.11 -0.34,0.39 -0.34,0.11 -0.34,-0.39 0,-1.29 -0.17,-0.51 0.34,-0.9 -0.34,0.39 -0.22,0.22 -0.96,0.06 -0.67,-0.22 -0.45,0.17 -0.73,-0.45 -0.17,0.28 0.17,0.51 0.22,0.84 0,0 0,0.11 0,0.11 0,0 0,0.17 0,0.17 0,-0.06 0,0.11 0,0.17 -0.84,0 -1.12,0.11 -1.52,-0.67 0.62,0.17 -0.11,0.9 -0.45,1.18l-0.39 0.34c0,-2.14 -0.22,-2.7 1.07,-3.04l-0.22 0.11c0,0 -0.06,0 -0.11,0 -0.17,0 0,0.11 -0.56,0 -0.56,-0.11 -0.67,-0.28 -1.12,-0.67 -0.73,-0.67 -0.34,0.11 -0.96,-0.79 -0.39,-0.62 -0.28,-0.79 -0.28,-1.63l-1.07 0 -1.57 -5.28c-0.11,-0.34 -0.56,-0.51 -0.56,-2.31 0.22,0.11 0.34,0.17 -0.62,0.45 0,-1.01 -0.11,-0.84 -0.51,-1.46 -0.51,-0.84 -0.67,-1.69 -1.12,-2.53 0,-0.06 -0.06,-0.11 -0.11,-0.17l-0.96 -2.31c-0.45,-0.84 -0.79,-0.84 -0.9,-1.97 -0.22,-1.52 -0.96,-1.35 -1.07,-2.87 0.34,0.11 -0.06,0.51 -0.22,0.62 -0.79,-0.84 -0.17,-0.34 -0.9,-0.62l0.1 -0.16z"/>
   <path class="fil0" d="M74.24 180.81c0.56,-0.06 0.34,0.22 0.73,-0.11 0.11,-1.29 1.18,-1.52 1.91,-3.6 0.39,-1.12 0,-0.28 0.56,-1.07l0.56 -0.73c0.34,-0.62 0.06,-0.45 0.28,-1.18 0.39,-1.18 0.11,-0.17 0.45,-0.9l0.73 -2.02c0.28,-1.24 1.07,-1.86 1.52,-3.04 0.62,-1.69 0.39,-2.25 1.46,-2.36 0,-1.24 0.11,-1.12 0.45,-2.02l1.07 -2.59c0.28,-1.24 0.73,-0.96 1.18,-2.08l1.46 -3.32c0.56,-1.12 1.12,-1.8 1.12,-3.49 1.18,-0.45 0.84,-0.73 1.57,-1.29 0.79,-0.56 1.35,-0.84 2.47,-0.9l1.74 0.17 1.35 1.12c0,0 0.11,0.06 0.11,0.06l0.22 0.34c0,0.06 0,0.11 0,0.17l0.17 1.57c0.06,0.96 -0.17,1.07 -0.28,1.46 0,0.06 0,0.11 -0.06,0.17l-0.22 0.73c-0.51,1.12 -0.9,1.8 -0.9,3.09 -1.01,0 -0.96,0.17 -0.62,-0.22 0,1.18 -0.22,2.14 -0.79,2.87l-0.28 0.34c-0.51,0.67 -0.45,1.12 -0.67,1.8 -0.67,2.31 -0.56,2.19 -1.46,2.36l0.11 0.51c0,0.39 -1.07,1.74 -1.35,2.53l-0.62 1.57c0,0.06 -0.06,0.11 -0.11,0.11l-0.34 0.9c0,0.06 -0.06,0.11 -0.06,0.17 -0.28,0.62 -0.06,0 -0.22,0.39 -0.22,0.51 -0.17,-0.45 -0.17,0.73 0.11,0.73 1.8,1.41 2.36,1.57l2.87 1.18c0.17,0.06 0.28,0.06 0.56,0.11 0.06,0 0.11,0 0.17,0.06 0.06,0 0.11,0.06 0.17,0.06 0.22,0.06 0.56,0.34 0.67,0.45 0.06,0.06 0.17,0.17 0.22,0.22l0.22 0.17c0.62,0.39 1.52,0.51 2.25,0.67 0.62,0.17 0.9,0.34 1.57,0.51 0.39,1.07 -0.11,0.73 0.51,1.18l1.01 0.34c1.07,0.22 1.24,0.79 2.02,1.29l3.94 2.02c-0.62,-1.18 -6.35,-4.84 -7.82,-5.62l-7.03 -3.04c-0.84,-0.28 -2.02,-0.51 -2.64,-0.79 -0.11,-2.14 5.34,-12.43 6.41,-15.13 0.34,-0.79 0.39,-1.07 0.73,-1.91 0.22,-0.56 0.22,-0.39 0.39,-0.9 0.17,-0.62 0.11,-0.67 0.34,-1.24 1.41,-3.54 -3.32,-6.86 -6.63,-4.72 -0.73,0.45 -0.9,0.79 -1.41,1.35 -1.97,2.31 -4.27,8.72 -5.85,11.64l-6.35 13.94c-0.73,1.46 -1.35,2.53 -1.8,3.99l-0 0.34z"/>
   <path class="fil0" d="M109.43 55.65c-0.73,-0.56 -1.8,-0.73 -2.19,-1.63 -0.79,-1.74 -1.01,-1.52 -0.9,-2.7 1.8,0 2.02,0.45 3.43,0.67 0.79,0.11 1.97,0.51 2.53,0.39 0.9,-0.17 0.51,-0.17 0.73,-0.51 -5.79,-0.22 -4.39,-1.46 -7.93,-0.73 -0.06,0.84 0.11,1.01 0.45,1.57l1.41 1.86c1.12,1.07 1.24,1.07 2.47,1.12l0 -0.05z"/>
   <path class="fil0" d="M172.18 67.12l-0.9 1.41c-0.28,0.51 -0.51,0.96 -0.9,1.35 -1.63,1.57 -1.41,-0.28 -1.52,-1.63 -0.96,0.11 -0.67,0.28 -1.46,0.45 -0.11,-1.29 0.11,-0.96 0.39,-1.86 0.22,-0.62 0.39,-1.46 0.51,-1.91 -0.96,0.56 -0.51,1.12 -0.84,1.97 -0.45,1.01 -0.56,0.96 -0.28,2.36l1.07 0.11c0.45,3.82 3.77,-0.22 3.99,-2.19l-0.05 -0.06z"/>
   <path class="fil0" d="M151.04 230.57l1.52 -1.24c0.73,-0.67 2.31,-2.02 3.21,-0.9 0.45,0.56 0.22,1.74 0.22,2.59 0.28,-0.28 0.17,-0.06 0.39,-0.45l0.39 -1.29c0.06,-0.34 0.17,-0.62 0.11,-0.96 -0.11,-2.47 -3.99,0.06 -4.33,0.34 -0.39,0.34 -1.29,1.12 -1.52,1.86l-0 0.06z"/>
   <path class="fil0" d="M166.39 236.3l1.8 -0.11c0.28,2.98 -0.73,2.42 -1.69,4.16 0.84,-0.34 1.69,-1.12 2.08,-1.8 0.62,-0.84 0.9,-1.35 0.79,-2.76 -1.07,-0.62 -2.14,-0.67 -3.04,0.45l0.06 0.06z"/>
   <path class="fil0" d="M80.37 189.24c1.07,-0.45 0.39,-0.51 1.46,-0.67 0.06,0.06 0.06,0.06 0.11,0.17l0.22 0.45c0.67,0.96 1.97,0 2.02,1.01 0.06,1.41 0.17,-0.96 0,0.39 0,0.11 -0.17,0.62 -0.22,0.79 0.45,-0.34 0.06,0 0.45,-0.34 0.11,-0.11 0.28,-0.34 0.28,-0.39 0.79,-1.63 -0.62,-1.18 -1.8,-2.87 -1.35,-0.06 -2.02,0.62 -2.53,1.46l0 -0z"/>
   <path class="fil0" d="M141.99 199.03c0.45,1.24 0.96,1.57 2.02,2.19 0.56,0.34 0.67,0.51 1.35,0.56 1.8,0.17 2.08,-0.34 1.74,-2.25l-0.67 -1.69 0.28 2.64c-3.43,1.35 -2.7,-0.39 -4.72,-1.52l0 0.06z"/>
   <path class="fil0" d="M185.79 117.89c0.96,-0.28 1.46,-0.96 2.08,-1.52l3.43 -3.49c0.34,-0.39 0.51,-0.51 0.79,-0.9l0.79 -1.18c-0.67,0.39 -1.35,1.12 -1.86,1.8 -1.12,1.52 -2.81,2.98 -4.27,4.33l-0.9 0.96 -0.06 0z"/>
   <path class="fil0" d="M145.81 61.83c0.67,0.79 2.14,0.45 3.15,0.45 0.17,-1.07 -0.11,-1.63 -1.07,-2.31l0.22 1.52c-0.84,0.56 -1.07,0.39 -2.31,0.34z"/>
   <path class="fil0" d="M94.08 56.32c-0.79,-1.18 -0.79,-0.28 -2.53,-2.64 -0.67,-0.9 -0.45,-0.62 -1.07,-0.96 0.39,0.9 0.9,1.41 1.46,2.02 0.67,0.79 1.24,1.29 2.14,1.52l0 0.06z"/>
   <path class="fil0" d="M158.91 49.13c0.67,-0.34 0.51,-0.39 1.29,-1.18 0.39,-0.39 0.17,-0.11 0.45,-0.62 -1.01,0.34 -1.41,0.84 -1.74,1.8z"/>
  </g>
 </g>
</svg>
