<?xml version="1.0" encoding="UTF-8"?>
<!DOCTYPE svg PUBLIC "-//W3C//DTD SVG 1.1//EN" "http://www.w3.org/Graphics/SVG/1.1/DTD/svg11.dtd">
<!-- Creator: CorelDRAW -->
<svg xmlns="http://www.w3.org/2000/svg" xml:space="preserve" width="26.1125mm" height="25.3324mm" version="1.1" style="shape-rendering:geometricPrecision; text-rendering:geometricPrecision; image-rendering:optimizeQuality; fill-rule:evenodd; clip-rule:evenodd"
viewBox="0 0 516.53 501.1"
 xmlns:xlink="http://www.w3.org/1999/xlink"
 xmlns:xodm="http://www.corel.com/coreldraw/odm/2003">
 <defs>
  <style type="text/css">
   <![CDATA[
    .fil0 {fill:#383231}
   ]]>
  </style>
 </defs>
 <g id="Слой_x0020_1">
  <metadata id="CorelCorpID_0Corel-Layer"/>
  <g id="_2473506487008">
   <g>
    <path class="fil0" d="M53.45 50.53c-0.1,0.1 -0.2,0.2 -0.3,0.3l-3.49 2.29c-0.1,0 -0.5,0 -0.6,0.1l-1.39 1c-0.1,-0.2 -0.4,0.3 -0.6,0.5 1.19,0.9 0.7,1.89 1.99,2.59 -1.39,0.7 -1.19,-0.3 -1.69,1.99 -0.2,1.1 -0.4,1.59 0.9,2.49 1.3,0.9 4.18,1.3 5.08,-2.09 -1.59,1.59 0.3,1.59 0.5,1.69 0.7,0.4 1.5,0.4 3.39,2.09l0.6 0.7c-1.19,-1.1 -2.39,0 -3.79,0.6 1.69,3.59 1.3,1.39 3.79,3.19 0.1,3.79 0,4.98 1,8.27 0.9,2.69 -0.6,3.79 1.59,4.48 -2.79,-2.19 -1.5,-0.2 -2.19,0.8l5.98 4.68c1.99,1 0.1,-0.2 0.4,0.3l1.39 2.49c0.9,-1.19 2.39,-0.6 4.48,-0.6 -0.3,-2.89 -0.4,-4.28 -0.1,-5.38l-0.3 -4.08c1.79,0.3 2.39,0.3 2.99,-1.39 0,0.1 -0.2,0.8 -0.2,1 0.5,4.08 2.39,1.89 2.39,1.89 0.4,-0.1 1.89,-1.99 1.69,-2.89 0.1,0.1 0.3,0.2 0.4,0.3 0.1,0.1 0.3,0.2 0.4,0.3l0.6 3.09c0,1.3 0.1,1.19 0.5,2.09 1.99,0.4 -1.1,0.6 1.59,-0.2 1.19,-0.3 0.4,-0.3 1.19,-0.6 1.79,-0.7 0.7,-0.6 3.49,-0.5 -2.29,-3.79 -0.5,0.3 1.3,-2.49 0.4,1.79 2.79,0.2 -3.79,2.59 1.3,1.79 -0.1,0.9 2.09,1.79 0.8,0.3 1.59,-0.2 2.29,-0.4 0.1,0 0.3,-0.1 0.4,-0.1l1.59 -3.29c-2.19,1.69 2.69,2.69 4.08,3.29 5.28,2.19 -4.68,1.1 2.29,2.39 11.66,0 88.77,-1 93.36,0.6 0.9,3.29 0.7,72.43 -0.2,75.12l-8.07 0.3c-0.7,1.99 -0.2,0.9 -0.3,1.99l-0.4 1.79c-2.19,4.28 -1.99,-1.3 -1.79,3.39l1.3 1.3 -3.49 1.3c1,0.4 1.59,0.8 2.19,2.49l-3.19 0.6c1.69,0.3 0.5,0 1.59,1.1 0.5,0.5 0.7,1 1,1.39 1.19,-1.69 1.69,-1 1.89,-1.5 0.1,-0.3 0.4,-0.3 0.7,-0.4l-0.3 2.79c0.3,1 2.19,0.2 3.29,0l4.08 0.4c0.8,1.19 2.39,-1.79 0,2.09 5.68,0.5 -2.69,14.65 6.68,20.52 5.28,3.29 17.73,0.6 24.71,1.89 1.89,7.37 -0.7,22.62 0.8,30.89 1.3,7.27 9.36,16.04 17.24,14.35 2.29,-0.6 3.29,-0.5 5.68,-0.5 0.9,0 2.39,0.1 3.19,0 1.3,-0.1 -0.1,0.1 1.3,-0.1l1.19 -0.3c0.2,0 0.4,-0.1 0.6,-0.2 -4.28,0 -10.76,0.8 -13.65,-0.9 5.38,0.7 4.88,-3.69 8.37,-3.39 1.69,0.1 -1,-0.9 1.59,0.3 -0.1,-0.1 0.2,-2.29 -0.4,0.3 -0.3,1.5 -0.2,0.4 -0.3,2.29 0.2,-0.1 0.8,-0.7 1,-0.7 2.59,-1 -0.9,-0.6 1.1,-0.2l1.69 0.7c1.3,-0.2 1.3,-0.9 1.59,-1.69 0.7,-2.29 0.2,-0.3 0.1,-1.69 0,-0.2 -0.1,-0.4 -0.1,-0.5 0,-0.2 -0.2,-0.8 -0.4,-0.9 1.39,0 0.4,-0.8 0.1,3.79 1.99,-0.3 1.79,-0.4 1.89,-0.3 0,0 0.1,0.2 0.1,0.2 0,0 0.1,0.2 0.2,0.3l0.6 0.7c0.1,0.1 0.2,0.3 0.4,0.4l1.1 -2.79c0.2,-1.5 0.5,-3.69 -0.3,-4.38 -1.69,-1.59 -2.19,-1 -3.69,-0.4 2.99,-0.4 3.19,-0.9 4.08,-1.89l0.8 -3.09c-1.1,-0.3 -2.49,-0.4 -3.19,0.9 -1.3,2.59 -0.5,0 0,1.1 -1.5,-0.9 -1.69,-1.1 -3.19,-0.9 0.1,-1.39 0.3,-1.69 0.6,-2.59 4.08,0 25.31,0.5 29.19,-0.4 0.2,0 0.4,-0.1 0.6,-0.2l-38.16 -0.1c-2.09,-0.5 -1.19,0 -2.19,-1.1 -0.5,-4.88 0,-23.02 -1.1,-26.6 -1.1,-0.7 -2.69,-0.8 -4.38,-0.3 -2.89,0.9 -1.1,1 -2.49,2.69 4.08,-3.49 -4.18,-5.18 -3.69,-0.4l0.4 2.79c0,1.69 -1.69,2.29 -1.5,3.59 0.5,2.79 0.3,0.3 0.3,0.4l-5.08 0.8c0,-3.89 0.3,-8.37 -0.6,-11.66 -2.89,-1.1 -4.08,-0.1 -5.98,-0.7 -1.99,-0.6 -1.1,-1.89 -3.49,-1.19l1.3 -3.79c-2.59,0.2 -4.18,1.19 -4.28,0.1 0,-0.1 -0.1,-0.1 -0.1,-0.1 1.89,-0.2 2.29,-0.8 4.28,-0.6 2.99,0.2 -1.3,0.9 2.39,0.1 3.09,-0.7 1,-0.7 1,-0.7 0.9,1 -0.7,1.69 -1.1,2.79 1.99,0.4 2.29,0.8 3.69,0.6 0.8,-0.1 2.49,-2.09 3.19,-1.79 0.1,0 0.2,0.2 0.3,0.2 0.1,0.1 0.3,0.2 0.4,0.3 0.1,0.1 0.4,0.2 0.5,0.3l1.3 0.7c0.6,-1.19 2.29,-3.29 1.3,-4.48 2.99,2.29 -0.4,0 0.5,1.39 0.8,1.3 -0.4,-0.1 0.9,1.1 0.1,0.1 0.5,0.5 0.5,0.3 0.1,-0.1 0.4,0.2 0.6,0.3l0.4 -0.5c2.49,-3.09 0.4,-2.39 1.5,-4.68 0.4,-0.9 0.2,-0.9 1.3,-1.3l-0.6 2.79c0,0.2 -0.1,0.9 -0.1,1.19 5.78,2.09 2.69,-2.29 4.48,1.89l2.49 -2.49c-1.5,2.09 -1.59,0.1 -0.6,3.79 1.39,0.6 1.19,0.4 2.09,1.3 2.79,-1.19 -0.4,0.6 1.5,-1.19l1.39 -1.5c2.39,-2.09 -1.19,0.8 0.9,-0.7 3.09,-2.19 0.1,0.3 4.18,-1.1 -0.4,1.1 1.39,1.89 1.89,1.3l-0.1 0.9c0,0.1 0,0.4 -0.1,0.5 -0.1,0.6 -0.2,0.6 -0.3,1.69 -2.79,-1 -2.99,-0.8 -4.68,1.3 4.38,0.7 4.78,1.19 6.38,-0.6 0.1,1.79 1.5,1.39 2.59,0 0.3,-0.4 1.59,-3.29 0,-3.39 3.19,0.9 2.39,-0.5 2.49,-0.6 0.8,-1.89 0,-0.5 -0.1,-0.6 0.3,0.4 0.7,0.7 0.9,0.9l-3.79 3.19c1.59,1.89 -1.99,2.39 1.89,1.5 0,0.1 0.2,0.3 0.2,0.3l2.89 -0.3c0.1,0 0.3,-0.1 0.4,-0.1 0.1,0 0.3,-0.1 0.4,-0.1 0.9,-0.5 0.9,-0.6 0.9,-0.6 1.5,-1.19 2.29,-2.99 4.18,-3.69 0.2,2.09 0,3.99 1.89,5.68 -0.9,-1.19 0.5,0.2 1.79,-1.5 0.1,-0.1 0.2,-0.3 0.2,-0.4 2.39,-3.69 -1.99,0.9 0.5,-1 0.3,-0.2 1.5,-0.2 1.79,-0.1 2.09,0.8 -0.3,-0.9 0.4,0.4 0,0 0.1,0.3 0.1,0.3l0.2 0.9c2.09,-0.4 1.39,-0.8 2.39,-1.3 2.19,-1.1 1.69,-0.1 2.69,-1.89 -0.1,-0.1 -0.4,-0.1 -0.5,-0.2 -0.1,0 -0.4,-0.1 -0.5,-0.1 -0.1,0 -0.3,-0.1 -0.5,-0.1 -3.79,-0.8 1.5,1.59 -1.69,-0.2 2.99,-1.59 -0.7,2.29 0.9,-1.3l1.19 -3.09c0.1,-0.1 0.5,-0.9 0.5,-1.39 -1.3,-1.39 0.9,-0.8 -2.19,-1.39 -4.58,-0.9 -0.5,-0.5 -2.29,0.4 1.1,-2.09 0.7,-1.19 -0.5,-2.79l-0.4 -0.4c0,-0.1 -0.1,-0.1 -0.2,-0.2l3.59 -0.3 0.9 1.89c0.9,1.1 0.7,0.7 1.69,1.5l0.6 -3.19c0.8,0 3.49,0.2 3.79,-0.5 0.1,-0.3 0.4,-0.1 0.5,-0.2l-71.53 0c0,0.1 0.2,0.2 0.3,0.2l1.79 0.9c3.09,1.89 0,1.59 1.1,0.9 -0.8,0.8 -1.69,0.4 -2.79,0.4l-2.29 0.3c0.2,-0.1 0.6,-0.7 0.6,-0.8 0.5,-1.99 -0.8,-3.09 -2.09,-5.58 1.3,-2.59 1.5,1.89 1.5,-3.39 0,4.68 -0.8,4.58 1.69,5.38 -1.1,-12.35 -0.4,-28.69 -0.3,-41.45l0.2 -121.15c0,-0.2 0.1,-0.4 0.2,-0.5 0,-0.1 0.2,-0.2 0.2,-0.5 0,-0.3 0.1,-0.3 0.2,-0.5l-0.6 -0.5c1.19,-1.5 1.79,-1.1 2.89,-1.3 0.1,0 1.69,-0.3 1.89,-0.3 0.2,0 0.5,0.1 0.6,-0.1 0.1,-0.2 0.4,-0.1 0.6,-0.2 -3.09,-2.09 -2.09,-0.7 -2.19,-2.69 -0.3,-3.89 -0.7,-4.58 -2.89,-4.78 -0.1,0 -0.3,0 -0.3,0 -2.29,-0.1 1,1.3 -1.3,-0.1l-2.89 -3.19c-1.79,1.5 -1.19,-1.89 -1.3,1.3 1.79,-1.89 -0.4,-1.19 0.6,-2.79 0.1,3.69 0.3,1.79 3.19,2.09 0,-1.1 0,-2.19 -0.3,-3.29 -0.2,-0.5 0.2,-1.59 -2.19,-1.89 -4.78,-0.6 3.39,1 -2.49,0.3 -2.09,-0.2 -2.09,-0.1 -4.08,-0.6 -10.76,-0.3 -7.77,22.52 -7.77,29.09 0,10.26 -1,28.1 0,37.26l-116.17 0.2c-2.29,-16.44 0,-16.74 -19.23,-16.94l-0.2 -0z"/>
    <path class="fil0" d="M461.25 379.01c-1.1,-11.86 -0.3,-27.1 -0.3,-39.26l0 -116.17c0,-8.87 -0.8,-149.45 0.5,-154.73l15.74 0.3c1.39,5.58 0.3,31.28 0.4,38.95 0.2,38.46 0.5,269.9 -0.6,270.9 -3.29,1.3 -11.86,0.7 -15.64,0.1l-0.1 -0.1zm1.3 -324.5c2.69,-0.6 0.7,-0.7 3.99,-1.69 1.39,4.38 -0.1,2.29 1.5,2.69 -0.8,-0.9 -1.1,0.2 -0.7,-1.39l0.7 -1.1c1.39,-1.5 -0.8,0.3 1.59,-0.9l2.09 3.59c0.1,0.3 0.5,0.1 0.5,1.69 0.5,-3.89 2.79,-1.99 3.29,-1.89 2.89,1.19 -0.7,1.3 2.89,1.19l-1 2.69c-0.2,1.79 1.69,5.28 -1.59,4.88 0,0.1 2.89,0.4 -2.49,0.6 0.1,-0.4 0.6,-1.59 0.7,-1.79 0.9,-3.29 0.4,2.59 0.1,-1 -0.1,-1.39 -1.5,0.8 -0.3,-1.69l-1.19 1.59c-0.7,3.69 -0.1,1.5 -4.68,3.29 -0.2,0.1 -0.9,0.5 -1.5,0.8 -1.5,-1.3 -1.79,-1.19 -2.09,-3.39 -0.1,0.1 -0.8,2.59 -3.19,0.8 1,3.79 0.1,2.49 -1.69,5.08l-1.3 -1.89c-0.5,-1.19 0.7,-3.69 1.3,-4.88 0.1,-0.2 0.2,-0.3 0.3,-0.5l3.09 -2.19c-0.1,-1 -0.3,-1.3 -0.5,-1.89l-1 -2.59c2.39,-0.6 -1.39,0.4 1.5,-0.2l-0.3 0.1zm-18.63 31.68c1.59,0.1 3.39,-0.3 4.18,0l0.6 0.5c2.79,2.59 0.2,0.4 0.3,0.5 1,1.39 -2.59,0 0.5,0.4 2.49,0.3 2.09,-0.9 4.78,-1.1l-0.7 -3.79 5.68 1.5c-0.2,1.59 -0.5,1.69 -0.5,1.79 -0.4,0.7 -0.9,1.59 -1.99,1.1 0.8,1 1,-0.3 1.3,4.48 -0.8,0.9 -1.3,1.59 -0.9,2.89 0,0 0.1,0.2 0.1,0.3l1.3 1.69c0,0 0,0.2 0,0.3 0,0 0,0.2 0,0.3 -0.1,0.4 -0.2,-1.79 -0.3,1 0,2.19 -0.9,-0.9 1.59,2.59l-1.99 1.89c-0.4,1.69 -0.2,-0.5 1.5,-0.6 0,0.2 0,0.4 0,0.5l0.1 1.89c0,0.2 0.1,2.29 0,2.69l0.5 242.5 0 21.62c0,1.19 0.1,2.69 0,3.79 0,0.7 0,1.19 -0.2,1.89l-0.5 -8.37c-0.1,0 -0.3,-0.1 -0.3,0 -0.1,0.4 -1.19,-0.8 -3.49,0.1 0,3.49 0.8,2.59 -1.39,2.19l1.39 0.3c0.1,0 0.3,0.1 0.4,0.1 0.1,0 0.3,0.1 0.4,0.1l2.99 1.3c0.5,4.68 0.4,-0.6 0,1.59l-2.49 5.18c0,0.1 -0.2,0.3 -0.2,0.4 -0.1,0.1 -0.2,0.3 -0.2,0.4 -0.1,0.1 -0.2,0.3 -0.3,0.5l-2.29 -1.89c-2.99,-1.79 0.8,1.39 -4.48,-2.59 -0.1,-0.1 -1.5,-0.3 -2.69,-0.6l-1.3 2.69 -0.6 -1.3c0,4.98 0.3,0.8 -1.5,2.29l-16.84 0.6c-0.2,0 -0.4,-0.1 -0.5,-0.2l-1 -0.4 -4.78 -8.17 -0.2 1.89 -3.19 0.2c0.5,0.5 1.3,-0.9 0.3,1.79 -0.8,2.19 0.5,0.7 -1.59,1.89 -1.79,-0.8 0.8,1.5 -0.9,-0.9l-0.6 -1c-0.6,-1.19 0.3,-0.2 -0.4,-1.19 -0.6,-0.9 -1.39,-0.5 -1.99,-0.6l3.19 -5.08c-3.09,-0.9 -0.1,0.1 -1.79,0.5 -1.19,0.2 -5.38,0 -2.69,-2.99 -0.9,-0.7 -2.09,-0.4 -3.19,-0.6 1.1,-2.29 -1.5,-1.79 1.89,-2.09 -1,0.1 -1.19,-1.1 -2.79,3.79 -1.1,3.09 -1.89,1.1 0.4,1.39 0.1,0 0.4,0.1 0.5,0.1l1.3 0.7c-0.2,0.2 -0.4,0.3 -0.6,0.4l-1.89 1.5c-1.1,-1.39 -1.69,-0.6 0.2,0.2l1.3 0.4c0.1,-0.1 0.3,0 0.5,0.1 -0.1,0.2 -0.3,0.3 -0.4,0.4 -0.1,0.1 -0.3,0.3 -0.4,0.4 -0.4,0.4 -0.4,0.4 -0.7,0.8 -1.3,1.99 0.5,0.3 -0.4,4.08 -3.89,0.9 1.59,-0.5 -2.89,0.4l0.3 1.99c-8.67,0.8 -19.43,0.5 -28.49,0.4 -7.97,-0.1 -22.52,0.8 -29.19,-0.4l0.6 1.99 -2.29 0.3c-0.1,0 -0.3,0 -0.4,0 -0.1,0 -0.2,0 -0.3,0.1 -4.18,1.19 -7.47,0.5 -8.17,0.9l1.69 3.49c0.1,0.1 0.2,0.6 0.2,0.5 0,-0.1 0.2,0.3 0.3,0.5 -0.1,0.2 -0.3,0.3 -0.5,0.4l-1.39 1.3c-4.08,4.18 -4.48,-1 -2.59,-2.39 -1.39,1.1 -0.1,-0.5 -0.9,1.5 -0.9,2.19 0.2,1.89 0.2,1.99l1.19 1c-0.1,0.2 -0.7,0.6 -0.8,0.7 -1.69,1.79 0.5,1.3 -2.79,4.28 -0.1,-0.2 -0.2,-0.5 -0.3,-0.6l-0.1 -3.59c-0.1,-2.69 -1.19,-4.68 -3.49,-5.38 2.09,-7.87 -0.2,1.3 0.3,-4.68 0,-0.1 0.1,-0.2 0.1,-0.3l0.7 -1c0.8,-1.5 0.4,-1.59 -0.7,-1.99 -0.3,1.89 -0.8,0.7 -1.59,1.59 0,4.48 -1.19,1.19 -4.58,2.49 -1.5,0.6 -0.4,1.89 -0.1,4.18l-5.08 0c-1,4.08 -0.1,4.28 -3.09,4.98 -5.58,1.19 1.3,-1.1 -2.59,-0.3l0.1 -1.5c0,-0.1 0.1,-0.2 0,-0.3 0,-0.1 0,-0.2 0,-0.3 0,-0.1 0,-0.3 -0.1,-0.4 0,-0.1 -0.1,-0.3 -0.2,-0.4 -0.1,-0.2 -0.2,-0.4 -0.3,-0.5l-0.7 -1.3c5.58,0.6 4.78,-1.99 3.59,-1.59 0,0 -0.2,0.1 -0.3,0.1 -0.1,0 -0.2,0.1 -0.3,0.2 -0.1,0 -0.3,0.2 -0.3,0.2 -4.48,2.79 -0.5,1.39 -7.97,2.29l-4.38 -1.1c-0.1,-0.1 -0.2,-0.2 -0.3,-0.2l-1.39 -1.3c-0.1,-0.1 -0.2,-0.3 -0.3,-0.4 -1.99,-2.39 0.3,-1.79 -1.99,-2.29 0.1,0.1 0.2,-1.79 0.1,0.5l-0.6 2.79c-0.2,-0.2 -0.4,-0.7 -0.5,-0.6l-1.99 -3.29 -1.89 0.2 -0.5 2.39c-0.1,0.2 -0.1,0.3 -0.2,0.5 -0.8,1.3 0.5,0.2 -1,1.19 -1.1,0.7 -1.89,1.19 -2.69,-0.8 -0.1,-0.1 -0.1,-0.3 -0.1,-0.5l-0.1 -1.39c-1.69,1.59 -3.49,-0.1 -3.79,-0.2 -0.2,0 -1.19,0 -1.89,0.5 -1.1,0.9 -0.9,1.3 -1.5,2.39l-0.7 -1.1c-0.1,-0.1 -0.2,-0.3 -0.4,-0.5 -1.39,-1.69 0.9,-0.4 -1.69,-1.5l-3.09 2.39c-1.69,1.5 3.19,0.3 -2.59,1.59 0.7,-3.29 -0.1,-1.39 1.69,-3.69 -2.49,0.3 -2.19,0.6 -3.49,2.89 -0.1,0.1 -0.2,0.3 -0.2,0.4 -0.1,0.1 -0.2,0.3 -0.2,0.4 -0.7,1.19 -0.7,1 -0.9,1.69 -0.2,1.3 0.6,1.59 -0.3,2.19 -1.5,0.4 -3.09,0.3 -4.68,-1.19 -1.19,-1.1 -0.5,-0.3 -1.1,-1.69l-1.19 -2.89c0.5,-0.1 0.8,0.1 1.1,0.1 1.19,0 0.8,0.6 0.7,-0.8l0.3 -3.49c1,-3.39 2.79,-3.29 3.29,-3.99l0.8 -0.8c0,0 0.1,0 0.1,0.1 0,-2.49 0.7,-34.87 -0.1,-36.27 -1.5,-2.69 -1.79,2.79 -3.09,-2.99l3.19 -3.29c0.1,0 0.4,0 0.6,0 0.8,6.18 -1.19,39.55 0.3,43.84 0.6,1.89 -0.2,0.6 1,1.89l-0.2 -43.14c0.5,-0.7 0.4,-0.9 1,-1.5 -0.7,-0.9 -3.19,-0.6 1,-1.59 0.7,-0.2 3.29,-0.2 4.08,-0.2 4.38,0.1 2.99,0.3 5.68,0.2 2.59,-0.1 5.08,-0.2 7.67,0 5.08,0.4 3.49,-0.6 4.38,0.5l-6.38 -3.19c0,0.1 0,0.2 0,0.3 -0.8,1.39 -2.19,1.5 -4.18,1.1 -1.99,-0.4 -2.39,-0.2 -3.59,0.6 -1.1,0.7 -0.8,-1.1 -0.5,0.6 -2.69,-2.59 -0.3,0.6 -1.19,-1.89 -1.19,-3.29 0.6,-1.89 0.6,-1.89l-3.79 -1.89c-1.39,0 -0.8,0.1 -0.3,0.9l1 1.79c0.1,2.79 -1.89,2.19 -2.09,2.19l-1.39 -0.1c-1.59,0 -3.09,0.7 -4.88,-0.9l-1.5 -1.19c-2.69,-1.5 -0.7,-1.39 -2.19,-1.19 -2.19,0.3 1.19,1.3 -3.99,2.29 -0.1,-0.2 -0.1,-0.5 -0.2,-0.6 -0.8,-3.19 1.3,-0.1 -0.8,-1.79 -1.89,-1.5 -1.39,0.2 -1.39,-2.69l-0.2 2.79c0.2,3.59 -0.6,3.29 -3.29,3.09 -1.19,-0.1 -1.69,-1 -2.39,-1.89 -0.6,2.29 0.6,1.99 -1.79,2.19 2.09,-0.6 0.7,-0.8 1.59,0.6 1.5,2.29 1,0.9 -0.2,1.99 2.59,4.18 1.39,31.78 1.39,40.25 0,2.49 0.5,4.18 -1.69,4.58l0.1 0.6c1.69,1.59 2.19,0.7 -0.4,1.59 -1.69,0.6 -4.58,-0.7 -8.27,-0.5 -1.1,0.1 -3.89,0.4 -4.78,0.6 -2.59,0.6 0.3,-0.9 -1,3.19 -3.09,-0.4 -2.29,0.1 -3.99,-2.09 -1.99,4.48 -1.79,4.28 -1.1,7.17l-3.99 -2.19c0,-0.1 -0.1,-0.3 -0.1,-0.3l-0.3 -0.6c-0.6,1.79 -0.6,1 -1.19,1.79l-2.99 2.99c-1.99,1.5 -1.79,0.3 -1.59,4.08l50.21 0c-3.19,1.3 -35.67,0.7 -41.84,0.6l-182.23 0c0.2,-0.1 0.4,-0.2 0.6,-0.2 3.89,-0.9 22.12,-0.4 26,-0.4 -0.5,1 0.3,0 -1.5,-1.59 0.1,-0.2 0.4,-0.3 0.5,-0.4 4.48,-3.79 1.3,-5.78 5.18,-3.99 1.79,0.8 1.1,1.89 2.29,4.08 0.3,-0.7 -0.1,-0.8 1.69,-1.69l1.89 -0.8c0.1,-0.2 0.3,-0.1 0.4,-0.2 -1.5,-1.1 0.1,-0.8 -0.6,-3.89l0.2 -3.69c0.9,0.8 1.5,0.2 1.3,1.89 1.5,-0.4 0.2,0.4 1.3,-1.69l4.08 1.1c-4.88,-0.2 -0.9,-2.69 -5.48,-3.19 -1.99,-0.2 -5.08,0.6 -6.78,-0.3 -5.48,-2.79 1.19,2.89 -1.89,-1.99 -1.79,-2.19 -1.19,-179.04 -0.7,-196.97 -1.59,1.79 -1.3,3.69 -1.19,6.38 0,2.09 0,4.18 0,6.38l0 184.12c-0.9,-4.58 -0.6,-10.66 -0.6,-15.84l0.2 -14.85c-1.5,1.79 -0.2,0 -0.4,1.19l0.2 6.68c0,0 -0.1,2.09 -0.1,2.39 0,0.3 0,0.4 0,0.7 0,0.3 0,0.4 0.1,0.7l0 9.07c-0.8,4.48 -3.29,5.48 -6.28,6.18l0.5 -3.09c0.1,-0.2 0.2,-0.3 0.3,-0.5 0.8,-1.3 1.39,-1.19 2.39,-1.39 -1.1,0.7 1.99,1.19 -0.8,-0.1 -3.99,-1.89 0.4,1.19 -1.1,-1.19l0 0.4c0,0 -0.2,0.1 -0.2,0.1 -2.39,1.1 1.5,0.6 -1.69,0.1l-0.2 -1.89c0.3,-2.19 1.3,-2.29 2.09,-2.59l-1.59 -0.5c0,0 -0.1,-0.2 -0.2,-0.2 0,0 -0.1,-0.1 -0.1,-0.3 0,-0.1 -0.1,-0.2 -0.1,-0.3 -1.59,1.59 0.4,-0.7 -0.6,2.49 -0.2,0 -0.4,0 -0.5,0 -4.38,0.4 0.8,-0.5 -1.79,1.19 -1.89,1.19 -3.79,1.5 -3.59,-1.69 0.1,-1.69 1.59,-2.09 1.59,-1.89l-2.69 -1.99 -0.1 14.65c-0.2,1.5 -0.3,1.3 -0.5,1.89 0,3.09 0.4,0.3 -0.9,1 0.3,1.1 0.7,0.9 -0.4,0.9 -0.2,0.1 -0.4,0.1 -0.6,0.2 -3.29,0.8 -1.19,0.4 -8.27,0.4 -0.2,1.5 -0.1,1.69 0,3.09l0 1.99c1.79,0 2.69,-1.89 5.38,1 2.39,2.39 0,1.19 3.29,4.78 -0.2,0.1 -0.4,0.2 -0.5,0.3l-3.69 2.19c-1.59,-4.48 1.69,-3.49 -2.39,-2.69 -1.79,0.4 0.1,0 -1.5,0.1 0.3,0.5 1.1,-0.1 0.2,1.99 -1,2.29 1,1.5 -2.09,1.59 -3.79,0 -1.59,-1.1 -1.69,-1.39 -0.9,-3.09 0.3,-1 0.4,-0.9 -1.3,0.1 -0.2,-0.2 -1.1,1.39l-0.6 1.1c0.8,-0.6 -1.39,-0.9 1.79,-0.4 1.79,0.3 0.8,0 1.79,1.1 -4.88,0 -11.96,-1.19 -15.84,1.3l457.71 0.1c-4.68,-2.79 -20.33,-1.39 -26.7,-1.39l-188.6 -0.7c0.9,0 2.19,0 3.19,0 24.91,0.2 199.06,0.5 203.95,-0.2 -1.39,-1.39 -3.29,-2.89 0.6,-3.19 -0.1,-0.2 -0.3,-0.3 -0.3,-0.4 -1.79,-2.59 -1.3,-0.9 -1.19,-3.09l0.2 -0.7c0.1,-1.5 -0.4,-1.3 -0.9,-2.39 3.59,-0.4 3.09,-2.49 3.69,-3.59 0.1,-0.1 0.2,-0.3 0.2,-0.4 0.1,-0.1 0.3,-0.3 0.3,-0.4 2.19,-2.99 -1.19,0.2 0.9,-0.9 0,-1.5 -0.8,-0.4 -1.3,-3.79 2.29,0.7 2.59,1.1 3.39,0.4 0.1,-0.1 1.19,-1.79 0.4,-3.09 0,-0.1 -0.2,-0.2 -0.2,-0.3l-1.19 -1.89c-0.5,-1 0.9,-1.59 -0.4,-0.8 -0.1,-1.59 0,-0.1 -1.3,0.5 -2.89,1.3 0.3,-0.5 -2.49,0.8l0 -214.61 0 -64.76c0.1,0.2 0.4,0.3 0.5,0.4 0,0 0.2,0.1 0.3,0.1 0,0 0.2,0.1 0.2,0.1 1.89,0.4 0.4,0.3 0.6,-0.9l0.3 -1.59 1.89 1.19 1.3 -3.79c2.99,0.3 1.5,0 3.19,1.1 -0.3,0 -0.7,0.8 -0.4,-0.3l1 -1.39 2.19 1.89c-0.9,-1.19 -1.39,2.19 -0.4,-1.3 0.7,-2.59 -0.7,-0.2 1.39,-1.19 -1.99,1.69 -1.5,-0.9 -1.89,-1.99l5.08 0.6c0.2,0.8 0.1,2.49 0.9,3.69 0.8,1.1 -2.59,0.7 1,0.7l-0.2 -29.79c-0.4,-1.99 -0.1,-0.8 -0.6,-1.5 0.1,1.99 -1.99,7.67 -1.99,9.76 0,0.2 0,0.4 0,0.6l-0.3 2.39c-0.1,0.2 -0.2,0.3 -0.3,0.5 -0.8,1 -0.4,1.59 -3.29,0.4 -3.09,-1.3 -0.1,0.3 -0.3,-0.3 -1.79,1.39 0.9,-1 2.09,3.79 0.1,-2.99 0.2,-2.89 2.99,-3.79l0.2 1.19c0,0.2 0.1,0.4 0.1,0.6l0 5.28c0,2.49 0.4,0.6 0,3.49 -0.2,1.3 -0.5,1.89 -0.9,2.79 -1.79,-0.8 -1.19,-0.2 -2.19,-1.99 0,0 -0.5,-2.89 -1.3,-3.19l-5.28 -0.7c-2.29,-0.4 0.9,0.2 -1.59,0.1l-2.39 -3.09c-0.4,-4.58 -0.6,-2.89 0.4,-8.87l2.19 -0.3c-0.3,-2.19 -1.1,0.4 -0.1,-3.49 2.19,0.6 1.69,0.9 2.29,0 1.5,0.9 2.39,2.29 2.09,3.29 1.99,-2.69 1.1,-1.69 2.89,-1.79 0.1,0 0.7,0.2 0.7,0.2 -0.8,-1.19 -1.59,-1.39 1.3,-4.28l-2.39 -0.2c0.5,0.3 0,-1.39 0.6,2.19l-1.5 -0.7c-3.89,-2.09 0.6,1.99 -1.5,-1.3 -0.2,2.09 -0.8,1.89 -1.39,3.19l-2.39 -2.09c-1.59,-1.19 -2.49,0.4 -3.79,-1.3l-0.2 -0.8c-0.5,-1.99 1.39,-0.7 1.39,-0.7 1.99,0.6 -1.1,1.59 1.89,0.4 -3.49,-0.9 -0.4,-0.6 -2.69,-1.3 -0.4,1.39 0.4,0.9 -3.09,3.09 0.1,-3.69 -0.7,-3.69 2.19,-4.78 -2.19,-0.1 -2.49,-0.3 -2.59,-2.79 -0.2,-2.39 0,-1.59 0.9,-4.08l-18.43 0c-0.7,1.89 -2.29,3.49 -3.39,3.79 1.3,0.8 -0.2,0.4 0.9,0.1l1 -0.6c2.09,-1.39 -0.6,-0.7 2.79,-1.69l0.3 1.5c0.1,2.49 0,-0.8 -0.2,1.3 -0.1,1.59 -0.3,0.3 0.1,2.69l-2.69 0c-0.2,0 -0.3,0.1 -0.5,0.1 -0.8,0.3 -1,1.3 -1,1.99l-0.1 1.69c0,0.1 -0.3,0.5 -0.3,0.6 -1.3,2.59 0.1,-1.5 -0.4,3.09 -0.1,1 -1.1,-0.2 0.1,3.39 0.7,2.09 0,-0.8 0.8,2.09 0.7,2.69 -1.89,2.09 -0.5,5.18 0,0.1 0.2,0.3 0.2,0.4 0,0.1 0.2,0.3 0.2,0.3 0.6,1.3 -0.4,3.39 -0.5,3.49l-2.99 0.1c-3.29,0.2 -3.09,-0.5 -7.77,-3.69l2.19 1.19c-0.1,0.2 -0.2,0.5 -0.3,0.6l-2.79 4.08c-0.1,0.1 -0.3,0.2 -0.4,0.3 -0.3,0.2 -1.79,0.6 -2.09,0.7l1 1.19c0,0 0.4,1.39 0.5,1.69l0.39 -0.37z"/>
    <path class="fil0" d="M478.78 157.53l0 214.61c2.79,-1.3 -0.4,0.5 2.49,-0.8 1.3,-0.6 1.19,-1.99 1.3,-0.5 1.3,-0.8 -0.1,-0.2 0.4,0.8l1.19 1.89c0.1,0.1 0.2,0.2 0.2,0.3 0.8,1.3 -0.3,2.99 -0.4,3.09 -0.8,0.7 -1.1,0.3 -3.39,-0.4 0.4,3.39 1.3,2.29 1.3,3.79 -1.99,1.1 1.3,-2.09 -0.9,0.9 -0.1,0.1 -0.3,0.3 -0.3,0.4 -0.1,0.1 -0.2,0.3 -0.2,0.4 -0.6,1.1 -0.1,3.19 -3.69,3.59 0.4,1.1 1,0.8 0.9,2.39l-0.2 0.7c-0.2,2.19 -0.6,0.4 1.19,3.09 0.1,0.1 0.2,0.3 0.3,0.4 -3.99,0.3 -1.99,1.79 -0.6,3.19 -4.88,0.7 -179.04,0.4 -203.95,0.2 -1,0 -2.29,-0.1 -3.19,0l188.6 0.7c6.38,0 22.02,-1.39 26.7,1.39 8.97,1.3 10.96,6.68 10.96,16.34l0 53.3c0,9.67 -2.59,13.15 -10.36,15.64 -1.5,2.09 -4.48,1.5 -8.27,1.5 -2.99,0 -5.88,0 -8.87,0 -9.17,0 -49.22,-0.7 -52.7,0 -4.68,1.99 1.69,-1.59 -1.5,0.6 -3.09,2.09 -0.4,2.29 -4.78,5.88 2.29,2.59 -0.5,0.6 2.29,1.19 0.2,0 0.6,0 0.8,0 1.1,-0.1 1.3,0.2 0.7,-0.6 -1.19,1.79 -0.8,-0.5 -1.3,2.59 -1.19,-0.4 -0.7,-0.4 -0.8,-0.5 0,0 -0.2,-0.2 -0.2,-0.2l-1 -0.9c-0.1,-0.1 -0.3,-0.3 -0.4,-0.4 -0.1,0.2 -0.2,0.2 -0.3,0.5l-0.6 1.79c-1.19,2.89 1.69,-1.59 -0.4,0.5l-2.09 1.99c-0.1,0.1 -0.2,0.2 -0.3,0.3l-0.7 0.6c0,-0.2 1.99,-0.4 -1.3,-0.6 -2.49,-0.1 -1.69,0 -3.09,0.6 0.2,0.1 0.8,1.69 0.2,-0.1 0,-0.1 -0.3,-0.7 -0.4,-0.8 -1.79,-2.39 -1.1,-1.5 -2.99,-1 -1.59,0.5 -0.7,-0.4 -3.69,-0.7l-0.8 1c-1.19,1.1 -1.69,0.4 -2.39,2.09 -1.1,-2.19 -2.39,-0.7 -3.19,-2.59 0.2,0 2.69,0.4 3.69,-1.5 1.19,-2.29 0.7,-0.1 0.1,-1.39 -0.7,-1.59 0.2,-1.1 -2.29,-1l0.5 -0.7c0.1,0 0.3,-0.1 0.4,-0.2l1 -0.6c0.2,-0.1 0.4,-0.2 0.6,-0.4 -2.69,-2.19 0.6,-2.99 -0.6,-3.79 0,4.98 -0.3,0.8 1.3,2.49 4.38,-0.9 0.3,-2.09 2.89,-1.19l1 0.4c3.69,1.1 -0.1,0.7 1.3,0.1 -0.2,0 -0.3,-1.79 -0.9,0.9l0.1 2.29c2.49,-0.8 1.1,-0.5 2.39,-1.5 1.39,-1.1 5.68,-2.09 7.87,-3.09l3.69 -1.79c-0.6,0.6 -0.7,1.1 -0.5,1.39 0.6,1.19 0.1,0.8 2.39,1.69 1.19,-3.19 -0.3,-1.79 1.89,-3.19 -0.5,-0.2 -0.4,-0.3 -1.89,-0.5l-34.27 -0.1c-0.3,1.59 1.19,2.89 2.49,3.49 3.59,1.79 1.59,0.4 4.48,0.3 -0.5,-0.2 -1.59,-2.29 -0.2,0.5 0.5,1 0.2,0.7 0.9,0.7 -2.19,1.39 -0.9,0.2 -1.99,2.59 -0.1,-1.69 -0.3,-1.59 -0.6,-3.09 -4.58,0.6 -1.5,1.1 -5.68,1.19 0.2,0.2 0.5,0.2 0.6,0.6 0.3,0.9 1.99,1.5 2.29,2.39l0.4 2.39c0.1,0.1 0.2,0.3 0.3,0.4 0.1,0.1 0.2,0.3 0.3,0.5 3.69,0.1 3.39,0.5 3.79,-2.49 1,1.19 0.2,-0.1 0.1,2.79 -2.09,0 -2.39,0.4 -3.99,1.1l1.1 1.79c0.8,0.8 1.89,0.2 3.19,0.2 14.65,-0.7 34.07,0 49.02,0 10.06,0 49.22,-1.3 55.89,0.4 8.17,1.3 19.43,-7.47 22.62,-17.83 2.49,-7.87 1.39,-29.89 1.39,-39.75 0,-9.86 1.19,-32.08 -0.6,-40.45 -1.3,-5.88 -3.59,-10.06 -6.78,-13.65 -5.58,-6.38 -9.36,-6.58 -11.96,-8.77l-0.2 -236.82c-0.1,-0.2 -0.2,-0.4 -0.2,-0.6 0,-0.2 -0.1,-0.4 -0.2,-0.6 -0.8,-3.39 0.1,1.5 -0.2,-1.3 0,0 -0.1,-1.89 -0.1,-1.89l-0.2 -7.57c-0.1,-1.99 -0.2,-2.29 0.3,-4.48 -0.1,0.2 -0.3,0.5 -0.4,0.6 -0.8,1.19 -1.5,1.79 -1.3,3.19 0,0 0,0.2 0,0.2l0.9 18.93c-0.3,1.69 -1,1.99 0.2,3.19l-1.3 1.3c0.3,3.49 0.1,0.5 0.8,2.79 0.9,2.89 0.1,7.47 0.2,10.46l0.3 9.17c0,0.1 0,0.6 0,0.5 0,0 1.19,0.4 -2.19,1.59 -0.1,0 -0.3,0.1 -0.4,0.1 -0.1,0 -0.3,0.1 -0.4,0.1l-5.08 -0.7c-6.48,-3.39 -1.99,-1.39 -4.88,-1.5 -0.1,0 -0.4,-0.1 -0.5,-0.1l-1.1 -0.4c0.3,-1 0.9,1.19 0.1,-1.19l-1.39 -2.59 2.39 0c1.5,-0.8 -0.5,-3.69 -1.1,-4.48l2.49 -1.89c-1.39,0.4 -1.1,0.5 -1.99,-0.5 -1,-1 -0.5,-1.79 -0.2,-4.38 0.1,-1.3 0.7,-1.79 -1,-2.09l0 -1.3c1.89,-1 0.3,1.19 1.89,-1.89 -0.1,-0.1 -0.4,-0.2 -0.4,-0.2 -0.1,0 -0.3,-0.2 -0.4,-0.2 0,0 -0.2,-0.1 -0.3,-0.2l-0.1 -0.8c0.2,-2.49 0.4,0.1 -0.1,-1.3l-0.7 -1.1c-0.6,2.79 0,3.39 -0.6,5.68l-0.7 0.5z"/>
    <path class="fil0" d="M95 372.24c1.19,2.09 0.3,0.4 1,1.59l1.3 2.09c1.59,-0.9 1.69,0.3 1.5,-1.79l2.69 2.49 1.19 -1c1.3,-1.1 0.2,-1.99 2.29,-1 -0.1,0 -0.3,-0.2 -0.3,0l-0.4 0.3c-0.2,0.9 0,1.3 0.1,1.59l2.69 -1.89c0.2,2.39 0.8,2.59 1.69,4.28 0.7,1.3 0.8,0 0.3,2.49l20.72 0.3c8.77,0 12.45,-0.7 19.03,0 -0.1,-0.1 -0.3,-1.89 -1,0.7 0,0.1 0,0.4 0,0.6 1.89,-0.3 0.6,-0.3 2.49,-0.3 -2.79,0.6 -1.19,1.89 -1,2.59l1.99 2.09c0.1,-0.2 0.2,-0.6 0.2,-0.5l0.6 -3.99c1.99,-0.2 1.69,0.1 2.89,-0.6l-2.39 7.17c0.5,1.3 1,0.7 1.19,1.19 0,0.1 0.3,0 0.3,0 0.1,0 0.3,0 0.4,0l4.98 -0.8c-0.1,-0.2 -0.2,-0.4 -0.3,-0.6l-1.69 -1.89c3.29,-1.79 1.3,-2.19 3.19,0 -0.3,-0.2 0.7,-1.99 -0.9,0l-0.4 1.79c4.48,0.4 1.3,-3.49 4.88,-1.1 -1.99,1.3 -1.5,1.5 -2.39,3.19 0.4,0.4 0.8,0.9 1.19,1.19l2.89 1.39c0.2,0 1.19,0 1.39,-0.1 -0.4,0.5 -1,1.39 -1.39,1.89l-77.02 0c-0.6,-4.78 0.1,-1.5 -1.89,-3.79 1.5,0 3.19,-0.1 3.79,-1.89 0.9,-2.69 -0.4,-0.5 -0.2,-2.49 0.1,-1.3 -0.4,0 1.1,-1.1 2.39,-1.79 -1.3,3.29 1,-0.9 0.4,4.58 -0.3,0.7 1.3,2.49 0.2,-0.1 0.4,-0.6 0.4,-0.5 0.1,0.1 0.3,-0.4 0.4,-0.5l2.59 -1.69c1.99,-0.8 1.59,0.1 2.29,-1.89 0.7,-2.09 0.2,-1.5 0,-2.39 -1.89,-0.3 -1.19,-0.3 -3.19,-0.4 -0.1,0.2 -0.2,0.3 -0.2,0.6l-0.3 0.9c0,1.89 0.4,0.4 0.5,0.4l-2.19 -0.1c0.3,-2.29 -0.3,-2.19 0.4,-3.69 0.8,-1.69 0.5,2.19 0.8,-2.09 -0.2,-0.1 -0.4,-0.4 -0.5,-0.2l-2.49 -0.4c-3.49,2.09 0.7,3.39 -7.47,3.49 -3.99,0 -8.07,0.1 -12.05,-0.1 3.09,4.88 -3.59,-0.8 1.89,1.99 1.69,0.9 4.88,0.1 6.78,0.3 4.68,0.5 0.7,2.99 5.48,3.19l-4.08 -1.1c-1.1,2.09 0.2,1.3 -1.3,1.69 0.2,-1.79 -0.3,-1.19 -1.3,-1.89l-0.2 3.69c0.6,3.09 -0.9,2.79 0.6,3.89 -0.1,0.1 -0.4,0 -0.4,0.2l-1.89 0.8c-1.79,0.9 -1.5,1 -1.69,1.69 -1.3,-2.19 -0.6,-3.29 -2.29,-4.08 -3.89,-1.79 -0.7,0.2 -5.18,3.99 -0.1,0.1 -0.3,0.2 -0.5,0.4 1.79,1.59 1,2.59 1.5,1.59 -3.89,0 -22.22,-0.5 -26,0.4 -0.2,0 -0.4,0.1 -0.6,0.2l182.23 0c6.18,0 38.66,0.7 41.84,-0.6l-50.21 0c-0.1,-3.79 -0.4,-2.59 1.59,-4.08l2.99 -2.99c0.6,-0.8 0.6,0 1.19,-1.79l0.3 0.6c0,0.1 0.1,0.3 0.1,0.3l3.99 2.19c-0.6,-2.89 -0.8,-2.69 1.1,-7.17 1.69,2.19 0.9,1.69 3.99,2.09 1.3,-4.08 -1.59,-2.59 1,-3.19 0.9,-0.2 3.69,-0.5 4.78,-0.6 3.69,-0.2 6.58,1.1 8.27,0.5 2.59,-0.9 2.09,-0.1 0.4,-1.59 -4.78,-1.5 -47.43,-0.3 -56.39,-0.5 -0.2,0.5 -0.1,1.59 -0.6,2.19 2.59,-0.6 1,-0.6 -0.8,1.5 -0.1,0.1 -0.2,0.3 -0.3,0.4l-1.5 1.89 -2.49 -3.79c-1.1,0.9 -0.9,0.3 -1.59,1.79 -0.5,1.1 -0.3,0.9 -0.3,1.99 -0.5,-0.9 0,-2.29 -1.59,-4.18 -0.1,-0.2 -0.3,-0.3 -0.5,-0.4 -0.1,-0.1 -0.3,-0.3 -0.5,-0.4l-5.08 4.58c-0.1,0 -0.3,0 -0.4,0 -1.39,0 -2.99,-0.9 -3.29,-2.39l0.5 -1.59c-3.69,-0.2 -2.89,-0.6 -3.39,-1.1 -5.48,-2.09 -48.12,1.19 -56.59,-1.1 0,-2.69 7.17,-15.14 8.77,-18.03 2.29,-3.99 7.17,-15.14 9.56,-17.93 0.6,-2.79 0.5,-1.89 1.79,-4.28 1.69,-2.89 1.3,-2.89 2.89,-3.59 3.39,-1 40.35,-0.6 46.03,-0.2 1.3,-2.49 -0.7,-1.89 2.99,-2.79 -2.39,0.2 -0.9,-0.2 -1.3,2.49 0.6,-0.1 2.39,-0.5 2.59,-0.5l2.39 1.1c-0.1,-0.9 -1.3,-3.59 1.79,-3.39 0.1,0 0.3,0.1 0.4,0.1l1.59 1.39c3.29,-2.79 1.1,-1.89 3.39,-1.99l1.79 0.1c0.1,0 0.3,0 0.4,0l1.59 0.5c0.1,0 0.2,0.1 0.3,0.1l2.69 0.6c0.1,0 0.3,0 0.5,-0.1 0.1,0 0.3,-0.1 0.5,-0.1l1.59 -2.29c0.1,0.1 0.2,0.2 0.2,0.4l0.3 1.19c0,0.1 -0.2,0.7 -0.2,0.9 -0.2,0 -1,0 -1.19,0.1 -5.38,1.19 -3.09,0.4 -2.19,1.69l45.63 0c1.3,-1 1.69,0.3 0.2,-1.99 -0.9,-1.39 0.5,-1.19 -1.59,-0.6 2.39,-0.3 1.19,0.1 1.79,-2.19 0.7,0.9 1.19,1.79 2.39,1.89 2.69,0.2 3.59,0.5 3.29,-3.09l0.2 -2.79c0.1,2.89 -0.5,1.19 1.39,2.69 2.09,1.69 0,-1.39 0.8,1.79 0,0.1 0.1,0.4 0.2,0.6 5.18,-1 1.79,-2.09 3.99,-2.29 1.59,-0.2 -0.5,-0.3 2.19,1.19l1.5 1.19c1.79,1.59 3.29,0.9 4.88,0.9l1.39 0.1c0.1,0 2.09,0.6 2.09,-2.19l-1 -1.79c-0.5,-0.8 -1.1,-1 0.3,-0.9l3.79 1.89c0,0 -1.79,-1.39 -0.6,1.89 0.9,2.49 -1.5,-0.7 1.19,1.89 -0.3,-1.69 -0.6,0.1 0.5,-0.6 1.19,-0.8 1.59,-1 3.59,-0.6 1.99,0.4 3.39,0.4 4.18,-1.1 0,0 0.1,-0.2 0,-0.3l6.38 3.19c-0.9,-1.19 0.7,-0.2 -4.38,-0.5 -2.59,-0.2 -5.08,-0.1 -7.67,0 -2.69,0.2 -1.3,-0.1 -5.68,-0.2 -0.8,0 -3.39,0 -4.08,0.2 -4.08,1 -1.69,0.7 -1,1.59l45.53 0c2.09,-1.5 2.49,-1.19 -3.69,-1.69l-0.9 -2.69c-1.3,-2.19 -2.09,-2.49 0.3,-3.69l0.1 0.4c0,0.1 0.1,0.4 0.1,0.6l0 0.9c0,1.1 -0.1,0.2 -0.2,1.89 1.1,-0.2 1.89,-0.9 1.99,-0.9 2.59,-0.8 -1.79,-1.19 0.8,0.1l8.67 -1.3c0.1,0 0.3,-0.1 0.3,-0.2l0.6 -0.2c0,0 0.2,-0.1 0.3,-0.1 -0.3,2.49 -1.59,-1.69 -0.8,2.49 0.4,2.09 1.3,2.19 3.39,1.89l-0.4 -1.89c-0.6,-2.59 0.1,-1.59 1.69,-1.89l-1.3 -2.49c0,-0.1 0,-0.3 -0.1,-0.4 -0.6,-2.69 0.7,-0.2 -1.99,-4.08l-0.3 -0.4c0,0 -0.1,-0.1 -0.1,-0.2l2.89 -1c4.78,-3.49 -1.79,-0.5 1.5,-1.19 0.1,0 1.1,-0.2 1.19,-0.2l0.6 0.3c0.1,0 0.2,0.1 0.3,0.2l4.28 1.69 32.48 0.1c2.69,-1.69 0,-3.09 -0.1,-3.09 0.6,0.8 -1.19,0.6 1.89,0.6 -1.1,-0.6 -0.4,1.5 -0.3,1.89 0.1,0.2 0.2,0.5 0.3,0.7l3.79 0c-0.8,-2.49 -1,-1.1 1.89,1.3 0.4,-2.79 -0.8,-0.5 1.59,-1.79 2.29,-1.19 -2.49,1.79 2.49,-0.7 4.68,-2.39 1.3,-0.8 2.19,-1.89l-5.68 -1.3c-8.17,-0.2 -7.67,0.9 -15.84,0.2 -1,-0.1 -2.19,0 -3.19,0.1l-15.84 -0.1c-1.1,-0.1 -1.99,-0.2 -3.19,-0.2 -2.99,0.1 -3.69,0.6 -6.38,0 -6.78,0 -195.08,-0.6 -199.66,0.3 -5.28,1.1 -7.37,4.18 -9.56,8.27l-22.22 41.25c-0.6,1.1 -1,1.69 -1.59,2.89 -0.9,1.89 -0.9,1.39 -1,3.19l0.6 0.3z"/>
    <path class="fil0" d="M308.91 183.04c2.59,-0.9 1.1,2.69 1.79,-3.29 0.2,-1.79 -0.6,-7.27 0.1,-10.86l0.4 -1.19c-0.1,1.39 -0.4,3.29 -0.4,4.68 0,5.18 -0.3,1.19 0.6,2.69l0.2 0.2c0.3,1.79 1.1,-2.49 -0.5,0.6 -0.7,1.39 -0.5,1 -1,2.59 2.29,0.1 1,-0.3 2.39,0.7l1.19 1.19 0.6 -2.49c1,1.59 1.1,-0.1 2.39,1.89 1.19,1.79 -0.7,1.3 1.99,3.19 -2.09,0 -0.7,-0.1 -1.39,-0.3 -0.1,0 -0.3,-0.1 -0.5,-0.2 -0.2,-0.1 -0.4,-0.1 -0.6,-0.2l-1.39 -0.4c0.1,4.48 -1.19,3.29 1.89,3.19 -0.2,0.1 -0.4,0 -0.5,0.3l-1.99 0.6c-3.39,0.5 -1.59,-0.1 -1.99,0.6l-0.1 -1c0,-0.1 -0.1,-0.2 -0.2,-0.3l-1.69 -1.39c-2.59,0.9 1.5,-1.19 -0.8,0.6 -0.1,0.1 -0.3,0.2 -0.4,0.3l-0.7 0.6c-5.18,4.38 -4.08,1.3 -6.48,2.49 -1.99,0.9 -3.19,3.49 -3.69,5.18 1.3,0 2.49,-0.1 2.99,1.1l0.3 0.7c0.1,0.1 0.1,0.3 0.2,0.4 0.1,0.1 0.2,0.3 0.3,0.4 0.1,0.1 0.2,0.3 0.3,0.5 0.1,0.2 0.2,0.3 0.3,0.5 0.1,0.1 0.2,0.4 0.3,0.5 0.1,0.1 0.3,0.3 0.3,0.5 2.39,-3.29 0.8,-3.69 0.7,-3.79 -0.9,1 0.2,0.3 0.6,1.79 0.9,3.79 -0.8,5.38 5.18,5.68l0.6 0c1.59,-0.2 0.3,0.8 0.8,-0.4 -2.29,0 -4.68,0 -6.97,0 -8.07,-0.2 -5.48,0 -6.97,1.89 3.79,-1.99 5.78,-1.3 10.16,-1.3 3.39,0 7.17,-0.4 10.36,0.5 4.18,0.5 7.17,-2.89 8.17,-6.18 1.1,-3.49 0.6,-9.96 0.6,-13.85 0,-2.49 7.97,-1.39 13.25,-1.39 13.95,0 98.14,-0.7 102.82,0.3l0.5 1.69c1.69,1.3 0.7,0.3 1.3,2.49 0.7,2.59 0.1,5.68 0.1,8.27l0 33.97c-0.4,-2.19 -0.6,-3.69 2.09,-2.09 2.69,1.59 0.6,-0.1 0.4,3.69 0,0.2 -0.1,0.4 0,0.6 -0.2,0 -1.19,-0.3 -1.3,-0.3 -0.6,0 -0.5,-1 -0.4,0.1 0.1,1 0,0.7 1.69,0.1 -0.4,1.69 -0.7,2.59 -0.8,4.08 0,0.8 0.1,0.8 0,1.39 0,2.19 -1.3,2.89 2.29,3.39 0.4,0.1 -0.1,-0.6 1.69,0.3l1.3 -5.38 2.59 0.1 0.7 -3.19 2.09 2.39c0,0 0.9,1.89 0.9,1.99 -0.5,0.7 -1.5,1.69 -2.19,1.59 0.1,0.1 0.4,0 0.5,0.2 0.1,0.2 0.4,0.2 0.5,0.2 0.1,0 0.3,0.1 0.5,0.1 0.1,0 0.3,0.1 0.5,0.1 0.1,0 0.3,0 0.4,0.1l0.9 -52.41c-0.8,1.99 -0.9,-0.2 -1,1.89 1,0.7 0.1,-0.3 0.8,1.3 0.6,1.19 0.4,1.3 1.1,2.59l-1 0.1c-0.1,0 -0.3,0.1 -0.5,0.1l-3.99 2.29c0.2,0 2.89,0 2.89,1.3 -2.59,2.39 0.6,0.6 -1.79,0.8l-3.99 -0.5c1.1,-3.39 -0.1,-1 2.19,-3.19 -0.9,-2.09 -0.3,-0.5 -0.7,-1.3l-0.6 -1c-0.1,-0.1 -0.2,-0.4 -0.3,-0.6l1.19 -0.7c1.69,-0.3 1.1,0 1.69,0.1l-2.99 -1c-0.2,0 -0.4,0.2 -0.6,0.2 -0.2,0.1 -0.4,0.3 -0.6,0.4 -0.2,0.1 -0.4,0.3 -0.6,0.4 0.1,-0.2 0.3,-1 0.3,-1.1l-0.2 -6.08c-0.5,-1.3 -1,-1.5 -1.69,-2.29l2.39 0.2c0,0 0.1,0 0.2,0l1.89 -0.8c0.1,-1.79 -0.1,-0.6 -0.2,-1.79 0,-0.2 -0.1,-0.4 -0.1,-0.6 -0.2,-2.09 -0.6,-2.29 1.19,-2.79 3.39,-1.1 0.3,-0.4 2.39,0.1 -2.19,-0.2 -3.59,-3.29 -4.08,-5.08 -2.09,-0.2 -1.19,-0.1 -1.89,-0.6 -1.1,0.7 -0.8,1.19 -1.3,2.49 -3.19,-0.4 -3.89,-0.2 -4.68,-2.89l0.2 -2.19 1.79 -0.1c0.1,0 0.3,0 0.4,0.1l-0.9 -3.49c0,0.1 0.1,-0.3 0.1,-0.3l0.3 -0.5c0,0 0.2,-0.1 0.2,-0.2 0.1,0 0.2,-0.1 0.3,-0.1l2.19 -0.5c2.29,-0.5 2.59,0.3 3.39,-1.89 1.99,1.39 1.79,-0.1 1.59,2.89 2.09,-1.99 -1.69,-0.8 2.79,-1.5 1.69,-0.3 -1.3,-1.69 2.29,0.6l0.1 -9.17c-3.89,1.79 1,0.5 -1.89,4.08 -1,1.3 -3.09,1.1 -5.28,1 0.1,-0.3 0.3,-1.19 0.4,-1.39l0.1 -0.8c0.4,-2.09 1.69,-1.69 0.1,-3.09l-0.3 1.1c0,0 -0.1,0.2 -0.2,0.2l-0.8 0.4c-0.2,0 -0.4,-0.2 -0.5,0 -0.8,1.59 -1.3,-0.8 -2.29,-1.59 0,0.2 -0.2,1.69 -1.5,1.99 -4.28,0.8 -1.89,0.9 -2.59,-1.59 0,2.69 0.7,6.18 0.1,8.97 -0.6,2.89 0.5,1.5 -1.69,2.69 -6.18,-0.6 -20.42,0.3 -28.2,0.3 -9.76,0 -19.43,0 -29.19,0 -7.67,0 -54.8,0.9 -57.59,-0.7 -2.09,0.4 -1.59,-0.5 -1.69,-2.89l0.1 -33.77c0,-11.76 -0.8,-27.2 0.3,-38.46 -5.08,0.2 -1.99,1.5 -5.58,2.29 -1.3,4.38 0.9,-1.69 -1.99,0.1 -1.89,1.1 -0.9,-0.5 -0.9,1.59l0.8 2.09c-0.9,-0.9 -1.59,-0.3 -1.69,-0.3l-2.49 0.6c-0.1,0 -0.3,0.1 -0.3,0.2l-0.9 1.19c0,0.1 -0.1,0.3 -0.1,0.4l0.3 2.29c0.5,0.2 1.79,1.19 4.48,0.6 -2.69,0.4 0.1,0.3 -1.59,1.89 0,0 -0.2,0.1 -0.2,0.2 -1.59,1.19 -0.3,0.2 -0.4,0.2 -2.69,0.9 2.69,-0.1 -1.3,0 -2.59,0 -1.99,0.5 -4.08,0.3 0.9,3.99 0.3,7.27 0,10.16l1.3 -69.14c0.7,-1.3 1.59,-0.3 0.6,-1.3 0.1,0.2 0.4,1.19 0.5,1.39 0.8,3.19 -0.3,7.47 2.29,7.47l-4.68 0 0.2 11.46c0,0.3 0,0.4 0,0.6l0 20.92c0.3,3.59 0.7,2.19 -0.8,5.78 4.88,-1.39 0,0.6 2.89,-0.2 0.6,-0.2 0.3,3.09 1.39,-1.59l-0.1 -3.89c0,-1.59 0.5,-0.6 -0.1,-3.19 -0.2,-1 -0.4,-1.39 -1.5,-0.5 0,0 -0.1,0.2 -0.1,0.2 0,0 0,0.2 0,0.3l-0.5 -1.19c2.99,-0.1 1.79,0.5 2.59,-0.9 0,1.19 1.39,3.79 3.09,4.78 1.3,0.8 1.5,0.6 2.69,1.1l1.3 -1.39c0.1,-0.2 0.5,-1.19 0.5,-1.3 0,-0.1 0,-0.3 0,-0.4 0,-0.1 -0.2,-0.5 -0.3,-0.6 -2.19,-2.79 1.59,0.2 -0.6,-0.2 0,0 -0.2,0 -0.2,0l0.8 0.1c2.19,0 3.19,-0.6 4.68,-1.79 -0.7,-2.19 0.1,-2.69 -2.99,-2.79 0,-2.99 0.5,-1.39 1.5,-2.99 0.1,-0.1 0.2,-0.3 0.3,-0.4 0,-0.1 0.1,-0.3 0.2,-0.4 0.4,-2.69 -1.19,-1.79 -2.79,-2.49l1.59 -1c1.1,0.7 0.8,0.5 2.69,1l-0.1 -35.57 -1.99 0.6c-1.1,-2.69 1.99,1.3 -1.3,-1.1 -2.39,1 -1.59,-2.59 -1.3,2.99 -0.1,-0.2 -0.1,-0.5 -0.2,-0.7 -0.1,-0.2 -0.1,-0.4 -0.2,-0.6 -0.5,-1.39 0.2,0.2 -0.4,-1l-2.49 -1.19c-0.1,0 -0.5,-0.2 -0.7,-0.3 1.1,-0.4 0.3,-0.2 1.19,-0.3l1.99 -0.3c-0.6,-2.39 -1.19,-1.69 -2.09,-3.29 -0.1,-0.1 -0.2,-0.3 -0.2,-0.4l-0.7 -2.69c-3.19,0.7 -1.59,0.9 -3.79,1.3 -0.1,0.2 -0.2,0.4 -0.3,0.6 -2.89,7.47 -1.99,-0.3 -3.79,6.97 5.78,-0.4 4.28,-0.1 4.68,-1.3l-0.5 1.69c-0.5,1.19 -0.2,-0.9 -0.7,1.5 0.2,-0.1 1.69,2.69 0.2,-1 -1,-2.39 -1.99,-0.7 -1.99,-0.7 -1.3,0.8 -1.19,3.29 -1.3,4.78 0,-3.39 0,-6.78 0,-10.16 0,-8.57 1,-10.46 -1.19,-7.37 -1.69,5.48 -0.2,69.24 -0.3,81 -0.3,27.1 0.8,55 -0.2,82l-0.19 -0.09z"/>
    <path class="fil0" d="M55.35 378.42c0.2,-0.5 0.3,-0.4 0.5,-1.89l0.1 -14.65 2.69 1.99c0,-0.2 -1.5,0.2 -1.59,1.89 -0.2,3.29 1.79,2.89 3.59,1.69 2.69,-1.59 -2.49,-0.8 1.79,-1.19 0.1,0 0.3,0 0.5,0 1,-3.29 -0.9,-1 0.6,-2.49 0,0.1 0,0.2 0.1,0.3 0,0.1 0.1,0.2 0.1,0.3 0,0 0.1,0.2 0.2,0.2l1.59 0.5c-0.7,0.3 -1.79,0.3 -2.09,2.59l0.2 1.89c3.19,0.5 -0.7,0.9 1.69,-0.1 0,0 0.2,-0.1 0.2,-0.1l0 -0.4c1.5,2.29 -2.89,-0.7 1.1,1.19 2.79,1.3 -0.3,0.8 0.8,0.1 -1,0.3 -1.59,0.1 -2.39,1.39 -0.1,0.2 -0.2,0.3 -0.3,0.5l-0.5 3.09c2.99,-0.7 5.38,-1.69 6.28,-6.18l0 -9.07c0,-0.3 0,-0.4 -0.1,-0.7 0,-0.3 0,-0.4 0,-0.7 0,-0.3 0.1,-2.39 0.1,-2.39l-0.2 -6.68c0.2,-1.19 -1.1,0.6 0.4,-1.19l-0.2 14.85c0,5.28 -0.3,11.26 0.6,15.84l0 -184.12c0,-2.09 0,-4.18 0,-6.38 -0.1,-2.69 -0.3,-4.58 1.19,-6.38l0.4 -1.89 62.47 0.1c0.7,-2.19 -0.2,-0.8 1.3,-2.09 1.89,0.3 1.59,0.4 2.49,-0.3l0.9 -1c0.1,-0.1 0.9,-1.1 1.1,-1.3 0.8,1.79 2.39,1.19 2.59,1.3 1.3,-2.79 1.3,-0.6 1.3,-2.59l-3.69 0.5 -1.39 -1.79c0.1,0 0.3,-0.1 0.4,-0.1l4.08 0.1c-0.6,-1 -0.4,-2.09 0,-3.19 -1.99,-0.4 -0.3,0.4 -2.39,-1.69l-1.39 -1.5c0.7,1.79 0.2,0.3 -1.5,1.69l-0.4 0.4c0,0.1 -0.1,0.2 -0.2,0.3l-1.79 2.69c-0.3,-3.19 0.3,-1.89 -3.19,-1.3 1.1,-3.59 -0.2,0.4 -0.5,-5.18l-0.1 -1.19c1.1,0.6 2.29,0.6 2.39,0.7 2.99,0.2 0.4,3.69 2.09,0 0.1,-0.2 0.4,0 0.5,0 -3.29,-0.2 -1.1,0.4 -1.99,-0.8 -1.99,-2.89 -0.1,-1.19 0.1,-1.69 1,0.5 0.1,0 1.3,0.9 2.09,1.79 0.2,1.19 1.89,1.59 -0.7,0.5 -0.2,1.5 -1.3,-3.29l-57.09 0c-1.39,0 -3.19,0.1 -4.48,0l-3.09 -0.8 -0.6 -0.3c-2.09,-2.09 -1.39,-5.18 -1.3,-8.87 0,-6.97 0.8,-56.19 -0.6,-59.68l-0.2 13.55c0.3,-2.99 -0.1,-5.18 0.8,-8.47 -3.29,0.9 -2.79,0 -4.18,0.9 3.79,-1.69 -1.39,-3.39 3.49,-2.19 0,-6.68 0.2,-6.38 -1.99,-7.17 -2.19,-0.8 -1.39,-0.5 -2.89,0.1 -4.58,1.69 0.8,1.39 -2.79,1.59l-3.79 0.4c0.8,2.19 -0.1,0.6 1.39,1.89l1.19 0.7c1.1,0.9 0.8,0.7 1.19,2.49l2.29 -1.5c0.1,-0.1 0.3,-0.2 0.4,-0.3l1.79 -0.8c-0.5,0.3 -0.7,0.4 -1.3,1.1 0,0.1 -0.1,0.2 -0.2,0.3 0,0 -0.1,0.2 -0.1,0.2l-0.6 0.9c-3.79,4.58 -0.1,3.39 -4.18,5.08 1,1.79 0.3,1.5 1.3,2.49 0.9,-1.1 0.8,0.1 -0.4,-0.5l-0.8 0.5c0,0 0.9,-0.6 0,-3.19 -2.59,0.1 -5.08,2.59 -5.08,-1 0.1,0.1 0.8,0.8 1.1,0.9 1.79,0.4 0,0.6 1.1,-0.3 1.39,-1.19 0.4,0.9 0.3,-1l-0.6 -0.6c2.39,0 0,1.5 2.49,1.89 0.1,-0.2 0.2,-0.4 0.2,-0.6 0,-0.2 0.1,-0.4 0.2,-0.6l0.3 -3.89 -3.59 0.8c-0.2,0.1 -0.3,0.2 -0.4,0.3 -0.6,0.4 -0.7,0.8 -1.39,1.69 0.3,-0.7 0.4,1 0.2,-1.1 -0.1,-1 -0.5,-1.5 -0.6,-1.69l0 283.15 0.1 0.5z"/>
    <path class="fil0" d="M0.95 404.42c0.7,2.59 0.5,4.78 0.5,7.67l0.6 -3.19c2.19,4.28 2.39,0.7 2.49,0.6 0,-9.76 -0.3,-7.07 2.49,-8.27 -0.1,-0.3 -0.2,-1 -0.3,-0.8l-0.6 -1.3c-1.69,-2.39 -0.7,-0.6 -1.1,-0.4 3.69,-1.69 0.3,0.1 3.09,0.2 1.1,0 2.49,-1.1 3.39,-1.69 0.2,-0.1 0.4,-0.2 0.6,-0.4l-1.5 -2.39c-0.9,-1.3 -0.6,-0.1 -1,-2.09 -1.1,1.3 -0.6,-0.2 0.1,0 0,0 0.1,0 0.2,0 0,0 0.2,0.1 0.3,0.1l2.09 1.19c1,-2.09 0.8,-3.09 4.48,-3.19l-0.6 -3.79c0.1,1 0.1,0 0.6,0.8 1.69,2.49 -0.7,2.59 1.99,2.39 1.89,-0.1 1.3,1.5 1.59,-1.89 -0.2,1.39 -0.9,0.9 1,2.49l-4.08 1.59c1.59,0.9 0.5,-3.49 1.79,2.99 0.4,1.89 -0.6,-0.6 0.3,0.9 -1.69,-1.59 -1.69,-2.09 -5.08,-2.19 0.1,0.2 0.3,0.3 0.3,0.7 0.1,0.4 0.2,0.5 0.3,0.7 0.1,0.1 0.2,0.4 0.3,0.6l2.29 2.59c3.79,3.99 0.2,2.39 3.09,3.69 2.99,-1.5 2.69,-3.19 8.27,-4.38 3.89,-2.49 10.96,-1.3 15.84,-1.3 -0.9,-1.1 0,-0.8 -1.79,-1.1 -3.19,-0.5 -1,-0.2 -1.79,0.4l0.6 -1.1c0.9,-1.59 -0.2,-1.3 1.1,-1.39 -0.2,-0.1 -1.3,-2.29 -0.4,0.9 0.1,0.3 -1.99,1.39 1.69,1.39 3.19,0 1.19,0.8 2.09,-1.59 0.8,-1.99 0,-1.5 -0.2,-1.99 1.5,-0.1 -0.4,0.2 1.5,-0.1 3.99,-0.8 0.8,-1.79 2.39,2.69l3.69 -2.19c0.1,-0.1 0.3,-0.2 0.5,-0.3 -3.29,-3.59 -0.9,-2.29 -3.29,-4.78 -2.79,-2.79 -3.59,-1 -5.38,-1l0 -1.99c-0.1,-1.5 -0.2,-1.69 0,-3.09 7.07,0 4.98,0.4 8.27,-0.4 0.2,0 0.4,-0.1 0.6,-0.2l-13.95 0c-1.19,1.3 -2.09,-0.5 0.2,0.5 2.39,1 0.5,0 0.4,-0.2 -2.89,1.99 -0.7,2.29 -2.39,4.28 -0.1,0.1 -0.2,0.2 -0.3,0.3 -0.1,0.1 -0.2,0.2 -0.3,0.3 -0.1,0.1 -0.4,0.4 -0.6,0.5 0.3,2.09 -0.1,3.09 1.59,3.79 -1.89,0 -0.4,-4.28 -4.08,-2.69l2.39 -1.39c2.09,-0.9 -0.4,1 2.39,-1.19 -2.09,-2.09 1.89,-1.1 -3.29,-1.59 -3.39,-0.3 -0.8,-0.2 -2.19,0.5 -1.39,0.7 -0.5,0.3 -1.89,1.39 -0.1,0.1 -0.3,0.2 -0.4,0.3l-1.19 0.8c1.3,-0.2 0.7,-1.39 -0.1,-2.09 -1.89,-1.69 -3.29,-1.3 -3.39,-1.39l-1.59 -1.59c-1.1,0.9 -1.59,1.79 -3.19,1.89 -0.2,-1.59 0.1,-1.39 0.7,-2.39l1.69 -2.49c-1.99,-0.5 -3.09,1.39 -3.09,-1.99l0.1 -17.93c-0.2,0 -0.4,-2.79 -0.5,2.39 0,3.09 -1.19,9.96 2.69,9.86l1.89 -0.7c0.2,-0.2 1.1,-0.7 0.4,-1.39 -0.8,1.1 -0.7,-1.69 -0.5,1.99 0.1,1.59 2.09,4.08 2.19,3.89 0,-0.1 0.2,0.3 0.2,0.4 -3.59,0.6 -1.79,1.19 -2.49,2.49 1.59,0.3 1.5,0.4 3.19,0.6 -3.09,-2.69 -1.5,0.9 -1.3,2.49 1.19,0.2 4.78,1.79 1.89,-1.3 0.1,0.1 0.2,0.3 0.3,0.4l2.29 2.79 1.69 -3.09c0,-0.2 0.5,-1.39 0.9,-2.09l0.6 -4.98c0.7,0 1.69,0.5 1.89,0.6l0.6 -245.69 -1.59 2.99c0,-0.1 -0.2,0.2 -0.3,0.3 0.1,-0.1 0.2,-0.2 0.2,-0.3 0,-0.1 0.1,-0.3 0.1,-0.3l-0.3 -1.99c-1.5,0.4 -2.59,2.19 -3.79,0.6l-2.29 2.49c0,-0.1 -0.2,0 -0.3,0l-1.89 -1.3c-0.2,1.3 -0.8,2.09 0,3.19 -1.1,-2.49 -0.3,-3.09 0.4,-4.78 2.39,-5.68 -3.69,-2.09 -6.08,-2.19 0.8,4.58 -1.3,3.79 0.6,9.47l4.08 0.3c0.2,0 0.7,0 0.8,0.1 0.2,0 0.3,0 1.5,0.4 -1.19,-0.6 0.2,-0.8 -0.7,0.6l-2.39 1.89c0.1,0 0.3,-0.7 0.3,-0.8 -0.1,-0.4 0.6,-2.19 -1.69,-1l-1.69 4.08c0,0.1 0,0.3 0.1,0.3 0,0.1 0.1,0.3 0.1,0.4l1 1.99c-1.39,-1.19 0.4,0.1 -1.99,-0.5 -0.4,3.69 -1.3,9.27 0.7,12.55l5.68 -2.49c0.5,2.19 -0.5,0.2 -0.6,2.49l1.19 0.2c2.59,0.3 0.8,0.7 3.19,-0.3 2.89,-1.19 -0.6,-1 1.39,-0.9 1,0.1 0.2,0.8 0.6,2.29l-1.79 1.3c0,0 -0.2,0.1 -0.2,0.2l-1.89 1.5c-0.1,0 -0.2,0.2 -0.2,0.2l-2.89 4.48c1.59,1.3 -2.39,1.19 3.19,1.3 -1.59,0.1 -1.5,0.3 -1.99,1.3l0.1 0.7c-0.7,-0.8 -0.9,-2.79 -3.19,-0.6 1.19,-1.19 -0.4,-2.59 1.79,-6.28l0.7 -1.39 -5.68 -0.7 0 -86.28c0,-2.49 0.9,-9.67 -0.6,-10.76 0.9,3.69 0,5.48 2.49,8.27l0.8 -2.19c0,-0.2 -0.2,-0.7 -0.2,-1 0.2,0.1 0.5,0.4 0.6,0.5l1 0.6c0.1,0 0.2,0.1 0.3,0.1l0.7 0.1c-1.1,0.4 -0.7,1.99 -1.3,2.59 -0.1,0 -0.2,0 -0.3,-0.1l-2.99 -1.59 -0.7 16.24c0,1.3 -0.2,2.79 -0.2,3.79 -0.1,3.19 0.6,3.89 -0.2,6.97l1 1.3c0.2,2.09 -2.09,6.68 -0.2,11.86l-0.4 1.3c0,-0.1 -0.3,0.1 -0.4,0.2 1.3,3.49 0.8,1 0.5,4.38 -0.1,1.3 -0.3,2.99 -0.4,4.48 2.09,0.6 -2.19,-0.6 1.3,0.3 4.28,1.1 3.09,-0.7 3.19,-0.7 0.7,-1.5 0.2,-2.39 -0.7,-3.49 -1.99,-2.49 0,0.9 -0.1,0 0,0 0,0.1 0,0.1 0.4,-1.79 0,-0.9 1.1,-2.09l1.1 -0.8c0.1,-0.2 0.3,-0.2 0.4,-0.3l0 -2.99c0.8,1.89 1.89,0.3 2.49,-0.1l-2.59 -1.89c3.39,0 1.79,-0.3 3.69,1.39 0.9,0.8 0,0.3 1.5,1.1 -0.5,-0.4 -0.3,-1.79 -2.29,0.9l-0.8 1.69 3.29 0.5c0.1,0 0.2,0 0.3,0 2.09,0 3.49,0.7 5.28,-0.4l-0.7 -2.39c-0.1,-0.2 -0.2,-0.3 -0.3,-0.5 -0.1,-0.1 -0.2,-0.3 -0.3,-0.4l-0.8 -0.6c-0.1,-0.1 -0.3,-0.2 -0.4,-0.2 -0.1,0 -0.3,-0.1 -0.4,-0.2l-2.79 -1.89c-0.1,-0.1 -0.6,-0.2 -0.8,-0.2 -0.8,-1.1 0.1,-0.5 -0.6,0 0.1,-0.1 0.2,-0.4 0.3,-0.5 0,-0.1 0.2,-0.3 0.2,-0.5l0.1 -0.9c0,-0.1 -0.1,-0.3 -0.1,-0.4l-0.2 -2.79c-0.7,-2.69 -1.19,-2.39 -3.39,-1.39 -1.79,0.8 -3.79,-0.6 -5.08,0.8 3.89,-0.1 0.5,0.3 1.59,-0.7 1.59,-1.3 0.9,-0.7 2.19,-2.49 -2.49,-2.19 -1.89,-4.28 -1.5,-5.08 0.8,-1.59 -0.3,-0.1 0.8,-0.5 3.59,-1.19 1.1,-0.6 2.49,0l1.39 -0.5c1.19,-2.19 1.3,-1.39 1.3,-5.38 -2.29,0.7 -1.89,-1.1 -1.89,1.3 0.3,-0.7 1.19,1.3 0.4,-1.89 -0.7,-3.09 1,0.3 -1.69,-1.89l-0.6 1.19c-0.1,0.1 -0.2,0.2 -0.3,0.3 -0.1,0.1 -0.2,0.2 -0.3,0.3 -0.1,0.1 -0.3,0.2 -0.4,0.3l-0.8 0.5c-0.1,0.1 -0.3,0.2 -0.4,0.3l-1.1 1c0.5,-0.9 0.8,0.1 -0.3,-1l-0.7 -0.3c0,-0.1 -0.2,-0.1 -0.3,0 0.6,-0.2 1.79,-1.19 2.09,-2.69 0,0 -0.1,-0.2 -0.1,-0.4 0,-0.1 -0.1,-0.1 -0.1,-0.1l5.68 0c-1.3,-4.48 -0.4,0.4 0,-2.29 0.3,-2.19 3.89,-3.29 2.59,-4.88 0.2,0.3 0,1 1.39,1.3 2.19,0.5 -1.3,1.39 1.79,-0.5 -0.3,-4.38 -1.89,-3.09 -1.99,-3.19 -1.89,-2.39 1.69,4.18 -0.4,-1.19 -1.39,-3.59 2.79,0.3 -0.8,-1.3l1.89 -2.49c-0.4,-0.1 -0.8,0 -1.19,0.1 -1.79,0.2 -2.39,0.6 -3.99,-0.6l-1.99 -1.3 0.2 -2.59c-0.3,0 -0.5,0.2 -0.8,0.3l-1.69 0.7c-0.7,0.3 1.5,1.19 -0.7,0.3 0,-2.59 -0.2,0.3 0.3,-0.7l0.7 -1.3c0,-0.3 0.2,-0.4 0.3,-0.6l-1.19 -0.7c0,0 -0.4,-0.4 -0.4,-0.5l-0.3 -1.89c-0.3,-1.59 0.3,-0.7 0.7,-3.99l-3.49 0.3c-2.99,7.67 -1.39,29.29 -1.39,39.06 0,13.55 0,27.1 0,40.65l0 203.15c0,10.66 1.19,31.78 -0.3,41.15 -1.79,1.69 -4.58,2.49 -6.78,4.08 -5.98,4.38 -13.45,13.25 -12.05,20.82l-0.31 -0.19z"/>
    <path class="fil0" d="M11.31 495.98c3.19,2.39 8.27,5.18 12.75,4.18 6.78,-1.79 290.73,0.2 292.82,-0.5 -1.89,-2.29 2.79,-1.89 -3.19,-1.89l0.2 -1.19c-0.1,-0.1 -0.3,-0.2 -0.4,-0.6 -0.1,-0.4 -0.3,-0.5 -0.4,-0.6l-1.89 1.59c-2.19,1 -5.28,-1.3 -6.78,-2.09 -0.2,0.4 -0.8,3.39 -2.09,1.69l1.3 -0.1c0,0 1,-0.8 1,-0.9 0.8,-1.19 0.6,-1.39 0.8,-2.89l-1.59 -0.2c0,0 -0.2,0.1 -0.2,0.2 0.1,-0.1 0.1,-0.3 0.2,-0.4l-0.8 -3.99c-1.5,0.2 -1.39,1.19 -3.09,2.19 -0.1,0.1 -0.6,0.2 -0.7,0.3 1.19,0 -1,1.69 0.8,-1l2.09 -1.59c1.89,-0.7 0.9,-0.4 2.09,-0.2 9.76,1.89 9.67,-1.89 12.16,-3.69 -92.46,0 -186.21,-0.5 -278.67,0 -2.39,0 -4.88,0.4 -7.07,-0.4 -1.69,-0.6 -0.9,0 -1.89,-1.19 -2.49,-0.5 -4.28,-1.3 -6.08,-2.69 -1.79,-0.7 -0.7,-0.4 -3.29,-0.8l-0.4 4.48c-0.4,-1.39 0.4,-0.2 -1.19,-0.8l-1 -0.1c0,0 -0.1,-0.1 -0.1,-0.1 0,0 -0.1,-0.1 -0.1,-0.2 0,0 -0.1,-0.2 -0.2,-0.2 0,-0.1 -0.2,-0.3 -0.3,-0.3l-1.89 1.3c0,0.1 -0.2,0.2 -0.2,0.2l-1.59 2.49c-1.39,4.18 0.1,5.68 0.4,7.27l-1.59 2.69 0.09 -0z"/>
    <path class="fil0" d="M459.25 106.72c-0.1,0.7 -0.1,1.79 -0.2,2.59l-0.4 1.89c0,-0.1 -0.1,0.4 -0.2,0.6 -0.4,-1.79 -0.1,-1.89 -1.3,-3.49l-3.19 -1.3c-2.19,0 -2.19,0 -4.08,-0.3 -0.6,1.19 -0.2,0.4 -0.8,1.99 -0.1,0.2 -0.1,1.79 -0.4,1 0,-0.1 -0.1,0.3 -0.2,0.5 -2.59,-2.29 -1.99,-1.59 -2.09,-4.78 -0.1,-1.89 0.2,-2.29 -2.09,-4.38 0,-4.78 0.8,-10.56 -0.6,-14.94l-0.8 0 -0.2 75.42c2.19,-1.19 1.1,0.3 1.69,-2.69 0.6,-2.69 -0.1,-6.18 -0.1,-8.97 0.7,2.59 -1.59,2.39 2.59,1.59 1.3,-0.2 1.5,-1.79 1.5,-1.99 1.1,0.8 1.5,3.19 2.29,1.59 0.1,-0.1 0.4,0.1 0.5,0l0.8 -0.4c0,0 0.1,-0.2 0.2,-0.2l0.3 -1.1c1.59,1.39 0.3,0.9 -0.1,3.09l-0.1 0.8c-0.1,0.2 -0.3,1.1 -0.4,1.39 2.19,0.1 4.28,0.3 5.28,-1 2.79,-3.59 -2.09,-2.39 1.89,-4.08l-0.1 9.17c-3.59,-2.19 -0.6,-0.8 -2.29,-0.6 -4.48,0.7 -0.7,-0.5 -2.79,1.5 0.2,-2.99 0.4,-1.39 -1.59,-2.89 -0.8,2.19 -1.1,1.39 -3.39,1.89l-2.19 0.5c-0.1,0 -0.2,0.1 -0.3,0.1 0,0 -0.2,0.1 -0.2,0.2l-0.3 0.5c0,0 -0.1,0.4 -0.1,0.3l0.9 3.49c-0.1,0 -0.4,-0.1 -0.4,-0.1l-1.79 0.1 -0.2 2.19c0.8,2.69 1.5,2.49 4.68,2.89 0.4,-1.3 0.2,-1.79 1.3,-2.49 0.7,0.5 -0.2,0.4 1.89,0.6 0.5,1.79 1.89,4.88 4.08,5.08 -2.09,-0.5 1,-1.1 -2.39,-0.1 -1.69,0.5 -1.39,0.7 -1.19,2.79 0,0.2 0.1,0.4 0.1,0.6 0.2,1.19 0.3,0 0.2,1.79l-1.89 0.8c0,0 -0.1,0 -0.2,0l-2.39 -0.2c0.7,0.8 1.3,1 1.69,2.29l0.2 6.08c0,0.1 -0.3,0.9 -0.3,1.1 0.2,-0.1 0.4,-0.3 0.6,-0.4 0.2,-0.1 0.4,-0.3 0.6,-0.4 0.2,-0.1 0.4,-0.2 0.6,-0.2l2.99 1c-0.6,-0.1 0.1,-0.4 -1.69,-0.1l-1.19 0.7c0.1,0.2 0.2,0.4 0.3,0.6l0.6 1c0.4,0.8 -0.2,-0.8 0.7,1.3 -2.39,2.09 -1.19,-0.3 -2.19,3.19l3.99 0.5c2.29,-0.3 -0.8,1.59 1.79,-0.8 0,-1.19 -2.69,-1.19 -2.89,-1.3l3.99 -2.29c0.1,0 0.4,-0.1 0.5,-0.1l1 -0.1c-0.7,-1.19 -0.5,-1.3 -1.1,-2.59 -0.7,-1.5 0.2,-0.5 -0.8,-1.3 0.1,-2.09 0.1,0.1 1,-1.89l-0.9 52.41c-0.1,0 -0.3,0 -0.4,-0.1 -0.1,0 -0.3,-0.1 -0.5,-0.1 -0.1,0 -0.4,-0.1 -0.5,-0.1 -0.1,0 -0.4,0 -0.5,-0.2 -0.1,-0.2 -0.4,-0.1 -0.5,-0.2 0.7,0.1 1.69,-0.9 2.19,-1.59 0,-0.1 -0.9,-1.99 -0.9,-1.99l-2.09 -2.39 -0.7 3.19 -2.59 -0.1 -1.3 5.38c-1.69,-0.9 -1.19,-0.2 -1.69,-0.3 -3.49,-0.6 -2.29,-1.19 -2.29,-3.39 0,-0.6 -0.1,-0.6 0,-1.39 0.1,-1.39 0.4,-2.39 0.8,-4.08 -1.69,0.5 -1.59,0.9 -1.69,-0.1 -0.1,-1.19 -0.2,-0.1 0.4,-0.1 0.1,0 1,0.2 1.3,0.3 -0.1,-0.2 0,-0.5 0,-0.6 0.2,-3.79 2.29,-2.09 -0.4,-3.69 -2.69,-1.59 -2.59,-0.2 -2.09,2.09l0 -33.97c0,-2.59 0.6,-5.68 -0.1,-8.27 -0.6,-2.19 0.4,-1.19 -1.3,-2.49l-0.1 196.47c1.69,-1.5 1.5,2.69 1.5,-2.29l2.29 -36.27c0,-0.1 0.2,0.4 0,-0.7 0,-0.2 -1.1,-1.69 0.9,-4.38 1.39,-1.89 -0.8,-0.1 1.99,-1.79 -0.1,1.19 -0.7,3.39 -0.6,4.28 0.2,2.09 0.5,1.5 1.79,2.09l-1 0.2c-1.1,1 -0.9,1.69 -0.9,2.99 3.79,-1.39 0.2,-1.5 3.79,-0.6 0,0 -0.8,-2.59 -0.8,-2.69 0,-0.2 -0.1,-0.4 -0.1,-0.6 0,-0.2 0,-0.4 0,-0.5 0,-0.2 0,-0.4 0,-0.5 0.3,-1.99 -0.2,-1.1 1.39,-1.59 2.09,-0.5 0.5,-0.4 2.69,0.1 0.4,1.5 0.6,-0.4 0.2,1.59 -0.5,2.99 0.1,0.3 -0.5,1 -1.79,2.39 -2.09,-1.89 -1.69,2.39l1.99 0c0,0 0.2,-0.2 0.2,-0.2 1.79,-1.1 0.5,-1.1 3.49,-1.1l0 8.87 -0.5 -242.5 0.09 0.28z"/>
    <path class="fil0" d="M313.59 334.48c1.99,2.89 4.88,13.85 5.78,18.73l6.78 24.71c1.1,0.4 1.5,0.5 0.7,1.99l-0.7 1c0,0.1 -0.1,0.2 -0.1,0.3 -0.4,5.98 1.79,-3.09 -0.3,4.68 2.29,0.7 3.29,2.69 3.49,5.38l0.1 3.59c0.1,0.2 0.1,0.4 0.3,0.6 3.29,-2.99 1.1,-2.49 2.79,-4.28 0.1,-0.1 0.7,-0.5 0.8,-0.7l-1.19 -1c0,0 -1.1,0.2 -0.2,-1.99 0.8,-1.89 -0.5,-0.3 0.9,-1.5 -1.89,1.3 -1.5,6.58 2.59,2.39l1.39 -1.3c0.1,-0.1 0.4,-0.3 0.5,-0.4 -0.1,-0.2 -0.2,-0.6 -0.3,-0.5 0,0.1 -0.2,-0.4 -0.2,-0.5l-1.69 -3.49c0.6,-0.3 3.99,0.4 8.17,-0.9 0.1,0 0.2,-0.1 0.3,-0.1 0.1,0 0.3,0 0.4,0l2.29 -0.3 -0.6 -1.99c-0.3,-2.89 -4.78,-16.64 -5.98,-21.12 -1.19,-4.48 -6.08,-19.33 -5.08,-22.82 8.97,-0.1 17.93,-0.1 27,-0.1 21.92,0 17.93,-1.5 22.02,5.68 6.78,12.05 12.75,24.41 19.53,36.46 4.48,-0.9 -1,0.5 2.89,-0.4 1,-3.69 -0.9,-2.09 0.4,-4.08 0.2,-0.4 0.3,-0.3 0.7,-0.8 0.1,-0.1 0.3,-0.3 0.4,-0.4 0.1,-0.1 0.3,-0.3 0.4,-0.4 -0.2,-0.1 -0.4,-0.2 -0.5,-0.1l-1.3 -0.4c-1.79,-0.8 -1.3,-1.5 -0.2,-0.2l1.89 -1.5c0.2,-0.1 0.4,-0.3 0.6,-0.4l-1.3 -0.7c-0.1,0 -0.4,-0.1 -0.5,-0.1 -2.29,-0.3 -1.5,1.79 -0.4,-1.39 1.59,-4.88 1.89,-3.69 2.79,-3.79 -3.39,0.3 -0.8,-0.2 -1.89,2.09 1.1,0.3 2.29,-0.1 3.19,0.6 -2.79,2.99 1.39,3.19 2.69,2.99 1.79,-0.3 -1.3,-1.3 1.79,-0.5l-3.19 5.08c0.5,0.2 1.39,-0.3 1.99,0.6 0.7,1.1 -0.2,0 0.4,1.19l0.6 1c1.69,2.39 -0.9,0.1 0.9,0.9 2.09,-1.19 0.8,0.3 1.59,-1.89 1,-2.69 0.2,-1.3 -0.3,-1.79l3.19 -0.2 0.2 -1.89c-1,-3.19 -4.48,-8.97 -6.18,-12.16l-12.55 -23.71c-1.89,-3.49 -4.18,-8.17 -6.28,-11.46 -6.28,-9.56 -15.54,-7.17 -29.09,-7.17 -12.25,0 -24.51,0 -36.86,0 2.69,0.6 3.39,0 6.38,0 1.1,0 2.09,0.1 3.19,0.2l15.84 0.1c1,-0.1 2.09,-0.1 3.19,-0.1 8.17,0.7 7.67,-0.4 15.84,-0.2l5.68 1.3c-0.9,1.1 2.39,-0.5 -2.19,1.89 -4.98,2.49 -0.2,-0.5 -2.49,0.7 -2.39,1.3 -1.19,-1 -1.59,1.79 -2.89,-2.29 -2.79,-3.79 -1.89,-1.3l-3.79 0c-0.2,-0.2 -0.3,-0.5 -0.3,-0.7 -0.1,-0.3 -0.8,-2.49 0.3,-1.89 -3.09,0 -1.3,0.2 -1.89,-0.6 0,0 2.79,1.39 0.1,3.09l-32.48 -0.1 -4.28 -1.69c-0.1,0 -0.2,-0.1 -0.3,-0.2l-0.6 -0.3c-0.1,0 -1.1,0.2 -1.19,0.2 -3.39,0.7 3.29,-2.19 -1.5,1.19l-2.89 1c0,0.1 0.1,0.2 0.1,0.2l0.3 0.4c2.79,3.99 1.39,1.5 1.99,4.08 0,0.1 0,0.3 0.1,0.4l1.3 2.49c-1.5,0.3 -2.29,-0.7 -1.69,1.89l0.4 1.89c-2.09,0.2 -2.99,0.1 -3.39,-1.89 -0.8,-4.18 0.5,0 0.8,-2.49 -0.1,0 -0.2,0.1 -0.3,0.1l-0.6 0.2c-0.1,0 -0.3,0.1 -0.3,0.2l-8.67 1.3c-2.49,-1.3 1.79,-1 -0.8,-0.1 -0.1,0 -0.9,0.7 -1.99,0.9 0.1,-1.69 0.1,-0.8 0.2,-1.89l0 -0.9c0,-0.2 -0.1,-0.5 -0.1,-0.6l-0.1 -0.4c-2.39,1.19 -1.59,1.39 -0.3,3.69l0.9 2.69c6.18,0.5 5.78,0.2 3.69,1.69l-0.19 0.19z"/>
    <path class="fil0" d="M54.45 379.41c-4.88,-0.7 -10.56,0.9 -15.34,-0.6 -1.39,-6.87 -0.4,-29.89 -0.4,-38.46l0 -232.34c0,-8.87 -1.1,-31.98 0.3,-39.15l14.94 0 0.5 310.55zm-33.08 -323.8l3.49 -0.3c-0.4,3.29 -1,2.29 -0.7,3.99l0.3 1.89c0,0.1 0.4,0.5 0.4,0.5l1.19 0.7c-0.1,0.2 -0.2,0.3 -0.3,0.6l-0.7 1.3c-0.5,1 -0.3,-1.89 -0.3,0.7 2.19,0.9 0,0 0.7,-0.3l1.69 -0.7c0.2,-0.1 0.5,-0.2 0.8,-0.3l-0.2 2.59 1.99 1.3c1.59,1.3 2.19,0.9 3.99,0.6 0.3,0 0.8,-0.1 1.19,-0.1l-1.89 2.49c3.59,1.69 -0.6,-2.29 0.8,1.3 2.09,5.38 -1.5,-1.19 0.4,1.19 0.1,0.1 1.69,-1.1 1.99,3.19 -3.09,1.89 0.5,1 -1.79,0.5 -1.39,-0.3 -1.19,-1 -1.39,-1.3 1.3,1.59 -2.29,2.79 -2.59,4.88 -0.3,2.69 -1.3,-2.19 0,2.29l-5.68 0c0.1,0 0.1,0 0.1,0.1 0,0.1 0.1,0.3 0.1,0.4 -0.3,1.5 -1.5,2.49 -2.09,2.69 0.1,-0.1 0.2,-0.1 0.3,0l0.7 0.3c1.1,1.1 0.8,0.1 0.3,1l1.1 -1c0.1,-0.1 0.3,-0.2 0.4,-0.3l0.8 -0.5c0.1,-0.1 0.3,-0.2 0.4,-0.3 0.1,-0.1 0.2,-0.2 0.3,-0.3 0.1,-0.1 0.2,-0.2 0.3,-0.3l0.6 -1.19c2.59,2.19 1,-1.19 1.69,1.89 0.8,3.19 -0.1,1.19 -0.4,1.89 0,-2.39 -0.4,-0.6 1.89,-1.3 -0.1,3.99 -0.1,3.19 -1.3,5.38l-1.39 0.5c-1.5,-0.6 1.1,-1.1 -2.49,0 -1.1,0.3 0.1,-1.1 -0.8,0.5 -0.4,0.7 -1,2.89 1.5,5.08 -1.3,1.89 -0.6,1.19 -2.19,2.49 -1.1,0.9 2.29,0.6 -1.59,0.7 1.3,-1.39 3.29,0 5.08,-0.8 2.19,-1 2.69,-1.19 3.39,1.39l0.2 2.79c0,0.1 0.1,0.3 0.1,0.4l-0.1 0.9c0,0.1 -0.2,0.4 -0.2,0.5 0,0.1 -0.1,0.3 -0.3,0.5 0.8,-0.5 -0.2,-1.1 0.6,0 0.2,-0.1 0.7,0.1 0.8,0.2l2.79 1.89c0.1,0 0.3,0.1 0.4,0.2 0.1,0.1 0.3,0.2 0.4,0.2l0.8 0.6c0.1,0.1 0.2,0.3 0.3,0.4 0.1,0.2 0.2,0.3 0.3,0.5l0.7 2.39c-1.69,1.19 -3.19,0.5 -5.28,0.4 -0.1,0 -0.3,0 -0.3,0l-3.29 -0.5 0.8 -1.69c2.09,-2.69 1.89,-1.3 2.29,-0.9 -1.5,-0.9 -0.6,-0.3 -1.5,-1.1 -1.89,-1.69 -0.3,-1.39 -3.69,-1.39l2.59 1.89c-0.7,0.5 -1.69,1.99 -2.49,0.1l0 2.99c-0.1,0.1 -0.3,0.1 -0.4,0.3l-1.1 0.8c-1,1.19 -0.7,0.3 -1.1,2.09 0,0 0,-0.1 0,-0.1 0.1,0.9 -1.89,-2.49 0.1,0 0.9,1.1 1.39,1.99 0.7,3.49 0,0 1.1,1.89 -3.19,0.7 -3.59,-0.9 0.8,0.3 -1.3,-0.3 0.1,-1.5 0.3,-3.19 0.4,-4.48 0.3,-3.39 0.8,-0.9 -0.5,-4.38 0.1,-0.1 0.4,-0.3 0.4,-0.2l0.4 -1.3c-1.89,-5.08 0.5,-9.76 0.2,-11.86l-1 -1.3c0.8,-3.09 0.1,-3.79 0.2,-6.97 0,-1 0.1,-2.49 0.2,-3.79l0.7 -16.24 2.99 1.59c0,0 0.2,0 0.3,0.1 0.5,-0.6 0.2,-2.09 1.3,-2.59l-0.7 -0.1c0,0 -0.2,-0.1 -0.3,-0.1l-1 -0.6c-0.1,-0.1 -0.5,-0.3 -0.6,-0.5 0,0.2 0.2,0.8 0.2,1l-0.8 2.19c-2.49,-2.69 -1.59,-4.58 -2.49,-8.27 1.59,1.19 0.6,8.27 0.6,10.76l0 86.28 5.68 0.7 -0.7 1.39c-2.19,3.69 -0.6,5.08 -1.79,6.28 2.29,-2.09 2.49,-0.1 3.19,0.6l-0.1 -0.7c0.4,-1 0.4,-1.1 1.99,-1.3 -5.58,0 -1.59,0.1 -3.19,-1.3l2.89 -4.48c0.1,-0.1 0.2,-0.2 0.2,-0.2l1.89 -1.5c0,0 0.2,-0.1 0.2,-0.2l1.79 -1.3c-0.4,-1.39 0.4,-2.19 -0.6,-2.29 -1.99,-0.2 1.5,-0.4 -1.39,0.9 -2.39,1 -0.7,0.6 -3.19,0.3l-1.19 -0.2c0.2,-2.29 1.1,-0.4 0.6,-2.49l-5.68 2.49c-1.99,-3.29 -1.1,-8.87 -0.7,-12.55 2.39,0.6 0.6,-0.7 1.99,0.5l-1 -1.99c0,-0.1 -0.1,-0.3 -0.1,-0.4 0,-0.1 -0.1,-0.3 -0.1,-0.3l1.69 -4.08c2.29,-1.19 1.59,0.6 1.69,1 0,0.1 -0.2,0.7 -0.3,0.8l2.39 -1.89c0.9,-1.39 -0.5,-1.19 0.7,-0.6 -1.19,-0.4 -1.3,-0.3 -1.5,-0.4 -0.2,0 -0.7,0 -0.8,-0.1l-4.08 -0.3c-1.89,-5.68 0.1,-4.78 -0.6,-9.47 2.49,0.1 8.47,-3.49 6.08,2.19 -0.7,1.69 -1.5,2.29 -0.4,4.78 -0.8,-1.1 -0.2,-1.89 0,-3.19l1.89 1.3c0.1,0 0.2,-0.1 0.3,0l2.29 -2.49c1.19,1.5 2.39,-0.2 3.79,-0.6l0.3 1.99c0,0.1 -0.1,0.3 -0.1,0.3 0,0.1 -0.1,0.2 -0.2,0.3 0.1,-0.1 0.3,-0.4 0.3,-0.3l1.59 -2.99 -0.6 245.69c-0.3,-0.1 -1.19,-0.6 -1.89,-0.6l-0.6 4.98c-0.3,0.7 -0.8,1.89 -0.9,2.09l-1.69 3.09 -2.29 -2.79c-0.1,-0.1 -0.2,-0.2 -0.3,-0.4 2.89,3.09 -0.7,1.5 -1.89,1.3 -0.2,-1.69 -1.79,-5.28 1.3,-2.49 -1.69,-0.2 -1.59,-0.4 -3.19,-0.6 0.7,-1.3 -1,-1.99 2.49,-2.49 -0.1,-0.2 -0.2,-0.5 -0.2,-0.4 -0.1,0.2 -2.09,-2.29 -2.19,-3.89 -0.2,-3.69 -0.3,-0.9 0.5,-1.99 0.8,0.7 -0.1,1.19 -0.4,1.39l-1.89 0.7c-3.89,0.1 -2.69,-6.78 -2.69,-9.86 0,-5.18 0.3,-2.39 0.5,-2.39l-0.1 17.93c0,3.39 1.1,1.5 3.09,1.99l-1.69 2.49c-0.7,1 -1,0.8 -0.7,2.39 1.59,-0.1 2.09,-1 3.19,-1.89l1.59 1.59c0.1,0.1 1.5,-0.3 3.39,1.39 0.8,0.7 1.39,1.89 0.1,2.09l1.19 -0.8c0.1,-0.1 0.3,-0.2 0.4,-0.3 1.39,-1.1 0.5,-0.8 1.89,-1.39 1.5,-0.7 -1.1,-0.9 2.19,-0.5 5.18,0.5 1.19,-0.5 3.29,1.59 -2.69,2.19 -0.2,0.3 -2.39,1.19l-2.39 1.39c3.69,-1.59 2.19,2.69 4.08,2.69 -1.79,-0.7 -1.3,-1.69 -1.59,-3.79 0.1,-0.2 0.5,-0.5 0.6,-0.5 0,0 0.2,-0.2 0.3,-0.3 0.1,-0.1 0.2,-0.2 0.3,-0.3 1.59,-1.99 -0.6,-2.39 2.39,-4.28 0,0.1 1.89,1.1 -0.4,0.2 -2.29,-0.9 -1.39,0.8 -0.2,-0.5l13.95 0c1,0 0.7,0.2 0.4,-0.9 1.3,-0.7 0.9,2.09 0.9,-1l0 -283.15c0.1,0.2 0.5,0.7 0.6,1.69 0.2,1.99 0.1,0.4 -0.2,1.1 0.7,-1 0.8,-1.3 1.39,-1.69 0.1,-0.1 0.3,-0.2 0.4,-0.3l3.59 -0.8 -0.3 3.89c0,0.2 -0.1,0.4 -0.2,0.6 0,0.2 -0.1,0.4 -0.2,0.6 -2.49,-0.4 -0.1,-1.89 -2.49,-1.89l0.6 0.6c0,1.79 1,-0.2 -0.3,1 -1.1,0.9 0.7,0.7 -1.1,0.3 -0.3,-0.1 -1,-0.8 -1.1,-0.9 0,3.49 2.49,1.1 5.08,1 0.9,2.59 0,3.19 0,3.19l0.8 -0.5c1.19,0.7 1.39,-0.6 0.4,0.5 -1,-1 -0.3,-0.7 -1.3,-2.49 4.08,-1.69 0.4,-0.5 4.18,-5.08l0.6 -0.9c0,0 0.1,-0.2 0.1,-0.2 0,-0.1 0.1,-0.2 0.2,-0.3 0.6,-0.7 0.8,-0.7 1.3,-1.1l-1.79 0.8c-0.1,0.1 -0.2,0.2 -0.4,0.3l-2.29 1.5c-0.4,-1.79 -0.1,-1.5 -1.19,-2.49l-1.19 -0.7c-1.5,-1.3 -0.6,0.3 -1.39,-1.89l3.79 -0.4c3.59,-0.2 -1.79,0 2.79,-1.59 1.59,-0.6 0.8,-0.9 2.89,-0.1 2.19,0.8 1.99,0.5 1.99,7.17 -4.88,-1.19 0.3,0.4 -3.49,2.19 1.39,-0.9 0.8,-0.1 4.18,-0.9 -0.9,3.29 -0.5,5.48 -0.8,8.47l0.2 -13.55c1.39,3.49 0.7,52.61 0.6,59.68 0,3.69 -0.7,6.78 1.3,8.87l-0.3 -73.83c0.7,-0.6 -0.6,-0.6 2.29,-1l20.82 0c-6.97,-1.3 3.09,-0.3 -2.29,-2.39 -1.39,-0.6 -6.28,-1.59 -4.08,-3.29l-1.59 3.29c-0.1,0 -0.3,0.1 -0.4,0.1 -0.8,0.2 -1.5,0.8 -2.29,0.4 -2.19,-0.9 -0.8,-0.1 -2.09,-1.79 6.58,-2.39 4.18,-0.8 3.79,-2.59 -1.79,2.89 -3.49,-1.3 -1.3,2.49 -2.79,0 -1.69,-0.2 -3.49,0.5 -0.8,0.3 -0.1,0.2 -1.19,0.6 -2.69,0.8 0.4,0.6 -1.59,0.2 -0.4,-0.9 -0.5,-0.7 -0.5,-2.09l-0.6 -3.09c-0.1,-0.1 -0.3,-0.2 -0.4,-0.3 -0.1,-0.1 -0.2,-0.2 -0.4,-0.3 0.3,0.9 -1.3,2.79 -1.69,2.89 0,0 -1.89,2.19 -2.39,-1.89 0,-0.2 0.2,-0.9 0.2,-1 -0.6,1.59 -1.19,1.59 -2.99,1.39l0.3 4.08c-0.3,1.1 -0.2,2.49 0.1,5.38 -2.09,0 -3.59,-0.5 -4.48,0.6l-1.39 -2.49c-0.3,-0.4 1.5,0.8 -0.4,-0.3l-5.98 -4.68c0.7,-1 -0.6,-2.99 2.19,-0.8 -2.19,-0.7 -0.7,-1.79 -1.59,-4.48 -1.1,-3.29 -0.9,-4.48 -1,-8.27 -2.49,-1.69 -2.09,0.4 -3.79,-3.19 1.5,-0.7 2.59,-1.69 3.79,-0.6l-0.6 -0.7c-1.89,-1.69 -2.69,-1.69 -3.39,-2.09 -0.2,-0.1 -2.09,-0.1 -0.5,-1.69 -0.9,3.29 -3.79,2.99 -5.08,2.09 -1.3,-0.9 -1.1,-1.39 -0.9,-2.49 0.4,-2.39 0.3,-1.39 1.69,-1.99 -1.3,-0.7 -0.7,-1.59 -1.99,-2.59 0.2,-0.2 0.5,-0.7 0.6,-0.5l1.39 -1c0.1,-0.1 0.5,-0.1 0.6,-0.1l3.49 -2.29c0,0 0.2,-0.2 0.3,-0.3 -5.88,0 -11.86,0 -17.73,0 -7.87,0 -10.66,-0.2 -14.25,4.98l0.11 -0.31z"/>
    <path class="fil0" d="M372.67 494.59c0.2,0.3 0.7,1.1 1.1,1.59l0.6 0.6c1.39,1 -1.39,0.1 1.1,0.5 2.09,0.3 1.69,-0.4 1.89,-0.5l2.29 -1.19c0.2,-0.1 0.5,-0.2 0.7,-0.3l0 5.08c-0.2,-0.1 -0.5,-0.4 -0.6,-0.2 -0.1,0.2 -0.4,-0.1 -0.6,-0.2 -0.2,0 -0.4,-0.1 -0.6,-0.1l-8.27 -0.1c-3.29,0 -6.78,-0.1 -9.56,0l0 -3.39c0,-0.1 0.1,-0.3 0.1,-0.5 0.4,-1.69 1.39,-3.89 3.59,-3.99l2.19 2.19c0.7,-1.1 -0.3,-0.8 0.4,1.1 -1.89,0.9 0.8,0.4 -2.09,0.9l-2.19 -0.2c1.19,1.59 -0.5,1 1.1,1.39 1.79,-1.99 1.19,-0.3 2.79,-2.29l1.59 -2.39c0.1,-0.2 0.3,-0.4 0.4,-0.5 0.7,-1 0.1,-0.4 1.39,-0.8 2.39,-0.7 0.2,-0.3 3.49,-1.69 0.1,0.1 0.2,0.2 0.3,0.4 0,0.2 0.2,0.3 0.3,0.4 1.19,1.99 1.1,0.2 0.9,2.39 -0.2,1.89 -0.9,2.69 -2.19,1.79l-0.1 0zm-46.13 -6.08c0,0 -1.3,0.1 -1.99,0.1 -6.58,0.1 -3.79,1.69 -5.38,-0.5 -2.09,-2.89 1.39,0.7 -1.59,-3.69 9.36,0 51.51,1.19 56.49,-0.6 -0.6,3.29 0,3.29 -3.29,3.99 -1.1,0.2 -3.49,0.4 -5.58,0.4 -2.79,-1.1 -1.1,0 -1.1,0 -0.1,0 -0.2,0.1 -0.3,0.1l-0.6 0.2c-0.1,0 -0.2,0.1 -0.3,0.1l-3.09 -1c-0.1,-0.1 -0.3,-0.3 -0.4,-0.4 -0.1,-0.1 -0.2,-0.3 -0.3,-0.4l-2.39 -1.89c3.29,0.7 1.89,1 1.39,3.19 -1.99,0.7 -5.68,0.4 -3.19,-1.89 -3.09,4.48 -4.78,1.89 -9.76,1.99l-3.09 -0.1c0.8,0.5 1.19,0.5 1.99,2.09 0.7,-2.49 -0.2,-1.69 1.69,-1.39 2.49,0.4 1.1,0.1 1.99,1.89l-1.3 1.19c-0.1,0.1 -0.3,0.1 -0.4,0.2 -3.69,1.59 -0.4,-1.1 -2.69,2.49 -2.09,3.29 -3.79,1.1 -3.99,1.1 0.4,2.49 0.1,1.39 6.58,0.8 1.3,-0.1 6.28,0.5 7.67,1.5 1.89,1.39 0.4,-0.4 1.79,2.19 -5.08,-1.69 -30.39,-0.6 -38.06,-0.6l3.59 -3.99 3.09 -0.2c-1,-0.7 -0.5,1 -0.6,-1.59l1 -4.98c2.79,1.1 1.19,-1.1 2.49,1.99 0.1,-1.89 -0.4,-1.69 0.6,-2.69l-1.19 0.3 0.2 0.1zm-302.48 11.66c1.99,1.3 11.66,0.7 14.74,0.8l218.99 -0.1c1.19,0 229.25,0.7 232.74,-0.3l0.9 -0.4c-6.68,-1.69 -45.83,-0.4 -55.89,-0.4 -14.85,0 -34.37,-0.7 -49.02,0 -1.3,0.1 -2.39,0.6 -3.19,-0.2l-1.1 -1.79c1.59,-0.7 1.89,-1.1 3.99,-1.1 0,-2.89 0.9,-1.59 -0.1,-2.79 -0.4,3.09 -0.1,2.69 -3.79,2.49 -0.1,-0.1 -0.2,-0.4 -0.3,-0.5 0,-0.1 -0.2,-0.3 -0.3,-0.4l-0.4 -2.39c-0.3,-1 -1.99,-1.5 -2.29,-2.39 -0.1,-0.4 -0.4,-0.4 -0.6,-0.6 4.18,-0.1 1.1,-0.5 5.68,-1.19 0.3,1.5 0.5,1.39 0.6,3.09 1.1,-2.39 -0.3,-1.19 1.99,-2.59 -0.7,-0.1 -0.5,0.3 -0.9,-0.7 -1.39,-2.79 -0.2,-0.8 0.2,-0.5 -2.89,0 -0.9,1.39 -4.48,-0.3 -1.3,-0.6 -2.79,-1.89 -2.49,-3.49l34.27 0.1c1.5,0.2 1.3,0.3 1.89,0.5 -2.19,1.3 -0.7,0 -1.89,3.19 -2.29,-0.9 -1.69,-0.5 -2.39,-1.69 -0.2,-0.4 -0.2,-0.8 0.5,-1.39l-3.69 1.79c-2.19,1 -6.48,1.99 -7.87,3.09 -1.3,1 0.1,0.7 -2.39,1.5l-0.1 -2.29c0.6,-2.59 0.6,-0.9 0.9,-0.9 -1.39,0.6 2.29,1 -1.3,-0.1l-1 -0.4c-2.69,-0.9 1.5,0.2 -2.89,1.19 -1.5,-1.79 -1.3,2.49 -1.3,-2.49 1.3,0.9 -2.09,1.59 0.6,3.79 -0.2,0.2 -0.4,0.3 -0.6,0.4l-1 0.6c-0.1,0 -0.3,0.1 -0.4,0.2l-0.5 0.7c2.49,0 1.59,-0.6 2.29,1 0.6,1.3 1.1,-0.9 -0.1,1.39 -1,1.99 -3.49,1.59 -3.69,1.5 0.8,1.89 2.09,0.4 3.19,2.59 0.7,-1.69 1.19,-1 2.39,-2.09l0.8 -1c2.99,0.3 2.09,1.1 3.69,0.7 1.99,-0.6 1.19,-1.39 2.99,1 0.1,0.1 0.4,0.7 0.4,0.8 0.7,1.79 0,0.2 -0.2,0.1 1.39,-0.5 0.7,-0.6 3.09,-0.6 3.29,0.1 1.3,0.4 1.3,0.6l0.7 -0.6c0.1,-0.1 0.2,-0.2 0.3,-0.3l2.09 -1.99c2.09,-2.19 -0.8,2.29 0.4,-0.5l0.6 -1.79c0,-0.3 0.2,-0.3 0.3,-0.5 0.2,0.1 0.3,0.3 0.4,0.4l1 0.9c0.1,0 0.2,0.2 0.2,0.2 0.1,0.1 -0.3,0 0.8,0.5 0.5,-3.09 0.1,-0.8 1.3,-2.59 0.6,0.8 0.5,0.5 -0.7,0.6 -0.1,0 -0.6,0.1 -0.8,0 -2.79,-0.5 0,1.39 -2.29,-1.19 4.28,-3.59 1.59,-3.79 4.78,-5.88 3.29,-2.19 -3.19,1.39 1.5,-0.6 3.39,-0.7 43.54,0 52.7,0 2.99,0 5.88,0 8.87,0 3.79,0 6.78,0.6 8.27,-1.5l-458.3 0c1,1.19 0.2,0.6 1.89,1.19 2.19,0.8 4.58,0.4 7.07,0.4 92.46,-0.5 186.21,0 278.67,0 -2.49,1.69 -2.39,5.58 -12.16,3.69 -1.1,-0.2 -0.1,-0.6 -2.09,0.2l-2.09 1.59c-1.79,2.69 0.4,1 -0.8,1 0.2,-0.1 0.6,-0.2 0.7,-0.3 1.69,-1.1 1.59,-2.09 3.09,-2.19l0.8 3.99c0,0.1 -0.1,0.3 -0.2,0.4 0.1,-0.1 0.2,-0.2 0.2,-0.2l1.59 0.2c-0.2,1.5 -0.1,1.69 -0.8,2.89 0,0.1 -1,0.8 -1,0.9l-1.3 0.1c1.3,1.69 1.89,-1.3 2.09,-1.69 1.5,0.8 4.58,3.09 6.78,2.09l1.89 -1.59c0.2,0.2 0.4,0.3 0.4,0.6 0.1,0.3 0.3,0.5 0.4,0.6l-0.2 1.19c5.98,0 1.3,-0.4 3.19,1.89 -2.09,0.7 -286.04,-1.3 -292.82,0.5l0.6 -0.6z"/>
    <path class="fil0" d="M442.92 67.27l-1 0.4c-5.88,2.09 -50.31,0.9 -56.39,0.9 -19.73,0 -39.35,0 -59.08,0l1.89 4.98 2.39 -0.5c1.89,-0.6 0.2,2.79 2.09,-1.69 3.29,2.09 -1.3,1.1 2.89,1.59 2.69,0.3 1.99,-0.5 3.09,-1.1 0.1,0 0.2,-0.1 0.3,-0.1 0.1,-0.1 0.4,-0.2 0.5,-0.2 2.99,-0.7 -2.09,-0.5 1.1,0 1.59,0.3 2.69,0.6 4.18,0.2 -0.5,-0.6 -0.3,0.2 0.1,0.4 1.59,1.1 1,0.5 1.5,0.2 -2.69,0.8 -1.79,0.3 -2.19,2.09 -2.49,-0.9 -4.38,0.2 -4.88,1.79l0 0.6c0,0.1 0.2,0.4 0.3,0.5 2.49,3.89 7.17,3.69 4.68,-2.09 1.1,0.4 1.19,0.5 1.59,0.9 3.19,3.09 -1.99,0 2.19,2.19 0.1,-0.2 0.2,-0.6 0.2,-0.5l0.5 -1.69c0,-2.39 0.9,0.3 -0.6,-1.19l1.3 0.5c1.1,1.19 0,-0.6 0.8,2.29 3.29,-0.6 3.89,-0.4 4.58,-2.99l2.79 -3.29c0.6,2.49 0.2,3.19 2.49,4.58 -1.99,0.3 -2.19,0 -2.59,1.39l3.19 2.69c-0.1,1.59 -0.2,2.09 1.5,2.79 0.1,-0.2 0.1,-0.7 0.2,-0.6 0,0.1 0.1,-0.4 0.1,-0.6l0.4 -6.38c0.1,-0.3 0.8,1.19 -0.3,-1.79 -0.8,-2.19 -0.8,-2.09 0.4,-2.59 2.49,-1.1 0.5,0 0.3,-0.1 1.5,1.5 -0.1,-0.6 1,2.49 2.19,-0.3 1,-0.3 1.99,-0.6 2.79,-0.9 -0.3,-0.9 2.09,0.1 1.99,0.9 2.99,0.4 4.28,0 0.2,-0.1 0.3,-0.1 0.5,-0.2l3.49 -1.39 0.9 4.68c0,0.1 0.1,0.2 0.1,0.3 0,0.1 0.1,0.2 0.1,0.3 0,0.1 0.1,0.2 0.2,0.3l0.3 0.6c0.5,1.5 0.7,3.19 2.69,2.29 1.89,-0.8 0.5,0.1 1.1,-1.59l3.39 2.69 0.6 -3.99c0.2,-0.7 -0.6,-3.39 1.89,-5.18 0.6,2.89 1.3,1.89 -0.3,3.99l1.59 2.89c0.1,0.1 0.3,0.2 0.4,0.3 2.89,1.99 1.99,-0.7 1.69,1l0.5 2.79c0,0.2 0,0.4 0,0.6 1.89,-0.4 5.18,-0.6 4.08,-2.99 -0.6,-1.39 -1.19,-2.19 -2.89,-2.59l0.8 -1.1c1.89,-1.99 -1.5,0 0.9,-0.6 1.5,-0.4 1.69,-0.2 2.59,0.7l0.6 0.7c1.5,1.5 2.19,1.89 2.79,3.59 0.2,0.6 -0.1,0.3 0.5,1.3l5.98 0.1c3.49,0.5 5.18,-2.29 4.28,-0.2l-1.89 3.29c5.68,0 11.46,0 17.14,0 4.08,0 13.45,0.5 16.34,0.2l0.8 0c-0.1,-0.2 -0.5,-1.59 -0.5,-1.69l-1 -1.19c0.2,-0.1 1.79,-0.5 2.09,-0.7 0.1,-0.1 0.3,-0.2 0.4,-0.3l2.79 -4.08c0.1,-0.2 0.2,-0.4 0.3,-0.6l-2.19 -1.19c4.78,3.19 4.48,3.89 7.77,3.69l2.99 -0.1c0.1,-0.1 1,-2.19 0.5,-3.49 0,-0.1 -0.1,-0.3 -0.2,-0.3 0,-0.1 -0.2,-0.3 -0.2,-0.4 -1.5,-3.09 1.19,-2.59 0.5,-5.18 -0.8,-2.89 -0.1,0.1 -0.8,-2.09 -1.19,-3.59 -0.2,-2.39 -0.1,-3.39 0.5,-4.58 -0.8,-0.4 0.4,-3.09 0.1,-0.1 0.3,-0.5 0.3,-0.6l0.1 -1.69c0,-0.7 0.2,-1.59 1,-1.99 0.1,-0.1 0.3,-0.1 0.5,-0.1l2.69 0c-0.4,-2.39 -0.2,-1.1 -0.1,-2.69 0.2,-2.09 0.3,1.19 0.2,-1.3l-0.3 -1.5c-3.49,1 -0.8,0.3 -2.79,1.69l-1 0.6c-1.1,0.3 0.4,0.8 -0.9,-0.1 1.1,-0.3 2.69,-1.89 3.39,-3.79 -6.58,-0.1 -10.16,-0.8 -14.05,3.39 -2.99,3.09 -3.29,8.77 -2.79,13.35l0.01 0.5z"/>
    <path class="fil0" d="M233.19 4.1c-0.9,-3.29 -1.89,-2.79 -4.98,-2.09l-0.8 0.2c-3.19,0.9 -3.39,-0.5 -5.68,-0.4l-1.1 0.4c-0.1,0.1 -0.6,0.3 -0.7,0.4l-3.99 -0.1c-1.99,-0.1 1.19,-1.19 -2.29,0.2 -1.89,0.8 -2.49,2.29 -1.99,3.69 1.1,3.19 0.6,1 1.59,1.19 3.39,0.6 -2.09,-1.39 1.59,-0.1 0.1,0.2 0.4,0.9 0.5,1.1 0.2,0.3 0.6,1 0.8,1.19 1.69,1.89 0.7,0.8 2.69,1.89 -1.59,-0.5 -1.5,0.7 -2.79,-0.1 -0.6,-0.4 -0.7,-0.7 -1.89,-1.19l-1 1.69c-3.79,7.87 5.38,5.28 24.51,5.28 6.78,0 69.94,0.8 72.73,-0.3 0,0 0.9,-0.4 1.19,-0.6l2.89 -1.39c-0.7,-2.19 0.6,-0.1 -0.8,-1.1 -0.7,-0.5 -0.5,-0.3 -1.19,-0.6 -1,-0.5 -1.39,0.4 -1.79,-1.19l1.3 -1.3c-0.6,-1.5 -0.2,-0.8 -0.6,-1.59 -0.4,-0.9 -0.3,-0.7 -0.8,-1.39l-0.9 -0.9c-0.4,-0.3 -1.19,-0.4 -2.39,0.2l-1.1 0.6c-0.1,0 -0.2,0.1 -0.3,0.2l-1.5 1.59c1,-0.4 0.7,0.4 -0.3,-0.5l-0.3 -0.1c0.1,-1.5 0.1,-1.59 1.19,-2.29 1.39,-0.9 1.89,-0.5 3.29,-2.09 0.2,-0.2 0.3,-0.4 0.5,-0.7 -0.8,-0.5 -1.1,-0.8 -1.59,-1.5 -1.99,-2.89 1.39,2.89 -0.3,-0.8 -0.3,-0.6 1.69,-0.1 -0.2,-0.4 -1.39,-0.2 -0.8,0.4 -1.59,1.59 -0.9,1.59 2.09,1.69 -0.8,1.1 0,0.1 0.1,0.1 0.1,0.2l-0.3 -0.5c-1.39,-2.69 -2.09,-0.9 0.1,-2.19 -7.27,0.1 0.7,1.1 -3.09,0.7 -4.98,-0.4 3.19,-0.2 -2.09,-0.8 -1.19,2.89 -1.79,1.79 -0.1,3.59 -3.79,0.1 -1.3,-0.2 -2.19,0.4l-0.2 -2.69c-2.89,-1 -0.9,0 -2.29,-1.39l-0.3 1.1c-0.2,0.4 0.3,0 -0.4,0.9 -0.2,-0.7 0.7,-0.4 -0.7,-1 -3.39,-1.59 0,-0.4 -1.3,-0.1 0,0.2 0.2,0.3 0.3,0.7 0.3,1.5 1.19,2.09 1,3.69 -0.2,1.99 -1.1,1.3 -1.69,4.48 -0.4,-5.38 -2.19,1.99 -1.99,-2.49 0,0 0,0 0,0.1l1.99 -0.1 -1.1 -3.29c-0.7,-1.19 0.4,-0.5 -1.39,-1.19 1.3,-1.79 -0.8,0.6 0.8,-0.8l-5.78 -1.3c0,-0.1 2.99,1 -0.2,-0.3 -1.1,-0.4 -3.99,0.5 -4.48,1.5l-0.6 -1.89 -8.57 0.8c-1.3,0.2 1.19,1.69 -0.6,-0.6l-35.97 0 0.1 2.69 -0.2 -0.01z"/>
    <path class="fil0" d="M478.78 157.53c0.7,-2.29 0,-2.89 0.6,-5.68l0.7 1.1c0.5,1.5 0.2,-1.19 0.1,1.3l0.1 0.8c0,0 0.2,0.2 0.3,0.2 0.1,0 0.3,0.2 0.4,0.2 0.1,0 0.3,0.1 0.4,0.2 -1.59,3.09 0,0.9 -1.89,1.89l0 1.3c1.69,0.3 1.1,0.8 1,2.09 -0.3,2.59 -0.8,3.39 0.2,4.38 0.9,1 0.6,0.8 1.99,0.5l-2.49 1.89c0.6,0.7 2.69,3.69 1.1,4.48l-2.39 0 1.39 2.59c0.7,2.39 0.2,0.2 -0.1,1.19l1.1 0.4c0.1,0 0.4,0.1 0.5,0.1 2.89,0.1 -1.59,-1.89 4.88,1.5l5.08 0.7c0.1,0 0.3,-0.1 0.4,-0.1 0.1,0 0.3,-0.1 0.4,-0.1 3.39,-1.19 2.19,-1.59 2.19,-1.59 0,0.1 0,-0.4 0,-0.5l-0.3 -9.17c0,-3.09 0.7,-7.57 -0.2,-10.46 -0.7,-2.39 -0.5,0.7 -0.8,-2.79l1.3 -1.3c-1.19,-1.19 -0.5,-1.5 -0.2,-3.19l-0.9 -18.93c0,0 0,-0.2 0,-0.2 -0.1,-1.3 0.6,-1.99 1.3,-3.19 0.1,-0.2 0.2,-0.4 0.4,-0.6 -0.4,2.19 -0.4,2.49 -0.3,4.48l0.2 7.57c0,0 0.1,1.89 0.1,1.89 0.4,2.79 -0.5,-2.09 0.2,1.3 0.1,0.2 0.2,0.4 0.2,0.6 0,0.2 0.1,0.4 0.2,0.6l0 -52.7c-3.59,0 -0.3,0.4 -1,-0.7 -0.9,-1.3 -0.7,-2.89 -0.9,-3.69l-5.08 -0.6c0.4,1.19 -0.1,3.69 1.89,1.99 -2.09,1 -0.7,-1.39 -1.39,1.19 -1,3.49 -0.6,0 0.4,1.3l-2.19 -1.89 -1 1.39c-0.3,1.1 0.1,0.3 0.4,0.3 -1.69,-1.1 -0.2,-0.7 -3.19,-1.1l-1.3 3.79 -1.89 -1.19 -0.3 1.59c-0.2,1.19 1.19,1.3 -0.6,0.9 0,0 -0.2,-0.1 -0.2,-0.1 0,0 -0.2,-0.1 -0.3,-0.1 -0.1,0 -0.4,-0.2 -0.5,-0.4l0 64.76 0.01 -0.2z"/>
    <path class="fil0" d="M308.91 183.04l-0.7 0.2c-3.69,0.9 -47.03,0.5 -50.31,0.4l-51.01 -0.7c-2.49,-0.8 -1.69,-0.8 -1.69,-5.38 0,5.28 -0.2,0.8 -1.5,3.39 1.39,2.49 2.59,3.59 2.09,5.58 0,0.1 -0.4,0.7 -0.6,0.8l2.29 -0.3c1.1,0 1.89,0.4 2.79,-0.4 -1.1,0.7 1.89,1.1 -1.1,-0.9l-1.79 -0.9c0,0 -0.2,-0.1 -0.3,-0.2l71.53 0c0,0.1 -0.4,-0.1 -0.5,0.2 -0.3,0.7 -3.09,0.4 -3.79,0.5l-0.6 3.19c-1,-0.8 -0.8,-0.4 -1.69,-1.5l-0.9 -1.89 -3.59 0.3c0.1,0 0.2,0 0.2,0.2l0.4 0.4c1.1,1.59 1.59,0.7 0.5,2.79 1.79,-0.8 -2.29,-1.3 2.29,-0.4 3.09,0.6 0.9,0.1 2.19,1.39 0,0.4 -0.5,1.19 -0.5,1.39l-1.19 3.09c-1.59,3.59 2.09,-0.2 -0.9,1.3 3.29,1.79 -2.09,-0.6 1.69,0.2 0.1,0 0.3,0.1 0.5,0.1 0.1,0 0.4,0.1 0.5,0.1 0.1,0 0.4,0.1 0.5,0.2 -1,1.89 -0.5,0.8 -2.69,1.89 -1,0.5 -0.3,0.8 -2.39,1.3l-0.2 -0.9c0,0 -0.1,-0.3 -0.1,-0.3 -0.7,-1.3 1.59,0.4 -0.4,-0.4 -0.3,-0.1 -1.5,-0.2 -1.79,0.1 -2.49,1.89 1.89,-2.69 -0.5,1 -0.1,0.1 -0.1,0.3 -0.2,0.4 -1.3,1.59 -2.69,0.2 -1.79,1.5 -1.89,-1.69 -1.69,-3.69 -1.89,-5.68 -1.79,0.7 -2.69,2.49 -4.18,3.69 0,0 0,0.2 -0.9,0.6 -0.1,0 -0.3,0.1 -0.4,0.1 -0.1,0 -0.3,0.1 -0.4,0.1l-2.89 0.3c0,0 -0.2,-0.2 -0.2,-0.3 -3.89,0.9 -0.3,0.4 -1.89,-1.5l3.79 -3.19c-0.1,-0.2 -0.5,-0.5 -0.9,-0.9 0.1,0.2 0.9,-1.19 0.1,0.6 -0.1,0.1 0.7,1.5 -2.49,0.6 1.69,0 0.3,2.99 0,3.39 -1.1,1.5 -2.49,1.79 -2.59,0 -1.59,1.89 -1.89,1.39 -6.38,0.6 1.69,-2.09 1.89,-2.29 4.68,-1.3 0.1,-1.1 0.2,-1.19 0.3,-1.69 0,-0.1 0,-0.4 0.1,-0.5l0.1 -0.9c-0.5,0.6 -2.29,-0.2 -1.89,-1.3 -4.18,1.39 -1.1,-1.19 -4.18,1.1 -2.09,1.5 1.59,-1.39 -0.9,0.7l-1.39 1.5c-1.89,1.79 1.3,0 -1.5,1.19 -0.9,-0.9 -0.7,-0.7 -2.09,-1.3 -0.9,-3.69 -0.9,-1.69 0.6,-3.79l-2.49 2.49c-1.79,-4.28 1.3,0.2 -4.48,-1.89 0,-0.3 0,-1 0.1,-1.19l0.6 -2.79c-1.1,0.4 -0.8,0.4 -1.3,1.3 -1.1,2.29 1,1.5 -1.5,4.68l-0.4 0.5c-0.2,-0.1 -0.5,-0.5 -0.6,-0.3 -0.1,0.1 -0.4,-0.2 -0.5,-0.3 -1.3,-1.19 -0.2,0.2 -0.9,-1.1 -0.8,-1.5 2.49,0.9 -0.5,-1.39 1,1.19 -0.7,3.19 -1.3,4.48l-1.3 -0.7c-0.1,-0.1 -0.4,-0.2 -0.5,-0.3 -0.1,-0.1 -0.3,-0.2 -0.4,-0.3 -0.1,0 -0.2,-0.2 -0.3,-0.2 -0.6,-0.4 -2.39,1.59 -3.19,1.79 -1.39,0.2 -1.69,-0.2 -3.69,-0.6 0.4,-1.1 1.89,-1.69 1.1,-2.79 0,0 2.09,0 -1,0.7 -3.69,0.8 0.6,0.1 -2.39,-0.1 -1.99,-0.1 -2.39,0.4 -4.28,0.6 0.1,0 0.1,0 0.1,0.1 0.1,1.1 1.79,0.1 4.28,-0.1l-1.3 3.79c2.39,-0.7 1.5,0.6 3.49,1.19 1.89,0.6 3.19,-0.4 5.98,0.7 1,3.19 0.6,7.67 0.6,11.66l5.08 -0.8c0,0 0.1,2.49 -0.3,-0.4 -0.2,-1.3 1.5,-1.99 1.5,-3.59l-0.4 -2.79c-0.5,-4.78 7.77,-3.09 3.69,0.4 1.39,-1.69 -0.3,-1.79 2.49,-2.69 1.69,-0.5 3.29,-0.4 4.38,0.3 3.59,-1.19 36.17,-1.39 40.95,-0.4l0.3 17.34c3.79,-2.49 0.8,-0.8 1.99,0 0.1,1 -0.2,0.7 0.3,1.3l1 0.6c1.99,-4.68 1.39,2.09 1.3,-5.08 2.69,0.1 2.49,0 4.18,-0.6 -0.7,-2.09 1.89,1.1 -0.5,-0.7l-1.1 -0.4c-0.8,0.1 -1.39,1.19 -3.59,0.7l-2.19 -0.9c0.1,-0.2 0.3,-0.7 0.4,-0.6l1.1 -1.3c0.8,-0.9 0.1,2.39 0.6,-0.7l-0.2 -2.39c3.29,0.5 2.19,-1.5 2.49,2.19 1.39,-0.7 1.5,-1.69 2.49,-2.39l0.8 0.7c1.1,1.19 1.1,0.2 2.09,5.08 0.8,3.89 1.1,1.39 2.19,3.99 0,0.1 0.1,0.3 0.1,0.5 0,0.1 0,0.3 0.1,0.5 0,0 -0.2,1.39 -0.2,1.59 -0.3,-0.3 -2.09,0.8 0.1,-1 0.6,-0.5 -1.19,-0.4 1.1,-0.4 1.5,0 2.19,0.6 1.3,1.39 -0.2,-1.69 -0.3,-1.59 -0.6,-3.79 2.99,0.8 1.69,1.39 3.29,0l0 -13.25c0,-0.2 0.1,-0.4 0.1,-0.5 1.19,-4.68 16.34,-0.2 20.82,-2.79 -3.19,-0.9 -6.87,-0.5 -10.36,-0.5 -4.38,0 -6.38,-0.7 -10.16,1.3 1.5,-1.89 -1.1,-2.09 6.97,-1.89 2.29,0.1 4.68,0 6.97,0 -0.5,1.3 0.8,0.2 -0.8,0.4l-0.6 0c-5.98,-0.3 -4.28,-1.89 -5.18,-5.68 -0.3,-1.5 -1.5,-0.7 -0.6,-1.79 0.1,0.2 1.69,0.5 -0.7,3.79 -0.1,-0.2 -0.2,-0.4 -0.3,-0.5 -0.1,-0.1 -0.2,-0.3 -0.3,-0.5 -0.1,-0.1 -0.2,-0.3 -0.3,-0.5 -0.1,-0.1 -0.2,-0.3 -0.3,-0.5 -0.1,-0.1 -0.2,-0.3 -0.3,-0.4 -0.1,-0.1 -0.1,-0.3 -0.2,-0.4l-0.3 -0.7c-0.5,-1.1 -1.59,-1.1 -2.99,-1.1 0.5,-1.69 1.69,-4.28 3.69,-5.18 2.39,-1.19 1.19,1.99 6.48,-2.49l0.7 -0.6c0.1,-0.1 0.3,-0.2 0.4,-0.3 2.29,-1.89 -1.69,0.3 0.8,-0.6l1.69 1.39c0,0.1 0.1,0.2 0.2,0.3l0.1 1c0.4,-0.8 -1.39,-0.1 1.99,-0.6l1.99 -0.6c0.1,-0.2 0.3,-0.2 0.5,-0.3 -3.09,0.2 -1.79,1.3 -1.89,-3.19l1.39 0.4c0.2,0.1 0.4,0.1 0.6,0.2 0.2,0 0.3,0.1 0.5,0.2 0.6,0.2 -0.8,0.3 1.39,0.3 -2.79,-1.89 -0.8,-1.3 -1.99,-3.19 -1.3,-1.99 -1.5,-0.3 -2.39,-1.89l-0.6 2.49 -1.19 -1.19c-1.5,-1 -0.1,-0.6 -2.39,-0.7 0.5,-1.59 0.3,-1.19 1,-2.59 1.5,-2.99 0.8,1.3 0.5,-0.6l-0.2 -0.2c-1,-1.5 -0.6,2.49 -0.6,-2.69 0,-1.39 0.3,-3.19 0.4,-4.68l-0.4 1.19c-0.8,3.59 0.1,9.07 -0.1,10.86 -0.7,5.98 0.8,2.39 -1.79,3.29l0.21 -0z"/>
    <path class="fil0" d="M0.95 404.42c-1.59,2.39 -0.7,49.32 -0.7,51.41 0.1,18.03 -1.5,31.88 11.06,40.15l1.59 -2.69c-0.4,-1.59 -1.89,-3.09 -0.4,-7.27l1.59 -2.49c0,-0.1 0.2,-0.2 0.2,-0.2l1.89 -1.3c0,0.1 0.2,0.3 0.3,0.3 0,0 0.1,0.2 0.2,0.2 0,0 0.1,0.1 0.1,0.2 0,0 0.1,0.1 0.1,0.1l1 0.1c1.59,0.6 0.8,-0.6 1.19,0.8l0.4 -4.48c2.59,0.4 1.39,0.1 3.29,0.8 -4.58,-5.28 -4.28,-4.18 -4.28,-14.74 0,-15.84 -0.8,-46.33 0.3,-59.08 -1.79,1.39 -1.39,2.79 -1.39,5.68 0.2,12.05 -0.4,24.21 0,36.27l0.3 3.69c0,1.59 -0.7,2.89 -2.39,2.39 -1.3,-0.3 -1.89,-1.1 -1.99,-2.89l-0.8 1.89c-0.1,0.2 -0.6,0.8 -0.8,1 -3.39,-1.39 -0.3,-0.7 -4.48,-1 0.5,-1.59 1.89,-2.49 1.69,-4.88 0,-0.2 -0.1,-0.7 -0.1,-0.9 -0.2,-6.97 -3.39,-0.1 -1.59,-6.87 0.4,-0.1 0.8,0 1,0l2.79 -0.4c0.3,-0.1 0.4,-1.89 2.59,-0.2l0.7 -4.28c0.7,-2.39 -0.7,-0.8 1.5,-1.69 -2.69,0.1 -2.09,1.39 -2.19,-2.69l-1 1c-0.8,1 -1.3,1.5 -2.79,1.79l-0.2 -0.9c0,-0.1 0,-0.3 -0.1,-0.4l-0.7 -3.59c-0.9,1.39 0,0.8 -1.39,1.5l-1.3 0.1c-1.3,-0.1 -1.79,0.6 -1.59,-1.59l0.5 24.11c0,0.1 0,0.3 0,0.4 0,0.1 0,0.3 -0.1,0.4 -0.3,1.99 -0.4,3.09 1.19,4.98 -0.1,0.1 -0.4,0.1 -0.4,0.3 -0.6,2.49 2.19,-0.7 -0.7,0.4 -2.59,1 -0.4,0.1 -0.3,-0.1l0 11.46 -1.59 -0.5c-1.3,-0.7 -1.5,-0.6 -1.79,-1.89 -0.6,-2.59 0.5,-35.47 0.2,-42.74 -0.1,-2.39 -1.59,-5.38 1.3,-5.68 1.89,-0.2 2.69,2.89 3.19,4.28 -0.1,0.1 -0.3,0.2 -0.3,0.4l-1 1c0.3,2.59 0,1.89 2.59,2.99l2.69 -3.09c0.1,0 0.2,-0.1 0.3,-0.2 0.1,-0.1 0.2,-0.2 0.3,-0.2 2.19,-1.99 2.89,-2.99 2.99,-5.88 0,-1.79 0.5,-3.59 -0.8,-4.78 -2.19,-1.99 1.3,1.39 -0.8,-0.6 -0.8,-0.8 -0.6,-0.4 -1.3,-1.59 3.19,-1.69 2.19,1.5 3.59,-0.3 0.5,-0.6 0.3,-0.2 0.1,-1.3 0,-0.1 -0.9,-1.79 -1,-1.99 -0.1,-0.1 -1.39,-1.19 -0.9,-2.59 0.8,-1.99 3.69,-0.4 6.48,-0.8l1.79 -3.79c-2.89,-1.3 0.7,0.3 -3.09,-3.69l-2.29 -2.59c-0.1,-0.2 -0.2,-0.4 -0.3,-0.6 -0.1,-0.2 -0.3,-0.3 -0.3,-0.7 -0.1,-0.4 -0.3,-0.5 -0.3,-0.7 3.39,0.2 3.39,0.6 5.08,2.19 -0.9,-1.5 0.1,1.1 -0.3,-0.9 -1.3,-6.48 -0.2,-2.09 -1.79,-2.99l4.08 -1.59c-1.89,-1.59 -1.3,-1.1 -1,-2.49 -0.3,3.49 0.3,1.79 -1.59,1.89 -2.69,0.2 -0.2,0.1 -1.99,-2.39 -0.6,-0.8 -0.5,0.2 -0.6,-0.8l0.6 3.79c-3.69,0.1 -3.39,1.1 -4.48,3.19l-2.09 -1.19c-0.1,0 -0.2,-0.1 -0.3,-0.1 0,0 -0.1,0 -0.2,0 -0.7,-0.2 -1.19,1.3 -0.1,0 0.4,1.89 0.2,0.7 1,2.09l1.5 2.39c-0.2,0.1 -0.4,0.3 -0.6,0.4 -0.9,0.6 -2.19,1.69 -3.39,1.69 -2.79,-0.1 0.6,-1.89 -3.09,-0.2 0.4,-0.2 -0.6,-1.89 1.1,0.4l0.6 1.3c0.1,-0.1 0.2,0.5 0.3,0.8 -2.89,1.19 -2.49,-1.5 -2.49,8.27 -0.1,0.1 -0.3,3.69 -2.49,-0.6l-0.6 3.19c0,-2.79 0.3,-4.98 -0.5,-7.67l-0.2 0.1z"/>
    <path class="fil0" d="M326.54 86.1c4.88,0.5 15.14,-0.1 20.82,-0.1 6.97,0 13.95,0 20.92,0 13.75,-0.1 27.5,0 41.25,0l1.89 -3.29c0.9,-2.09 -0.8,0.8 -4.28,0.2l-5.98 -0.1c-0.7,-1 -0.3,-0.7 -0.5,-1.3 -0.6,-1.69 -1.39,-2.09 -2.79,-3.59l-0.6 -0.7c-1,-0.9 -1.1,-1.1 -2.59,-0.7 -2.39,0.7 1,-1.39 -0.9,0.6l-0.8 1.1c1.69,0.4 2.29,1.19 2.89,2.59 1.1,2.39 -2.19,2.69 -4.08,2.99 0,-0.2 0,-0.5 0,-0.6l-0.5 -2.79c0.3,-1.69 1.3,1.1 -1.69,-1 -0.1,-0.1 -0.3,-0.2 -0.4,-0.3l-1.59 -2.89c1.69,-1.99 1,-1 0.3,-3.99 -2.49,1.69 -1.69,4.48 -1.89,5.18l-0.6 3.99 -3.39 -2.69c-0.6,1.69 0.7,0.8 -1.1,1.59 -1.99,0.9 -2.19,-0.9 -2.69,-2.29l-0.3 -0.6c0,-0.1 -0.1,-0.2 -0.2,-0.3 0,-0.1 -0.1,-0.2 -0.1,-0.3 0,-0.1 -0.1,-0.2 -0.1,-0.3l-0.9 -4.68 -3.49 1.39c-0.2,0.1 -0.3,0.1 -0.5,0.2 -1.3,0.4 -2.39,0.9 -4.28,0 -2.39,-1.1 0.6,-1.1 -2.09,-0.1 -1,0.3 0.3,0.4 -1.99,0.6 -1,-3.19 0.6,-1.1 -1,-2.49 0.2,0.1 2.19,-0.9 -0.3,0.1 -1.19,0.5 -1.19,0.4 -0.4,2.59 1.1,2.99 0.4,1.5 0.3,1.79l-0.4 6.38c0,0.1 -0.1,0.7 -0.1,0.6 0,-0.1 -0.1,0.4 -0.2,0.6 -1.69,-0.7 -1.59,-1.3 -1.5,-2.79l-3.19 -2.69c0.4,-1.39 0.6,-1.1 2.59,-1.39 -2.39,-1.39 -1.99,-2.09 -2.49,-4.58l-2.79 3.29c-0.6,2.49 -1.3,2.39 -4.58,2.99 -0.8,-2.89 0.3,-1.19 -0.8,-2.29l-1.3 -0.5c1.5,1.5 0.6,-1.1 0.6,1.19l-0.5 1.69c0,-0.1 -0.1,0.3 -0.2,0.5 -4.18,-2.19 1,0.9 -2.19,-2.19 -0.4,-0.4 -0.5,-0.5 -1.59,-0.9 2.49,5.78 -2.19,5.98 -4.68,2.09 -0.1,-0.1 -0.2,-0.4 -0.3,-0.5l0 -0.6c0.5,-1.69 2.39,-2.69 4.88,-1.79 0.4,-1.79 -0.5,-1.3 2.19,-2.09 -0.5,0.3 0.1,0.9 -1.5,-0.2 -0.4,-0.2 -0.6,-1 -0.1,-0.4 -1.5,0.5 -2.59,0.1 -4.18,-0.2 -3.19,-0.5 1.89,-0.7 -1.1,0 -0.1,0 -0.4,0.1 -0.5,0.2 -0.1,0 -0.2,0.1 -0.3,0.1 -1.1,0.6 -0.4,1.39 -3.09,1.1 -4.18,-0.5 0.5,0.5 -2.89,-1.59 -1.89,4.48 -0.2,1.1 -2.09,1.69l-2.39 0.5 -1.89 -4.98c19.73,0 39.35,0 59.08,0 6.08,0 50.51,1.1 56.39,-0.9l1 -0.4 -116.37 0.1c-1.79,-0.5 -1.59,-0.3 -2.69,-1l-1.59 1c1.69,0.7 3.19,-0.2 2.79,2.49 0,0.1 -0.1,0.3 -0.2,0.4 0,0.1 -0.2,0.3 -0.3,0.4 -0.9,1.59 -1.39,0 -1.5,2.99 3.09,0 2.19,0.5 2.99,2.79 -1.5,1.3 -2.49,1.79 -4.68,1.79l-0.8 -0.1c0,-0.1 0.2,-0.1 0.2,0 2.19,0.4 -1.59,-2.59 0.6,0.2 0.1,0.1 0.3,0.4 0.3,0.6 0,0.1 0,0.3 0,0.4 0,0.2 -0.4,1.19 -0.5,1.3l-1.3 1.39c-1.19,-0.5 -1.39,-0.3 -2.69,-1.1 -1.59,-1 -2.99,-3.69 -3.09,-4.78 -0.8,1.39 0.3,0.8 -2.59,0.9l0.5 1.19c0,-0.1 0,-0.2 0,-0.3 0,0 0.1,-0.2 0.1,-0.2 1.19,-1 1.3,-0.5 1.5,0.5 0.6,2.59 0.2,1.59 0.1,3.19l0.1 3.89c-1.1,4.68 -0.8,1.5 -1.39,1.59 -2.89,0.8 1.99,-1.19 -2.89,0.2 1.5,-3.59 1.1,-2.19 0.8,-5.78l0 -20.92c0,-0.3 0,-0.4 0,-0.6l-0.2 -11.46 4.68 0c-2.59,0 -1.5,-4.28 -2.29,-7.47 0,-0.2 -0.4,-1.19 -0.5,-1.39 1,1 0.1,0 -0.6,1.3l-1.3 69.14c0.3,-2.89 0.9,-6.18 0,-10.16 2.09,0.2 1.5,-0.3 4.08,-0.3 4.08,0 -1.39,0.9 1.3,0 0.1,0 -1.19,1 0.4,-0.2 0,0 0.2,-0.1 0.2,-0.2 1.69,-1.59 -1.1,-1.5 1.59,-1.89 -2.69,0.5 -3.99,-0.4 -4.48,-0.6l-0.3 -2.29c0,-0.1 0,-0.3 0.1,-0.4l0.9 -1.19c0.1,-0.1 0.3,-0.2 0.3,-0.2l2.49 -0.6c0.1,0 0.8,-0.6 1.69,0.3l-0.8 -2.09c0,-2.19 -0.9,-0.5 0.9,-1.59 2.89,-1.69 0.7,4.28 1.99,-0.1 3.59,-0.8 0.5,-1.99 5.58,-2.29l0.6 -0.6z"/>
    <path class="fil0" d="M92.71 375.93l2.49 0.4c0.1,-0.2 0.3,0.2 0.5,0.2 -0.3,4.28 0,0.4 -0.8,2.09 -0.7,1.5 -0.1,1.3 -0.4,3.69l2.19 0.1c0,0 -0.5,1.5 -0.5,-0.4l0.3 -0.9c0,-0.3 0.1,-0.4 0.2,-0.6 1.89,0.2 1.3,0.1 3.19,0.4 0.2,1 0.6,0.3 0,2.39 -0.6,2.09 -0.3,1.19 -2.29,1.89l-2.59 1.69c-0.1,0.1 -0.3,0.6 -0.4,0.5 -0.1,-0.1 -0.3,0.3 -0.4,0.5 -1.59,-1.89 -0.9,2.09 -1.3,-2.49 -2.29,4.28 1.39,-0.9 -1,0.9 -1.39,1.1 -0.9,-0.2 -1.1,1.1 -0.2,1.99 1.1,-0.2 0.2,2.49 -0.6,1.79 -2.29,1.89 -3.79,1.89 1.99,2.29 1.3,-1 1.89,3.79l77.02 0c0.4,-0.5 1,-1.39 1.39,-1.89 -0.2,0 -1.19,0.1 -1.39,0.1l-2.89 -1.39c-0.4,-0.3 -0.9,-0.8 -1.19,-1.19 0.9,-1.69 0.4,-1.89 2.39,-3.19 -3.59,-2.39 -0.4,1.59 -4.88,1.1l0.4 -1.79c1.5,-1.99 0.6,-0.2 0.9,0 -1.89,-2.19 0.1,-1.79 -3.19,0l1.69 1.89c0.1,0.2 0.2,0.4 0.3,0.6l-4.98 0.8c-0.1,0 -0.3,0 -0.4,0 -0.1,0 -0.3,0.1 -0.3,0 -0.2,-0.6 -0.7,0.1 -1.19,-1.19l2.39 -7.17c-1.19,0.8 -0.9,0.4 -2.89,0.6l-0.6 3.99c0,-0.1 -0.2,0.3 -0.2,0.5l-1.99 -2.09c-0.3,-0.7 -1.79,-1.99 1,-2.59 -1.99,0 -0.7,-0.1 -2.49,0.3 0,-0.2 0,-0.5 0,-0.6 0.7,-2.59 0.9,-0.8 1,-0.7 -6.58,-0.7 -10.26,0 -19.03,0l-20.72 -0.3c0.4,-2.49 0.4,-1.1 -0.3,-2.49 -0.9,-1.69 -1.5,-1.89 -1.69,-4.28l-2.69 1.89c-0.1,-0.3 -0.3,-0.7 -0.1,-1.59l0.4 -0.3c0,-0.1 0.2,0 0.3,0 -2.09,-1.1 -1,-0.2 -2.29,1l-1.19 1 -2.69 -2.49c0.2,2.19 0.1,1 -1.5,1.79l-1.3 -2.09c-0.8,-1.3 0.2,0.5 -1,-1.59 -1.89,1.39 -1.5,1.3 -2.29,3.69l-0.21 0.1z"/>
    <path class="fil0" d="M181.88 334.88c0,2.99 -0.8,6.78 -1.89,8.67 -1.5,6.78 -8.27,32.38 -10.56,36.27 0.6,0.5 -0.3,0.9 3.39,1.1l-0.5 1.59c0.3,1.5 1.89,2.39 3.29,2.39 0.1,0 0.3,0 0.4,0l5.08 -4.58c0.2,0.2 0.4,0.3 0.5,0.4 0.1,0.1 0.3,0.3 0.5,0.4 1.59,1.89 1.1,3.29 1.59,4.18 0,-1.1 -0.2,-1 0.3,-1.99 0.7,-1.5 0.4,-0.9 1.59,-1.79l2.49 3.79 1.5 -1.89c0.1,-0.1 0.2,-0.3 0.3,-0.4 1.69,-2.19 3.39,-2.19 0.8,-1.5 0.5,-0.6 0.5,-1.79 0.6,-2.19l-1.3 -0.8c0.7,-5.68 3.69,-14.85 5.28,-20.33 1.79,-6.38 4.28,-13.95 5.48,-20.42 0.3,-1.5 0.8,-2.39 1.39,-3.39 -0.9,-1.3 -3.19,-0.5 2.19,-1.69 0.1,0 1,-0.1 1.19,-0.1 0.1,-0.2 0.2,-0.8 0.2,-0.9l-0.3 -1.19c0,-0.2 -0.2,-0.3 -0.2,-0.4l-1.59 2.29c-0.1,0.1 -0.3,0.1 -0.5,0.1 -0.1,0 -0.3,0.1 -0.5,0.1l-2.69 -0.6c-0.1,0 -0.2,-0.1 -0.3,-0.1l-1.59 -0.5c-0.1,0 -0.3,0 -0.4,0l-1.79 -0.1c-2.29,0.1 -0.1,-0.8 -3.39,1.99l-1.59 -1.39c-0.1,0 -0.3,-0.1 -0.4,-0.1 -3.09,-0.2 -1.89,2.49 -1.79,3.39l-2.39 -1.1c-0.2,0 -2.09,0.4 -2.59,0.5 0.4,-2.79 -1.1,-2.29 1.3,-2.49 -3.69,0.9 -1.69,0.3 -2.99,2.79l-0.09 -0z"/>
    <path class="fil0" d="M233.09 1.41l35.97 0c1.69,2.29 -0.7,0.8 0.6,0.6l8.57 -0.8 0.6 1.89c0.4,-1 3.39,-1.89 4.48,-1.5 3.19,1.19 0.2,0.2 0.2,0.3l5.78 1.3c-1.59,1.39 0.4,-1 -0.8,0.8 1.69,0.6 0.7,0 1.39,1.19l1.1 3.29 -1.99 0.1c0,0 0,0 0,-0.1 -0.2,4.48 1.69,-2.79 1.99,2.49 0.6,-3.19 1.5,-2.49 1.69,-4.48 0.2,-1.69 -0.7,-2.19 -1,-3.69 -0.1,-0.4 -0.3,-0.4 -0.3,-0.7 1.39,-0.2 -1.99,-1.39 1.3,0.1 1.39,0.6 0.5,0.4 0.7,1 0.8,-0.8 0.3,-0.5 0.4,-0.9l0.3 -1.1c1.39,1.5 -0.5,0.5 2.29,1.39l0.2 2.69c0.9,-0.6 -1.59,-0.4 2.19,-0.4 -1.69,-1.79 -1.1,-0.7 0.1,-3.59 5.28,0.6 -2.89,0.4 2.09,0.8 3.79,0.3 -4.18,-0.6 3.09,-0.7 -2.19,1.3 -1.39,-0.5 -0.1,2.19l0.3 0.5c0,-0.1 -0.1,-0.1 -0.1,-0.2 2.89,0.6 -0.1,0.5 0.8,-1.1 0.7,-1.19 0.2,-1.79 1.59,-1.59 1.89,0.3 -0.1,-0.2 0.2,0.4 1.69,3.69 -1.59,-2.09 0.3,0.8 0.5,0.7 0.8,1 1.59,1.5 -0.2,0.2 -0.3,0.5 -0.5,0.7 -1.5,1.69 -1.89,1.3 -3.29,2.09 -1.1,0.7 -1.1,0.8 -1.19,2.29l0.3 0.1c1,0.8 1.3,0 0.3,0.5l1.5 -1.59c0.1,0 0.2,-0.1 0.3,-0.2l1.1 -0.6c1.19,-0.7 1.99,-0.6 2.39,-0.2l0.9 0.9c0.5,0.7 0.4,0.5 0.8,1.39 0.4,0.8 0,0.1 0.6,1.59l-1.3 1.3c0.5,1.59 0.8,0.8 1.79,1.19 0.7,0.3 0.5,0.1 1.19,0.6 1.39,1 0.2,-1.1 0.8,1.1l-2.89 1.39c-0.4,0.2 -1.19,0.5 -1.19,0.6 -2.79,1.1 -65.96,0.3 -72.73,0.3 -19.13,0 -28.29,2.59 -24.51,-5.28l1 -1.69c1.19,0.5 1.19,0.8 1.89,1.19 1.3,0.8 1.3,-0.4 2.79,0.1 -1.99,-1.1 -1.1,0 -2.69,-1.89 -0.2,-0.2 -0.6,-0.8 -0.8,-1.19 -0.1,-0.2 -0.4,-0.9 -0.5,-1.1 -3.69,-1.3 1.79,0.7 -1.59,0.1 -0.9,-0.2 -0.4,1.99 -1.59,-1.19 -0.5,-1.39 0.1,-2.89 1.99,-3.69 3.49,-1.39 0.3,-0.3 2.29,-0.2l3.99 0.1c0.1,0 0.5,-0.3 0.7,-0.4l1.1 -0.4c2.29,-0.2 2.49,1.3 5.68,0.4l0.8 -0.2c3.19,-0.7 4.08,-1.19 4.98,2.09l-0.1 -2.69 0.2 0.01zm-26.3 17.14l99.43 -0.1c3.09,0.4 1.89,-0.6 2.29,1.59l0.9 0c2.19,-3.09 1.19,-1.19 1.19,7.37 0,3.39 0,6.78 0,10.16 0.1,-1.5 0,-3.99 1.3,-4.78 0,0 1,-1.69 1.99,0.7 1.5,3.59 0,0.9 -0.2,1 0.5,-2.39 0.2,-0.3 0.7,-1.5l0.5 -1.69c-0.4,1.19 1.19,0.9 -4.68,1.3 1.79,-7.27 0.8,0.5 3.79,-6.97 0.1,-0.2 0.1,-0.4 0.3,-0.6 2.29,-0.4 0.6,-0.6 3.79,-1.3l0.7 2.69c0.1,0.1 0.1,0.3 0.2,0.4 0.9,1.5 1.5,0.9 2.09,3.29l-1.99 0.3c-0.9,0.1 -0.1,-0.1 -1.19,0.3 0.2,0.1 0.6,0.3 0.7,0.3l2.49 1.19c0.6,1.19 -0.1,-0.4 0.4,1 0.1,0.2 0.1,0.5 0.2,0.6 0.1,0.2 0.1,0.5 0.2,0.7 -0.3,-5.48 -1.19,-1.89 1.3,-2.99 3.19,2.29 0.1,-1.59 1.3,1.1l1.99 -0.6c0.1,-11.76 2.99,-29.49 -8.37,-31.58 -4.18,-0.8 -15.34,-0.2 -20.22,-0.2l-99.03 0c0,0 -0.4,-0.4 -2.19,0.8 2.09,0.5 2.09,0.4 4.08,0.6 5.88,0.7 -2.29,-0.9 2.49,-0.3 2.39,0.3 1.99,1.39 2.19,1.89 0.3,1 0.3,2.19 0.3,3.29 -2.89,-0.3 -3.09,1.59 -3.19,-2.09 -1.1,1.59 1.19,0.8 -0.6,2.79 0.1,-3.19 -0.5,0.2 1.3,-1.3l2.89 3.19c2.29,1.39 -1,0 1.3,0.1 0.1,0 0.3,0 0.3,0 2.19,0.3 2.59,0.9 2.89,4.78 0.2,1.99 -0.9,0.6 2.19,2.69 -0.2,0.1 -0.5,-0.1 -0.6,0.2 -0.1,0.2 -0.4,0.1 -0.6,0.1 -0.2,0 -1.89,0.3 -1.89,0.3 -1.1,0.3 -1.69,-0.1 -2.89,1.3l-0 0z"/>
    <path class="fil0" d="M135.35 180.55l51.41 0c2.39,-3.89 0.8,-0.9 0,-2.09l-4.08 -0.4c-1.1,0.2 -2.89,1 -3.29,0l0.3 -2.79c-0.2,0.1 -0.6,0 -0.7,0.4 -0.2,0.6 -0.7,-0.2 -1.89,1.5 -0.3,-0.4 -0.5,-0.9 -1,-1.39 -1,-1.19 0.1,-0.9 -1.59,-1.1l3.19 -0.6c-0.7,-1.69 -1.3,-2.09 -2.19,-2.49l3.49 -1.3 -1.3 -1.3c-0.2,-4.58 -0.4,1 1.79,-3.39l0.4 -1.79c0.2,-1.19 -0.3,0 0.3,-1.99l-42.54 0.1c1,4.88 0.6,3.79 1.3,3.29 -1.69,-0.4 0.2,0.2 -1.89,-1.59 -1.19,-1 -0.3,-0.4 -1.3,-0.9 -0.2,0.5 -2.09,-1.19 -0.1,1.69 0.9,1.3 -1.19,0.7 1.99,0.8 -0.2,0 -0.5,-0.2 -0.5,0 -1.69,3.69 0.9,0.2 -2.09,0 -0.1,0 -1.39,0 -2.39,-0.7l0.1 1.19c0.3,5.58 1.69,1.59 0.5,5.18 3.49,-0.6 2.89,-1.89 3.19,1.3l1.79 -2.69c0,-0.1 0.1,-0.2 0.2,-0.3l0.4 -0.4c1.69,-1.39 2.19,0.1 1.5,-1.69l1.39 1.5c2.09,2.09 0.4,1.3 2.39,1.69 -0.4,1.1 -0.6,2.19 0,3.19l-4.08 -0.1c-0.1,0 -0.3,0.1 -0.4,0.1l1.39 1.79 3.69 -0.5c0,1.99 0,-0.3 -1.3,2.59 -0.2,0 -1.69,0.5 -2.59,-1.3 -0.1,0.2 -1,1.1 -1.1,1.3l-0.9 1c-0.9,0.7 -0.6,0.7 -2.49,0.3 -1.5,1.3 -0.5,-0.1 -1.3,2.09l0.3 -0.2z"/>
    <path class="fil0" d="M278.12 220.4l0 6.87c1,-0.4 1.59,-0.2 1.99,-1.99l1.89 3.99c0.2,-0.1 0.5,-0.5 0.5,-0.3 0.1,0.2 0.4,-0.2 0.5,-0.3 0.1,-0.1 0.3,-0.2 0.5,-0.3l1.59 -0.4c-2.49,1.1 -0.7,-1.5 -0.6,1.19 0,1 0.4,1.5 0.7,1.99 -1.79,0 -1.59,1 -2.39,1.5l-3.49 0.4c0.1,-0.1 -0.3,2.79 0.3,-0.5l-0.6 -2.79c-0.1,-0.1 -0.2,-0.3 -0.3,-0.5 -1.59,2.89 -1,3.89 -1.89,6.38l3.79 5.68c-2.99,0 0,-1.79 -2.59,-0.1l0.8 -1.39c0.2,-1.59 0.9,-0.8 -1.39,-2.39l-2.29 -1.3c-1.1,1.59 -0.5,1.79 -2.79,1.89l-0.2 1.89c0,0 0.1,0 0.2,0 0,0.5 0.4,2.39 1.39,0.3l0.5 -1.59c0.2,3.19 0,1.5 -0.5,2.79 -0.3,0.7 -0.9,0.8 -0.3,3.09 0,0.1 0.1,0.3 0.1,0.4 0.3,1 -0.9,-1.69 0.4,1.1 0.5,1.19 0.9,0.9 1,0.8l-8.27 0.1c0.2,0 0.5,-0.1 0.6,0.1 0.1,0.2 0.4,0.1 0.6,0.2l1.3 0.2c0.8,0.1 2.29,0.1 3.19,0 2.49,0 3.39,-0.2 5.68,0.5 6.28,1.3 13.45,-4.98 15.34,-8.07 4.18,-6.87 3.09,-12.45 3.19,-21.62 -1.59,1.39 -0.2,0.8 -3.29,0 0.3,2.29 0.5,2.09 0.6,3.79 0.9,-0.7 0.1,-1.39 -1.3,-1.39 -2.29,0 -0.5,-0.1 -1.1,0.4 -2.19,1.79 -0.4,0.6 -0.1,1 0,-0.2 0.2,-1.5 0.2,-1.59 0,-0.1 0,-0.3 -0.1,-0.5 0,-0.1 -0.1,-0.3 -0.1,-0.5 -1,-2.59 -1.39,-0.1 -2.19,-3.99 -1,-4.88 -1,-3.89 -2.09,-5.08l-0.8 -0.7c-1,0.8 -1.1,1.69 -2.49,2.39 -0.3,-3.69 0.7,-1.69 -2.49,-2.19l0.2 2.39c-0.5,3.09 0.2,-0.2 -0.6,0.7l-1.1 1.3c-0.1,-0.1 -0.3,0.4 -0.4,0.6l2.19 0.9c2.19,0.5 2.79,-0.6 3.59,-0.7l1.1 0.4c2.49,1.79 -0.2,-1.39 0.5,0.7 -1.69,0.6 -1.59,0.7 -4.18,0.6 0.1,7.17 0.7,0.4 -1.3,5.08l-1 -0.6c-0.5,-0.6 -0.2,-0.3 -0.3,-1.3 -1.19,-0.8 1.79,-2.49 -1.99,0l0.09 0.5z"/>
    <path class="fil0" d="M444.51 376.52l0.6 1.3 1.3 -2.69c1.19,0.3 2.59,0.6 2.69,0.6 5.28,3.89 1.5,0.7 4.48,2.59l2.29 1.89c0.1,-0.2 0.2,-0.4 0.3,-0.5 0,-0.1 0.2,-0.3 0.2,-0.4 0.1,-0.1 0.2,-0.3 0.2,-0.4l2.49 -5.18c0.5,-2.19 0.5,3.09 0,-1.59l-2.99 -1.3c-0.1,0 -0.3,-0.1 -0.4,-0.1 -0.1,0 -0.3,-0.1 -0.4,-0.1l-1.39 -0.3c2.19,0.4 1.39,1.3 1.39,-2.19 2.29,-0.8 3.39,0.3 3.49,-0.1 0,-0.1 0.2,0 0.3,0l0.5 8.37c0.1,-0.7 0.1,-1.19 0.2,-1.89 0,-1.1 0,-2.69 0,-3.79l0 -21.62 0 -8.87c-2.99,0 -1.69,0 -3.49,1.1 0,0 -0.2,0.2 -0.2,0.2l-1.99 0c-0.4,-4.38 -0.1,-0.1 1.69,-2.39 0.6,-0.8 0,1.99 0.5,-1 0.3,-1.99 0.2,-0.1 -0.2,-1.59 -2.19,-0.5 -0.6,-0.6 -2.69,-0.1 -1.69,0.4 -1.1,-0.4 -1.39,1.59 0,0.1 0,0.3 0,0.5 0,0.2 0,0.3 0,0.5 0,0.2 0.1,0.4 0.1,0.6 0,0.1 0.8,2.59 0.8,2.69 -3.59,-0.9 -0.1,-0.8 -3.79,0.6 0,-1.3 -0.2,-1.99 0.9,-2.99l1 -0.2c-1.39,-0.6 -1.59,0 -1.79,-2.09 -0.1,-0.9 0.4,-3.09 0.6,-4.28 -2.79,1.69 -0.6,-0.1 -1.99,1.79 -1.99,2.69 -0.9,4.18 -0.9,4.38 0.2,1.1 0,0.6 0,0.7l-2.29 36.27 -0.1 -0z"/>
    <path class="fil0" d="M18.68 406.41l0.1 -0.6c-2.79,0.5 -5.68,-1.19 -6.48,0.8 -0.6,1.39 0.8,2.49 0.9,2.59 0.1,0.2 1,1.89 1,1.99 0.2,1.1 0.4,0.7 -0.1,1.3 -1.39,1.69 -0.4,-1.39 -3.59,0.3 0.7,1.19 0.5,0.8 1.3,1.59 2.09,1.99 -1.39,-1.5 0.8,0.6 1.3,1.19 0.8,3.09 0.8,4.78 0,2.89 -0.8,3.89 -2.99,5.88 -0.1,0.1 -0.2,0.2 -0.3,0.2 -0.1,0 -0.2,0.2 -0.3,0.2l-2.69 3.09c-2.49,-1.1 -2.19,-0.4 -2.59,-2.99l1 -1c0,-0.2 0.2,-0.3 0.3,-0.4 -0.5,-1.39 -1.3,-4.58 -3.19,-4.28 -2.89,0.3 -1.39,3.29 -1.3,5.68 0.3,7.27 -0.7,40.15 -0.2,42.74 0.3,1.3 0.5,1.19 1.79,1.89l1.59 0.5 0 -11.46c-0.1,0.2 -2.39,1.1 0.3,0.1 2.89,-1.1 0.1,1.99 0.7,-0.4 0.1,-0.2 0.3,-0.2 0.4,-0.3 -1.59,-1.89 -1.5,-2.99 -1.19,-4.98 0,-0.1 0,-0.3 0.1,-0.4 0,-0.1 0,-0.3 0,-0.4l-0.5 -24.11c-0.2,2.19 0.3,1.5 1.59,1.59l1.3 -0.1c1.39,-0.7 0.5,-0.1 1.39,-1.5l0.7 3.59c0,0.1 0,0.3 0.1,0.4l0.2 0.9c1.5,-0.2 1.99,-0.7 2.79,-1.79l1 -1c0.2,4.08 -0.5,2.79 2.19,2.69 -2.19,0.9 -0.8,-0.7 -1.5,1.69l-0.7 4.28c-2.19,-1.59 -2.29,0.1 -2.59,0.2l-2.79 0.4c-0.3,0 -0.6,-0.1 -1,0 -1.79,6.78 1.5,-0.1 1.59,6.87 0,0.2 0.1,0.7 0.1,0.9 0.2,2.49 -1.19,3.29 -1.69,4.88 4.08,0.2 1.1,-0.5 4.48,1 0.1,-0.2 0.7,-0.8 0.8,-1l0.8 -1.89c0.1,1.79 0.8,2.59 1.99,2.89 1.69,0.5 2.39,-0.8 2.39,-2.39l-0.3 -3.69c-0.5,-12.05 0.2,-24.21 0,-36.27 -0.1,-2.99 -0.4,-4.28 1.39,-5.68l0.1 0.1z"/>
    <path class="fil0" d="M327.74 488.31c-1,1 -0.6,0.8 -0.6,2.69 -1.3,-3.09 0.3,-0.9 -2.49,-1.99l-1 4.98c0.1,2.69 -0.4,0.9 0.6,1.59l-3.09 0.2 -3.59 3.99c7.77,0 33.08,-1.1 38.06,0.6 -1.5,-2.49 0.1,-0.8 -1.79,-2.19 -1.39,-1.1 -6.38,-1.59 -7.67,-1.5 -6.58,0.5 -6.18,1.69 -6.58,-0.8 0.2,0 1.89,2.19 3.99,-1.1 2.29,-3.59 -1,-0.9 2.69,-2.49 0.1,-0.1 0.3,-0.1 0.4,-0.2l1.3 -1.19c-1,-1.79 0.5,-1.5 -1.99,-1.89 -1.89,-0.3 -1,-1.1 -1.69,1.39 -0.8,-1.5 -1.19,-1.5 -1.99,-2.09l3.09 0.1c4.98,-0.1 6.68,2.49 9.76,-1.99 -2.49,2.29 1.1,2.59 3.19,1.89 0.6,-2.19 1.99,-2.49 -1.39,-3.19l2.39 1.89c0.1,0.1 0.2,0.3 0.3,0.4 0.1,0.1 0.3,0.3 0.4,0.4l3.09 1c0.1,0 0.2,-0.1 0.3,-0.1l0.6 -0.2c0.1,0 0.2,-0.1 0.3,-0.1 0,0 -1.69,-1.19 1.1,0 1.99,0 4.48,-0.2 5.58,-0.4 3.29,-0.8 2.79,-0.7 3.29,-3.99 -4.98,1.79 -47.13,0.6 -56.49,0.6 2.99,4.38 -0.5,0.8 1.59,3.69 1.59,2.19 -1.19,0.6 5.38,0.5 0.7,0 1.99,-0.1 1.99,-0.1l1.19 -0.3 -0.2 -0.1z"/>
    <path class="fil0" d="M327.84 161.12l-0.3 -74.13 114.38 0c-0.2,9.96 1.1,69.84 -0.6,73.63 -18.83,0 -37.66,0.2 -56.49,0 -8.47,-0.1 -52.41,-1 -56.99,0.4l0 0.1zm-1.39 -75.12c-1.19,11.26 -0.3,26.7 -0.3,38.46l-0.1 33.77c0.2,2.29 -0.3,3.29 1.69,2.89 2.79,1.59 50.01,0.6 57.59,0.7 9.76,0 19.43,0 29.19,0 7.77,0 22.02,-0.9 28.2,-0.3l0.2 -75.42c-2.89,0.4 -12.25,-0.2 -16.34,-0.2 -5.68,0 -11.46,-0.1 -17.14,0 -13.75,0.1 -27.5,-0.1 -41.25,0 -6.97,0.1 -13.95,0 -20.92,0 -5.78,0 -15.94,0.6 -20.82,0.1l-0 0z"/>
    <path class="fil0" d="M324.55 379.41c-9.96,0.2 -19.93,0 -29.79,0 -8.57,0 -19.53,0.7 -27.3,-0.3 -1.19,-1.3 -0.4,0 -1,-1.89 -1.5,-4.28 0.6,-37.66 -0.3,-43.84 -0.2,0 -0.5,0 -0.6,0l-3.19 3.29c1.3,5.78 1.59,0.2 3.09,2.99 0.8,1.39 0.1,33.88 0.1,36.27 0,0 -0.1,-0.1 -0.1,-0.1l-0.8 0.8c-0.5,0.8 -2.29,0.6 -3.29,3.99l-0.3 3.49c0.1,1.39 0.5,0.8 -0.7,0.8 -0.3,0 -0.6,-0.2 -1.1,-0.1l1.19 2.89c0.7,1.3 -0.1,0.6 1.1,1.69 1.59,1.5 3.19,1.59 4.68,1.19 0.9,-0.6 0.1,-0.9 0.3,-2.19 0.1,-0.7 0.2,-0.5 0.9,-1.69 0.1,-0.1 0.2,-0.3 0.2,-0.4 0.1,-0.1 0.2,-0.3 0.2,-0.4 1.3,-2.19 1,-2.49 3.49,-2.89 -1.79,2.29 -1,0.5 -1.69,3.69 5.78,-1.19 0.9,-0.1 2.59,-1.59l3.09 -2.39c2.59,1.1 0.2,-0.2 1.69,1.5 0.1,0.1 0.3,0.4 0.4,0.5l0.7 1.1c0.6,-1.1 0.4,-1.59 1.5,-2.39 0.6,-0.5 1.69,-0.5 1.89,-0.5 0.3,0 2.09,1.79 3.79,0.2l0.1 1.39c0,0.1 0.1,0.3 0.1,0.5 0.9,1.89 1.59,1.5 2.69,0.8 1.5,-1 0.3,0 1,-1.19 0.1,-0.1 0.2,-0.3 0.2,-0.5l0.5 -2.39 1.89 -0.2 1.99 3.29c0.1,-0.1 0.3,0.4 0.5,0.6l0.6 -2.79c0.1,-2.39 0,-0.4 -0.1,-0.5 2.29,0.5 0,-0.1 1.99,2.29 0.1,0.1 0.2,0.3 0.3,0.4l1.39 1.3c0.1,0.1 0.2,0.2 0.3,0.2l4.38 1.1c7.37,-0.9 3.39,0.4 7.97,-2.29 0.1,-0.1 0.3,-0.2 0.3,-0.2 0.1,0 0.2,-0.1 0.3,-0.2 0.1,0 0.2,-0.1 0.3,-0.1 1.19,-0.4 1.99,2.19 -3.59,1.59l0.7 1.3c0.1,0.2 0.2,0.4 0.3,0.5 0.1,0.1 0.1,0.3 0.2,0.4 0,0.1 0.1,0.3 0.1,0.4 0,0.1 0,0.2 0,0.3 0,0.1 0,0.2 0,0.3l-0.1 1.5c3.89,-0.7 -2.99,1.5 2.59,0.3 2.89,-0.6 1.99,-0.9 3.09,-4.98l5.08 0c-0.2,-2.29 -1.39,-3.59 0.1,-4.18 3.39,-1.39 4.58,1.99 4.58,-2.49l-0.49 -0.11z"/>
    <path class="fil0" d="M326.54 181.74c0.5,0.9 0.1,-0.3 0.4,1.3 0.5,2.69 -0.3,7.57 0.5,9.76l0 -11.06 114.58 0 -0.3 196.67 -16.94 0.3 1 0.4c0.1,0 0.4,0.1 0.5,0.2l16.84 -0.6 0.1 -196.47 -0.5 -1.69c-4.68,-0.9 -88.87,-0.3 -102.82,-0.3 -5.28,0 -13.25,-1 -13.25,1.39l-0.1 0.1z"/>
    <path class="fil0" d="M102.97 112.8c-13.65,3.59 -10.66,24.71 5.08,21.92 13.75,-2.49 9.86,-25.71 -5.08,-21.92z"/>
    <path class="fil0" d="M495.12 59c0.3,-3.49 -2.09,-5.88 -4.58,-7.17 -3.49,-1.79 -8.07,-1.19 -12.35,-1.19 -1,2.49 -1.1,1.59 -0.9,4.08 0.2,2.49 0.4,2.69 2.59,2.79 -2.99,1.1 -2.19,1.1 -2.19,4.78 3.39,-2.19 2.69,-1.59 3.09,-3.09 2.19,0.7 -0.9,0.3 2.69,1.3 -2.99,1.19 0.1,0.1 -1.89,-0.4 -0.1,0 -1.99,-1.3 -1.39,0.7l0.2 0.8c1.3,1.79 2.19,0.1 3.79,1.3l2.39 2.09c0.6,-1.19 1.19,-1 1.39,-3.19 2.19,3.29 -2.39,-0.9 1.5,1.3l1.5 0.7c-0.6,-3.59 -0.1,-1.79 -0.6,-2.19l2.39 0.2c-2.99,2.89 -2.09,3.09 -1.3,4.28 0,0 -0.6,-0.2 -0.7,-0.2 -1.79,0.1 -0.8,-0.8 -2.89,1.79 0.3,-1 -0.6,-2.39 -2.09,-3.29 -0.6,0.9 -0.1,0.6 -2.29,0 -1,3.89 -0.2,1.3 0.1,3.49l-2.19 0.3c-1,5.98 -0.8,4.28 -0.4,8.87l2.39 3.09c2.49,0.1 -0.7,-0.5 1.59,-0.1l5.28 0.7c0.7,0.3 1.3,3.19 1.3,3.19 0.9,1.79 0.4,1.19 2.19,1.99 0.4,-1 0.7,-1.5 0.9,-2.79 0.4,-2.89 0,-1 0,-3.49l0 -5.28c0,-0.2 -0.1,-0.4 -0.1,-0.6l-0.2 -1.19c-2.79,0.9 -2.89,0.8 -2.99,3.79 -1.19,-4.88 -3.99,-2.39 -2.09,-3.79 0.2,0.6 -2.79,-1 0.3,0.3 2.99,1.19 2.59,0.6 3.29,-0.4 0.1,-0.2 0.2,-0.3 0.3,-0.5l0.3 -2.39c0,-0.2 0,-0.4 0,-0.6 0,-2.09 2.09,-7.77 1.99,-9.76l-0.3 -0.21z"/>
    <path class="fil0" d="M150.6 112.9c-14.05,3.59 -10.16,25.11 5.48,21.72 13.25,-2.89 8.87,-25.41 -5.48,-21.72z"/>
    <path class="fil0" d="M206.89 183.04l51.01 0.7c3.29,0 46.53,0.5 50.31,-0.4l0.7 -0.2c1,-27 -0.1,-54.9 0.2,-82 0.1,-11.76 -1.39,-75.52 0.3,-81l-0.9 0 -0.1 162.4c-5.88,0.1 -96.05,0.7 -100.63,-0.3l-0.3 -163c-0.1,0.1 -0.2,0.2 -0.2,0.5 0,0.3 -0.2,0.4 -0.2,0.5 0,0.1 -0.1,0.3 -0.2,0.5l-0.2 121.15c-0.1,12.65 -0.8,29.09 0.3,41.45l-0.1 -0.3z"/>
    <path class="fil0" d="M257.6 253.38c5.28,6.68 -0.9,1.59 3.49,5.38 1.99,-1.59 1.3,-1.3 1.3,-4.08 2.49,1.1 1.69,1.1 3.19,0.6l1.19 -4.78c0.1,-0.1 1.1,-1.19 1.3,-1.5 3.59,-0.4 8.27,0.3 10.16,-0.8 -2.29,-0.7 -3.29,-0.5 -5.68,-0.5 -0.9,0 -2.39,0.1 -3.19,0l-1.3 -0.2c-0.2,0 -0.5,0.1 -0.6,-0.2 -0.1,-0.2 -0.4,-0.1 -0.6,-0.1l8.27 -0.1c-0.1,0.1 -0.5,0.4 -1,-0.8 -1.3,-2.89 -0.1,-0.2 -0.4,-1.1 0,-0.1 -0.1,-0.3 -0.1,-0.4 -0.6,-2.29 0,-2.49 0.3,-3.09 0.5,-1.3 0.7,0.3 0.5,-2.79l-0.5 1.59c-1,1.99 -1.39,0.2 -1.39,-0.3 -0.1,0 -0.2,0.1 -0.2,0l0.2 -1.89c2.89,1.59 2.19,-3.49 1.89,-4.48 -1.99,0.6 -3.49,1 -3.79,3.79 -0.4,0 -1.5,-0.1 -1.69,-0.1 -0.1,0 -0.2,-0.1 -0.3,-0.2l-2.39 -1c1.3,4.98 0.8,3.09 1.3,3.19 -0.9,-2.29 -1.1,-1.3 -2.29,-1.5l-2.39 0.2c1.69,-2.49 1.39,-0.3 1.5,-5.08 -1.69,-0.1 -3.79,-1 -4.98,-0.3 -1.1,0.6 -0.4,-0.7 -1,1.1 -1.79,5.18 2.59,0.8 2.89,4.28 -2.79,0 -2.99,-0.2 -5.18,0.6 -1.39,5.18 0.5,4.28 1.3,4.48 -4.28,0.8 -0.3,-0.1 -1.69,1.39 -0.1,0.1 -0.2,0.3 -0.3,0.4l-0.7 0.7c-0.1,0.1 -0.3,0.2 -0.4,0.3l-0.8 0.5c1,2.69 -0.8,1.59 2.19,2.49 -1.89,-0.6 -1.19,0.4 -1.1,0.6l-0.5 0.6c0.4,0.7 2.59,-0.8 -1.79,-2.39l-1.19 3.99c0,0.1 0,0.4 0,0.5 0,0.1 0,0.2 0.1,0.3l0.4 1.59c5.58,-0.8 -0.3,-0.4 3.89,-1.3 4.88,-1.1 -4.18,-0.6 2.09,0.7l-0 -0.3z"/>
    <path class="fil0" d="M253.51 280.48c2.09,-1.59 0.9,-0.5 -0.1,-1.69 0,0 -1.89,-1.3 -1.89,-1.3 0,0 0.2,2.59 1.3,-1.3l-0.8 -1c-0.1,-0.1 -0.2,-0.3 -0.2,-0.4 -0.3,-0.5 -0.3,-1 -0.7,-1.89 -1.39,-2.89 0.1,-2.39 -1.5,1.1l0 -14.94c0.8,2.49 2.09,0.8 2.49,0.6l-0.7 2.59c-0.1,4.48 0.6,2.19 1.39,3.09l0.7 -1.1c0.1,-0.1 0.2,-0.4 0.2,-0.5 1.1,-2.29 -1.1,-0.2 0.4,-0.9 1.3,-4.18 -1.59,-1.69 1.5,-0.6l1.1 0.6c-2.29,0.8 -1.89,0 -1.89,4.48 -0.5,-0.5 -2.39,-1 -1.19,1l0.9 1.1c0,0.1 0.1,0.2 0.2,0.3l0.1 1.99c0.3,0 1.5,0.1 1.89,0 2.99,-0.6 0.8,-0.2 2.79,-1.3 0.1,-0.1 0.3,-0.2 0.5,-0.2l1.3 -0.8c0.4,-0.4 -0.4,-1.1 1.79,-0.8 3.29,0.5 -0.7,0.5 2.59,1.19 0,0.6 -0.1,2.09 0.1,2.59 0.7,2.29 -0.2,1 1.39,2.49 0.3,-4.68 1.1,-21.12 -0.3,-24.51l-1.19 4.78c-1.5,0.5 -0.7,0.4 -3.19,-0.6 0,2.79 0.8,2.59 -1.3,4.08 -4.38,-3.79 1.79,1.3 -3.49,-5.38 -3.09,1.19 -1.3,0.5 -5.28,0l-0.1 4.48c0.4,-1 1.99,-1.39 -1.1,-0.9 -0.6,0.1 -1.19,-0.6 -1.39,1.59 0,-1.99 0,-3.99 0,-5.88 0,-0.5 0,-1.99 -0.1,-2.39 -0.7,-1.79 0.7,-2.99 -1.1,-0.3 -1.5,3.79 -0.5,12.75 -0.5,17.44 -0.1,6.38 0.1,12.65 5.58,13.05l-0.2 0.1z"/>
    <path class="fil0" d="M72.29 86.89l115.87 0.1c0.5,9.56 1,68.55 -0.5,73.83l-114.48 0.3 3.09 0.8c1.3,0.1 3.09,0 4.48,0l57.09 0 42.54 -0.1 8.07 -0.3c0.9,-2.69 1.1,-71.84 0.2,-75.12 -4.58,-1.69 -81.7,-0.6 -93.36,-0.6l-20.82 0c-2.89,0.4 -1.59,0.4 -2.29,1l0.1 0.1z"/>
    <path class="fil0" d="M443.91 86.1c1.39,4.38 0.6,10.16 0.6,14.94 2.29,2.09 1.99,2.49 2.09,4.38 0.1,3.19 -0.5,2.49 2.09,4.78 0.1,-0.2 0.1,-0.6 0.2,-0.5 0.3,0.8 0.3,-0.9 0.4,-1 0.5,-1.5 0.1,-0.8 0.8,-1.99 1.89,0.4 1.89,0.3 4.08,0.3l3.19 1.3c1.19,1.59 0.9,1.69 1.3,3.49 0.1,-0.2 0.2,-0.7 0.2,-0.6l0.4 -1.89c0.1,-0.8 0.1,-1.79 0.2,-2.59 0,-0.4 0,-2.49 0,-2.69l-0.1 -1.89c0,-0.1 0,-0.3 0,-0.5 -1.69,0.1 -1.89,2.39 -1.5,0.6l1.99 -1.89c-2.49,-3.49 -1.59,-0.4 -1.59,-2.59 0,-2.79 0.2,-0.6 0.3,-1 0,0 0,-0.2 0,-0.3 0,0 0,-0.2 0,-0.3l-1.3 -1.69c0,0 -0.1,-0.2 -0.1,-0.3 -0.4,-1.3 0,-1.89 0.9,-2.89 -0.3,-4.68 -0.4,-3.39 -1.3,-4.48 1.1,0.5 1.59,-0.4 1.99,-1.1 0.1,-0.2 0.4,-0.3 0.5,-1.79l-5.68 -1.5 0.7 3.79c-2.69,0.2 -2.19,1.39 -4.78,1.1 -3.09,-0.4 0.6,1 -0.5,-0.4 -0.1,-0.1 2.49,2.09 -0.3,-0.5l-0.6 -0.5c-0.8,-0.4 -2.59,0 -4.18,0l0 0.2z"/>
    <path class="fil0" d="M278.12 227.28l-0.8 2.39c-4.28,1.19 -33.08,0.6 -39.35,0.4 1,1.1 0.1,0.6 2.19,1.1l38.16 0.1c-0.2,0.1 -0.4,0.1 -0.6,0.2 -3.99,1 -25.11,0.4 -29.19,0.4 -0.3,0.9 -0.6,1.1 -0.6,2.59 1.5,-0.3 1.59,-0.1 3.19,0.9 -0.5,-1.1 -1.3,1.5 0,-1.1 0.7,-1.3 2.09,-1.19 3.19,-0.9l-0.8 3.09c-0.8,1 -1,1.5 -4.08,1.89 1.5,-0.6 1.99,-1.3 3.69,0.4 0.8,0.8 0.6,2.89 0.3,4.38l-1.1 2.79c-0.2,-0.1 -0.3,-0.3 -0.4,-0.4l-0.6 -0.7c0,-0.1 -0.1,-0.2 -0.2,-0.3 0,0 -0.1,-0.2 -0.1,-0.2 -0.1,-0.1 0,0.1 -1.89,0.3 0.2,-4.58 1.3,-3.79 -0.1,-3.79 0.1,0.2 0.3,0.8 0.4,0.9 0,0.1 0.1,0.3 0.1,0.5 0.1,1.3 0.6,-0.6 -0.1,1.69 -0.3,0.8 -0.3,1.5 -1.59,1.69l-1.69 -0.7c-1.89,-0.3 1.5,-0.7 -1.1,0.2 -0.1,0 -0.8,0.6 -1,0.7 0.1,-1.89 0,-0.8 0.3,-2.29 0.5,-2.59 0.2,-0.4 0.4,-0.3 -2.59,-1.19 0.2,-0.2 -1.59,-0.3 -3.49,-0.2 -2.99,4.08 -8.37,3.39 2.89,1.69 9.47,0.9 13.65,0.9 -0.2,0.1 -0.4,0.2 -0.6,0.2l-1.19 0.3c-1.39,0.2 0,0 -1.3,0.1 -0.8,0.1 -2.29,0 -3.19,0 -2.39,0 -3.49,-0.2 -5.68,0.5 0.1,0.1 0.4,0 0.4,0.2 0.6,1.3 8.47,-0.7 11.76,1.59 1.79,-2.69 0.4,-1.5 1.1,0.3 0.1,0.4 0.1,1.89 0.1,2.39 0,1.99 0,3.89 0,5.88 0.2,-2.19 0.8,-1.5 1.39,-1.59 3.09,-0.5 1.59,-0.1 1.1,0.9l0.1 -4.48c3.99,0.5 2.19,1.19 5.28,0 -6.38,-1.3 2.69,-1.79 -2.09,-0.7 -4.18,0.9 1.69,0.5 -3.89,1.3l-0.4 -1.59c0,-0.1 -0.1,-0.2 -0.1,-0.3 0,-0.1 0,-0.4 0,-0.5l1.19 -3.99c4.38,1.59 2.19,3.09 1.79,2.39l0.5 -0.6c0,-0.2 -0.8,-1.19 1.1,-0.6 -2.99,-0.9 -1.1,0.1 -2.19,-2.49l0.8 -0.5c0.1,-0.1 0.3,-0.2 0.4,-0.3l0.7 -0.7c0.1,-0.1 0.2,-0.3 0.3,-0.4 1.39,-1.5 -2.59,-0.5 1.69,-1.39 -0.7,-0.1 -2.69,0.8 -1.3,-4.48 2.19,-0.8 2.39,-0.6 5.18,-0.6 -0.3,-3.49 -4.68,0.8 -2.89,-4.28 0.6,-1.79 -0.1,-0.5 1,-1.1 1.19,-0.6 3.19,0.2 4.98,0.3 -0.1,4.78 0.2,2.59 -1.5,5.08l2.39 -0.2c1.19,0.2 1.39,-0.8 2.29,1.5 -0.5,-0.1 0,1.79 -1.3,-3.19l2.39 1c0.1,0 0.2,0.1 0.3,0.2 0.2,0.1 1.3,0.1 1.69,0.1 0.3,-2.79 1.79,-3.19 3.79,-3.79 0.3,1 1,5.98 -1.89,4.48 2.29,-0.1 1.59,-0.3 2.79,-1.89l2.29 1.3c2.29,1.59 1.59,0.8 1.39,2.39l-0.8 1.39c2.49,-1.79 -0.4,0.1 2.59,0.1l-3.79 -5.68c0.9,-2.39 0.3,-3.39 1.89,-6.38 0.1,0.2 0.2,0.4 0.3,0.5l0.6 2.79c-0.5,3.29 -0.1,0.4 -0.3,0.5l3.49 -0.4c0.8,-0.5 0.6,-1.5 2.39,-1.5 -0.3,-0.5 -0.7,-1 -0.7,-1.99 -0.1,-2.69 -1.89,-0.1 0.6,-1.19l-1.59 0.4c-0.1,0.1 -0.4,0.2 -0.5,0.3 -0.1,0.1 -0.4,0.4 -0.5,0.3 -0.1,-0.2 -0.4,0.2 -0.5,0.3l-1.89 -3.99c-0.4,1.79 -1.1,1.59 -1.99,1.99l-0.29 -0.09z"/>
    <path class="fil0" d="M253.51 280.48c0.8,0.8 -0.5,0.3 1.69,1.1 3.69,1.39 9.27,-0.3 11.76,-6.58 -1.59,-1.5 -0.7,-0.2 -1.39,-2.49 -0.1,-0.5 -0.1,-1.99 -0.1,-2.59 -3.29,-0.8 0.7,-0.7 -2.59,-1.19 -2.19,-0.3 -1.39,0.4 -1.79,0.8l-1.3 0.8c-0.1,0.1 -0.3,0.2 -0.5,0.2 -2.09,1.1 0.2,0.7 -2.79,1.3 -0.4,0.1 -1.59,0 -1.89,0l-0.1 -1.99c0,-0.1 -0.1,-0.2 -0.2,-0.3l-0.9 -1.1c-1.1,-1.99 0.7,-1.5 1.19,-1 0,-4.48 -0.4,-3.59 1.89,-4.48l-1.1 -0.6c-3.09,-1.1 -0.2,-3.59 -1.5,0.6 -1.5,0.8 0.8,-1.39 -0.4,0.9 -0.1,0.1 -0.2,0.4 -0.2,0.5l-0.7 1.1c-0.8,-0.8 -1.5,1.39 -1.39,-3.09l0.7 -2.59c-0.5,0.2 -1.79,1.79 -2.49,-0.6l0 14.94c1.69,-3.39 0.2,-3.99 1.5,-1.1 0.4,0.9 0.4,1.39 0.7,1.89 0.1,0.1 0.2,0.3 0.2,0.4l0.8 1c-1.1,3.89 -1.3,1.3 -1.3,1.3 0,0 1.89,1.19 1.89,1.3 1,1.19 2.19,0.1 0.1,1.69l0.2 -0.1z"/>
    <path class="fil0" d="M468.02 55.41c-1.59,-0.4 -0.1,1.69 -1.5,-2.69 -3.29,1 -1.39,1.1 -3.99,1.69 -2.89,0.6 0.9,-0.4 -1.5,0.2l1 2.59c0.2,0.6 0.4,0.9 0.5,1.89l-3.09 2.19c-0.1,0.2 -0.2,0.3 -0.3,0.5 -0.6,1.19 -1.79,3.69 -1.3,4.88l1.3 1.89c1.79,-2.59 2.69,-1.3 1.69,-5.08 2.39,1.69 3.09,-0.7 3.19,-0.8 0.3,2.19 0.7,2.09 2.09,3.39 0.7,-0.3 1.3,-0.7 1.5,-0.8 4.58,-1.79 3.99,0.4 4.68,-3.29l1.19 -1.59c-1.19,2.49 0.2,0.3 0.3,1.69 0.4,3.59 0.8,-2.29 -0.1,1 0,0.2 -0.6,1.39 -0.7,1.79 5.48,-0.3 2.49,-0.5 2.49,-0.6 3.19,0.4 1.39,-3.09 1.59,-4.88l1 -2.69c-3.59,0.1 0,0 -2.89,-1.19 -0.4,-0.2 -2.69,-2.09 -3.29,1.89 0,-1.59 -0.4,-1.39 -0.5,-1.69l-2.09 -3.59c-2.39,1.19 -0.1,-0.6 -1.59,0.9l-0.7 1.1c-0.4,1.59 0,0.5 0.7,1.39l0.3 -0.1z"/>
    <path class="fil0" d="M200.71 337.87c1.3,0.5 0.4,0.8 1.69,-1.39 0.1,-0.1 0.1,-0.3 0.2,-0.5l45.13 -0.1 -0.3 43.34c2.29,-0.3 1.69,-2.09 1.69,-4.58 0,-8.47 1.19,-36.07 -1.39,-40.25l-45.63 0c-0.6,1 -1.19,1.89 -1.39,3.39l0 0.1z"/>
    <path class="fil0" d="M372.67 494.59c1.3,0.8 1.99,0.1 2.19,-1.79 0.2,-2.29 0.4,-0.4 -0.9,-2.39 -0.1,-0.1 -0.2,-0.2 -0.3,-0.4 0,-0.2 -0.2,-0.3 -0.3,-0.4 -3.29,1.39 -1,1 -3.49,1.69 -1.19,0.4 -0.7,-0.3 -1.39,0.8 -0.1,0.2 -0.2,0.4 -0.4,0.5l-1.59 2.39c-1.59,1.89 -1,0.3 -2.79,2.29 -1.59,-0.4 0.1,0.2 -1.1,-1.39l2.19 0.2c2.79,-0.4 0.2,0.1 2.09,-0.9 -0.7,-1.99 0.3,-2.29 -0.4,-1.1l-2.19 -2.19c-2.19,0.1 -3.19,2.39 -3.59,3.99 0,0.1 -0.1,0.3 -0.1,0.5l0 3.39c2.79,-0.1 6.28,0 9.56,0l8.27 0.1c0.2,0 0.4,0.1 0.6,0.1 0.2,0 0.5,0.4 0.6,0.2 0.1,-0.2 0.4,0.1 0.6,0.2l0 -5.08c-0.3,0.1 -0.5,0.2 -0.7,0.3l-2.29 1.19c-0.2,0.1 0.2,0.9 -1.89,0.5 -2.49,-0.4 0.3,0.5 -1.1,-0.5l-0.6 -0.6c-0.4,-0.4 -0.9,-1.3 -1.1,-1.59l0.1 0z"/>
    <path class="fil0" d="M267.16 335.97l46.83 0c0.2,2.39 1.3,5.98 2.09,8.47 0.9,2.89 2.29,6.18 2.19,9.27l1.19 -0.6c-0.9,-4.88 -3.79,-15.74 -5.78,-18.73l-45.53 0c-0.6,0.6 -0.5,0.8 -1,1.5l0 0.1z"/>
    <path class="fil0" d="M131.17 342.95c1.69,-0.3 0.1,0.3 1,-0.7 0.5,-0.6 0.8,-1.3 1.19,-1.89 1,-1.79 1.59,-2.39 1.69,-4.38l46.03 0.1c-0.2,4.08 -2.09,5.78 -1.1,7.57 1.1,-1.89 1.89,-5.68 1.89,-8.67 -5.78,-0.5 -42.64,-0.8 -46.03,0.2 -1.59,0.6 -1.19,0.7 -2.89,3.59 -1.39,2.39 -1.19,1.5 -1.79,4.28l0 -0.1z"/>
   </g>
   <rect class="fil0" x="31.83" y="62.29" width="27.4" height="322.81"/>
   <rect class="fil0" x="455.17" y="62.29" width="27.4" height="322.81"/>
   <rect class="fil0" x="202.01" y="7.09" width="110.49" height="179.44"/>
   <rect class="fil0" x="13.11" y="387.58" width="488.59" height="103.42"/>
  </g>
 </g>
</svg>
