<?xml version="1.0" encoding="UTF-8"?>
<!DOCTYPE svg PUBLIC "-//W3C//DTD SVG 1.1//EN" "http://www.w3.org/Graphics/SVG/1.1/DTD/svg11.dtd">
<!-- Creator: CorelDRAW -->
<svg xmlns="http://www.w3.org/2000/svg" xml:space="preserve" width="23.5644mm" height="28.921mm" version="1.1" style="shape-rendering:geometricPrecision; text-rendering:geometricPrecision; image-rendering:optimizeQuality; fill-rule:evenodd; clip-rule:evenodd"
viewBox="0 0 940.42 1154.19"
 xmlns:xlink="http://www.w3.org/1999/xlink"
 xmlns:xodm="http://www.corel.com/coreldraw/odm/2003">
 <defs>
  <style type="text/css">
   <![CDATA[
    .fil0 {fill:#383231}
   ]]>
  </style>
 </defs>
 <g id="Слой_x0020_1">
  <metadata id="CorelCorpID_0Corel-Layer"/>
  <g id="_2450484312272">
   <path class="fil0" d="M25.4 209.22l-18.09 224.93 31.16 191.16 60.5 179.7 69.55 114.17 105.53 104.72 92.46 62.92 72.96 40.6 79.6 -4.62 173.87 -122.21 156.58 -206.43 54.67 -171.66 20.7 -201.81 -19.7 -226.33 -195.58 -42.81 -130.05 -61.71 -110.15 -64.52 -110.15 67.34 -284.83 106.33 -48.64 9.65 -0.4 0.6zm435.58 395.38c26.93,-11.46 44.42,31.16 16.68,41.21 -29.15,10.45 -43.62,-29.75 -16.68,-41.21zm-138.29 254.67l2.41 2.01c44.62,3.82 96.89,1.21 142.51,1.41 23.72,0 47.44,0 71.16,0 22.31,0 49.85,1.41 71.16,-1.01l10.05 -1.81c16.08,-2.21 28.95,-9.25 40.2,-16.68 11.46,-7.64 8.44,-7.24 15.48,-13.07 4.82,-4.02 11.05,-10.25 11.86,-16.48 6.43,-3.62 10.86,-17.08 13.47,-25.13 12.46,-21.11 7.64,-161.81 7.44,-196.58 0,-29.35 3.42,-70.15 -7.44,-95.28 -8.24,-19.1 -31.36,-42.41 -61.11,-41.81 -5.83,-81.41 12.66,-101.11 -44.02,-170.86 -6.63,-8.04 -28.54,-25.13 -41.21,-31.36 -39.2,-21.71 -98.49,-33.37 -145.53,-12.06 -19.3,7.44 -42.61,20.7 -55.68,35.18 -5.43,6.03 -10.45,9.25 -15.48,15.88 -22.11,29.35 -30.55,44.83 -35.98,85.23l-0.4 77.19c-38.39,2.01 -66.73,33.77 -67.74,72.36 -1.21,46.23 -0.2,94.67 0,141.11 0.4,69.35 -11.46,126.63 39.8,169.65 8.44,7.04 33.37,24.32 48.84,22.11l0.21 -0.01zm288.85 -42.01c-8.64,-1.21 -20.3,1.61 -29.95,1.61 -10.45,0 -20.9,0 -31.36,0l-192.36 0c-22.71,-0.2 -34.37,-3.22 -50.25,-13.07 -10.65,-6.63 -23.11,-21.11 -27.94,-35.78 -6.83,-20.9 -3.82,-96.68 -3.82,-124.02 0,-22.92 -2.61,-108.95 2.41,-124.22 6.23,-19.1 22.51,-23.72 40,-23.92 36.18,-0.2 300.3,-1.81 320,1.41 10.86,4.82 21.51,10.86 25.13,25.13 2.61,10.05 1.61,35.78 1.61,47.64 -0.2,33.17 0,66.53 0,99.7 0,37.59 6.03,86.84 -10.86,113.77 -4.62,7.24 -6.63,7.44 -11.46,12.66 -5.23,5.63 -7.04,6.83 -14.27,11.26 -3.42,2.01 -5.02,2.61 -8.64,4.02l-8.04 4.02 -0.2 -0.2zm-15.28 -362.62l-251.46 -0.2 -0.4 -74.17c0,0 10.86,-33.97 12.86,-38.39 5.43,-12.26 23.92,-34.57 33.57,-41.41 29.75,-21.11 26.73,-13.07 49.45,-23.11 9.25,-1.21 15.88,-2.61 25.53,-2.81 8.84,0 19.7,2.21 27.34,0.8 4.02,3.42 14.07,4.62 19.7,6.03 2.21,2.01 19.3,9.45 24.52,12.66 4.42,2.81 8.64,5.63 11.66,8.24 4.82,4.22 6.03,6.43 11.86,8.84 1.81,6.03 13.27,16.48 18.69,25.93 26.93,48.24 11.26,89.85 16.68,117.59l0 0zm-152.96 217.29l5.02 3.82c1.01,16.48 0.2,34.57 0.4,51.26 0.2,36.99 28.34,33.77 38.19,20.7 6.83,-9.05 4.22,-66.93 2.81,-72.56 6.63,-3.02 12.26,-5.83 17.69,-10.86 3.42,-3.02 10.65,-11.46 10.86,-17.29 9.65,-8.04 9.05,-38.59 -4.82,-57.29 -20.5,-27.94 -77.19,-32.96 -96.48,12.86 -4.02,9.25 -4.82,21.51 -2.81,32.16 1.01,5.02 2.81,9.65 5.02,13.67 3.02,5.83 4.22,8.44 9.25,11.46 1.01,2.41 -0.4,0.2 2.01,3.22 0.2,0.2 3.02,2.81 3.62,3.42 2.21,1.81 5.43,4.02 9.25,5.43l-0 0z"/>
   <path class="fil0" d="M171.53 139.06c0.6,1.01 0,2.81 2.01,5.63 0,0 0.4,0.4 0.4,0.6 6.43,7.44 0.4,-5.02 2.41,2.81 1.21,4.62 -2.21,-0.4 0.8,2.61 4.22,4.22 0.8,-1.81 5.23,0.8 -4.82,2.81 -3.82,2.41 -8.24,1.41 3.22,5.02 5.23,9.45 8.04,7.44l4.62 -7.84c3.22,-5.83 1.81,0 3.02,-6.63 -1.21,1.01 -3.42,2.21 1.01,1.61 5.02,-0.6 0.2,0.6 3.22,-1.61 5.23,3.82 3.42,-1.21 1.41,7.04l6.83 -3.02c5.23,-0.8 7.04,5.63 7.44,6.23 0,0.2 0.4,0.4 0.4,0.6 3.02,3.42 1.61,-0.4 7.64,3.62 3.22,2.21 2.81,5.23 6.23,1.21 6.63,0 3.22,-1.01 4.22,2.81 25.53,-6.63 62.11,-22.92 85.83,-33.57 41.01,-18.29 96.89,-46.23 135.48,-71.16 5.83,-3.82 12.26,-8.64 19.9,-10.05 10.65,-2.01 44.22,21.51 57.29,29.95 70.75,45.23 193.37,91.06 273.17,111.56 29.15,7.44 69.75,18.89 98.09,21.91 -2.21,9.65 -0.6,218.69 -0.6,247.44 0,12.46 -2.81,74.98 -1.01,80.81 0.2,0.6 0.6,1.01 0.8,2.01l1.81 2.61c0,-11.26 1.41,-16.68 1.41,-27.14 0,-16.48 -2.61,-22.11 2.81,-22.71l0.4 -2.21c1.81,-2.81 2.61,-1.61 3.22,-2.01 -1.01,1.01 -2.01,-4.02 -0.8,3.62l5.02 7.84c0,5.63 2.81,-5.43 -1.01,1.41 0,0.2 -0.4,0.4 -0.4,0.6 0,0.2 -0.2,0.6 -0.4,0.8l-0.6 3.62c0,0.2 -0.2,0.6 -0.2,0.8l-5.23 8.44c12.06,0 15.88,3.22 18.69,2.01l2.61 -2.01c-0.2,-0.4 1.21,-4.02 1.41,-5.63l-5.63 1.41c-2.41,-6.03 1.01,-2.21 0,-7.04l14.27 7.04c0,-0.4 0.8,-2.41 1.01,-3.62l0.6 -3.42c0,-0.4 0,-0.8 0,-1.01 0,-1.61 -1.21,-4.82 -0.2,-9.05 0,7.44 -0.2,7.64 3.02,11.46 1.61,-79.4 2.01,-183.92 0.4,-264.93 -0.6,-29.35 4.82,-59.3 -18.09,-70.75 -11.05,-5.43 -56.68,-11.86 -72.77,-15.68l-95.68 -25.13c-0.4,-0.2 -0.8,-0.2 -1.21,-0.4 -52.46,-16.28 -117.59,-41.81 -164.63,-67.54 -39.4,-21.51 -47.24,-26.13 -82.81,-49.65 -27.74,-18.29 -33.77,-20.7 -62.11,-2.81 -71.76,45.63 -122.01,73.57 -204.63,104.32 -10.86,4.02 -21.51,7.64 -32.96,11.26 -6.03,2.01 -11.46,3.42 -17.29,5.43 -3.02,1.01 -5.83,1.61 -8.84,2.61 -4.02,1.21 -4.02,0.8 -6.83,3.62l-0.01 -0.41z"/>
   <path class="fil0" d="M87.31 835.35c6.43,16.89 33.17,55.28 43.02,67.94l30.96 38.99c3.22,4.82 2.41,3.02 6.23,6.63 2.81,2.61 3.82,4.82 6.43,8.04l77.79 73.17c48.64,40.8 125.43,90.86 185.33,115.38 40,16.28 48.64,7.44 82.61,-8.24 12.46,-5.83 23.72,-12.06 36.18,-18.09 12.66,-6.23 22.71,-12.86 34.77,-19.7l-2.01 -3.42c-0.2,-0.8 -0.8,-0.8 -1.41,-1.01 0,3.82 1.01,-0.2 -1.01,-3.22l-2.01 -2.41c-0.2,-0.2 -0.4,-0.6 -0.6,-1.01 -3.02,-5.63 -2.21,6.23 -0.8,-3.42l-2.41 8.24c0,-0.2 0.2,0.6 0.2,1.01l-4.42 -2.81c-0.4,-0.2 -0.6,-0.6 -1.01,-0.8 -0.2,-0.2 -0.6,-0.6 -0.8,-0.8 -0.2,-0.2 -1.21,-1.21 -1.61,-1.41 1.61,1.21 -2.01,3.62 1.41,-2.61 1.21,-2.21 0,-1.41 4.22,-2.41 -1.21,-7.84 2.01,-3.42 -2.81,-6.43 6.43,1.41 6.83,0.4 10.05,-2.21 0,-0.4 0,-1.81 -0.4,-3.02 -1.81,-6.03 -1.81,-2.01 -5.23,-7.04 -2.81,1.21 -4.02,1.01 -8.64,1.41l-0.2 -2.81c0,-0.4 -0.4,-0.6 -0.6,-0.8 -6.63,0.4 -8.04,3.42 -15.08,7.44l-42.21 21.91c-23.52,10.65 -37.39,22.71 -65.33,9.65 -52.87,-24.92 -94.27,-46.83 -137.09,-80.6 -4.62,-3.62 -7.64,-5.23 -12.46,-9.05l-41.21 -35.58c-7.44,-6.63 -8.04,-5.23 -16.28,-15.08 -5.43,-6.63 -15.88,-16.89 -21.91,-22.11l-57.89 -69.15c-0.4,0.2 -0.8,0.4 -1.01,0.4 -4.62,0.6 -3.42,-0.8 -13.27,-2.01 0,-0.4 0,-0.8 0,-1.21l0.8 -5.23c-4.02,-3.42 2.41,-2.41 -1.81,-0.2 -0.2,0.2 -1.01,0.8 -1.21,1.01 -2.61,3.42 -1.01,-1.21 -1.41,4.22l-4.42 -7.44c-1.41,-3.82 0.2,-5.43 -6.23,-9.25l-3.02 -1.61c-0.4,-0.2 -0.8,-0.4 -1.21,-0.6 -0.2,-0.2 -1.01,0 -1.21,-0.6 -0.2,-0.6 -0.8,-0.4 -1.21,-0.6 1.81,-2.61 11.26,-0.4 0,-1.41l-3.62 -10.65c-5.43,-1.61 -3.42,-1.61 -7.84,-1.01l-3.62 -6.63c-3.62,-1.81 2.01,3.02 -2.81,-1.01l-2.21 -3.42c-0.2,7.64 1.41,4.02 -8.44,4.22 0.6,1.01 1.61,4.22 4.22,2.81 -0.4,0.2 -0.8,0.2 -1.01,0.2 -7.64,2.01 -7.84,4.82 -8.04,4.42 -0.2,-0.2 -0.6,0.6 -0.8,1.01 2.21,-0.2 -1.41,-4.22 -1.41,-4.22 0,6.63 1.01,3.22 -2.81,4.22l-0.2 -0.01z"/>
   <path class="fil0" d="M0.08 521.98c0.4,-0.4 0.8,-1.61 1.01,-1.41 3.02,4.02 2.21,-26.93 2.21,-27.14 0,-10.05 0,-19.9 0,-29.95l4.62 -2.21c0,0 0.4,-0.4 0.4,-0.4l0 -0.8c4.62,0.4 2.01,1.41 6.03,2.21l-2.41 11.46c4.82,-0.8 3.82,-2.41 8.44,-1.81 0.2,0 0.6,0.2 0.8,0.2 5.63,-1.21 -5.43,-2.41 2.81,3.22 0.2,0.2 0.6,0.4 0.8,0.6l4.22 0.4 -1.41 -8.44c0.2,0 1.01,-4.42 4.82,1.41 0,0.2 0.2,0.6 0.2,0.8l1.41 5.63c0,4.42 2.01,-4.62 -0.2,2.01l-1.21 1.61c-0.2,0.2 -0.4,0.6 -0.8,0.8 7.64,2.21 3.42,2.61 5.63,0l0 16.28c3.82,2.81 1.41,22.31 1.41,28.54 0,6.63 0.8,10.25 1.21,14.67 1.61,17.89 -2.21,9.65 4.42,15.08l-1.61 -7.84c2.21,-6.63 -1.41,-67.34 -1.41,-80.6 0,-27.94 0.2,-56.08 0.2,-84.02 0,-56.28 -0.8,-113.17 0.2,-169.45 -3.02,3.42 -1.21,-0.6 -3.62,6.23 -3.42,10.05 0.8,25.13 0.2,34.98 -0.2,4.42 -0.8,7.04 -0.8,12.86l0.4 111.16c0.4,16.68 -3.22,39.2 0,55.48 -0.2,0 -0.6,0.2 -0.8,0.2l-9.05 2.41c-8.04,-1.01 8.84,-4.22 -6.43,-4.02 -1.21,8.44 0.4,3.82 1.81,9.05l3.62 5.63c5.02,-3.02 1.61,-3.42 3.22,-7.24 10.65,1.01 -2.21,3.62 7.04,1.01l-0.4 11.86 -12.26 8.04c0.2,-3.22 0.6,-1.61 0,-5.02 -5.43,-1.41 -4.22,1.21 -7.24,-2.21 -0.2,-0.2 -0.6,-0.4 -0.6,-1.01 -0.2,-0.6 -0.4,-0.8 -0.6,-1.01 -5.63,0.6 -2.61,-0.6 -7.04,3.62 -0.8,-6.03 -2.21,-3.62 -1.41,-10.05l-2.41 2.21c-0.4,0.4 -0.6,0.6 -1.01,1.01l-1.61 4.02c1.01,-4.82 1.81,-27.74 1.81,-32.76 -1.01,2.41 2.81,2.21 6.03,-3.62 0,2.01 -0.4,6.03 -0.2,7.24 0.6,3.82 -0.4,7.44 6.03,7.44l3.42 -1.81c0.2,-0.2 0.6,-0.6 0.8,-0.8l2.01 -2.81c0,0 0.8,-4.02 -6.23,-2.61 -3.42,0.6 -2.01,0.6 -1.61,2.61l0 -7.04c-0.2,1.01 -4.42,-1.61 0.4,2.01l2.41 -0.6c-1.81,-9.45 -4.62,-6.23 1.41,-6.43 -3.82,-3.42 -0.8,-4.82 -10.05,-0.8 3.42,-4.82 2.81,-3.22 2.61,-6.43 0,-0.4 -0.6,-1.61 -0.6,-2.01l-6.23 -10.05c3.82,3.02 4.22,-2.41 4.22,-5.63 -3.82,-0.8 -4.22,-3.42 -4.22,1.41 0,-4.82 1.41,-4.02 1.21,-8.24l-0.4 -2.01c-1.41,-7.84 2.41,-5.43 3.42,-8.84l0.8 5.83c-0.8,4.22 -3.82,14.87 4.22,14.67 0.2,-0.4 0.2,-0.8 0.2,-1.01l0.2 -2.21c0,-0.4 0,-0.8 0,-1.21 0.2,-5.23 2.21,-9.05 2.01,-13.87 0,-0.2 0,-0.6 0,-1.01l-0.4 -4.62c0,-0.4 -0.2,-1.21 -0.4,-1.41 0,-0.2 -0.2,-0.6 -0.2,-0.6 0,0 0,-0.4 0,-0.6 0,-0.2 0,-0.8 0,-1.01l5.83 -2.01c12.26,2.01 -2.01,-1.41 4.02,5.02 2.61,2.81 4.42,0.4 4.62,-3.42 0,-0.4 0,-0.8 0,-1.21 -0.4,-5.43 1.41,-1.41 -2.01,-4.02l-2.61 -1.61c-4.42,-1.21 -2.61,3.02 -10.05,-1.61 -4.82,-3.02 -3.62,0.6 -4.42,-6.63l11.46 1.41c-2.61,-3.82 -3.82,-5.02 -7.44,-5.63l0.6 -6.63c0.4,-4.22 -0.8,1.01 1.01,-6.23 3.82,-1.81 3.02,0.6 5.63,0 -0.8,-6.63 -1.01,-3.42 0,-8.44 -9.45,1.01 -1.21,3.82 -12.46,2.81l6.83 -2.81c-1.41,-7.64 -1.01,-9.45 -5.43,-8.24 -8.24,2.21 -0.6,3.22 1.81,6.03 -8.24,0.4 -3.42,-0.8 -7.84,2.21 0.4,1.21 1.01,3.42 1.01,3.62 0,0.2 0.2,0.4 0.4,0.6 -1.81,-4.02 -1.41,1.41 -1.41,-4.22 0,-7.64 1.81,-6.83 6.83,-8.84l4.62 -3.62 5.02 5.02 9.65 -14.27c0,-0.4 0.2,-0.6 0.2,-1.01 -10.25,-3.42 -10.65,-1.01 -11.66,1.61l1.61 6.83c-3.22,2.81 -6.63,-4.82 -6.43,-14.07 -0.4,0.4 -1.01,0.8 -1.41,1.21l-3.22 4.82c-1.61,5.23 0.2,0.8 0.4,1.01 -4.42,-9.25 -4.22,-1.41 -5.63,-15.68 5.02,-3.82 -3.62,3.02 2.61,-0.6 3.22,-1.81 5.23,-6.43 7.44,-9.25 -3.62,-0.8 -3.62,-1.01 -7.84,-1.41l9.05 -4.62 8.64 10.25 3.22 -5.63c-0.8,-3.22 0.6,-2.61 -5.43,-2.81 7.84,-3.02 3.82,1.61 5.02,-7.04 -0.4,0 -0.8,-0.2 -1.01,-0.4 -0.2,0 -0.8,-0.2 -1.01,-0.4l-3.62 -3.82c0.4,0 2.81,0.8 3.62,1.01 -0.8,-6.43 0,-5.02 -2.81,-7.84 9.05,2.01 1.21,3.22 7.24,-3.42 0.2,-0.2 2.21,-2.81 2.41,-3.22 1.81,-4.22 2.01,4.82 1.01,-6.23l-4.22 -1.81c-2.41,-0.6 -1.41,-0.6 -4.42,-0.2 0.2,-0.4 1.81,-3.22 1.81,-3.62 0,-5.83 8.44,3.22 -1.81,-2.21 1.01,-2.41 3.62,-1.01 -1.81,-1.21l-4.42 1.01c-3.82,1.21 -1.21,-2.21 -1.61,1.01 -3.82,-7.04 3.02,-8.04 9.25,-8.44 -3.42,6.23 -2.01,4.02 0.8,7.04 1.21,-3.02 -0.2,-8.04 1.41,-10.45 2.01,-2.81 5.43,-1.41 8.04,-1.21l2.81 -8.84c-6.43,-0.2 -5.43,-2.41 -10.05,-5.02 4.82,-3.42 -4.02,-1.81 2.81,-0.6 3.42,0.6 6.43,5.83 15.48,5.83 16.08,1.41 76.18,-16.08 95.88,-19.9 -3.62,-4.62 0.6,-1.21 -5.83,-4.02 -1.81,2.61 -5.83,3.02 -7.04,2.81 -0.2,-0.4 -0.2,-1.01 -0.2,-1.21 0.4,-4.42 -6.83,-3.42 6.03,-3.02 -1.61,-10.25 -1.61,2.61 -2.81,-7.84 9.25,-5.23 3.62,4.02 8.04,-5.02l-3.82 -1.61c-3.82,-0.8 -6.83,0.6 -8.44,0.2 1.01,-3.82 -2.21,0.2 6.83,-6.03 0.8,3.22 1.81,4.62 4.82,5.83 1.61,-4.82 0.4,-4.82 1.01,-7.84l0.6 -1.41c0,0 0.4,-0.4 0.4,-0.6l0.8 -1.41c-4.42,-3.22 -3.82,-6.23 -6.03,-0.2l0.6 -2.81c0.8,-6.63 2.01,-7.44 14.67,-9.85l-5.63 3.02c0.4,0.2 0.8,0.6 1.01,0.8l4.62 2.01c-13.67,5.23 9.05,2.41 -8.04,5.63 2.01,4.82 2.61,5.23 1.81,9.45l-2.21 7.64c4.62,1.81 3.42,2.01 7.64,-1.21l6.23 -5.02c0.2,0 0.4,-0.2 0.6,-0.4l1.41 -0.6c1.01,-0.4 -0.2,-0.6 2.81,-0.8 -3.22,3.22 1.01,1.61 -5.23,2.21l5.43 9.45c-10.25,-3.02 -3.02,-3.62 -7.84,-2.21 -4.62,1.41 -2.81,6.23 -3.62,8.84l2.21 0.8c6.23,1.01 68.54,-18.29 74.98,-22.51 -1.01,-3.82 2.41,-2.81 -4.22,-2.81 -3.42,4.02 -3.02,1.01 -6.23,-1.21 -6.23,-4.02 -4.62,-0.4 -7.64,-3.62 -0.2,-0.2 -0.4,-0.4 -0.4,-0.6 -0.4,-0.4 -2.21,-7.04 -7.44,-6.23l-6.83 3.02c2.01,-8.24 3.82,-3.42 -1.41,-7.04 -3.02,2.41 1.61,1.01 -3.22,1.61 -4.42,0.6 -2.21,-0.6 -1.01,-1.61 -1.21,6.63 0.2,0.8 -3.02,6.63l-4.62 7.84c-2.81,2.01 -4.82,-2.41 -8.04,-7.44 4.42,0.8 3.22,1.41 8.24,-1.41 -4.62,-2.61 -1.21,3.62 -5.23,-0.8 -3.02,-3.22 0.4,1.81 -0.8,-2.61 -2.01,-7.84 4.22,4.62 -2.41,-2.81 0,0 -0.4,-0.4 -0.4,-0.6 -2.01,-2.81 -1.41,-4.62 -2.01,-5.63l-113.57 25.53c-18.49,3.62 -45.23,5.02 -52.06,18.29 -8.84,17.49 -5.63,41.81 -6.03,62.51 -1.01,45.83 -0.6,92.26 -0.8,138.29 -0.2,45.83 -0.8,92.46 1.01,138.09l-1.19 0.37z"/>
   <path class="fil0" d="M784.4 865.7c-0.2,0.2 -0.4,0 -1.81,1.41 -0.2,0.2 -24.92,33.57 -32.36,41.41l-17.89 20.7c-11.66,12.46 -28.14,26.93 -37.99,38.59l-20.5 17.89c-5.23,3.82 -9.05,7.84 -13.87,11.86 -5.63,4.62 -8.84,7.44 -14.07,11.46l-44.42 32.56c-5.63,3.62 -27.74,16.08 -30.75,20.9 0.2,0.4 0.6,0.4 0.6,0.8l0.2 2.81c4.62,-0.4 5.83,-0.2 8.64,-1.41 3.42,5.02 3.42,1.01 5.23,7.04 0.4,1.21 0.4,2.61 0.4,3.02 -3.02,2.41 -3.62,3.42 -10.05,2.21 4.82,3.02 1.61,-1.41 2.81,6.43 -4.22,1.01 -3.02,0.2 -4.22,2.41 -3.42,6.03 0.2,3.82 -1.41,2.61 0.4,0.2 1.41,1.21 1.61,1.41 0.2,0.2 0.6,0.6 0.8,0.8 0.2,0.2 0.6,0.4 1.01,0.8l4.42 2.81c0,-0.4 -0.2,-1.21 -0.2,-1.01l2.41 -8.24c-1.41,9.65 -2.21,-2.41 0.8,3.42 0.2,0.2 0.4,0.6 0.6,1.01l2.01 2.41c1.81,3.02 0.8,7.04 1.01,3.22 0.6,0.2 1.21,0.2 1.41,1.01l2.01 3.42c14.47,-7.04 66.93,-44.22 77.59,-53.07l18.09 -14.47c1.81,-1.21 3.22,-2.01 5.23,-3.42 3.62,-3.02 0.8,-1.01 4.22,-4.22l89.45 -88.84c16.89,-21.91 23.92,-30.35 41.81,-56.48l24.32 -38.79c-4.82,-5.02 -3.22,7.64 -3.42,-4.22l-2.41 1.81c-7.04,4.22 -10.25,-0.4 -10.45,-0.4l0 -10.05c-2.61,-0.8 -1.61,-0.8 -4.22,1.61l-1.41 1.61c-0.2,0.2 -0.6,0.6 -0.8,0.6 -0.2,0.2 -0.6,0.4 -0.8,0.4 -4.42,2.01 -0.6,1.01 -2.61,0l4.22 6.43c-1.01,-5.63 1.01,-3.22 4.22,-3.62 0,0.4 0,1.01 0,1.21 0.2,8.04 1.61,3.02 4.22,12.26l-10.05 -2.21c0,0 2.81,0.4 -3.42,4.22l-3.02 1.61 2.81 7.84c-1.01,7.44 3.62,0 -1.41,2.81 -7.24,4.02 -8.44,1.81 -10.65,5.02 -0.4,-0.2 -1.01,-0.6 -1.21,-0.8l-2.81 -2.01c-1.81,-1.01 -3.02,0 -4.22,0.6l-3.02 8.04 -3.62 -0.2c-0.4,0 -0.8,0 -1.01,0 -13.87,-1.81 1.01,-10.86 -11.66,-6.63l-0.41 -0.4z"/>
   <path class="fil0" d="M0.08 521.98c3.82,52.06 7.04,89.85 18.09,140.1 3.62,16.28 28.95,106.13 40.8,117.79 2.01,-1.41 2.81,-2.01 12.46,0 -3.22,-8.04 -3.82,1.41 -2.21,-11.46 0.2,0.4 0.6,0.4 0.8,1.21l2.81 6.03c1.21,-6.83 1.01,-3.82 5.63,-6.43 -0.2,-0.2 -0.2,-0.8 -0.2,-0.6 -1.21,3.02 0.8,-1.21 -3.62,-4.22l4.22 1.41c1.81,0.4 -1.21,2.01 2.21,0 5.83,-3.42 0,3.42 2.21,-4.62l0.6 -5.63c0,-0.2 0.2,-0.6 0.2,-0.8 0,-0.2 0.2,-0.6 0.2,-0.8 -0.2,0 -0.6,-0.2 -0.8,0 -0.2,0.4 -0.6,0 -0.8,0.2 -0.4,0.2 -3.62,1.81 -4.02,2.01l1.21 -6.03c-0.4,0 -1.01,0.2 -1.41,0.4 -4.82,0.6 1.01,0.8 -4.02,0 -1.21,-3.42 -2.81,-6.03 0.4,-8.24l6.43 -3.02c0.2,-0.2 2.61,1.81 0.2,-7.44 1.01,5.02 1.81,2.21 -0.8,4.82 -1.21,1.41 -1.81,2.81 -7.24,-1.61 -6.43,-5.23 0.2,-0.2 -3.82,-7.64l-4.02 -10.05c-4.82,4.22 -0.6,4.42 -7.04,4.82 -5.43,0.4 -0.8,0.6 -4.22,-0.6 1.01,-3.62 3.42,-8.04 7.84,-4.22 -1.61,-3.22 -1.81,1.81 0,-2.41 0,-0.2 0.2,-0.6 0.2,-0.8l3.82 -3.22c0.4,-0.2 0.8,-0.4 1.21,-0.8l2.61 -1.61c-7.84,-0.4 -3.42,0.6 -5.63,-5.63l7.04 0c-3.22,-8.64 -1.01,-1.01 2.01,-4.22 -14.27,-30.75 -24.72,-102.31 -28.54,-141.31l-1.61 -9.25c0,-0.4 -0.2,-0.8 -0.4,-1.21l1.61 7.84c-6.83,-5.43 -3.02,2.81 -4.42,-15.08 -0.4,-4.42 -1.21,-8.04 -1.21,-14.67 0,-6.23 2.41,-25.53 -1.41,-28.54l0 -16.28c-2.21,2.61 1.81,2.21 -5.63,0 0.4,-0.2 0.8,-0.6 0.8,-0.8l1.21 -1.61c2.41,-6.63 0.2,2.41 0.2,-2.01l-1.41 -5.63c0,-0.2 -0.2,-0.6 -0.2,-0.8 -3.82,-5.83 -4.62,-1.41 -4.82,-1.41l1.41 8.44 -4.22 -0.4c-0.2,-0.2 -0.6,-0.4 -0.8,-0.6 -8.24,-5.63 2.81,-4.62 -2.81,-3.22 -0.2,-0.2 -0.6,-0.2 -0.8,-0.2 -4.82,-0.6 -3.82,0.8 -8.44,1.81l2.41 -11.46c-4.02,-0.6 -1.41,-1.81 -6.03,-2.21l0 0.8c0,0 -0.4,0.4 -0.4,0.4l-4.62 2.21c0,10.05 0,19.9 0,29.95 0,0.2 0.8,30.96 -2.21,27.14 -0.2,-0.2 -0.6,1.01 -1.01,1.41l0 -0.01z"/>
   <path class="fil0" d="M42.09 212.83c6.03,0.8 4.02,-0.6 5.23,-1.81 -8.84,0 -12.06,-5.23 -15.48,-5.83 -6.83,-1.21 2.01,-3.02 -2.81,0.6 4.42,2.41 3.62,4.82 10.05,5.02l-2.81 8.84c-2.61,-0.2 -6.03,-1.41 -8.04,1.21 -1.61,2.41 -0.2,7.44 -1.41,10.45 -2.61,-3.02 -4.02,-0.8 -0.8,-7.04 -6.23,0.4 -13.07,1.61 -9.25,8.44 0.6,-3.22 -2.21,0.2 1.61,-1.01l4.42 -1.01c5.43,0.4 2.61,-1.21 1.81,1.21 10.25,5.43 1.61,-3.82 1.81,2.21 0,0.2 -1.61,3.22 -1.81,3.62 3.02,-0.2 2.01,-0.2 4.42,0.2l4.22 1.81c1.01,11.05 0.8,2.01 -1.01,6.23 -0.2,0.4 -2.21,3.02 -2.41,3.22 -5.83,6.43 1.81,5.23 -7.24,3.42 2.81,2.81 2.01,1.41 2.81,7.84 -1.01,-0.2 -3.22,-1.01 -3.62,-1.01l3.62 3.82c0.2,0.2 0.8,0.4 1.01,0.4 0.2,0 0.6,0.4 1.01,0.4 -1.21,8.84 2.81,4.02 -5.02,7.04 6.03,0.2 4.62,-0.4 5.43,2.81l-3.22 5.63 -8.64 -10.25 -9.05 4.62c4.22,0.4 4.22,0.8 7.84,1.41 -2.01,2.81 -4.22,7.44 -7.44,9.25 -6.23,3.62 2.41,-3.22 -2.61,0.6 1.41,14.27 1.21,6.43 5.63,15.68 -0.2,-0.2 -2.01,4.22 -0.4,-1.01l3.22 -4.82c0.4,-0.4 0.8,-0.8 1.41,-1.21 -0.2,9.25 3.22,16.89 6.43,14.07l-1.61 -6.83c1.21,-2.61 1.61,-4.82 11.66,-1.61 0,0.4 -0.2,0.6 -0.2,1.01l-9.65 14.27 -5.02 -5.02 -4.62 3.62c-5.02,2.01 -6.83,1.21 -6.83,8.84 0,5.63 -0.4,0.2 1.41,4.22 -0.2,-0.2 -0.4,-0.6 -0.4,-0.6 0,-0.2 -0.8,-2.41 -1.01,-3.62 4.42,-2.81 -0.4,-1.61 7.84,-2.21 -2.41,-2.81 -10.25,-3.82 -1.81,-6.03 4.42,-1.21 4.02,0.6 5.43,8.24l-6.83 2.81c11.26,1.01 3.02,-1.81 12.46,-2.81 -1.01,5.23 -0.8,1.81 0,8.44 -2.81,0.6 -1.81,-1.81 -5.63,0 -2.01,7.24 -0.6,2.01 -1.01,6.23l-0.6 6.63c3.82,0.6 4.82,2.01 7.44,5.63l-11.46 -1.41c0.6,7.24 -0.4,3.62 4.42,6.63 7.44,4.62 5.83,0.2 10.05,1.61l2.61 1.61c3.42,2.61 1.81,-1.41 2.01,4.02 0,0.4 0,0.8 0,1.21 -0.2,3.82 -2.01,6.23 -4.62,3.42 -6.03,-6.43 8.24,-3.02 -4.02,-5.02l-5.83 2.01c0,0.2 0,0.8 0,1.01 0,0 0,0.4 0,0.6 0,0.2 0.2,0.6 0.2,0.6 0,0.2 0.2,1.21 0.4,1.41l0.4 4.62c0,0.2 0,0.6 0,1.01 0.2,4.82 -1.81,8.44 -2.01,13.87 0,0.4 0,0.8 0,1.21l-0.2 2.21c0,0.2 0,0.8 -0.2,1.01 -8.04,0.2 -5.02,-10.45 -4.22,-14.67l-0.8 -5.83c-1.01,3.42 -4.82,1.01 -3.42,8.84l0.4 2.01c0.2,4.22 -1.21,3.42 -1.21,8.24 0,-4.82 0.4,-2.21 4.22,-1.41 0,3.22 -0.4,8.84 -4.22,5.63l6.23 10.05c0.2,0.4 0.6,1.61 0.6,2.01 0.2,3.42 0.8,1.61 -2.61,6.43 9.05,-4.02 6.03,-2.61 10.05,0.8 -6.03,0.2 -3.22,-3.02 -1.41,6.43l-2.41 0.6c-4.62,-3.82 -0.6,-1.21 -0.4,-2.01l0 7.04c-0.4,-2.01 -1.81,-2.01 1.61,-2.61 7.04,-1.41 6.23,2.61 6.23,2.61l-2.01 2.81c-0.2,0.2 -0.6,0.6 -0.8,0.8l-3.42 1.81c-6.43,0 -5.43,-3.62 -6.03,-7.44 -0.2,-1.41 0.2,-5.23 0.2,-7.24 -3.42,5.83 -7.04,5.83 -6.03,3.62 0,5.02 -0.8,27.94 -1.81,32.76l1.61 -4.02c0.2,-0.4 0.6,-0.6 1.01,-1.01l2.41 -2.21c-0.6,6.23 0.6,4.02 1.41,10.05 4.62,-4.02 1.61,-2.81 7.04,-3.62 0.2,0.4 0.6,0.4 0.6,1.01 0.2,0.6 0.4,0.8 0.6,1.01 3.02,3.42 2.01,1.01 7.24,2.21 0.6,3.42 0.2,1.61 0,5.02l12.26 -8.04 0.4 -11.86c-9.25,2.61 3.62,-0.2 -7.04,-1.01 -1.41,3.82 1.81,4.22 -3.22,7.24l-3.62 -5.63c-1.41,-5.23 -3.02,-0.6 -1.81,-9.05 15.28,0 -1.61,3.02 6.43,4.02l9.05 -2.41c0.2,0 0.6,-0.2 0.8,-0.2 -3.42,-16.48 0.2,-38.79 0,-55.48l-0.4 -111.16c0,-5.83 0.6,-8.44 0.8,-12.86 0.6,-9.85 -3.62,-24.92 -0.2,-34.98 2.41,-6.83 0.6,-2.81 3.62,-6.23l0.59 0.02z"/>
   <path class="fil0" d="M842.89 763.19c-0.8,0.8 -23.72,46.23 -27.14,52.66 -4.82,8.64 -9.85,16.48 -15.08,24.92 -5.02,8.04 -12.86,17.08 -16.08,24.92 12.86,-4.22 -2.21,4.82 11.66,6.63 0.4,0 0.8,0 1.01,0l3.62 0.2 3.02 -8.04c1.21,-0.6 2.41,-1.41 4.22,-0.6l2.81 2.01c0.4,0.2 0.8,0.6 1.21,0.8 2.21,-3.02 3.42,-0.8 10.65,-5.02 5.02,-2.81 0.2,4.62 1.41,-2.81l-2.81 -7.84 3.02 -1.61c6.23,-3.82 3.42,-4.22 3.42,-4.22l10.05 2.21c-2.61,-9.25 -4.02,-4.02 -4.22,-12.26 0,-0.2 0,-0.8 0,-1.21 -3.42,0.2 -5.23,-2.01 -4.22,3.62l-4.22 -6.43c2.01,1.21 -1.61,2.01 2.61,0 0.2,0 0.6,-0.2 0.8,-0.4 0.2,-0.2 0.6,-0.4 0.8,-0.6l1.41 -1.61c2.81,-2.41 1.61,-2.41 4.22,-1.61l0 10.05c0,0 3.42,4.62 10.45,0.4l2.41 -1.81c0,11.86 -1.41,-0.8 3.42,4.22 3.02,-8.24 7.64,-14.47 11.46,-22.31 3.22,-6.43 6.83,-14.27 10.25,-21.11 5.63,-10.65 15.68,-37.79 19.5,-43.42l-2.81 -1.61c-0.4,-0.2 -2.01,-1.41 -2.41,-1.81 -3.42,-2.81 0.4,2.41 -2.41,-3.22l-5.02 4.22c-0.2,-0.4 -0.8,0.6 -1.41,0.8 -0.2,-0.4 -1.01,-1.81 -1.21,-2.01l-1.01 -1.81c-2.21,-2.81 0.4,-1.41 -2.81,-2.01 -6.83,-1.21 -2.81,0 -4.22,1.41 -4.82,2.41 -0.4,-1.01 -0.6,4.42 0,2.61 0.4,1.21 -0.4,4.22 -1.61,5.43 1.81,0 -2.61,4.42 0,-0.4 2.41,1.61 -1.61,-0.6 -3.82,-2.21 -3.42,-2.81 -4.82,-6.43 -1.41,6.83 -6.23,12.06 -11.66,11.26l-4.82 -0.8 0.2 -0.2z"/>
   <path class="fil0" d="M59.17 779.67c-0.2,8.44 9.05,20.3 13.07,29.15 2.21,4.82 11.46,23.72 15.08,26.33 3.82,-1.01 2.81,2.41 2.81,-4.22 0,0 3.62,4.02 1.41,4.22 0.4,-0.2 0.6,-1.21 0.8,-1.01 0.2,0.2 0.4,-2.61 8.04,-4.42 0.2,0 0.8,0 1.01,-0.2 -2.61,1.41 -3.62,-1.81 -4.22,-2.81 9.85,-0.2 8.44,3.42 8.44,-4.22l2.21 3.42c4.82,4.02 -0.8,-0.6 2.81,1.01l3.62 6.63c4.42,-0.6 2.41,-0.4 7.84,1.01l3.62 10.65c11.26,1.01 1.81,-1.21 0,1.41 0.4,0.2 1.01,0 1.21,0.6 0.2,0.6 0.8,0.4 1.21,0.6 0.2,0.2 0.8,0.4 1.21,0.6l3.02 1.61c6.43,3.82 4.82,5.43 6.23,9.25l4.42 7.44c0.2,-5.43 -1.21,-0.8 1.41,-4.22 0.2,-0.2 0.8,-0.8 1.21,-1.01 4.22,-2.21 -2.21,-3.42 1.81,0.2l-0.8 5.23c0,0.2 0,0.8 0,1.21 9.85,1.21 8.64,2.61 13.27,2.01 0.2,0 0.8,-0.2 1.01,-0.4 -2.81,-4.02 -4.02,-6.23 -6.63,-10.05 -2.01,-3.02 -4.02,-5.43 -6.43,-9.05 -28.95,-43.82 -60.5,-101.31 -73.97,-152.16 -3.02,3.42 -5.23,-4.42 -2.01,4.22l-7.04 0c2.21,6.43 -2.21,5.43 5.63,5.63l-2.61 1.61c-0.4,0.2 -0.8,0.4 -1.21,0.8l-3.82 3.22c0,0.2 -0.2,0.6 -0.2,0.8 -1.81,4.22 -1.61,-0.8 0,2.41 -4.42,-3.62 -6.83,0.6 -7.84,4.22 3.62,1.21 -1.21,1.01 4.22,0.6 6.63,-0.4 2.41,-0.6 7.04,-4.82l4.02 10.05c3.82,7.44 -2.81,2.21 3.82,7.64 5.43,4.42 5.83,3.02 7.24,1.61 2.61,-2.61 1.61,0.2 0.8,-4.82 2.41,9.25 0,7.24 -0.2,7.44l-6.43 3.02c-3.42,2.21 -1.61,4.62 -0.4,8.24 5.02,0.8 -0.8,0.6 4.02,0 0.4,0 1.01,-0.2 1.41,-0.4l-1.21 6.03c0.4,-0.2 3.82,-1.81 4.02,-2.01 0.2,0 0.8,0.2 0.8,-0.2 0.2,-0.2 0.4,0 0.8,0 0,0.2 -0.2,0.8 -0.2,0.8 0,0.2 -0.2,0.6 -0.2,0.8l-0.6 5.63c-2.21,8.24 3.62,1.21 -2.21,4.62 -3.22,2.01 -0.4,0.4 -2.21,0l-4.22 -1.41c4.42,3.22 2.41,7.44 3.62,4.22 0,-0.2 0.2,0.4 0.2,0.6 -4.62,2.61 -4.42,-0.4 -5.63,6.43l-2.81 -6.03c-0.2,-0.6 -0.6,-0.8 -0.8,-1.21 -1.61,12.86 -1.21,3.42 2.21,11.46 -9.65,-2.01 -10.45,-1.41 -12.46,0l-0.2 0.01z"/>
   <path class="fil0" d="M894.75 546.1l-5.23 58.09c6.83,3.82 -2.61,4.02 2.41,0l2.81 4.02c1.21,-10.45 3.82,-7.44 3.82,-7.44 1.61,2.61 -0.6,0.8 2.61,3.22 1.61,1.21 0.2,1.61 4.62,-0.2 1.01,-0.4 1.41,-1.01 3.22,-1.61 -2.01,12.66 -2.81,1.01 -0.6,14.87 -3.82,2.01 -6.03,0.8 -9.85,4.22 0.4,2.81 0,4.02 3.42,5.63l5.83 1.21c-0.4,-1.21 -1.81,-3.82 -2.01,-4.42 0,-0.2 -0.2,-0.8 -0.2,-1.01l-0.4 -2.61c2.41,0.6 4.82,-0.6 8.24,7.64l0.8 -5.23c0.6,-2.01 -2.01,-0.8 1.41,-2.61 1.81,-1.01 -0.6,-2.41 4.62,1.41 0.2,0.2 0.6,0.6 0.8,0.8l1.81 1.81c1.81,-10.25 0.8,-3.82 -0.6,-7.24l-3.02 -4.02c5.02,-3.02 1.01,0.2 5.83,-2.81 0,9.45 -1.81,14.87 -3.42,23.11 -1.21,6.23 -3.22,14.47 -3.82,21.71 -2.01,-6.03 -3.42,-1.21 -1.81,-12.06 -4.62,2.41 -1.61,0.4 -4.62,3.22 0,0 -1.61,2.21 -1.61,2.41l-4.22 -8.04c-2.01,1.61 -2.81,1.61 -4.22,3.82 -2.61,4.42 1.41,7.44 -5.83,8.64l-2.01 -6.23c0,-0.6 -0.4,-0.6 -0.8,-1.01l3.62 -0.6c0.2,0 0.8,-0.2 1.01,-0.2l1.81 -0.6c-1.61,-1.01 -3.02,-1.61 -4.22,-2.21 0,0 -1.81,-1.21 -2.21,-1.61 2.61,-2.41 1.41,-15.08 0,-20.5 -0.4,0 -1.01,0 -1.21,0.2l-2.21 0.6c-0.2,0.2 -0.6,0.4 -0.8,0.4l-2.81 3.22c-1.81,5.23 -14.07,60.7 -14.07,62.51 1.01,1.01 3.62,4.82 9.25,1.21 0.4,-0.2 1.81,-1.81 1.81,-2.01 3.02,-8.44 1.01,4.62 -1.41,-2.61 0,0 -0.2,-0.4 -0.2,-0.6l6.63 -7.64c5.83,-3.02 0,3.02 4.22,-1.81l2.01 -5.02c11.26,7.24 5.63,8.24 8.44,10.86l4.42 -7.44c0.2,-0.2 -3.82,1.21 0.8,-0.6l4.62 0.4c0,0 0.4,-0.2 0.4,-0.2 0,0 0.2,-0.4 0.4,-0.4l0.6 -0.8c0,0 0.2,-0.2 0.2,-0.2 0,0.6 -1.01,4.02 -1.01,4.42 0.4,7.04 -2.01,-5.23 0.4,2.61 0.2,0.6 0.4,0.8 0.6,1.41l1.61 2.81c1.21,-10.05 6.03,-25.73 8.44,-37.19 2.61,-12.66 4.62,-24.92 6.43,-37.79 2.41,-16.48 10.65,-64.72 7.44,-79.2l-2.41 -6.83c0,12.06 -1.41,18.89 -1.41,29.55 -3.62,-6.63 1.01,-8.64 -3.22,-13.47 -2.21,2.81 -0.2,2.81 0.2,8.44 -2.01,-0.6 2.61,-1.21 -2.81,0 -12.06,2.41 6.43,3.42 -18.09,4.82 1.61,4.82 3.22,2.21 1.21,8.44 0,0 3.62,0.4 -1.21,-3.82 -6.03,-5.43 -3.62,7.24 -3.22,8.84 -1.41,-0.8 -2.81,-3.02 -5.63,1.41 -2.41,4.02 -5.02,8.44 -2.81,18.29 0.6,2.41 2.21,3.22 3.82,7.24l-6.63 3.22c-1.61,-16.89 7.64,-41.01 -0.2,-47.24l-0.59 0.4z"/>
   <path class="fil0" d="M842.89 763.19l4.82 0.8c5.43,0.6 10.25,-4.62 11.66,-11.26 1.41,3.62 1.01,4.22 4.82,6.43 4.02,2.41 1.61,0.2 1.61,0.6 4.42,-4.22 1.01,1.21 2.61,-4.42 0.8,-3.02 0.4,-1.61 0.4,-4.22 0.2,-5.23 -4.22,-1.81 0.6,-4.42 1.41,-1.41 -2.61,-2.61 4.22,-1.41 3.42,0.6 0.8,-0.8 2.81,2.01l1.01 1.81c0.2,0.4 1.01,1.61 1.21,2.01 0.4,-0.2 1.01,-1.01 1.41,-0.8l5.02 -4.22c2.81,5.63 -1.01,0.4 2.41,3.22 0.4,0.4 2.01,1.41 2.41,1.81l2.81 1.61 8.24 -25.53c-6.03,3.22 -0.2,-3.22 -4.42,4.22 -2.61,-7.44 -1.21,-4.82 -4.42,-1.81 -0.2,0.2 -0.8,1.21 -1.01,0.8 -0.2,-0.4 -0.6,0.8 -1.01,1.01l-1.81 -8.44c7.04,-1.01 -3.22,3.22 5.43,1.41 -1.01,-10.65 -8.84,-5.43 -11.66,-10.86l-0.6 -1.81c-2.81,-5.43 0.6,-3.22 -3.62,-3.22 -6.63,-0.2 -0.8,-0.6 -3.62,2.01l-1.41 2.01c-0.2,-0.2 -0.4,0.8 -0.6,1.01l-8.24 -7.64c-2.81,9.45 -6.03,18.89 -9.65,27.94 -3.02,7.64 -9.45,22.11 -11.46,29.55l0 -0.2z"/>
   <path class="fil0" d="M871.04 687.01l-7.04 18.49 8.24 7.64c0.2,-0.4 0.6,-1.21 0.6,-1.01l1.41 -2.01c2.81,-2.61 -3.02,-2.21 3.62,-2.01 4.22,0.2 0.8,-2.21 3.62,3.22l0.6 1.81c2.81,5.63 10.65,0.2 11.66,10.86 -8.64,1.81 1.61,-2.41 -5.43,-1.41l1.81 8.44c0.4,-0.2 0.8,-1.21 1.01,-1.01 0.2,0.2 0.8,-0.8 1.01,-0.8 3.22,-3.02 1.81,-5.63 4.42,1.81 4.22,-7.44 -1.61,-1.01 4.42,-4.22 4.02,-4.22 10.86,-37.39 14.27,-45.63l-1.61 -2.81c-0.2,-0.6 -0.4,-0.8 -0.6,-1.41 -2.21,-7.84 0,4.42 -0.4,-2.61 0,-0.4 1.01,-3.82 1.01,-4.42 0,0 -0.2,0.2 -0.2,0.2l-0.6 0.8c0,0 -0.2,0.4 -0.4,0.4 0,0 -0.4,0.2 -0.4,0.2l-4.62 -0.4c-4.62,1.81 -0.6,0.6 -0.8,0.6l-4.42 7.44c-2.81,-2.61 2.81,-3.62 -8.44,-10.86l-2.01 5.02c-4.22,4.82 1.61,-1.21 -4.22,1.81l-6.63 7.64c0,0.2 0.2,0.4 0.2,0.6 2.41,7.24 4.62,-5.83 1.41,2.61 0,0.2 -1.61,1.81 -1.81,2.01 -5.83,3.82 -8.24,-0.2 -9.25,-1.21l-0.41 0.21z"/>
   <path class="fil0" d="M896.56 541.48l-1.81 4.62c7.84,6.03 -1.41,30.35 0.2,47.24l6.63 -3.22c-1.61,-4.02 -3.42,-4.62 -3.82,-7.24 -2.01,-9.85 0.4,-14.27 2.81,-18.29 2.81,-4.42 4.02,-2.21 5.63,-1.41 -0.4,-1.61 -2.81,-14.07 3.22,-8.84 4.82,4.22 1.21,3.82 1.21,3.82 2.21,-6.43 0.4,-3.82 -1.21,-8.44 24.52,-1.41 6.03,-2.41 18.09,-4.82 5.43,-1.01 0.8,-0.6 2.81,0 -0.2,-5.63 -2.41,-5.63 -0.2,-8.44 4.22,4.82 -0.4,6.83 3.22,13.47 0,-10.65 1.41,-17.49 1.41,-29.55l2.41 6.83c2.41,-3.82 1.61,-12.66 2.01,-18.29 -3.22,-3.62 -3.02,-4.02 -3.02,-11.46 -0.8,4.02 0.2,7.44 0.2,9.05 0,0.4 0,0.8 0,1.01l-0.6 3.42c-0.2,1.21 -1.01,3.22 -1.01,3.62l-14.27 -7.04c1.01,4.82 -2.41,1.01 0,7.04l5.63 -1.41c-0.4,1.61 -1.61,5.23 -1.41,5.63l-2.61 2.01c-2.81,1.21 -6.63,-2.01 -18.69,-2.01l5.23 -8.44c0,-0.2 0.2,-0.6 0.2,-0.8l0.6 -3.62c0,-0.2 0.2,-0.6 0.4,-0.8 0,-0.2 0.4,-0.6 0.4,-0.6 3.82,-6.83 1.01,4.42 1.01,-1.41l-5.02 -7.84c-1.21,-7.64 -0.4,-2.61 0.8,-3.62 -0.6,0.6 -1.41,-0.8 -3.22,2.01l-0.4 2.21c-5.43,0.6 -2.81,6.43 -2.81,22.71 0,10.45 -1.41,15.88 -1.41,27.14l-1.81 -2.61c-0.2,-1.01 -0.6,-1.41 -0.8,-2.01l0 0.4z"/>
   <path class="fil0" d="M889.53 604.19l-2.61 9.45c-0.6,4.02 -1.21,6.83 -1.81,10.86l2.81 -3.22c0.2,-0.2 0.6,-0.4 0.8,-0.4l2.21 -0.6c0.2,0 0.8,-0.2 1.21,-0.2 1.41,5.23 2.61,17.89 0,20.5 0.4,0.4 2.21,1.61 2.21,1.61 1.21,0.6 2.61,1.21 4.22,2.21l-1.81 0.6c-0.2,0 -0.8,0.2 -1.01,0.2l-3.62 0.6c0.4,0.2 0.6,0.4 0.8,1.01l2.01 6.23c7.24,-1.21 3.02,-4.02 5.83,-8.64 1.21,-2.21 2.01,-2.21 4.22,-3.82l4.22 8.04c0,-0.2 1.61,-2.41 1.61,-2.41 3.02,-2.81 0,-0.8 4.62,-3.22 -1.41,10.86 0,6.03 1.81,12.06 0.8,-7.24 2.61,-15.48 3.82,-21.71 1.61,-8.24 3.42,-13.67 3.42,-23.11 -4.82,3.22 -0.8,-0.2 -5.83,2.81l3.02 4.02c1.41,3.42 2.41,-3.02 0.6,7.24l-1.81 -1.81c-0.2,-0.2 -0.6,-0.6 -0.8,-0.8 -5.23,-3.82 -3.02,-2.41 -4.62,-1.41 -3.62,2.01 -1.01,0.8 -1.41,2.61l-0.8 5.23c-3.42,-8.24 -5.83,-7.04 -8.24,-7.64l0.4 2.61c0,0.2 0.2,0.6 0.2,1.01 0.2,0.6 1.61,3.22 2.01,4.42l-5.83 -1.21c-3.62,-1.61 -3.02,-3.02 -3.42,-5.63 3.82,-3.62 6.03,-2.21 9.85,-4.22 -2.21,-13.87 -1.41,-2.21 0.6,-14.87 -1.61,0.6 -2.21,1.21 -3.22,1.61 -4.42,1.81 -2.81,1.41 -4.62,0.2 -3.22,-2.21 -1.01,-0.6 -2.61,-3.22 0,0 -2.61,-3.02 -3.82,7.44l-2.81 -4.02c-4.82,4.02 4.62,3.82 -2.41,0l0.6 -0.4z"/>
   <path class="fil0" d="M142.99 191.13c1.41,-0.4 3.62,-1.01 4.82,-1.41 0.4,-0.2 1.81,-0.8 2.21,-1.01 3.02,-1.41 1.61,-0.6 3.22,-1.81l-2.21 -0.8c0.8,-2.61 -1.01,-7.44 3.62,-8.84 5.02,-1.41 -2.41,-0.8 7.84,2.21l-5.43 -9.45c6.23,-0.6 2.01,1.01 5.23,-2.21 -2.81,0.2 -1.61,0.4 -2.81,0.8l-1.41 0.6c-0.2,0 -0.4,0.2 -0.6,0.4l-6.23 5.02c-4.22,3.22 -2.81,3.02 -7.64,1.21l2.21 -7.64c0.8,-4.42 0.2,-4.82 -1.81,-9.45 17.08,-3.22 -5.63,-0.4 8.04,-5.63l-4.62 -2.01c-0.2,-0.2 -0.8,-0.4 -1.01,-0.8l5.63 -3.02c-12.66,2.41 -13.87,3.42 -14.67,9.85l-0.6 2.81c2.21,-6.03 1.61,-3.02 6.03,0.2l-0.8 1.41c0,0 -0.4,0.4 -0.4,0.6l-0.6 1.41c-0.4,3.02 0.8,3.02 -1.01,7.84 -3.02,-1.21 -3.82,-2.61 -4.82,-5.83 -9.25,6.23 -5.83,2.21 -6.83,6.03 1.61,0.4 4.62,-1.01 8.44,-0.2l3.82 1.61c-4.42,8.84 1.21,-0.2 -8.04,5.02 1.01,10.45 1.21,-2.41 2.81,7.84 -12.86,-0.2 -5.63,-1.21 -6.03,3.02 0,0.2 0,0.8 0.2,1.21 1.41,0.2 5.43,-0.2 7.04,-2.81 6.23,2.81 2.21,-0.6 5.83,4.02l0.6 -0.2z"/>
  </g>
 </g>
</svg>
