<?xml version="1.0" encoding="UTF-8"?>
<!DOCTYPE svg PUBLIC "-//W3C//DTD SVG 1.1//EN" "http://www.w3.org/Graphics/SVG/1.1/DTD/svg11.dtd">
<!-- Creator: CorelDRAW -->
<svg xmlns="http://www.w3.org/2000/svg" xml:space="preserve" width="40.067mm" height="40.067mm" version="1.1" style="shape-rendering:geometricPrecision; text-rendering:geometricPrecision; image-rendering:optimizeQuality; fill-rule:evenodd; clip-rule:evenodd"
viewBox="0 0 1462.35 1462.35"
 xmlns:xlink="http://www.w3.org/1999/xlink"
 xmlns:xodm="http://www.corel.com/coreldraw/odm/2003">
 <defs>
  <style type="text/css">
   <![CDATA[
    .str0 {stroke:#C0A57C;stroke-width:36.58;stroke-miterlimit:22.9256}
    .str1 {stroke:black;stroke-width:2.78;stroke-miterlimit:22.9256}
    .fil0 {fill:none}
    .fil1 {fill:#C0A57C}
    .fil2 {fill:#FEFEFE}
   ]]>
  </style>
    <clipPath id="id0">
     <path d="M731.17 18.29c393.57,0 712.88,319.12 712.88,712.88 0,393.57 -319.12,712.88 -712.88,712.88 -393.57,0 -712.88,-319.12 -712.88,-712.88 0,-393.57 319.12,-712.88 712.88,-712.88zm0 166.18c301.84,0 546.7,244.67 546.7,546.7 0,301.84 -244.67,546.7 -546.7,546.7 -301.84,0 -546.7,-244.67 -546.7,-546.7 0,-301.84 244.67,-546.7 546.7,-546.7z"/>
    </clipPath>
    <clipPath id="id1">
     <path d="M731.17 18.29c393.57,0 712.88,319.12 712.88,712.88 0,393.57 -319.12,712.88 -712.88,712.88 -393.57,0 -712.88,-319.12 -712.88,-712.88 0,-393.57 319.12,-712.88 712.88,-712.88zm0 166.18c301.84,0 546.7,244.67 546.7,546.7 0,301.84 -244.67,546.7 -546.7,546.7 -301.84,0 -546.7,-244.67 -546.7,-546.7 0,-301.84 244.67,-546.7 546.7,-546.7z"/>
    </clipPath>
 </defs>
 <g id="Слой_x0020_1">
  <metadata id="CorelCorpID_0Corel-Layer"/>
  <g id="_2456801834896">
   <circle class="fil0 str0" cx="731.17" cy="731.17" r="712.88"/>
   <circle class="fil1" cx="731.17" cy="731.17" r="546.7"/>
   <g>
    <path class="fil2" d="M504.7 661.32c9.19,-65.44 78.5,-137.14 130.52,-153.86 12.68,-20.22 105.7,-25.92 139.71,-20.41 135.48,22.06 232.91,161.4 191.55,303.68 -40.26,138.61 -191,209.56 -322.62,155.88 -26.47,-10.85 -31.44,-25.55 -61.03,-15.81 -23.35,7.72 -45.77,17.1 -70.59,21.88 6.43,-24.82 15.26,-45.41 22.98,-69.67 8.83,-27.76 -10.66,-38.6 -21.51,-65.99 -14.52,-36.58 -29.96,-121.33 -8.83,-155.88l-0.18 0.19zm-67.47 365.81c31.44,-5.33 85.48,-26.84 118.93,-36.95 71.14,-21.51 24.82,-4.41 116.91,16.36 278.32,62.68 472.99,-286.4 264.71,-487.88 -211.95,-205.15 -552.4,-0.92 -482.91,275.56 23.16,91.91 43.57,51.84 19.85,118.38 -11.95,33.64 -31.07,82.9 -37.5,114.53l0 0z"/>
    <path class="fil2" d="M591.65 669.59c25.37,65.08 58.64,120.04 120.22,160.48 80.7,52.94 180.33,55.15 172.25,-34.38 -19.85,-7.91 -51.84,-31.07 -74.08,-32.91 -12.68,9.93 -19.3,23.16 -36.58,35.85 -41.91,-10.48 -99.08,-65.81 -106.43,-94.12 -6.07,-23.53 33.64,-21.69 20.04,-60.66 -11.58,-33.27 -15.44,-57.91 -35.48,-60.48 -44.86,-1.65 -62.13,37.87 -59.93,86.03l0 0.19z"/>
   </g>
   <g>
   </g>
   <g style="clip-path:url(#id0)">
   </g>
   <path class="fil0" d="M731.17 18.29c393.57,0 712.88,319.12 712.88,712.88 0,393.57 -319.12,712.88 -712.88,712.88 -393.57,0 -712.88,-319.12 -712.88,-712.88 0,-393.57 319.12,-712.88 712.88,-712.88zm0 166.18c301.84,0 546.7,244.67 546.7,546.7 0,301.84 -244.67,546.7 -546.7,546.7 -301.84,0 -546.7,-244.67 -546.7,-546.7 0,-301.84 244.67,-546.7 546.7,-546.7z"/>
   <g style="clip-path:url(#id1)">
    <path id="_1" class="fil0 str1" d="M18.29 18.29l1425.76 1425.76m0 -1425.76l-1425.76 1425.76"/>
   </g>
  </g>
 </g>
</svg>
