<?xml version="1.0" encoding="UTF-8"?>
<!DOCTYPE svg PUBLIC "-//W3C//DTD SVG 1.1//EN" "http://www.w3.org/Graphics/SVG/1.1/DTD/svg11.dtd">
<!-- Creator: CorelDRAW -->
<svg xmlns="http://www.w3.org/2000/svg" xml:space="preserve" width="29.7971mm" height="29.7971mm" version="1.1" style="shape-rendering:geometricPrecision; text-rendering:geometricPrecision; image-rendering:optimizeQuality; fill-rule:evenodd; clip-rule:evenodd"
viewBox="0 0 344.53 344.53"
 xmlns:xlink="http://www.w3.org/1999/xlink"
 xmlns:xodm="http://www.corel.com/coreldraw/odm/2003">
 <defs>
  <style type="text/css">
   <![CDATA[
    .fil1 {fill:#2B2A29}
    .fil0 {fill:#C0A57C}
   ]]>
  </style>
 </defs>
 <g id="Слой_x0020_1">
  <metadata id="CorelCorpID_0Corel-Layer"/>
  <g id="_2450387501872">
   <path class="fil0" d="M110.18 0l124.16 0c60.84,0 110.18,49.34 110.18,110.18l0 124.16c0,60.84 -49.34,110.18 -110.18,110.18l-124.16 0c-60.84,0 -110.18,-49.34 -110.18,-110.18l-0 -124.16c0,-60.84 49.34,-110.18 110.18,-110.18z"/>
   <rect class="fil1" x="33.84" y="282.5" width="277.61" height="4.25"/>
   <rect class="fil1" x="47.87" y="127.71" width="249.37" height="4.25"/>
   <rect class="fil1" x="33.95" y="64.53" width="278.6" height="4.25"/>
   <rect class="fil1" x="33.95" y="79.43" width="278.6" height="4.25"/>
   <rect class="fil1" x="52.53" y="94.57" width="90.85" height="4.25"/>
   <rect class="fil1" x="202.54" y="94.57" width="90.85" height="4.25"/>
   <rect class="fil1" transform="matrix(9.74411E-14 2.03091 -3.02735 4.42584E-14 56.7491 98.8289)" width="75.71" height="1.4"/>
   <rect class="fil1" transform="matrix(9.74411E-14 2.03091 -3.02735 4.42584E-14 293.424 98.8289)" width="75.71" height="1.4"/>
   <rect class="fil1" transform="matrix(9.74411E-14 2.03091 -3.02735 4.42584E-14 267.462 98.8289)" width="75.71" height="1.4"/>
   <rect class="fil1" transform="matrix(9.74411E-14 2.03091 -3.02735 4.42584E-14 82.6444 98.8289)" width="75.71" height="1.4"/>
   <rect class="fil1" x="48.22" y="250.53" width="38.55" height="4.25"/>
   <rect class="fil1" x="258.51" y="250.53" width="38.55" height="4.25"/>
   <rect class="fil1" transform="matrix(1.3491E-14 0.478545 -3.02735 7.53228E-14 262.745 250.505)" width="75.71" height="1.4"/>
   <rect class="fil1" transform="matrix(1.3491E-14 0.478545 -3.02735 7.53228E-14 297.075 250.505)" width="75.71" height="1.4"/>
   <rect class="fil1" transform="matrix(1.3491E-14 0.478545 -3.02735 7.53228E-14 52.4641 250.505)" width="75.71" height="1.4"/>
   <rect class="fil1" transform="matrix(1.3491E-14 0.478545 -3.02735 7.53228E-14 86.7966 250.505)" width="75.71" height="1.4"/>
   <rect class="fil1" transform="matrix(1.3491E-14 0.239273 -3.02735 3.76614E-14 312.555 64.5074)" width="75.71" height="1.4"/>
   <rect class="fil1" transform="matrix(1.3491E-14 0.239273 -3.02735 3.76614E-14 38.2172 64.5074)" width="75.71" height="1.4"/>
   <rect class="fil1" transform="matrix(0.119636 0.207216 -2.62176 1.51368 47.3833 79.8611)" width="75.71" height="1.4"/>
   <rect class="fil1" transform="matrix(-0.119636 0.207216 2.62176 1.51368 298.505 79.8611)" width="75.71" height="1.4"/>
   <rect class="fil1" x="110.24" y="268.88" width="124.1" height="4.25"/>
   <path class="fil1" d="M172.26 141.22c34.24,0 62.02,27.78 62.02,62.02l-4.25 0c0,-31.91 -25.86,-57.77 -57.77,-57.77 -31.91,0 -57.77,25.86 -57.77,57.77l-4.25 0c0,-34.24 27.78,-62.02 62.02,-62.02z"/>
   <rect class="fil1" x="110.24" y="203.24" width="4.25" height="69.88"/>
   <rect class="fil1" x="230.09" y="203.24" width="4.25" height="69.88"/>
   <path class="fil1" d="M167.72 106.28c0,-6.17 4.08,-10.02 5.18,-12.11 2.16,1.46 5.36,7.63 5.36,11.65 0,6.29 -2.1,8.97 -5.18,13.63 -0.52,-0.41 -1.46,-1.92 -1.92,-2.62 -1.92,-3.14 -3.49,-6.7 -3.49,-10.54l0.06 0zm-4.31 -0.41l0.23 3.67c-0.99,-0.23 -1.8,-0.76 -2.74,-1.11 -5.24,-1.92 -9.61,-2.39 -15.08,-1.46 -1.11,0.17 -2.45,0.64 -3.44,0.64 0.06,1.51 1.69,5.88 2.27,6.99 3.09,5.53 7.05,8.39 13.04,10.42 1.05,0.35 3.03,0.58 3.79,0.99 0.06,-0.64 0.7,-3.9 0.87,-4.31 -4.89,-1.16 -8.74,-2.33 -12.17,-6.52 -0.7,-0.87 -1.92,-2.91 -2.21,-4.02 0.93,-0.06 0.52,-0.23 2.16,-0.23 5.82,0 11.24,2.04 14.73,4.43 1.22,0.82 2.39,3.44 3.96,5.76 0.7,1.05 1.28,1.69 2.1,2.68 0.58,0.76 1.75,2.27 2.5,2.45 0.12,-0.52 3.61,-4.6 4.08,-5.24 1.51,-2.1 2.91,-5.24 3.73,-5.76 3.67,-2.45 8.85,-4.37 14.79,-4.37 1.11,0 0.99,0.17 1.92,0.23 -0.64,2.68 -3.26,5.47 -5.42,7.05 -2.74,2.04 -5.82,2.8 -8.97,3.49 0.17,0.41 0.82,3.67 0.87,4.31 0.64,-0.29 2.62,-0.64 3.55,-0.93 1.28,-0.41 2.33,-0.7 3.44,-1.28 3.2,-1.63 5.76,-3.32 7.86,-6.12 1.8,-2.45 4.19,-7.28 4.25,-10.02 -2.5,-0.06 -7.63,-2.39 -15.26,-0.17 -0.93,0.29 -1.86,0.52 -2.8,0.87 -0.87,0.29 -1.92,0.87 -2.8,1.05 0,-2.68 0.23,-4.6 -0.35,-6.99 -0.47,-2.04 -1.22,-4.08 -2.16,-5.65 -2.62,-4.43 -2.16,-3.26 -4.95,-6.64 -0.7,-0.82 -1.11,-1.51 -1.98,-2.1 -2.8,1.86 -5.82,6.64 -7.57,9.67 -0.41,0.64 -0.76,1.75 -0.99,2.45 -0.52,1.4 -1.11,3.9 -1.11,5.82l-0.17 -0.06z"/>
  </g>
 </g>
</svg>
