<?xml version="1.0" encoding="UTF-8"?>
<!DOCTYPE svg PUBLIC "-//W3C//DTD SVG 1.1//EN" "http://www.w3.org/Graphics/SVG/1.1/DTD/svg11.dtd">
<!-- Creator: CorelDRAW -->
<svg xmlns="http://www.w3.org/2000/svg" xml:space="preserve" width="29.7972mm" height="29.7971mm" version="1.1" style="shape-rendering:geometricPrecision; text-rendering:geometricPrecision; image-rendering:optimizeQuality; fill-rule:evenodd; clip-rule:evenodd"
viewBox="0 0 482.93 482.93"
 xmlns:xlink="http://www.w3.org/1999/xlink"
 xmlns:xodm="http://www.corel.com/coreldraw/odm/2003">
 <defs>
  <style type="text/css">
   <![CDATA[
    .fil1 {fill:#2B2A29}
    .fil0 {fill:#C0A57C}
   ]]>
  </style>
 </defs>
 <g id="Слой_x0020_1">
  <metadata id="CorelCorpID_0Corel-Layer"/>
  <g id="_2450387507392">
   <path class="fil0" d="M154.45 0l174.04 0c85.29,0 154.45,69.16 154.45,154.45l-0 174.04c0,85.28 -69.16,154.45 -154.44,154.45l-174.04 0c-85.28,0 -154.44,-69.16 -154.44,-154.45l-0 -174.04c0,-85.28 69.16,-154.45 154.45,-154.45z"/>
   <rect class="fil1" transform="matrix(9.74411E-14 1.95208 -3.02735 4.25407E-14 366.618 169.537)" width="106.12" height="1.96"/>
   <rect class="fil1" x="114.12" y="403.67" width="268.57" height="5.96"/>
   <rect class="fil1" transform="matrix(9.74411E-14 0.365851 -3.02735 7.97279E-15 382.749 370.779)" width="106.12" height="1.96"/>
   <rect class="fil1" x="281.71" y="370.77" width="100.98" height="5.96"/>
   <rect class="fil1" transform="matrix(9.74411E-14 0.552556 -3.02735 1.20415E-14 287.681 350.963)" width="106.12" height="1.96"/>
   <rect class="fil1" transform="matrix(9.74411E-14 1.95208 -3.02735 4.25407E-14 327.925 169.537)" width="106.12" height="1.96"/>
   <rect class="fil1" x="315.02" y="169.55" width="57.55" height="5.96"/>
   <rect class="fil1" x="315.02" y="149.96" width="57.55" height="5.96"/>
   <rect class="fil1" transform="matrix(9.74411E-14 0.24084 -3.02735 5.2485E-15 372.586 149.917)" width="106.12" height="1.96"/>
   <rect class="fil1" transform="matrix(9.74411E-14 0.24084 -3.02735 5.2485E-15 321.003 149.917)" width="106.12" height="1.96"/>
   <path class="fil1" d="M343.59 102.77c9.63,0 17.39,7.76 17.39,17.39 0,9.63 -7.76,17.39 -17.39,17.39 -9.63,0 -17.39,-7.76 -17.39,-17.39 0,-9.63 7.76,-17.39 17.39,-17.39zm0 5.96c6.29,0 11.43,5.14 11.43,11.43 0,6.29 -5.14,11.43 -11.43,11.43 -6.29,0 -11.43,-5.14 -11.43,-11.43 0,-6.29 5.14,-11.43 11.43,-11.43z"/>
   <path class="fil1" d="M343.83 131.59c12.57,0 22.86,9.31 22.86,20.82l-7.84 0c0,-7.59 -6.69,-13.71 -15.02,-13.71 -8.33,0 -15.02,6.12 -15.02,13.71l-7.84 0c0,-11.51 10.2,-20.82 22.86,-20.82z"/>
   <rect class="fil1" x="196.81" y="350.93" width="100.98" height="5.96"/>
   <rect class="fil1" x="196.81" y="325.14" width="100.98" height="5.96"/>
   <rect class="fil1" transform="matrix(9.74411E-14 0.493381 -3.02735 1.0752E-14 202.718 304.54)" width="106.12" height="1.96"/>
   <rect class="fil1" transform="matrix(9.74411E-14 0.299007 -3.02735 6.51609E-15 297.787 325.17)" width="106.12" height="1.96"/>
   <rect class="fil1" x="141.88" y="304.57" width="71.26" height="5.96"/>
   <rect class="fil1" x="141.88" y="279.26" width="71.26" height="5.96"/>
   <rect class="fil1" transform="matrix(9.74411E-14 0.294025 -3.02735 6.40751E-15 213.143 279.276)" width="106.12" height="1.96"/>
   <rect class="fil1" transform="matrix(9.74411E-14 0.486551 -3.02735 1.06031E-14 147.788 258.842)" width="106.12" height="1.96"/>
   <rect class="fil1" x="114.12" y="258.85" width="42.77" height="5.96"/>
   <rect class="fil1" x="114.12" y="232.4" width="42.77" height="5.96"/>
   <rect class="fil1" transform="matrix(9.74411E-14 0.305165 -3.02735 6.6503E-15 156.907 232.395)" width="106.12" height="1.96"/>
   <rect class="fil1" transform="matrix(9.74411E-14 1.5462 -3.02735 3.36956E-14 231.861 167.005)" width="106.12" height="1.96"/>
   <rect class="fil1" transform="matrix(9.74411E-14 1.27883 -3.02735 2.78688E-14 284.081 195.384)" width="106.12" height="1.96"/>
   <rect class="fil1" transform="matrix(9.74411E-14 0.472164 -3.02735 1.02896E-14 257.583 279.608)" width="106.12" height="1.96"/>
   <rect class="fil1" transform="matrix(9.74411E-14 0.136823 -3.02735 2.98171E-15 257.583 181.766)" width="106.12" height="1.96"/>
   <path class="fil1" d="M228.32 260.65l26.29 -26.29 26.29 26.29 -26.29 26.29 -26.29 -26.29zm8.41 0l17.88 17.88 17.88 -17.88 -17.88 -17.88 -17.88 17.88z"/>
   <path class="fil1" d="M228.32 216.41l26.29 -26.29 26.29 26.29 -26.29 26.29 -26.29 -26.29zm8.41 0l17.88 17.88 17.88 -17.88 -17.88 -17.88 -17.88 17.88z"/>
   <polygon class="fil1" points="327.34,217.06 114.12,101.63 114.12,108.41 324.49,222.28 "/>
   <polygon class="fil1" points="327.34,191.26 114.12,75.84 114.12,82.61 324.49,196.49 "/>
  </g>
 </g>
</svg>
