<?xml version="1.0" encoding="UTF-8"?>
<!DOCTYPE svg PUBLIC "-//W3C//DTD SVG 1.1//EN" "http://www.w3.org/Graphics/SVG/1.1/DTD/svg11.dtd">
<!-- Creator: CorelDRAW -->
<svg xmlns="http://www.w3.org/2000/svg" xml:space="preserve" width="29.7971mm" height="29.7971mm" version="1.1" style="shape-rendering:geometricPrecision; text-rendering:geometricPrecision; image-rendering:optimizeQuality; fill-rule:evenodd; clip-rule:evenodd"
viewBox="0 0 807.36 807.36"
 xmlns:xlink="http://www.w3.org/1999/xlink"
 xmlns:xodm="http://www.corel.com/coreldraw/odm/2003">
 <defs>
  <style type="text/css">
   <![CDATA[
    .fil1 {fill:#2B2A29}
    .fil0 {fill:#C0A57C}
   ]]>
  </style>
 </defs>
 <g id="Слой_x0020_1">
  <metadata id="CorelCorpID_0Corel-Layer"/>
  <g id="_2450387514400">
   <path class="fil0" d="M258.2 0l290.96 0c142.58,0 258.2,115.62 258.2,258.2l0 290.96c0,142.58 -115.62,258.2 -258.2,258.2l-290.96 0c-142.58,0 -258.2,-115.62 -258.2,-258.2l0 -290.96c0,-142.58 115.62,-258.2 258.2,-258.2z"/>
   <g>
    <path class="fil1" d="M132.1 130.74c24.16,-0.54 264.34,-0.96 266.66,0.41 2.18,2.59 1.77,32.34 0.54,37.12 -6,1.23 -122.96,0.41 -132.24,0.41 -22.11,0 -44.22,0 -66.32,0 -21.84,0 -44.63,0.68 -66.32,-0.14 1.09,1.5 1.23,1.77 6.41,1.64 2.32,0 4.78,0 7.1,0 6.96,0 8.6,-1.37 10.51,1.64 0,0.14 0.14,0.41 0.27,0.54l-5.05 4.09c-0.14,0.14 -0.27,0.27 -0.41,0.41 -0.14,0.14 -0.27,0.41 -0.41,0.54 -0.14,0.14 -0.27,0.41 -0.41,0.54l14.47 0.14 0.96 0.41c1.37,-0.54 3.41,-1.91 3.55,1.09 0,1.37 0.14,0.14 -0.68,0.27 -2.59,0.54 1.23,-2.59 -1.23,0.27 1.91,4.23 -0.14,12.15 0.54,17.06 1.5,-0.96 1.77,0.14 1.91,0.68 1.23,4.5 -2.05,6.82 0.54,9.01 2.59,2.18 -0.41,0.68 0.68,0.27 -3.14,0.82 0.14,0.27 -3,0.96 -0.41,3.14 -0.82,4.5 0.27,6.55l0.68 0.96c5.05,-0.96 4.09,-4.23 3.82,-4.5 1.5,1.37 0.96,2.59 0.54,3.96 -0.14,-0.14 3.14,-1.23 -1.09,-0.14 -2.46,0.68 0.14,-0.68 -1.64,0.96 -2.18,1.91 0.54,1.37 -1.64,0.54l-1.37 -0.54c0.27,3.41 0.54,2.46 0.41,4.5 -0.14,1.91 -0.41,3.28 -0.41,5.46 0.27,0.14 0.54,0 0.68,0.27 0.14,0.27 0.54,0.14 0.54,0.14l0.14 0.68c-1.77,3.14 -0.54,-2.59 -1.37,3.96 2.18,0 1.37,0.14 2.18,-0.68 -2.32,1.91 -0.82,-1.5 -2.18,3.55 1.77,0.41 -0.41,0.41 1.77,0.27 3,-0.14 0.41,-0.14 0.27,-0.27 0.41,4.37 -0.82,2.87 -2.18,6.41 0.14,0.14 0.54,0.14 0.68,0.41 1.37,3.14 0.14,0.14 1.37,0.68 0.68,0.27 1.23,0.27 2.18,0.68 2.18,0.82 2.73,1.91 3.82,2.46l0.41 -66.6 221.49 -0.14 0.54 2.05 0.14 31.93c-0.14,4.23 -1.37,4.5 -3.55,6.55l-21.29 21.02 1.23 0.54c1.37,0.41 2.73,-0.14 1.23,0l2.18 5.6c1.37,0 0.41,-0.14 1.37,-0.68 2.87,-1.37 17.88,-18.01 23.06,-21.02 4.23,1.91 33.71,33.44 40.12,39.58 1.64,-0.14 0.96,0.54 2.05,-0.27 0,-6.82 1.64,-5.32 -0.68,-6.41 0.96,-0.54 0.54,-0.27 1.64,-0.82 2.32,-1.09 0,0.41 1.23,-0.54 -0.82,0.82 -1.64,-1.91 -0.14,1.5 1.23,2.87 -1.5,-0.68 1.64,2.05 0.68,-3.28 -0.14,0.54 0.68,-2.87 1.91,3.55 -2.46,-0.27 1.37,0.96 1.09,0.41 6.69,-0.82 8.73,-0.27 0.27,2.32 -0.82,0.82 -3,3.55 23.61,-1.64 64.14,0.54 89.25,-0.68 7.1,-0.41 8.32,1.09 9.01,-4.09 -2.73,0.68 -0.68,0 -2.18,0.54 -1.23,0.41 -1.23,0.54 -1.64,0.82 -0.14,0.14 -0.54,0.54 -0.54,0.54l-38.07 0.68 -0.14 -1.5c2.05,0.14 -0.27,0.54 2.05,-0.14 2.05,-0.68 0.68,-0.41 0.82,-0.41 0.27,0 0.68,1.37 4.23,2.05 0.14,-0.14 0.27,-0.27 0.41,-0.41l2.73 -3c-2.32,-2.73 0.14,-0.68 -2.59,-1.77l-5.87 -0.27c0.54,3 0.68,-0.54 -1.77,0.68 5.6,0 10.78,-0.14 15.28,0.54l-3.68 -0.54c-0.14,0.14 -0.27,0.41 -0.27,0.41 -2.18,3.55 -1.37,3.28 -1.09,4.5 1.91,0.41 -0.82,0.54 2.05,0.14 2.46,-0.41 0.82,0 1.77,-0.96 0.54,-0.54 0.41,-1.91 1.91,-1.77l1.37 -0.14c-2.46,2.05 -0.96,0.41 -2.05,3.55 3.41,-0.41 4.23,-1.37 5.05,-1.5 0.82,-0.14 1.77,0.68 4.37,0.82 -0.68,-2.05 -1.37,-1.23 0.96,-1.09 -0.14,-3.14 0.41,-3.55 -1.77,-4.09 2.32,0 4.64,0 6.96,0 5.73,0.14 5.32,0 7.1,-1.91 -17.33,0.54 -35.75,-0.27 -53.5,-0.14 -4.64,0 -9.01,0 -13.51,0.27l-39.17 -0.27 -27.43 -26.75c-2.46,-2.46 -5.19,-4.78 -7.23,-6.96 -2.32,-2.46 -1.5,-7.64 -1.5,-11.87 0,-4.64 -0.96,-23.47 0.68,-26.07 1.37,-1.23 -0.82,-0.54 2.59,-0.96 5.73,-0.68 88.3,0.14 89.12,0.14 3.14,6.28 7.78,12.97 11.05,19.51 3.41,6.69 7.23,13.24 10.65,19.38 6.41,11.87 18.97,21.97 28.11,31.93l1.37 0.96c4.09,2.46 2.59,-0.14 2.73,-0.41l-10.65 -11.33c-5.19,-4.5 -2.59,-3.55 -6.82,-7.37 -0.14,-0.14 -0.27,-0.27 -0.41,-0.27l-2.87 -2.87c-1.91,-1.64 -3.96,-2.05 -6.55,-7.91 -3.96,-6.82 -7.78,-14.06 -11.74,-20.88 -2.18,-3.82 -3.82,-6.96 -5.87,-10.51 -2.05,-3.55 -4.23,-6.41 -5.73,-10.51 2.18,-1.64 5.46,-0.96 8.32,-0.96 3.14,0 4.91,0.14 7.78,0.27 4.91,0.27 10.92,-0.14 16.38,0.14l49.26 -0.27c6.69,0.82 10.51,-0.41 16.38,-0.27 5.87,0.27 25.52,1.09 30.71,-0.14 0.27,0 0.54,0 0.68,-0.27 0.14,-0.27 0.41,-0.14 0.68,-0.27l-2.87 -3.55c5.32,-0.68 3.96,2.05 5.05,-2.18 -1.64,-1.09 1.09,-0.41 -2.87,-0.96 -0.41,-0.14 -1.64,0 -2.18,0 -1.5,0 -4.09,0.27 -5.05,0.27 -1.23,4.78 -0.96,1.37 -2.18,-0.54 -18.29,1.09 -5.6,0.96 -12.83,2.18l-3 2.59c-1.09,-1.91 -0.14,-0.96 -1.77,-1.91 -2.18,-1.09 0.14,-0.14 -3.14,-0.82 0,0 -1.5,2.05 0.14,4.09 0.82,-0.82 0.41,0 -0.14,-0.82 -1.77,-3 -0.41,1.64 -1.37,-5.19l-48.18 0.96c3,3.96 5.19,3.68 5.32,3.14 0,-0.14 0.27,-0.14 0.14,-0.27l-1.5 1.09c0,0 -0.14,0.14 -0.27,0.27 -0.14,0 -0.41,0.68 -0.54,0.96 -2.05,-0.14 -1.23,-0.82 -3.14,-0.41 -1.91,0.41 0.82,0.96 -1.09,0.14 -0.14,0 -0.68,-0.54 -1.5,-0.68l-3.14 -0.14c-4.78,0.96 -3.68,0.27 -2.73,1.09 1.5,-2.46 0.96,-1.64 0.82,-5.05 -0.27,-0.14 -0.54,-0.27 -0.68,-0.41 -1.91,-0.82 -1.5,-0.82 -4.37,-0.41 11.19,0.68 25.79,0.41 37.26,0.14 6.41,-0.14 12.01,0 18.56,0 3.28,0 16.24,1.23 18.56,-1.37 -34.39,0.54 -69.87,0.54 -104.13,0l-102.76 -1.09c-1.5,-1.77 -0.68,-23.47 -0.68,-29.07 0,-9.14 -0.27,-7.37 1.5,-7.64 1.91,-1.09 10.78,-0.54 13.51,-0.68l209.76 0c-2.59,-2.46 -5.32,-1.64 -9.96,-1.64 -0.54,-0.82 0,-0.54 -1.09,-0.96 -3.14,-0.96 0.14,-0.68 -1.09,0.14l1.64 -2.05c0.96,-1.64 0.41,0.14 1.23,-2.87 -3.82,0.14 -3.96,0.82 -7.1,1.5 -0.41,2.59 0.41,3.82 -1.5,4.23 0,-3.82 2.18,-4.37 0.68,-5.73l41.35 0c0.96,4.78 -0.14,2.32 0.82,4.64 1.23,3.14 0.27,0.54 0.68,0.41 -1.23,0.82 -2.87,0.68 -4.91,0.68 -7.1,-0.27 -5.46,0.54 -6,2.05l29.48 0.27c1.37,20.88 0.14,45.72 0.27,67.01 0,21.29 0.96,195.42 -0.82,200.75 -3.55,0.96 -25.52,0.82 -29.62,0.14l0.27 6c5.05,-0.41 2.05,-0.27 7.23,0.96 -2.18,1.77 -3.41,-0.96 -6.55,2.73l25.52 0.14c3.68,0.14 3.82,-0.41 4.09,3.41 0.14,2.05 0,5.05 -0.14,7.23 -0.27,36.03 1.09,206.89 -0.82,211.53l-29.34 -0.27c-1.5,-1.64 -0.41,0.14 -1.23,-2.05 -1.23,-3.41 -0.27,-106.17 -0.27,-109.18 0,-14.47 -1.37,-104.95 0.96,-111.36 -1.91,0.54 -1.37,0.41 -3,0.54l-3 0.14c-0.82,1.5 -0.41,0.14 -0.82,1.91l0.14 5.32c0,0.14 0,0.27 0,0.41 0,0.14 0,0.27 0,0.41 0.27,2.46 -2.18,-0.27 0,3.41 0,-2.05 0,-3.96 0,-5.87 0,-0.82 0,-2.87 -0.14,-3.68l-0.41 -1.37c0,-0.27 -0.27,-0.27 -0.27,-0.68 0,-0.41 -0.14,-0.41 -0.27,-0.68l0 50.63c0,8.05 0.27,45.44 -0.54,50.63 1.09,-1.37 0.82,-0.54 1.37,-2.87 0.96,-3.55 0,-34.12 0,-38.07 -0.41,1.37 -0.68,-0.54 0.27,0.96l1.91 1.37c-5.19,0 -1.77,-0.27 -2.87,2.18 1.23,0.96 0.14,0.54 2.05,1.09 3.41,1.09 0.68,-0.27 0.82,-0.41 -2.59,0.14 -0.96,0.41 -1.37,0.96l-0.68 1.09c-0.14,0.14 -0.27,0.54 -0.68,1.5l1.37 1.64c0,0.14 0.27,0.27 0.27,0.27l1.5 3.55c0,0.14 0,0.27 -0.14,0.41 0,0.14 0,0.41 0,0.41l0.41 0.82c0,4.64 0.68,7.91 0.41,9.69 -0.68,3.82 -3.68,0.14 -3.96,7.37l2.87 1.23c0.14,0 0.27,0.14 0.27,0.14 0.68,0.27 0.82,2.59 1.77,0.68 -0.96,1.09 -3.28,5.73 -0.68,7.1 0,0 -0.14,-0.14 -0.14,-0.14l-3.41 0.14 2.87 7.78c1.64,-0.41 1.37,0.68 1.37,-0.68 -2.59,2.32 -1.23,0.54 -1.09,4.23 0.14,5.19 2.32,4.64 -2.87,7.37 -0.14,0 -0.41,0.41 -0.41,0.27 -0.14,-0.14 -0.27,0.14 -0.54,0.27 0,2.59 -0.41,0.27 0.41,2.73 0.82,2.73 0.82,1.5 1.09,1.91 1.64,2.59 0.41,0.14 0.96,3.14 0,0.14 0,0.41 0.14,0.54l0.68 2.46c0.68,3.41 1.64,4.37 0.27,3.55l-3.55 2.18c0.54,3.28 1.09,2.32 0,2.87 2.18,2.59 -3.14,2.05 3.55,2.18 -1.91,0.14 -1.77,0.41 -3.55,0.68 1.23,2.18 3.28,2.87 2.87,2.18 -0.54,0.68 -0.54,0.54 -0.54,1.91 0,3.82 0,0.82 0.41,0.96l-2.87 0.68 0.82 -29.21c0,-2.32 -0.27,-4.23 -1.5,-5.73 1.5,9.14 0.14,18.7 0.27,27.84l-0.96 78.47c0,-0.14 -0.14,0.41 -0.27,0.68 -1.5,2.18 -40.94,1.23 -46.4,0.82 -0.14,-1.5 -0.54,-4.09 -0.96,-5.32 -2.32,-8.87 -4.5,-27.29 -8.32,-35.21 -2.87,-6 -6,-11.19 -9.14,-16.65 -1.77,-3.14 -7.51,-14.88 -9.14,-15.83 -1.91,-0.82 -1.09,-1.64 -3.68,-2.59 -1.37,-0.41 -3.55,-0.27 -4.91,-0.27 -3.14,0 -6.14,0 -9.28,0l-57.86 0c0,0 0.14,0 0.14,0l3.41 -5.05c0,4.78 2.87,3.68 3.55,3l0.68 -1.5c-1.09,0.82 -0.27,-0.14 -0.27,0.82 0,0.14 0.14,0.82 0.27,0.96 0.96,1.23 1.91,1.64 3.28,1.77 1.64,-4.09 0.82,-4.91 0.82,-4.91l0.82 0.54c0.68,-0.96 -1.37,-0.68 2.18,-0.68l-0.82 2.05 6 1.23c6.14,0 3.28,1.64 6.69,0.54l7.78 -0.82c4.64,-0.41 2.32,4.37 3.68,1.91 0.14,-0.14 0.27,0.41 0.41,0.54 2.46,-0.82 1.37,-0.68 1.77,-0.82 4.09,-2.18 1.09,-0.27 4.5,-0.41 0.14,0 0.41,0 0.54,0 2.05,-0.27 2.73,-1.5 4.5,-1.23 1.91,0.27 0,0.27 2.87,1.5l1.23 0.41c4.78,0.68 2.18,-3.28 1.77,-4.78 7.37,0 2.32,0.41 4.23,-2.18 -6.69,0 -56.77,-0.41 -58.54,0.14l-6.41 0c-4.09,-1.64 -10.92,0.68 -14.33,0.54 -2.32,-0.14 -2.18,-0.82 -6.41,-0.41l-1.37 0.14c-0.27,0 -0.41,0 -0.68,0.14 -0.27,0 -0.41,0 -0.68,0.14 -0.27,0 -0.41,0 -0.68,0.14l21.43 1.23 1.5 2.87c1.09,-0.68 4.09,1.09 1.37,-1.37 1.5,1.37 0,-0.68 -0.14,0.82 -0.41,4.37 1.09,2.05 4.09,2.87l-41.9 0c-0.82,-0.14 0.27,1.37 -0.27,-0.68l-0.14 -3.14c0,-3.14 -0.96,-3.28 3.28,-3.28 -0.14,-0.27 -0.41,-0.41 -0.54,-0.54 -3,-3.55 -0.82,0.41 -1.09,-1.64 0,0 1.77,-1.23 0.14,0 1.64,1.09 1.77,1.09 2.87,2.87l0.96 -1.37c0.14,-0.14 0.27,-0.41 0.27,-0.54l0.14 -1.77c0.27,-4.23 -0.27,-0.96 1.23,-1.77l0.14 1.37c-0.14,1.23 1.09,2.05 1.64,2.59 1.64,-1.5 4.23,-4.5 5.46,-6.14l28.66 -28.52c3.96,-3.41 7.1,-7.51 10.92,-11.19l22.25 -22.65c2.05,-2.05 3.68,-3.82 5.73,-5.73l11.33 -11.46c2.32,-2.18 3.96,-2.87 5.46,-5.6l-2.18 -0.27c0,-1.77 0.41,-1.77 -0.27,-3.28 -2.05,-4.78 -0.27,2.59 -0.68,-1.23l-1.5 -1.91c-2.18,2.46 -4.5,3.96 -6.82,6.55l-98.53 100.17c5.6,0.27 1.64,0.41 3.55,-1.5 -0.27,4.5 1.64,3.28 2.32,3.28l1.09 -3c1.5,-1.09 -1.91,-1.91 0.27,0.14 0,0.27 -0.14,-1.23 -0.41,1.77 -0.14,1.64 -0.14,1.5 0,3.41 6.55,-3.14 4.78,-2.32 13.78,-2.46 5.05,0 9.96,0 15.01,0 9.01,0 89.12,-0.54 90.62,0.27l14.33 24.7c1.64,3.14 3,5.19 4.78,8.05 3.68,5.87 6.69,23.88 7.1,32.07 0,1.23 1.37,4.09 1.23,8.87l-177.96 -0.27c-3.55,-5.05 0.54,-29.48 -1.64,-37.53 -0.82,-0.54 -1.09,-4.91 -1.37,2.46 -0.14,2.87 0.54,4.91 -0.54,6.41l-1.23 1.09c-3.68,1.23 1.77,-2.05 -3.14,0.14l-0.68 6.96 2.18 -0.27 -0.14 -2.59c3.41,0.41 1.09,1.23 1.23,5.6l0.41 2.32c-2.59,1.64 -2.46,0.14 -2.32,5.73l-1.37 -1.37c-1.77,-3 -0.14,-2.05 -0.14,-2.18l-0.14 10.78c-0.68,2.46 0.41,1.37 -1.5,2.87 -24.43,-0.68 -214.12,1.64 -221.49,0 -1.37,-3.82 -0.68,-25.52 -0.68,-31.39 -4.09,0.68 -1.91,0.41 -4.91,2.32 -0.82,0.54 -0.82,0.54 -1.77,1.09 -1.23,0.82 -0.68,0.68 -2.18,1.5 0.14,0.68 0.41,1.91 0.68,2.46l0.27 0.96c1.23,3.68 0,3.28 2.59,3.68 -2.18,6.41 -0.14,2.59 -1.91,6.28 -0.14,0.27 -0.27,0.41 -0.27,0.68l-0.68 1.64c1.23,0.54 2.18,1.09 3.55,1.37l-0.96 2.05c-3.14,4.78 -2.18,3.41 -2.32,9.96 0,1.77 -0.14,1.64 -0.27,5.87 4.37,-1.23 -3.55,0.82 1.91,4.23 2.87,1.77 -0.14,-0.27 2.59,0.82l0.68 0.41c0,0 0.27,0.14 0.27,0.27l0.82 -0.54c0,-0.27 -0.41,0.14 -0.41,0.54l-0.82 7.37c0.82,4.5 -0.54,2.05 2.87,3.41 0,-5.05 -0.41,-10.78 0.68,-15.28l221.36 -0.41c1.77,0 0.27,0.41 0.96,-2.18l-4.23 0c2.18,2.32 2.87,-0.82 3.55,-2.18 1.23,1.37 3.55,4.64 7.1,4.23l0 3c0,0 0,-0.27 0,-0.14l-2.05 2.32c0.14,0.14 0.27,0.14 0.27,0.27l1.23 1.09c0.96,-1.5 -1.23,-1.09 -2.18,-1.37 1.09,6.14 2.05,2.87 2.18,2.87 -3,0.82 -4.37,0.82 -4.23,3.14l-0.68 24.7c0.41,-1.91 -0.27,-1.64 0.82,-3 0.68,-0.82 1.91,-0.68 2.32,-0.82 0.96,-5.6 1.37,-3.68 -0.14,-5.05 1.37,0.54 1.5,1.91 2.59,1.5 2.18,-0.68 0.14,-0.41 0.14,-0.54 0,1.09 -0.14,3.55 0,4.5 0.54,5.87 0.27,2.46 1.37,1.91 2.32,-8.46 -1.23,-24.02 0.82,-33.16 3.28,-1.91 58.14,-0.82 66.32,-0.82 14.74,0 195.7,0.82 201.43,-0.41 1.91,-2.32 -0.68,-0.14 3.41,-1.23 0,-3.82 -0.68,-5.46 -0.68,-9.28 -3,2.73 0.96,1.77 1.37,2.18 0.68,-1.77 2.05,-0.82 0,-2.87 1.77,2.46 -0.68,3 4.23,3.55 -2.18,1.77 -0.41,0.96 0,1.5 -0.14,-0.14 -0.41,-0.54 -0.54,-0.27l-0.96 -0.41c-1.37,0 -1.23,0.14 -2.05,0.68l2.73 4.09c0.14,0 0.68,-0.27 0.82,-0.27l0.14 -0.68c0,0 0,-0.14 -0.14,-0.27 0,7.1 -1.64,1.37 -2.18,7.78 0.14,0 2.05,0.41 2.18,-0.68l0 1.5c-4.78,0.54 -4.37,2.87 -3.68,1.09 0,-0.14 0.41,-0.82 0.41,-1.09 1.5,-6.41 -1.37,-4.23 -2.46,-5.73 -0.14,0.27 -0.14,0.27 -0.27,0.68l-0.54 26.47c0.14,-0.14 0.14,-0.68 0.27,-0.54l2.05 -2.87c0.54,-0.54 0.41,0.27 1.23,-1.64 -2.05,-1.77 2.87,-1.37 -2.87,-1.37l0 -5.05c1.77,0.14 2.05,1.09 3.41,0.96 0,0 0.14,0 0.14,-0.14 -0.82,8.19 1.09,5.19 1.23,5.19 3.14,1.64 0.54,0 0.68,0l0.27 4.78c0.14,-0.27 2.73,0 -0.27,-0.68 -2.73,-0.68 0.27,-0.41 -1.91,0 -0.41,1.37 -1.64,1.91 0,3.55 -2.32,0.14 0.96,0.54 -0.96,-0.54l-2.59 -1.5c0,0 -0.14,2.46 -0.14,2.46 0.27,2.32 0.96,1.64 1.64,2.46l0.68 1.5c2.18,0.68 1.91,0.82 4.23,0l0 -67.01c0,-37.39 -0.96,-471.78 0.27,-477.51 -0.41,-3.14 -2.73,-6 -6,-6 -5.6,1.5 -299.28,0.41 -303.92,0.41 1.37,0.54 -1.77,0.41 2.05,0.68 0.96,0 1.37,-0.14 1.77,-0.27 -2.46,1.5 -0.68,-0.14 -1.77,1.77 -1.23,2.05 0,2.46 -1.37,4.37l-19.93 0c0,-1.77 1.09,0.68 2.73,-1.37l0.14 -1.09c0,0 0,-0.27 -0.14,-0.41l1.09 2.87c0.14,0.14 0.14,0.41 0.27,0.68l0.82 -1.09c3.96,-3.68 -1.37,2.05 3.96,-1.23 1.77,-1.09 1.64,0.54 1.37,-2.73 -0.14,-2.18 0.14,-2.73 -1.91,-1.37 1.64,0 3.28,0 4.91,0l-235.41 -0.82 1.64 3.82c-5.05,0.41 -4.23,2.87 -4.5,4.5l0.54 -0.95z"/>
    <path class="fil1" d="M132.38 408.59l35.07 0.14c1.37,6.14 0.27,210.98 0.41,234.46 0,5.87 1.64,28.79 -0.96,31.93 -2.59,1.5 -31.25,1.09 -34.39,-0.14 -1.5,-4.78 -0.41,-178.09 -0.54,-199.38 0,-13.51 -0.54,-56.91 0.27,-67.01 -2.32,2.32 -1.5,5.73 -1.5,9.96l-3.82 -1.09 -3.28 -5.32c0.14,-0.14 0.82,-1.77 0.41,-0.14 -0.41,1.64 -0.41,0.68 -0.96,1.5l0.54 -4.64 6.82 -0.27c0.14,0 1.5,0 2.05,0.14l-0.14 -0.14zm-7.37 -107.13c6.28,-5.6 0.82,-2.32 4.37,-4.78 -1.23,-1.37 -0.82,-0.14 -1.09,-1.23 0,-0.14 0,-0.41 -0.41,-3.28 5.46,2.32 2.32,1.77 2.18,2.32l0.68 86.79c-0.54,-1.23 -1.23,-2.59 -0.96,-4.5 0.41,-3.55 0.27,-0.54 0.27,-0.54 -2.18,0.14 -1.09,0.54 -4.91,1.37l2.32 -4.91c0.54,-2.46 -0.82,-2.32 -0.14,-5.73 -1.91,1.37 2.59,0.27 -0.96,0.27 -1.23,0 0.41,1.5 -1.23,-0.54 0,-0.14 -0.41,-0.54 -0.41,-0.68l0.27 -1.91c2.18,-4.09 7.1,-1.37 3.28,-9.28 -0.68,3.14 -1.09,1.64 -2.05,2.32 -0.27,-0.68 -0.68,-2.18 -2.46,-2.46 0,0 0,2.59 -0.54,0 0,-0.14 -0.14,0 -0.27,0 -0.27,-2.59 -0.14,-0.54 0.27,-1.91 0,-0.14 0.14,-0.27 0.14,-0.41l0.68 -1.37c-0.27,-1.37 -1.91,-1.91 -1.23,-4.09 0.68,-2.05 0.14,-0.68 2.05,-1.5l-0.41 -2.73c-0.14,-1.09 -0.27,-4.09 0.54,-4.91 -2.73,-1.64 -1.09,3.28 -2.05,-0.41 0,-0.14 -0.27,0 -0.27,0 0.14,-0.41 0.41,-2.32 0.41,-2.32l0.96 -1.5c0,-0.27 0.27,-0.27 0.27,-0.41 -0.14,-0.14 -0.27,-0.27 -0.27,-0.41l-1.23 -3.14c1.37,-0.82 0.82,3.68 1.64,-0.96l0 -1.64c-0.27,-3.55 -1.23,-1.37 -2.05,-1.64 0.96,-3.96 0.41,-3.28 0.41,-7.1l0.82 -0.14c2.32,0.14 0.82,0.41 0,0.82l0.96 -1.37c0.14,-0.27 0.27,-0.41 0.41,-0.54l2.46 -2.18c4.64,-2.87 3.14,-7.23 0.96,-10.24 0,0 1.23,-1.09 0.41,1.64 -0.96,3 1.23,-0.27 -1.5,2.05 -0.68,-3 -1.23,-1.64 -0.82,-4.5 0.41,-2.46 1.23,0.54 0.14,-1.23l-0.68 -0.54c-0.14,-0.14 -0.41,-0.14 -0.54,-0.41 -0.14,-0.27 -0.41,-0.27 -0.54,-0.41l0.13 0.26zm-3 284.81l0.54 -1.09c0,-0.14 0.14,-0.41 0.14,-0.54l1.64 -14.88c0,-8.05 0.41,-0.68 -1.23,-3.96 -0.82,-1.77 -1.91,-7.1 0,-8.87 3.96,-3.68 -3.96,1.64 1.91,0.27 1.09,-4.09 -0.68,-1.64 0.14,-4.91 0.14,-0.41 0.68,-1.09 0.68,-1.23 -0.41,0.54 1.5,0.14 -1.5,0.68l-0.54 -3.96c0.14,-0.14 0.41,-0.27 0.54,-0.41 2.32,-2.05 1.91,-0.27 2.05,-2.59 0,-0.14 0,-0.27 0.14,-0.41l3.55 -0.68c0,-3.41 -0.41,-1.23 -1.37,-1.37l-2.73 -1.64c0.96,-0.82 1.37,-1.37 2.87,-1.37 -0.68,-0.41 -2.18,-0.96 -2.73,-1.09l-3.68 -0.96 2.05 -15.01c2.59,-0.96 2.73,0 3.55,-2.18 -3.55,-0.27 -1.09,-0.14 -2.87,-0.68l-0.27 -1.91c-0.54,-1.77 2.05,2.32 -0.68,-0.82l-1.5 -3.68c1.37,-0.68 1.77,0.14 3.14,0l-0.14 -2.59c0.68,-2.05 -0.14,-0.82 1.5,-1.64 -1.09,-4.37 -1.23,-1.5 -2.59,-3.96 -0.14,-0.14 -0.14,-0.27 -0.27,-0.41l0.14 -5.32c2.46,0.27 3.41,-1.37 5.32,0.27 2.59,2.18 0.54,0.41 0.27,0.96l0.82 176.18c-1.77,-4.5 -2.46,-5.6 -6.69,-5.19 -3.96,0.41 2.05,1.5 -0.96,0.14l-0.82 -5.73c2.46,2.18 0.68,-0.14 1.91,2.73 0,0 0.14,1.37 0.14,1.64 0.54,-1.5 0,-0.41 0.14,-1.37l0 -5.32c-0.27,-2.05 1.37,-3.68 0.27,-4.91 -1.91,-2.05 0.96,0.14 -0.82,-0.41 -0.14,0 0.27,3.55 -0.68,-0.14 0,-0.14 -0.27,0 -0.41,0 -1.23,-7.23 -0.54,0 1.37,-3.41l1.5 -4.09 3.55 -0.41c-1.09,-0.68 0.68,0 0.41,-6.55l0 -0.68c-0.96,-0.14 -0.27,1.37 -3.14,1.37l-2.18 -8.05c-1.37,0.14 0.41,-0.54 -0.68,1.09l-1.37 1.91c0.54,-2.59 0.54,-4.09 0.68,-6.55 0.27,-2.46 1.09,-0.82 1.23,-1.37 0,-0.14 0.27,0.14 0.41,0 0,-4.64 -0.41,-8.46 -0.27,-13.24 0.14,-2.46 0.82,-3.68 0.14,-4.91 -0.82,-1.64 0,-0.68 -0.54,-0.41 -0.14,2.87 0.41,5.73 -0.14,8.6 -0.82,3.55 0.14,1.09 -1.23,2.87l0 -20.74c0,-2.73 -0.27,-4.64 1.5,-6.28 0.14,5.19 -0.68,8.6 0.14,14.19 -1.5,-5.6 3,-3.28 -0.54,-5.05 0.54,-2.87 0.41,-3.28 0.68,-5.87 0.14,-1.91 1.23,-1.64 -0.27,-1.37 0.68,-12.28 -0.68,-7.23 -2.05,-11.46 -0.68,27.7 0.41,55.95 0,83.66 -0.14,7.64 0.96,12.83 7.64,14.06l483.52 0.27c14.88,0 49.95,0.68 63.46,0 6.82,-0.41 10.92,-6.41 10.92,-7.51 -1.37,-4.23 -0.68,-548.2 0,-549.98l-1.37 0.14c-1.23,5.73 -0.27,440.12 -0.27,477.51l0 67.01c-2.32,0.82 -2.05,0.68 -4.23,0l-0.68 -1.5c-0.54,-0.82 -1.23,-0.14 -1.64,-2.46 0,0 0.14,-2.46 0.14,-2.46l2.59 1.5c1.91,1.09 -1.37,0.82 0.96,0.54 -1.64,-1.64 -0.41,-2.18 0,-3.55 2.05,-0.41 -0.96,-0.68 1.91,0 3,0.68 0.41,0.54 0.27,0.68l-0.27 -4.78c-0.14,0 2.46,1.5 -0.68,0 0,0 -2.05,3 -1.23,-5.19 0,0 -0.14,0.14 -0.14,0.14 -1.5,0.27 -1.64,-0.82 -3.41,-0.96l0 5.05c5.6,0 0.82,-0.27 2.87,1.37 -0.82,1.91 -0.68,1.09 -1.23,1.64l-2.05 2.87c0,-0.14 -0.14,0.41 -0.27,0.54l0.54 -26.47c0,-0.41 0.14,-0.41 0.27,-0.68 1.09,1.5 3.96,-0.68 2.46,5.73 0,0.14 -0.41,0.96 -0.41,1.09 -0.68,1.77 -1.09,-0.54 3.68,-1.09l0 -1.5c0,1.09 -2.05,0.82 -2.18,0.68 0.41,-6.41 2.18,-0.68 2.18,-7.78 0,0 0.14,0.14 0.14,0.27l-0.14 0.68c-0.14,0 -0.68,0.27 -0.82,0.27l-2.73 -4.09c0.82,-0.54 0.82,-0.68 2.05,-0.68l0.96 0.41c0.14,-0.14 0.41,0.14 0.54,0.27 -0.41,-0.41 -2.18,0.27 0,-1.5 -4.91,-0.54 -2.46,-1.09 -4.23,-3.55 2.05,2.05 0.68,1.09 0,2.87 -0.54,-0.41 -4.5,0.54 -1.37,-2.18 0,3.82 0.68,5.46 0.68,9.28 -4.09,1.09 -1.5,-1.23 -3.41,1.23 1.64,3.82 1.23,29.89 0.41,35.89 -10.51,0.96 -22.38,0.54 -33.44,0.54l-221.22 0c-9.55,0 -10.37,1.23 -14.47,-1.91 -1.09,0.54 -0.82,4.09 -1.37,-1.91 -0.14,-0.96 0,-3.41 0,-4.5 0,0 2.18,-0.14 -0.14,0.54 -1.09,0.41 -1.37,-0.96 -2.59,-1.5 1.5,1.37 1.09,-0.54 0.14,5.05 -0.27,0.14 -1.5,0 -2.32,0.82 -1.23,1.37 -0.41,1.09 -0.82,3l0.68 -24.7c-0.14,-2.32 1.37,-2.32 4.23,-3.14 0,0 -1.09,3.28 -2.18,-2.87 1.09,0.27 3.14,-0.14 2.18,1.37l-1.23 -1.09c0,-0.14 -0.27,-0.14 -0.27,-0.27l2.05 -2.32c0,-0.14 0.14,0.14 0,0.14l0 -3c-3.68,0.41 -6,-2.87 -7.1,-4.23 -0.68,1.5 -1.37,4.5 -3.55,2.18l4.23 0c-0.68,2.46 0.96,2.18 -0.96,2.18l0.27 2.73 -0.14 31.66c-1.09,2.73 -1.64,2.05 -5.6,2.05 -38.76,-0.41 -211.12,1.37 -216.31,-0.82 -1.09,-3.55 -0.41,-15.28 -0.41,-19.79 -3.41,-1.23 -2.05,1.09 -2.87,-3.41l0.82 -7.37c0,-0.41 0.41,-0.82 0.41,-0.54l-0.82 0.54c-0.14,-0.14 -0.27,-0.14 -0.27,-0.27l-0.68 -0.41c-2.73,-1.09 0.27,1.09 -2.59,-0.82 -5.6,-3.41 2.46,-5.46 -1.91,-4.23 0.14,-4.23 0.14,-4.23 0.27,-5.87 0.27,-6.55 -0.68,-5.19 2.32,-9.96l0.96 -2.05c-1.5,-0.27 -2.32,-0.82 -3.55,-1.37l0.68 -1.64c0.14,-0.27 0.27,-0.41 0.27,-0.68 1.77,-3.68 -0.27,0.14 1.91,-6.28 -2.59,-0.54 -1.37,0 -2.59,-3.68l-0.27 -0.96c-0.14,-0.54 -0.41,-1.77 -0.68,-2.46 1.5,-0.82 0.96,-0.68 2.18,-1.5 0.96,-0.68 0.96,-0.54 1.77,-1.09 3,-2.05 0.82,-1.64 4.91,-2.32l0.14 -70.28c4.78,-3.14 12.01,-4.78 17.47,-7.23 4.5,-2.05 50.09,-20.61 52.27,-20.34 1.5,9.42 0.41,32.34 0.27,42.99 -0.14,8.32 -0.41,12.83 8.73,12.83 34.66,0.27 74.1,-1.64 107.81,0.14 -3,-2.05 -7.37,-1.37 -14.33,-1.37l-92.12 -0.14c-0.27,0 -0.41,0 -0.68,-0.14l63.6 -1.64c-1.5,-0.68 -0.54,0.14 -1.77,0.27 -2.87,0.41 0.96,0.68 -1.09,-0.14 -1.91,-0.82 -1.5,-1.09 -2.32,-2.18 -0.14,0.41 2.32,1.37 -1.23,0.96 -2.73,-0.27 1.23,-1.5 -0.82,0l-2.87 0.14c-0.14,0 -0.41,-0.14 -0.54,-0.14 -3.68,-0.68 -0.68,0.82 -4.23,0.96l-0.68 0c-1.91,0.27 -2.32,1.23 -4.78,0 -7.51,-3.41 -4.09,-1.5 -7.64,-1.5 1.64,0.68 0.96,1.5 1.77,2.73 -1.77,-0.27 -4.09,-0.54 -4.37,-0.68l-0.96 -0.54c-0.14,0 -0.27,-0.27 -0.27,-0.27l-1.37 -1.64c0.41,2.05 -2.05,1.5 -2.59,1.64 -0.14,0 -1.5,0.14 -1.77,0.14l-3.68 0.27c-4.91,-0.14 -1.23,-0.82 -5.46,-0.96 0.96,-3.55 1.37,-3.14 1.37,-2.87 -1.91,0 -3.82,0.14 -5.73,0.14 -5.32,0 -4.78,-1.09 -5.73,-2.18l30.02 0.68c1.37,-0.14 1.09,-0.27 2.18,-0.41 7.51,-1.09 16.38,0.54 20.74,0.27l24.97 -0.41c0.14,0 2.87,0.68 2.87,0.68 1.5,0.54 1.09,0.27 2.05,1.09l-17.47 0.82c-0.14,0.96 -0.27,-0.41 0.41,1.37 0.82,2.05 0,-2.59 0.54,1.23l17.47 1.64 0.68 -1.64c-1.09,0.41 -0.41,0.82 -2.05,0.14 -0.96,-5.46 0.96,-3.41 5.46,-4.23l-1.77 3.41c-0.68,1.64 1.91,0 -1.09,2.32l4.09 0c1.09,-2.05 0.41,0 -0.14,-2.05 0,-0.14 -0.14,-0.68 -0.27,-0.96l1.37 -4.37 -96.62 0.14c-1.5,-5.73 -0.54,-39.71 -0.54,-48.31 0,-15.83 -0.68,-32.89 0.54,-48.58 -2.18,2.05 -0.27,-0.54 -1.37,2.05 -0.82,2.05 -0.41,3.28 -0.41,5.87 0,1.77 -0.14,2.59 -0.41,3.14 -1.5,2.73 -0.14,0.68 -2.05,2.18 -1.09,-1.09 -0.96,-0.54 -1.64,-1.37 -3.41,-3.41 -1.37,-13.37 -1.5,-20.61 0,-4.78 -1.09,-4.78 -3.96,-4.09 3.14,6.55 1.5,20.74 1.5,29.07 0,10.1 0.27,20.61 -0.14,30.71 1.91,-1.91 0.82,1.37 2.18,-3.28l0.27 -14.74c0,-0.68 0.14,-1.64 0.27,-2.05l-0.54 -9.14c0.41,-2.46 0.14,-1.23 2.59,-3.41l1.37 1.5c0.82,0.96 -0.41,0 0.41,0.41l1.09 0.68c0,-2.32 -0.27,-4.78 0.68,-7.1 0,3.28 0.96,76.7 -0.68,80.65 0,-2.32 0.68,-11.74 -0.68,-12.97 1.5,-1.91 0,0.41 -1.5,0.41 -3.14,-0.27 -1.37,0.82 -2.59,-1.37 -0.82,-1.5 0.27,-3.96 0.82,-5.19 0,-0.14 0.14,-0.27 0.14,-0.41 0,-0.14 0.14,-0.27 0.14,-0.27 0.54,-1.09 0.27,-0.82 0.27,-0.82l-1.37 -3c-0.41,-0.96 -0.54,-2.32 -0.82,-3.41 0.14,-0.14 0.68,-0.54 0.82,-0.68l-0.27 -13.51c-1.64,-0.54 -1.23,-0.54 -3.28,-1.37 -4.09,0.14 -12.42,4.37 -16.79,6.28 -5.46,2.46 -11.74,4.78 -17.47,6.82 -11.05,3.96 -22.93,10.37 -34.66,13.1 0,0 -1.64,-0.54 -2.05,-0.96 0.68,6 0.27,1.91 -0.54,2.32 -0.14,0 -1.64,-0.54 -1.91,-0.54 -0.68,5.19 0.14,2.18 -3.14,3.14 0,-3.96 -0.27,-3.28 2.73,-4.5 -0.27,0 -1.23,0.14 -1.5,0 -2.59,-1.23 0.27,1.5 -1.23,-1.23 1.23,-1.77 3.41,-1.37 3.68,-1.37 0,0 -1.09,-0.54 -1.37,-0.68 -0.14,-0.14 -0.82,-0.54 -0.96,-0.68l-1.09 -0.82c4.09,-5.32 4.5,-2.05 5.46,-1.37l-0.82 -3.41c-0.27,-3.14 0.14,-3 -0.82,-4.09l-2.32 -2.18c-0.14,-0.14 -0.27,-0.27 -0.41,-0.41 -0.96,-0.82 0,-0.27 -1.23,-0.96 0.82,-2.18 0.27,-2.59 2.32,-2.87 -2.18,1.23 -2.59,-0.27 -3,-0.54 -0.14,-1.37 -0.41,-1.23 0,-2.73 0.82,-2.32 -0.41,-0.41 1.37,-1.77 1.23,-0.96 2.73,-1.37 3.55,-0.54 -1.09,-0.54 -1.5,-0.41 -2.46,-2.18 -2.59,-4.64 -2.59,-4.78 -1.5,-7.1 1.64,-0.54 -1.5,-0.14 1.37,-0.27l1.64 0.41c0,-0.14 0.14,0.14 0.27,0.14 -0.27,-3.55 0.54,-2.73 0,-4.5 -2.59,-1.09 0.82,2.73 -2.73,-0.27 0.14,0 0.27,0.27 0.27,0.41 1.09,2.87 0,2.18 0,2.18l-1.77 2.46c-0.14,-1.64 -0.82,-3.41 -0.41,-4.91 1.09,-3.96 6.82,-1.91 0.27,-3.68l-0.14 -57.59c0.54,1.91 1.09,0.68 0.82,2.59l-0.27 0.82c0,0.14 -0.14,0.27 -0.14,0.54 0,0.14 -0.14,0.41 -0.14,0.54 0,0.14 -0.14,0.41 -0.14,0.54 -0.14,0.41 -0.27,1.64 -0.41,2.05 1.09,1.37 1.23,0.68 2.59,3.55 -3.82,1.77 -1.5,1.77 -1.5,2.05 0,0.14 0.14,0.27 0.14,0.41 0,0.14 0.14,0.27 0.14,0.41l0.82 3.28c0,0.14 0.14,0.27 0.14,0.41 0,0 0.14,0.27 0.14,0.27 0.96,1.77 -0.82,-0.27 0.41,0.54l2.05 0.82c0.14,-0.14 0.41,0.14 0.68,0.27l-0.82 0.96c-1.64,1.91 -1.09,1.23 -0.82,2.87l2.46 -0.96c0.14,-4.23 -0.96,-9.01 -0.14,-12.01 0,-0.14 0.14,-0.27 0.14,-0.41 0,-0.14 0.14,-0.27 0.14,-0.41 0.41,-1.37 2.18,0.14 -1.64,-2.32l1.23 -3.28c0.41,-3.41 1.37,-1.09 -2.46,-2.46 1.09,-4.23 -0.27,-0.96 2.18,-3.96 2.32,-2.87 1.09,-9.14 0.41,-11.05 1.23,-1.37 -2.18,-1.77 2.59,-0.82 1.09,0.68 0.68,0.68 0.68,-0.54 -2.18,-1.37 -1.64,1.09 -1.91,-1.91l5.73 0.27c2.59,-2.59 3.28,-1.23 1.37,-1.77 -6.96,-2.18 -5.05,-1.23 -9.14,0.27 0.14,-1.5 0,-2.46 0,-3.55l1.37 -17.6c-1.23,0.96 -1.5,-0.27 -4.09,0.41 -0.14,0 -0.68,0.41 -1.64,0.54 -0.82,-4.37 -0.14,-3.55 -0.14,-8.46 0,-0.14 0,-0.27 0,-0.41l-0.14 -19.65c-1.09,-12.97 -0.41,-30.43 -0.27,-46.13l0.27 -2.32c0,-0.14 0.14,-0.27 0.27,-0.27 3.82,-5.19 0.54,1.91 1.77,-1.64 0.54,-1.64 -0.54,-2.73 -1.23,-3l-1.37 -0.27c0.14,-1.91 0.14,-1.09 1.37,-2.73l0.14 -1.64c1.77,-0.41 2.18,-0.68 4.23,-0.68l0 -7.23c-3.14,1.23 -3.14,1.77 -4.78,-1.5 -0.96,-1.91 -1.09,-3.96 -0.68,-6.82 0.41,-3.68 -1.91,1.91 0.68,-2.32 3,-4.78 0.54,0.41 1.09,-1.09 0.41,-0.96 -0.41,-2.87 2.59,-3.14 -2.59,-1.5 -1.77,1.09 -0.82,-2.87 1.09,1.23 1.23,-0.82 -0.96,1.5 -2.46,2.73 -1.5,1.5 -2.59,1.37 0.27,-3.55 0.54,-2.46 -0.41,-6.41 2.32,0.68 0.54,0 0.54,0 0.27,-0.54 0.41,-3 3.41,-3.41 0.14,0 0.54,0 0.54,0l1.64 0 0 -11.46c0.14,-0.96 2.46,2.05 -1.09,-2.18 0,0 -1.64,-1.09 -1.77,-2.05 -0.41,-0.27 -0.41,3 -0.27,-0.82l0.96 -3.41c-1.23,0.68 -2.59,0.68 -3.68,0l0.68 -3.55c0,-0.41 0,-0.41 0,-0.68 6.96,1.77 5.46,1.5 5.73,3.55 0,-3.28 -0.54,0.14 1.64,-1.37l0 0.68c-1.09,-0.41 -1.64,-1.5 -3.82,-2.46 -1.09,-0.41 -1.5,-0.41 -2.18,-0.68 -1.23,-0.54 0,2.46 -1.37,-0.68 -0.14,-0.41 -0.41,-0.27 -0.68,-0.41 1.37,-3.55 2.59,-2.05 2.18,-6.41 0.14,0.27 2.59,0.14 -0.27,0.27 -2.18,0.14 0,0.14 -1.77,-0.27 1.23,-5.05 -0.27,-1.64 2.18,-3.55 -0.68,0.82 0,0.68 -2.18,0.68 0.82,-6.55 -0.41,-0.82 1.37,-3.96l-0.14 -0.68c-0.14,0 -0.54,0 -0.54,-0.14 -0.14,-0.27 -0.41,-0.14 -0.68,-0.27 0,-2.05 0.27,-3.55 0.41,-5.46 0.14,-2.05 -0.14,-1.09 -0.41,-4.5l1.37 0.54c2.18,0.82 -0.54,1.37 1.64,-0.54 1.77,-1.5 -0.82,-0.27 1.64,-0.96 4.09,-1.09 0.96,0 1.09,0.14 0.41,-1.37 0.96,-2.46 -0.54,-3.96 0.27,0.27 1.37,3.55 -3.82,4.5l-0.68 -0.96c-1.09,-2.05 -0.68,-3.41 -0.27,-6.55 3.14,-0.68 -0.14,0 3,-0.96 -1.09,0.41 1.91,1.91 -0.68,-0.27 -2.46,-2.18 0.68,-4.5 -0.54,-9.01 -0.14,-0.54 -0.41,-1.64 -1.91,-0.68 -0.68,-5.05 1.5,-12.83 -0.54,-17.06 2.46,-3 -1.37,0.27 1.23,-0.27 0.82,-0.14 0.68,1.09 0.68,-0.27 0,-3 -2.18,-1.5 -3.55,-1.09 1.09,6.41 0.27,20.2 0.27,27.29 0,20.34 0.82,186.97 -0.41,193.24l-35.07 -0.14c-1.09,-6.55 -0.41,-150.8 -0.41,-164.59 0,-18.15 -0.68,-37.67 0.14,-55.68 -1.37,1.5 -0.41,0 -1.23,2.05 -1.23,3.41 -0.27,106.31 -0.27,109.18l-1.09 -5.6c-0.54,-0.82 0.82,-0.82 -3.28,-0.82 0.14,-0.14 0.41,-0.41 0.54,-0.54l0.82 -0.96c0.14,-0.14 0.27,-0.27 0.27,-0.41l1.23 -6.55c-0.96,-0.41 -1.91,-0.96 -2.87,-1.37 0.82,-3.41 -0.14,-2.46 2.18,-4.23 -0.14,2.59 -1.5,3 -2.87,3.96 -1.64,-1.23 -3.14,-2.46 -2.59,-5.73 0.82,-4.23 -0.41,1.37 0.82,-1.64 0,0 0.82,-2.32 0.82,-2.46 1.5,-5.32 0.41,-4.64 3,-4.78 1.09,0 1.64,0.96 1.5,0.82 1.77,-0.27 -0.68,0.68 0.68,-3.55 -0.82,-0.54 -0.82,-0.27 -1.5,0.68 -1.23,1.5 -1.09,-0.14 -1.37,1.5 -3,-2.73 -0.82,0.54 -1.09,-2.46 -0.41,-3.41 0.96,1.23 0.41,-1.23l-0.96 -1.64c-0.68,-2.18 0.14,-2.32 1.23,-2.87 0.14,-0.14 0.54,-0.14 0.68,-0.27l2.59 -0.82 0 -5.05c-1.77,2.59 0.68,1.23 -2.73,2.46l-5.05 1.23c0.96,-5.73 0.41,-8.05 0.41,-13.51l0.82 -7.64c2.05,2.87 0,0.54 2.59,1.09l-2.46 -3.55c-0.96,-2.87 0.82,0.54 0.41,-2.46 -0.68,-4.5 -1.09,0.68 -1.5,-4.64 0,-0.82 -0.14,-5.6 0,-6.55 1.77,-1.5 -2.73,-1.23 2.87,-1.23 -1.64,-0.82 -0.82,0.27 -0.96,-1.64l5.6 0.68c-3.41,-0.54 -0.27,0.54 -2.18,-1.09 -2.87,-2.46 -2.46,-4.64 -1.77,-8.19l0.14 -1.23c0,-0.82 -0.14,-0.27 0.14,-1.64 1.09,-6.96 -1.5,-0.41 0.27,-7.1 2.05,-0.54 2.46,-1.5 3.55,0.96 0.14,-4.64 -1.64,-3.28 -1.37,-7.51 0,0 -0.14,0.14 -0.14,0.14 -1.09,0.96 -0.82,1.5 -3.14,1.64 -5.19,0.27 1.77,-8.19 -3,-12.28l0.82 -0.82c1.91,-2.46 0.96,-4.91 0.68,-7.78 2.46,0 2.59,-0.54 4.78,-0.68 0.82,-5.87 1.37,-5.46 1.09,-11.6 0,-1.5 -1.23,0 0.14,-2.05l-3.41 5.73c-2.59,-3.14 -2.46,-7.37 -2.46,-11.33 0,-3.41 2.87,-3.55 5.19,-4.78l2.32 -1.77c-0.14,0.27 -0.14,0.54 -0.27,0.68l-1.37 32.07c2.18,2.05 -0.14,-0.82 3,0.68l-2.87 2.87c0.96,-1.09 0,-1.09 1.77,0.14 3.82,2.73 -1.37,-1.23 0.96,1.5 -0.54,-1.37 -0.96,-0.96 0.68,-2.05 4.5,-2.87 2.59,0 2.73,0.14 1.5,1.37 1.77,0.96 0.27,2.46 -1.77,1.91 -0.96,0.68 -1.91,0l1.91 2.46 -2.87 0.41 33.03 0 -14.47 -0.14c0.14,-0.14 0.41,-0.41 0.41,-0.54 0.14,-0.14 0.27,-0.41 0.41,-0.54 0.14,-0.14 0.27,-0.27 0.41,-0.41l5.05 -4.09c-0.14,-0.14 -0.14,-0.41 -0.27,-0.54 -1.91,-2.87 -3.41,-1.64 -10.51,-1.64 -2.46,0 -4.78,0 -7.1,0 -5.19,0.14 -5.32,-0.14 -6.41,-1.64l-2.05 -0.41c-0.68,-7.51 0.82,-33.71 0,-37.26 0.27,-1.64 -0.54,-4.23 4.5,-4.5l-1.64 -3.82 235.41 0.82c-1.64,0 -3.28,0 -4.91,0 1.91,-1.23 1.77,-0.82 1.91,1.37 0.27,3.28 0.41,1.64 -1.37,2.73 -5.32,3.28 0,-2.46 -3.96,1.23l-0.82 1.09c-0.14,-0.27 -0.27,-0.54 -0.27,-0.68l-1.09 -2.87c0.14,0.14 0.14,0.27 0.14,0.41l-0.14 1.09c-1.64,2.05 -2.73,-0.41 -2.73,1.37l19.93 0c1.23,-1.91 0.14,-2.18 1.37,-4.37 1.09,-1.91 -0.68,-0.27 1.77,-1.77 -0.41,0.14 -0.82,0.27 -1.77,0.27 -3.68,-0.14 -0.68,0 -2.05,-0.68 4.64,0 298.32,0.96 303.92,-0.41 -1.23,-0.82 0.41,-0.14 -1.5,-0.54l-511.49 -0.14c-10.65,0 -21.43,0.14 -32.07,0 -11.46,-0.14 -13.1,0 -13.1,16.1 0.41,149.57 -0.96,299.69 0,448.99l-0.27 -0.66z"/>
    <path class="fil1" d="M390.72 444.62c-2.59,-0.96 -28.25,-26.88 -31.66,-30.43 -3.41,-3.55 -7.23,-6.69 -9.69,-10.65 3.82,-5.73 9.01,-9.01 13.24,-14.19 4.09,-4.91 6.69,-6.69 10.65,-10.65 4.09,-4.09 27.43,-27.98 31.25,-30.3 3.55,1.91 10.78,10.65 14.33,13.78l40.4 41.21 -13.37 14.33c-5.05,4.5 -9.42,10.37 -13.78,13.92 -3,2.46 -4.91,4.64 -7.37,6.96 -2.32,2.05 -4.5,4.5 -6.69,6.96 -1.64,1.77 -1.91,2.05 -3.68,3.55 -1.64,1.37 -0.68,0.41 -1.77,1.77 -2.87,3.41 -5.19,5.73 -8.6,7.51 -1.5,-0.68 -12.15,-10.92 -13.24,-13.65l-0 -0.14zm-101.4 -45.58c0.41,-3.68 2.05,-3.68 2.59,-4.09 2.32,-1.91 1.5,-1.09 3.55,-3.68 2.59,-3.41 3.82,-3.68 7.1,-6.41 2.87,-2.46 5.46,-6.41 6.41,-7.1 3.28,-2.87 1.77,-0.27 7.1,-6.41 2.32,-2.59 4.64,-4.64 7.1,-7.1 8.87,-9.28 71.78,-73.83 75.88,-74.92 1.23,1.77 1.09,3.68 1.09,6l0 17.88c0.14,32.62 2.73,24.43 -10.51,38.35 -6,6.28 -46.95,47.35 -49.13,48.04 -2.73,0.82 -44.9,0.27 -51.04,-0.14l-0.14 -0.41zm137.56 -92.25c5.32,3 12.42,11.87 17.19,17.19 3.68,4.09 24.97,23.75 29.21,28.66l42.72 42.99c0.68,0.82 0.68,0.96 1.23,1.64 0.96,1.37 -0.41,0.68 1.23,1.5 -2.46,0.27 -43.94,1.5 -48.18,0.41 -2.32,-0.68 -1.5,-0.41 -2.46,-1.64 -2.32,-0.82 -39.58,-38.76 -42.31,-41.62l-15.97 -16.1c-2.87,-3.28 -1.5,-45.85 -0.96,-49.68 2.87,1.91 -0.96,-1.09 2.18,0.68l16.1 15.83 0.01 0.14zm-136.88 114.77l1.5 -1.77c0.14,-0.14 0.68,-0.54 0.68,-0.68 1.37,-0.68 1.09,3.68 1.09,-0.68 0.96,1.5 0,0.96 1.64,1.91 0.41,0.27 2.32,0.82 2.59,0.96l-0.96 -1.23c-1.37,-2.18 -1.23,-2.18 1.09,-2.73 -1.91,-3.68 -5.6,-4.91 -7.1,-8.6 6.69,-1.09 19.51,-0.41 26.88,-0.41 25.25,0 21.43,-2.73 32.62,8.87l13.65 13.51c2.46,2.59 4.5,4.64 7.1,7.1 4.5,4.23 9.14,9.14 13.51,13.65 18.01,19.1 15.56,8.6 15.42,39.58 0,4.5 0,9.01 0,13.51 0,2.32 0,4.91 0,7.23 -0.14,3.55 0.27,3.68 -2.46,4.37l-4.64 -0.96c0,0 -0.27,0 -0.27,0 0,0 -0.27,0.14 -0.27,0.14 -1.77,1.23 -1.23,-0.96 -0.96,2.05 2.18,-0.27 3,-2.87 3.55,1.37 2.32,0.54 -1.64,0.68 2.18,-0.82 4.09,-1.64 -2.05,0.14 1.37,-0.54 -0.68,4.64 -0.14,-0.14 -0.14,3.14l0.14 3.28c0.14,-0.14 0.41,-0.82 0.54,-0.68 0.82,0.96 -0.14,-0.96 3,-2.18l2.18 3.82c0.14,1.23 0,-0.41 -0.14,1.23 -0.27,4.37 0.82,4.09 0.82,6.55 0,0.14 0,0.41 0,0.54 0,0.14 0,0.41 0,0.68 3.41,-0.96 4.37,-3 6.96,-5.32l5.46 -6.41c-3.55,1.23 -1.23,1.37 -4.64,0l-1.5 2.05c0,0 -0.14,0.14 -0.27,0.27 -0.68,-0.41 -1.09,0 -1.5,-3l-0.27 -3.82c-0.14,-0.27 -3,-48.31 0.54,-52.41l53.77 -53.91c4.64,-3.55 2.18,-3.14 10.51,-3.28 11.05,0 35.21,-0.41 44.08,0.27l-3.68 4.09 -13.92 14.47c0.14,0.14 0.27,0.27 0.27,0.68l0.54 1.23c0.68,2.18 -0.96,2.05 2.32,2.73 -0.27,0.27 -0.54,0.27 -0.68,0.68l-0.27 3.14c0,0.14 0.27,0.41 0.41,0.54l18.42 -18.42c14.33,-14.19 15.56,-13.78 8.87,-20.2l-27.84 -27.84c-27.16,-27.43 -55.68,-54.86 -82.02,-82.02 -1.77,-1.77 -2.87,-2.73 -4.78,-4.5 -6.14,-5.6 -9.55,-13.78 -15.56,-8.87l-54.45 54.72c-6.55,6.14 -12.15,12.28 -18.56,18.56l-36.3 36.44c-2.73,2.87 -17.47,16.92 -17.47,19.1 0,2.32 14.33,14.47 16.79,18.01l0.14 0.82z"/>
    <path class="fil1" d="M638 323.85l-2.46 0.41c-9.69,5.19 -26.75,11.74 -37.39,16.38 -13.92,6 -14.88,7.51 -26.2,14.47l-6.28 3.68c-1.64,0.54 -0.68,0.82 -1.5,0 -3.68,-3.82 1.09,-91.57 -1.5,-105.35 -3.82,-2.05 -0.82,-1.77 -6.55,-2.87l0 1.23c0,0 0.14,0.27 0.14,0.27l0.68 1.09c0.14,0.14 0.14,0.27 0.27,0.41 1.64,2.32 0.14,1.64 2.32,2.18 2.87,0.54 0.41,1.37 1.5,-0.68l0 5.73c0,-0.14 2.05,-1.09 -1.77,-1.09 -0.14,0 -1.37,0.14 -1.64,0.27l-2.05 0.82c2.59,4.91 -0.14,3.41 -0.14,8.19 0,0.41 0,1.5 0.54,1.77 0,-1.64 0,-3.28 0,-5.05l-0.82 -5.73c0,2.05 0.54,93.89 -0.27,96.35 -0.68,2.05 0.27,0.54 -1.23,2.05 -3.28,-0.27 -9.69,-8.19 -12.28,-10.51l-41.49 -40.53c-2.18,-1.91 -3.55,-4.23 -5.87,-6.28 -8.46,-7.23 -27.02,-27.7 -35.62,-35.21 -4.64,0.82 -3.55,-0.14 -8.46,0.14 0.14,-2.73 0.14,-3.68 0.82,-5.6l-3.96 1.09c-0.14,0.14 -0.96,0.96 -1.09,1.09l-0.96 1.64c3.28,3 5.87,5.6 8.87,8.46l34.66 34.53c15.01,16.1 35.48,35.75 51.59,52l39.17 38.62c1.91,1.77 2.73,3.41 4.37,4.91 1.5,1.5 -0.41,0.41 2.32,0.82 0.14,-0.14 0.27,-0.68 0.41,-0.54l0.68 -1.64c0,-0.14 0,-0.41 0,-0.54 0,-0.14 -0.27,-0.96 -0.27,-0.96 2.59,-0.54 0.54,-0.82 1.91,-0.14l3.28 2.18c0.14,0.14 0.41,0.27 0.54,0.41 0.54,-1.5 0.41,1.23 0.27,-1.5 -0.14,-2.87 -0.14,-0.41 -0.27,-0.27l8.87 0.96c-3,-0.14 -4.23,-2.73 -3.14,1.64 0.41,1.37 2.18,2.59 3.41,3.14l-11.33 0c-0.96,2.18 -0.41,0.54 -0.27,3 1.64,-0.27 1.5,0.54 1.37,-0.68l11.05 -0.41c3.82,0 7.64,0 11.46,0l20.06 0c2.73,-0.96 0.96,0.14 2.87,-1.91l-10.92 0c2.46,0.82 -0.41,0.54 3.41,-1.64 0.14,0 0.27,-0.14 0.41,-0.27l4.78 -1.09c0.14,-0.54 2.32,0.96 0,-1.64 -0.96,-1.23 -0.82,-0.41 -1.37,-0.41 7.23,0 2.18,0.27 4.23,-2.18l-41.62 0.27c-1.77,-0.14 -2.46,0 -4.09,-0.96l-7.37 -7.51c-3.14,-3.14 -7.78,-5.87 -9.28,-10.1 -0.68,-0.27 -14.88,-11.74 -13.1,-15.83l16.79 -11.05c19.93,-12.56 52.41,-23.2 57.59,-26.88l1.5 -0.27c2.73,-0.96 2.05,15.15 1.91,16.79 -0.27,6.28 -0.14,12.15 -0.27,18.56 -0.14,8.6 1.64,30.3 -0.96,37.12 0.27,0.14 0.54,0.14 0.68,0.41 0.82,2.46 0.41,1.5 1.37,0.27 -0.54,0.68 -0.82,0.96 -1.37,1.5 2.05,2.87 3,4.09 5.73,3.55l1.5 -4.91c0.82,-2.73 0,-267.07 0,-268.98 -2.18,0.27 -3.55,1.5 -3.55,1.5 -2.05,0.82 2.05,1.64 -1.5,-0.68l-1.23 2.87c0.96,-1.09 0.54,-0.96 0.54,-3 2.59,0 3.82,0.27 5.73,-2.87 -1.64,-1.37 0,-0.68 -1.64,-1.23l-6.14 2.59c2.18,12.15 1.77,27.84 0.14,39.99 1.5,-1.23 1.91,-0.68 1.91,-5.19l0.96 0c2.05,-0.41 1.23,-0.41 1.77,-0.54 -2.18,2.59 0,1.91 0.14,2.32 0.54,2.59 -1.5,1.91 -1.09,6 0.14,1.64 0.14,2.05 1.23,3.14 0,5.73 0.41,2.59 -1.5,3.82 -1.5,1.09 -1.37,2.18 -1.5,3.68 -0.27,2.87 -1.37,9.42 0,12.15l0.14 -14.06c-0.14,-4.5 -1.09,-3.96 -2.32,-4.91 2.05,12.01 1.64,59.37 1.37,74.24l0 64.28c0,3.28 0.41,7.1 -1.5,8.87l-0.12 -0.14z"/>
    <path class="fil1" d="M178.23 408.59c7.78,0.14 15.97,-0.14 23.88,-0.14 12.42,0 12.42,-1.91 19.38,5.05 4.23,4.23 7.78,7.91 12.15,12.15 1.91,1.77 10.78,11.46 12.56,12.28 2.87,-0.68 3.82,-0.68 3.96,4.09 0.14,7.1 -1.91,17.06 1.5,20.61 0.68,0.68 0.54,0.27 1.64,1.37 1.91,-1.37 0.54,0.54 2.05,-2.18 0.27,-0.54 0.41,-1.37 0.41,-3.14 0,-2.59 -0.41,-3.82 0.41,-5.87 1.09,-2.59 -0.82,-0.14 1.37,-2.05 0.41,-1.5 25.52,24.56 30.02,28.79 1.23,1.09 1.64,1.91 2.73,3 1.23,1.23 2.05,1.64 3.41,3l12.42 12.56c6.69,6.82 45.99,44.76 48.04,49.26l-1.37 4.37c0,0.27 0.27,0.82 0.27,0.96 0.54,2.18 1.23,0 0.14,2.05l-4.09 0c3,-2.18 0.41,-0.68 1.09,-2.32l1.77 -3.41c-4.5,0.82 -6.55,-1.23 -5.46,4.23 1.64,0.82 0.96,0.27 2.05,-0.14l-0.68 1.64 -17.47 -1.64c-0.54,-3.82 0.41,0.68 -0.54,-1.23 -0.82,-1.77 -0.54,-0.41 -0.41,-1.37l17.47 -0.82c-0.96,-0.82 -0.68,-0.54 -2.05,-1.09 0,0 -2.87,-0.68 -2.87,-0.68l-24.97 0.41c-4.23,0.14 -13.1,-1.5 -20.74,-0.27 -0.96,0.14 -0.82,0.27 -2.18,0.41l-30.02 -0.68c0.96,1.09 0.41,2.32 5.73,2.18 1.91,0 3.82,-0.14 5.73,-0.14 0,-0.27 -0.41,-0.68 -1.37,2.87 4.23,0.14 0.54,0.82 5.46,0.96l3.68 -0.27c0.14,0 1.5,-0.14 1.77,-0.14 0.54,0 3.14,0.41 2.59,-1.64l1.37 1.64c0.14,0.14 0.27,0.27 0.27,0.27l0.96 0.54c0.27,0.14 2.59,0.41 4.37,0.68 -0.82,-1.23 -0.14,-2.05 -1.77,-2.73 3.55,0 0.14,-2.05 7.64,1.5 2.46,1.09 2.87,0.14 4.78,0l0.68 0c3.55,-0.14 0.54,-1.64 4.23,-0.96 0.14,0 0.41,0.14 0.54,0.14l2.87 -0.14c2.05,-1.64 -1.77,-0.41 0.82,0 3.55,0.41 1.09,-0.54 1.23,-0.96 0.68,1.09 0.27,1.37 2.32,2.18 2.05,0.82 -1.77,0.54 1.09,0.14 1.23,-0.14 0.27,-0.96 1.77,-0.27l-63.6 1.64c0.27,0 0.41,0.14 0.68,0.14l92.12 0.14c6.96,0 11.33,-0.68 14.33,1.37l0.41 0.41 3.14 -5.05c2.18,1.77 2.73,1.23 2.87,0.96 -0.68,3 -0.27,1.09 0.27,2.87 0,0.14 0.27,1.09 0.41,1.37 0,0.14 0.14,0.27 0.14,0.41 0,0.14 0.14,0.41 0.14,0.41l0.27 0.96c0.14,0 0.27,-0.27 0.41,-0.14 1.37,3.82 0.54,-0.27 0.68,-0.41 1.37,-0.68 1.91,-1.09 3.55,0.82 2.87,0 0.41,0.41 1.77,-1.37 -0.27,-0.54 -0.14,-0.27 -0.82,-1.09l-50.63 -52 -39.17 -37.8c-3.96,-4.5 -7.91,-8.46 -12.42,-12.56 -8.19,-7.78 -48.45,-47.22 -49.95,-51.31 2.18,-3.41 12.01,-11.87 15.56,-15.83l15.42 -15.56c0.41,-1.91 0.54,-3.96 -2.05,-4.5 -1.77,-0.41 -0.96,0.82 -3.41,1.09 -2.46,0.27 -0.41,0.27 -2.87,-0.54 -1.5,3.55 -3.55,4.23 -6,7.1l-22.25 21.97c-1.5,1.5 -1.5,1.91 -4.37,2.32 -0.82,0.14 -35.75,1.23 -37.39,-1.09 -0.96,-1.37 -0.41,-39.44 -0.27,-46.26 0,-2.59 0,-5.19 -0.14,-7.91 -0.14,-4.23 -0.82,-5.19 2.73,-5.6l23.75 -0.68c1.23,-0.68 0,-0.14 1.91,-0.82l12.83 -1.91 10.65 -1.09c-0.96,-0.54 1.5,-1.09 -1.37,-0.54 -9.55,-0.27 -17.47,1.23 -26.88,1.77l-21.56 0.14c-2.59,-1.23 -2.05,-0.68 -2.05,-4.78l0.14 -87.07c-2.18,1.5 -1.64,-1.91 -1.64,1.37 -0.27,-2.05 1.23,-1.77 -5.73,-3.55 0,0.27 0,0.27 0,0.68l-0.68 3.55c1.09,0.68 2.32,0.68 3.68,0l-0.96 3.41c-0.14,3.82 -0.14,0.54 0.27,0.82 0.14,0.96 1.77,2.05 1.77,2.05 3.41,4.23 1.23,1.23 1.09,2.18l0 11.46 -1.64 0c-0.14,0 -0.41,0 -0.54,0 -3,0.54 -3.14,3 -3.41,3.41 0,0.14 1.77,0.68 -0.54,0 1.09,3.96 0.68,2.87 0.41,6.41 1.09,0.14 0.14,1.5 2.59,-1.37 2.18,-2.32 2.05,-0.27 0.96,-1.5 -0.96,3.96 -1.77,1.37 0.82,2.87 -2.87,0.27 -2.18,2.18 -2.59,3.14 -0.54,1.64 1.91,-3.68 -1.09,1.09 -2.59,4.23 -0.14,-1.37 -0.68,2.32 -0.41,2.87 -0.27,4.91 0.68,6.82 1.77,3.28 1.77,2.87 4.78,1.5l0 7.23c-2.05,0 -2.46,0.41 -4.23,0.68l-0.14 1.64c-1.23,1.64 -1.09,0.68 -1.37,2.73l1.37 0.27c0.68,0.27 1.91,1.37 1.23,3 -1.37,3.55 2.05,-3.55 -1.77,1.64 0,0.14 -0.14,0.27 -0.27,0.27l-0.27 2.32c-0.14,15.69 -0.82,33.3 0.27,46.13l0.14 19.65c0,0.14 0,0.27 0,0.41 -0.14,4.91 -0.82,4.09 0.14,8.46 0.96,-0.14 1.5,-0.54 1.64,-0.54 2.46,-0.68 2.87,0.54 4.09,-0.41l-1.37 17.6c0,1.09 0.14,2.05 0,3.55 4.23,-1.5 2.32,-2.46 9.14,-0.27 1.77,0.54 1.23,-0.82 -1.37,1.77l-5.73 -0.27c0.14,3 -0.27,0.54 1.91,1.91l-0.55 0.55z"/>
    <path class="fil1" d="M561.03 480.92c0,-3.96 -0.96,-40.26 0.96,-43.94 -0.82,30.71 0.27,65.37 -0.27,96.35l-0.54 12.83c0,-0.14 -0.14,0.41 -0.27,0.68l0 -17.33c-1.37,0.27 -2.18,0.27 -2.46,1.5 -0.54,2.18 0.27,0.68 1.09,1.23l1.09 0.54c-3,1.23 -2.73,-0.41 -2.46,2.87 0.14,4.09 0.54,1.77 1.91,2.46l-3.96 2.87 -0.68 -92.8c1.37,3.41 0.68,23.61 0.68,27.16 2.46,1.5 1.64,1.23 3.14,2.59 1.64,1.64 1.64,-1.23 1.91,2.73l-0.13 0.28zm72.05 -350.59l4.91 0.41c0.54,5.32 0.68,33.71 -0.68,37.12 -3.68,1.77 -16.38,0.68 -21.29,0.82 -2.32,2.59 -15.28,1.23 -18.56,1.37 -6.55,0 -12.15,-0.14 -18.56,0 -11.46,0.27 -25.93,0.54 -37.26,-0.14 2.87,-0.41 2.46,-0.27 4.37,0.41 0.27,0.14 0.54,0.27 0.68,0.41 0.14,3.28 0.68,2.46 -0.82,5.05 -0.96,-0.82 -2.05,0 2.73,-1.09l3.14 0.14c0.82,0.27 1.37,0.68 1.5,0.68 1.77,0.68 -0.82,0.14 1.09,-0.14 1.91,-0.41 1.09,0.27 3.14,0.41 0,-0.27 0.41,-0.82 0.54,-0.96 0,0 0.14,-0.14 0.27,-0.27l1.5 -1.09c0.14,0 -0.14,0.14 -0.14,0.27 -0.14,0.68 -2.32,0.82 -5.32,-3.14l48.18 -0.96c1.09,6.82 -0.41,2.18 1.37,5.19 0.54,0.82 0.96,0 0.14,0.82 -1.64,-2.05 -0.14,-4.09 -0.14,-4.09 3.28,0.68 0.96,-0.27 3.14,0.82 1.64,0.82 0.68,-0.14 1.77,1.91l3 -2.59c7.23,-1.23 -5.46,-1.09 12.83,-2.18 1.23,1.77 0.96,5.32 2.18,0.54 0.82,-0.14 3.55,-0.27 5.05,-0.27 0.54,0 1.77,0 2.18,0 3.82,0.68 1.23,0 2.87,0.96 -1.09,4.23 0.27,1.37 -5.05,2.18l2.87 3.55c-0.27,0.14 -0.54,0 -0.68,0.27 -0.14,0.27 -0.54,0.14 -0.68,0.27 -5.32,1.09 -24.84,0.27 -30.71,0.14 -6,-0.27 -9.69,1.09 -16.38,0.27l-49.26 0.27c-5.46,-0.27 -11.46,0.14 -16.38,-0.14 -3,-0.14 -4.78,-0.27 -7.78,-0.27 -2.87,0 -6.14,-0.82 -8.32,0.96l132.38 0c2.32,0.68 1.64,1.91 1.64,7.78l0 101.4c0,11.19 0.82,25.93 -0.27,36.71 1.91,-1.64 1.5,-5.46 1.5,-8.87l0 -64.28c0.27,-14.88 0.82,-62.23 -1.37,-74.24 1.23,0.96 2.05,0.41 2.32,4.91l-0.14 14.06c-1.37,-2.73 -0.41,-9.42 0,-12.15 0.14,-1.5 0,-2.59 1.5,-3.68 1.77,-1.23 1.5,1.91 1.5,-3.82 -0.96,-1.09 -1.09,-1.5 -1.23,-3.14 -0.27,-4.09 1.64,-3.41 1.09,-6 -0.14,-0.41 -2.18,0.27 -0.14,-2.32 -0.54,0.27 0.27,0.14 -1.77,0.54l-0.96 0c0,4.5 -0.54,3.96 -1.91,5.19 1.64,-12.15 2.05,-27.84 -0.14,-39.99l6.14 -2.59c1.64,0.54 0,-0.27 1.64,1.23 -1.77,3.14 -3.14,2.87 -5.73,2.87 0,2.05 0.41,1.91 -0.54,3l1.23 -2.87c3.55,2.32 -0.41,1.37 1.5,0.68 0,0 1.37,-1.09 3.55,-1.5 0,1.91 0.82,266.25 0,268.98l-1.5 4.91c-2.59,0.41 -3.68,-0.68 -5.73,-3.55 0.68,-0.54 0.96,-0.82 1.37,-1.5 -1.09,1.09 -0.68,2.18 -1.37,-0.27 -0.14,-0.27 -0.41,-0.27 -0.68,-0.41 2.73,-6.82 0.82,-28.52 0.96,-37.12 0.14,-6.41 0,-12.28 0.27,-18.56 0.14,-1.64 0.82,-17.74 -1.91,-16.79 1.5,4.37 1.37,69.33 -0.27,71.51 -1.37,1.5 0.54,0.41 -2.05,1.09l-39.44 0.14 41.62 -0.27c-2.05,2.46 3,2.18 -4.23,2.18 0.54,0 0.27,-0.82 1.37,0.41 2.32,2.73 0.14,1.23 0,1.64l-4.78 1.09c-0.14,0 -0.27,0.14 -0.41,0.27 -3.96,2.18 -1.09,2.32 -3.41,1.64l10.92 0c-1.77,2.18 0,0.96 -2.87,1.91l-20.06 0c-3.82,0 -7.64,0 -11.46,0l-11.05 0.41c6,-0.54 43.26,-1.37 45.85,0.54 1.5,1.64 0.82,100.03 0.54,110.13l-18.15 8.05c-5.73,1.64 -15.97,2.73 -22.93,3.14 -13.92,0.82 -14.33,7.37 -32.48,16.92 -0.82,-0.96 -0.27,0.14 -0.82,-1.5 -0.82,-2.59 -0.27,-90.21 -0.27,-99.76 0,-7.37 -0.68,-7.1 2.46,-12.01 -2.73,-0.27 -0.68,0.68 -2.32,-0.96 0.14,-0.14 0.41,-0.41 0.41,-0.54l1.77 -1.77c0,0 1.77,0.68 -1.5,0.14 -2.73,-0.41 -0.54,0.14 -1.5,-0.82 0.82,1.64 -0.96,2.59 -1.23,2.73l-2.46 -1.64c-0.14,-0.27 -0.41,-0.14 -0.68,-0.27l0 -1.37c-2.46,1.23 -16.1,15.42 -18.83,18.42l1.5 1.91c0.41,3.82 -1.37,-3.55 0.68,1.23 0.68,1.64 0.27,1.5 0.27,3.28l2.18 0.27c0.96,-0.27 0.54,0 1.64,-0.82 1.09,-0.82 0,0 1.09,-0.96 1.64,-1.5 0.41,-0.82 2.59,-1.91 3.28,-4.5 4.91,-4.64 4.78,2.73 -0.14,13.37 0.68,87.34 -0.27,92.12 -2.05,3.28 -11.6,1.64 -15.42,1.64 -5.46,0 -10.92,0 -16.38,0 -10.65,0 -21.43,0 -32.07,0 1.77,-0.68 51.86,-0.14 58.54,-0.14 -2.05,2.46 3,2.05 -4.23,2.18 0.41,1.37 3,5.32 -1.77,4.78l-1.23 -0.41c-2.87,-1.23 -0.96,-1.23 -2.87,-1.5 -1.77,-0.27 -2.32,0.96 -4.5,1.23 -0.14,0 -0.41,0 -0.54,0 -3.41,0.14 -0.54,-1.77 -4.5,0.41 -0.41,0.14 0.68,0 -1.77,0.82 -0.14,-0.14 -0.41,-0.68 -0.41,-0.54 -1.37,2.46 1.09,-2.32 -3.68,-1.91l-7.78 0.82c-3.28,0.96 -0.41,-0.68 -6.69,-0.54l-6 -1.23 0.82 -2.05c-3.55,0 -1.5,-0.14 -2.18,0.68l-0.82 -0.54c0,0 0.96,0.82 -0.82,4.91 -1.37,-0.27 -2.32,-0.54 -3.28,-1.77 -0.14,-0.14 -0.27,-0.82 -0.27,-0.96 -0.14,-0.96 -0.96,0 0.27,-0.82l-0.68 1.5c-0.82,0.68 -3.55,1.91 -3.55,-3l-3.41 5.05c0,0 -0.14,0 -0.14,0l57.86 0c3.14,0 6.14,0 9.28,0 1.5,0 3.68,-0.14 4.91,0.27 2.59,0.96 1.77,1.77 3.68,2.59 -1.64,-6.14 -0.82,-5.19 12.15,-14.19 24.29,-16.79 22.38,-7.78 41.21,-12.69 7.51,-1.91 17.33,-6.96 20.47,-7.1l0 106.04c0.14,-0.27 0.27,-0.82 0.27,-0.68l0.96 -78.47c-0.14,-9.14 1.23,-18.7 -0.27,-27.84 1.23,1.37 1.5,3.41 1.5,5.73l-0.82 29.21 2.87 -0.68c-0.41,-0.14 -0.41,3 -0.41,-0.96 0,-1.37 0,-1.23 0.54,-1.91 0.27,0.82 -1.64,0 -2.87,-2.18 1.77,-0.41 1.64,-0.54 3.55,-0.68 -6.69,0 -1.5,0.54 -3.55,-2.18 1.09,-0.54 0.54,0.41 0,-2.87l3.55 -2.18c1.37,0.96 0.41,-0.14 -0.27,-3.55l-0.68 -2.46c0,-0.14 0,-0.41 -0.14,-0.54 -0.54,-3 0.68,-0.54 -0.96,-3.14 -0.27,-0.54 -0.27,0.82 -1.09,-1.91 -0.82,-2.59 -0.27,-0.27 -0.41,-2.73 0.14,-0.14 0.41,-0.41 0.54,-0.27 0.14,0.14 0.41,-0.27 0.41,-0.27 5.05,-2.73 3,-2.05 2.87,-7.37 -0.14,-3.68 -1.5,-1.91 1.09,-4.23 0,1.37 0.27,0.27 -1.37,0.68l-2.87 -7.78 3.41 -0.14c0,0 0,0.14 0.14,0.14 -2.59,-1.37 -0.14,-6 0.68,-7.1 -0.96,1.77 -1.23,-0.41 -1.77,-0.68 0,0 -0.27,-0.14 -0.27,-0.14l-2.87 -1.23c0.27,-7.37 3.28,-3.68 3.96,-7.37 0.27,-1.77 -0.41,-5.05 -0.41,-9.69l-0.41 -0.82c0,-0.14 0,-0.41 0,-0.41 0,-0.14 0,-0.41 0.14,-0.41l-1.5 -3.55c0,0 -0.27,-0.14 -0.27,-0.27l-1.37 -1.64c0.41,-1.09 0.68,-1.37 0.68,-1.5l0.68 -1.09c0.41,-0.41 -1.09,-0.82 1.37,-0.96 -0.14,0.27 2.59,1.5 -0.82,0.41 -1.91,-0.68 -0.82,-0.14 -2.05,-1.09 1.09,-2.46 -2.32,-2.05 2.87,-2.18l-1.91 -1.37c-0.96,-1.5 -0.68,0.27 -0.27,-0.96 0,3.96 0.82,34.39 0,38.07 -0.54,2.18 -0.27,1.5 -1.37,2.87 0.82,-5.19 0.54,-42.58 0.54,-50.63l0 -50.63c0.14,0.27 0.27,0.27 0.27,0.68 0,0.41 0.27,0.54 0.27,0.68l0.41 1.37c0.14,0.68 0.14,2.87 0.14,3.68 0,2.05 0,3.96 0,5.87 -2.18,-3.82 0.27,-1.09 0,-3.41 0,-0.14 0,-0.27 0,-0.41 0,-0.14 0,-0.27 0,-0.41l-0.14 -5.32c0.41,-1.77 0,-0.41 0.82,-1.91l3 -0.14c1.64,-0.14 1.09,0 3,-0.54 -2.32,6.28 -0.96,96.76 -0.96,111.36 0,3 -0.96,105.76 0.27,109.18 0.82,2.18 -0.27,0.54 1.23,2.05 -1.09,-36.44 -0.41,-74.65 -0.27,-111.36l0.27 -108.36c0.41,-1.64 0,-0.54 0.68,-1.5 3,-1.77 20.47,-0.82 25.38,-0.68l-25.52 -0.14c3.14,-3.68 4.5,-0.96 6.55,-2.73 -5.19,-1.09 -2.18,-1.37 -7.23,-0.96l-0.27 -6 0 -134.42c0,-22.65 0.14,-45.17 0,-67.82 0,-11.19 0.14,-22.38 0,-33.57l0 -25.66c0,-1.37 0,-3 0.14,-4.23l0.41 -2.05c0,-0.14 0.14,-0.27 0.14,-0.41 0.41,-1.37 -1.09,-2.18 6,-2.05 2.18,0 3.82,0.14 4.91,-0.68 -0.27,0.14 0.68,2.73 -0.68,-0.41 -0.96,-2.18 0.14,0.14 -0.82,-4.64l-41.35 0c1.5,1.37 -0.68,1.91 -0.68,5.73 1.77,-0.41 0.96,-1.64 1.5,-4.23 3.14,-0.68 3.41,-1.23 7.1,-1.5 -0.82,3 -0.27,1.23 -1.23,2.87l-1.64 2.05c1.09,-0.82 -2.05,-1.23 1.09,-0.14 1.09,0.41 0.68,0.14 1.09,0.96 4.64,0 7.37,-0.82 9.96,1.64l-0.54 -0.14z"/>
    <path class="fil1" d="M375.02 239.23c-13.65,11.05 -4.09,11.6 -23.88,11.6l-89.25 0c-9.96,0 -8.6,-1.37 -13.65,2.87 -1.23,9.82 -0.41,45.99 -0.41,60.59l-0.14 15.01c0,0.54 -0.27,2.05 -0.41,2.59 -0.54,2.05 0.41,0.14 -0.82,1.5 -2.32,1.23 -15.42,0.54 -18.97,0.27 2.87,-0.41 0.41,0 1.37,0.54l-10.65 1.09c8.46,0 22.65,-0.27 29.07,2.32l0 30.43c2.46,0.68 0.41,0.82 2.87,0.54 2.32,-0.27 1.5,-1.5 3.41,-1.09 2.59,0.54 2.46,2.59 2.05,4.5 2.18,-2.05 2.73,-3.68 5.32,-5.87l42.17 -42.72 -2.87 -0.68c-0.27,3 0,1.64 -1.37,3.55 -0.41,-6.55 -5.73,-1.64 -3.14,-6.41 -6,3.14 -35.75,36.98 -37.53,36.57 -1.5,-0.41 -1.5,-2.18 -1.5,-4.37l0.27 -92.12c-1.5,1.5 -0.82,0.41 -1.5,2.87l-0.14 38.62c-0.14,-0.27 -0.14,-0.54 -0.27,-0.68l-0.54 -3.68c-3.14,0.54 -2.87,1.09 -5.05,-0.54 0.14,-2.18 0.82,-4.5 0.68,-6.69 -0.14,-3.41 -1.77,-9.42 0.14,-11.74l2.32 -1.64c-2.05,0.14 -1.91,-0.68 -2.46,-1.77 3.82,-0.41 -2.46,1.91 0.68,-1.09 1.09,-0.96 -1.09,-0.96 1.77,-1.09 -1.5,0 -1.5,-1.23 -1.64,-1.5 -1.5,-2.46 2.05,1.23 -0.68,-0.68 -1.37,-0.96 -1.37,-6.96 -1.5,-9.01 1.5,-0.96 3.96,-0.54 4.5,-4.64 2.18,0.54 2.32,3.41 2.73,1.09l38.9 0c-1.09,-1.37 -0.41,-2.59 -3.41,-2.46 -3.28,0.14 -0.82,-1.37 -3.41,0l-1.5 -0.82c-0.68,-1.09 0.82,-1.64 -3.82,-1.64 0.14,-0.14 3.14,-2.87 0.96,1.77 -1.64,3.41 -0.68,1.09 -1.5,1.23 -0.14,1.23 1.23,2.32 -4.09,1.37 -3.55,-0.68 -2.46,0.41 -6.41,0 -0.14,0 -0.41,0 -0.54,-0.14l-5.19 -2.18c0.54,-2.46 -0.68,-0.68 1.23,-2.18l-10.1 0c0.96,-0.68 0.68,-0.54 2.05,-1.09 5.73,-2.18 19.38,-0.14 24.97,-0.27 9.14,-0.27 30.43,-1.09 39.99,-0.14 3.68,0.27 12.15,-0.54 19.93,0 10.78,0.68 13.92,-1.23 19.24,1.64l-10.65 0c0,0.14 -0.14,0.27 -0.14,0.41 -1.77,3.41 -6.69,1.77 -9.28,3 -2.32,0.96 0.82,-0.14 -1.37,1.64 7.1,0.41 11.19,-1.5 11.05,2.59l-0.14 1.37c2.05,-1.5 3.82,-1.37 4.91,-2.18 -0.96,-5.32 -0.68,-5.73 2.18,-6.69 0.27,-0.14 0.41,-0.14 0.68,-0.27 0.41,-0.14 1.77,-0.27 2.18,-0.27 5.73,0.14 2.32,-0.27 2.87,1.23 0.82,-2.05 0.27,-1.23 1.64,-2.73l2.59 0.41c-0.27,1.64 0.41,2.59 -2.18,2.18 1.77,1.23 0.96,-0.96 1.64,1.91 3.28,-1.37 3.68,-2.59 5.87,-5.05 2.18,-2.32 3.82,-2.59 5.05,-5.87 -0.96,0.54 0,0.68 -1.37,0.68l-2.18 -5.6c1.5,-0.14 0.14,0.54 -1.23,0l-1.23 -0.54 0.81 0.14z"/>
    <path class="fil1" d="M326.44 505.21c-1.37,-3.41 -17.33,-19.38 -21.97,-23.06l-28.11 -28.25c-1.64,-1.37 -1.5,-1.77 -2.87,-3.55 -1.5,-1.91 -1.64,-1.64 -3.28,-3.14 -3.28,-3 -6.14,-6.96 -9.69,-9.69 -1.64,-1.23 -2.05,-1.09 -3.41,-2.87l-18.29 -18.83c-2.46,-2.32 -12.01,-9.55 -11.74,-12.69 0.14,-1.37 24.84,-26.07 27.57,-28.11 2.18,-1.64 3.28,-3.82 5.46,-5.19l3 -2.87c0.96,-1.23 1.64,-1.77 2.87,-2.73 7.64,-6.28 13.78,-16.1 21.56,-22.79 2.05,-1.77 3.41,-3.41 5.32,-5.32l66.6 -66.87c1.23,-1.37 1.23,-1.77 2.59,-3 0.82,-0.82 0.82,-0.68 1.5,-1.37 0.82,-0.82 0.54,-0.68 1.37,-1.5 1.5,-1.5 1.77,-1.37 3.14,-2.46 3.82,-3.14 7.1,-8.46 10.92,-11.19 3.82,-2.59 10.92,-10.1 13.65,-13.51 3.28,-3.96 7.64,-7.1 10.78,-11.33 1.91,1.37 -0.14,-0.27 1.5,1.37l0.68 0.68c0.14,0.14 0.27,0.27 0.41,0.41l3 3.28c1.77,2.18 0.96,0.96 3.14,2.73l39.44 39.03c1.23,1.09 1.91,1.5 3,2.73l5.46 5.87c2.87,3.68 3.28,3 5.87,5.6l38.76 38.9c11.33,11.19 20.88,22.25 33.44,33.03 3,2.46 2.59,3.55 5.46,6 2.46,2.05 3.68,3.28 5.73,5.73l27.84 27.84c1.77,1.5 3.82,3.55 5.19,5.19l-55.68 56.23c-3.68,3.28 -7.1,7.51 -11.33,10.78 -2.73,2.18 -3.14,4.09 -5.46,5.87 -2.59,1.77 -1.09,-0.27 -3.28,2.59l-8.05 8.19c-4.91,4.37 -10.1,8.6 -13.92,14.06 -3.14,4.5 -7.91,7.64 -10.92,11.87l-16.51 16.24c-5.19,3.96 -10.51,11.6 -16.92,16.51 -0.82,0.54 -0.96,0.82 -1.5,1.37l-6.82 7.37c-1.91,2.46 -1.09,1.09 -3,2.59 -1.23,0.96 -1.5,1.5 -2.46,2.73l-6.41 6.28c-3.82,3 -6.96,6.96 -10.37,10.37l-4.91 5.87c-0.54,-2.18 -9.82,-10.51 -11.87,-12.83l-7.37 -6.82c-1.91,-1.91 -2.73,-3.28 -4.91,-5.19l-9.69 -9.55c-3.68,-4.23 -8.73,-7.51 -12.01,-12.15 -2.05,-3 -4.78,-5.32 -7.64,-7.37 -3.68,-2.59 -6.28,-6.69 -9.42,-9.82 -2.18,-2.18 -2.73,-1.64 -5.05,-4.09 -2.05,-2.18 -7.51,-8.46 -10.1,-9.14l-0.27 -0zm54.45 -260.66c-1.23,3.28 -2.87,3.55 -5.05,5.87 -2.18,2.46 -2.59,3.82 -5.87,5.05 -0.82,2.46 -27.7,29.89 -33.03,34.53 -10.24,9.01 -26.47,27.84 -33.57,33.44l-42.17 42.72c-2.59,2.18 -3,3.82 -5.32,5.87l-15.42 15.56c-3.55,3.82 -13.37,12.42 -15.56,15.83 1.5,4.09 41.76,43.53 49.95,51.31 4.37,4.23 8.32,8.05 12.42,12.56l39.17 37.8 50.63 52c0.68,0.82 0.41,0.54 0.82,1.09 2.46,1.37 10.24,9.82 12.97,12.42 2.46,2.46 10.37,11.33 13.24,12.69 6.41,-3.68 16.65,-16.38 22.38,-21.43 2.32,-2.05 5.46,-6 7.64,-6.96l98.53 -100.17c2.32,-2.46 4.5,-4.09 6.82,-6.55 2.73,-3 16.38,-17.19 18.83,-18.42l17.88 -18.56c2.32,-2.18 3.96,-3.82 6,-6.28l1.5 -2.32c-1.5,-1.5 -2.46,-3.14 -4.37,-4.91l-39.17 -38.62c-16.1,-16.24 -36.44,-35.89 -51.59,-52l-34.66 -34.53c-3,-3 -5.6,-5.6 -8.87,-8.46l-0.96 -1.23c-6.41,-6.14 -35.75,-37.67 -40.12,-39.58 -5.19,3 -20.2,19.65 -23.06,21.02l0 0.27z"/>
    <path class="fil1" d="M290.14 421.56l14.47 14.33c16.24,15.01 94.98,97.17 100.17,98.26 0,-0.27 0,-0.54 0,-0.68 0,-0.14 0,-0.41 0,-0.54 0,-2.59 -1.09,-2.18 -0.82,-6.55 0.14,-1.77 0.27,-0.14 0.14,-1.23l-2.18 -3.82c-3.14,1.23 -2.18,3.14 -3,2.18 -0.14,-0.14 -0.27,0.41 -0.54,0.68l-0.14 -3.28c0,-3.28 -0.68,1.5 0.14,-3.14 -3.41,0.68 2.73,-1.09 -1.37,0.54 -3.82,1.5 0.14,1.37 -2.18,0.82 -0.54,-4.23 -1.37,-1.64 -3.55,-1.37 -0.27,-3 -0.96,-0.82 0.96,-2.05 0,0 0.27,-0.14 0.27,-0.14 0,0 0.27,0 0.27,0l4.64 0.96c-1.5,-3.28 -9.42,-9.96 -12.15,-12.69 -4.5,-4.37 -8.05,-8.19 -12.42,-12.56 -8.46,-8.46 -16.92,-16.24 -25.25,-24.7 -11.46,-11.74 -32.34,-33.3 -43.26,-43.12l-5.32 -5.32c-1.23,-0.82 -0.14,-0.27 -1.23,-0.54 -2.32,0.68 -2.46,0.54 -1.09,2.73l0.96 1.23c-0.27,0 -2.18,-0.68 -2.59,-0.96 -1.64,-0.96 -0.68,-0.54 -1.64,-1.91 0,4.23 0.14,0 -1.09,0.68 -0.14,0 -0.54,0.54 -0.68,0.68l-1.5 1.77 -0 -0.28z"/>
    <path class="fil1" d="M409 518.04l0.27 3.82c0.54,3 0.96,2.59 1.5,3 0.14,0 0.27,-0.14 0.27,-0.27l1.5 -2.05c3.41,1.37 1.09,1.23 4.64,0 2.59,-0.54 20.2,-19.51 21.84,-21.15 3.68,-3.68 6.96,-6.82 10.65,-10.78 8.19,-9.01 22.52,-22.25 31.93,-32.21l21.43 -21.7c-0.14,-0.14 -0.27,-0.41 -0.41,-0.54l0.27 -3.14c0.14,-0.41 0.41,-0.41 0.68,-0.68 -3.28,-0.68 -1.64,-0.54 -2.32,-2.73l-0.54 -1.23c0,-0.41 -0.14,-0.41 -0.27,-0.68 -2.46,2.05 -3.55,3.82 -5.87,6 -2.18,2.05 -3.55,3.55 -5.73,5.73 -3.68,3.82 -7.37,7.91 -11.33,11.46l-22.93 22.65c-8.32,9.42 -25.25,25.11 -33.98,34.53 -2.46,2.59 -8.46,9.96 -11.46,10.24l-0.14 -0.27z"/>
    <path class="fil1" d="M122 586.28l0 1.09c1.37,4.23 2.73,-0.82 2.05,11.46 1.5,-0.27 0.54,-0.54 0.27,1.37 -0.27,2.59 0,3.14 -0.68,5.87 3.55,1.91 -0.96,-0.54 0.54,5.05 -0.82,-5.46 0,-9.01 -0.14,-14.19 -1.77,1.64 -1.5,3.55 -1.5,6.28l0 20.74c1.37,-1.64 0.41,0.82 1.23,-2.87 0.54,-2.87 0,-5.73 0.14,-8.6 0.54,-0.27 -0.27,-1.23 0.54,0.41 0.54,1.09 -0.14,2.32 -0.14,4.91 -0.14,4.78 0.14,8.46 0.27,13.24 -0.14,0 -0.41,-0.14 -0.41,0 -0.14,0.54 -0.96,-1.09 -1.23,1.37 -0.27,2.46 -0.14,3.96 -0.68,6.55l1.37 -1.91c1.09,-1.64 -0.54,-0.96 0.68,-1.09l2.18 8.05c2.87,-0.14 2.32,-1.5 3.14,-1.37l0 0.68c0.27,6.55 -1.5,5.87 -0.41,6.55l-3.55 0.41 -1.5 4.09c-1.91,3.41 -2.59,-3.82 -1.37,3.41 0.14,0 0.27,-0.14 0.41,0 0.96,3.68 0.54,0.14 0.68,0.14 1.91,0.54 -1.09,-1.5 0.82,0.41 1.09,1.23 -0.41,2.87 -0.27,4.91l0 5.32c-0.14,0.96 0.41,-0.27 -0.14,1.37 0,-0.27 -0.14,-1.64 -0.14,-1.64 -1.23,-2.87 0.68,-0.54 -1.91,-2.73l0.82 5.73c3,1.37 -3,0.14 0.96,-0.14 4.37,-0.41 5.05,0.68 6.69,5.19l-0.82 -176.18c0.41,-0.54 2.32,1.23 -0.27,-0.96 -1.91,-1.64 -2.87,0 -5.32,-0.27l-0.14 5.32c0,0.14 0.14,0.27 0.27,0.41 1.37,2.46 1.5,-0.41 2.59,3.96 -1.64,0.82 -0.82,-0.41 -1.5,1.64l0.14 2.59c-1.23,0.14 -1.77,-0.68 -3.14,0l1.5 3.68c2.73,3.14 0.14,-0.96 0.68,0.82l0.27 1.91c1.91,0.68 -0.68,0.54 2.87,0.68 -0.82,2.18 -1.09,1.23 -3.55,2.18l-2.05 15.01 3.68 0.96c0.54,0.14 1.91,0.68 2.73,1.09 -1.5,0 -1.91,0.68 -2.87,1.37l2.73 1.64c1.09,0.14 1.37,-2.05 1.37,1.37l-3.55 0.68c0,0.14 -0.14,0.27 -0.14,0.41 -0.27,2.32 0.27,0.54 -2.05,2.59 -0.14,0.14 -0.41,0.27 -0.54,0.41l0.54 3.96c3,-0.54 1.09,-0.14 1.5,-0.68 0,0.14 -0.54,0.82 -0.68,1.23 -0.82,3.28 0.96,0.82 -0.14,4.91 -6,1.37 2.05,-3.96 -1.91,-0.27 -1.91,1.77 -0.82,7.23 0,8.87 1.64,3.28 1.23,-4.09 1.23,3.96l-1.64 14.88c0,0.27 -0.14,0.41 -0.14,0.54l-0.54 1.09 0.13 0.13z"/>
    <path class="fil1" d="M364.51 557.48c2.32,1.23 23.88,23.06 27.02,26.34 7.1,7.64 8.32,5.05 8.32,18.83 0,8.73 0.54,19.24 -0.27,27.84 1.91,-1.5 0.82,-0.27 1.5,-2.87l0.14 -10.78c0,0.14 -1.64,-0.82 0.14,2.18l1.37 1.37c-0.14,-5.6 -0.14,-4.09 2.32,-5.73l-0.41 -2.32c-0.14,-4.37 2.18,-5.19 -1.23,-5.6l0.14 2.59 -2.18 0.27 0.68 -6.96c4.91,-2.18 -0.54,1.09 3.14,-0.14l1.23 -1.09c1.09,-1.5 0.41,-3.55 0.54,-6.41 0.27,-7.37 0.54,-2.87 1.37,-2.46l32.07 -32.34c0.82,-1.37 0.27,0 0.54,-1.23 -0.14,-1.77 -0.14,-1.77 0,-3.41 0.27,-3 0.41,-1.5 0.41,-1.77 -2.32,-2.05 1.09,-1.23 -0.27,-0.14l-1.09 3c-0.82,-0.14 -2.73,1.23 -2.32,-3.28 -1.91,1.91 2.05,1.77 -3.55,1.5 -2.18,0.96 -5.19,4.91 -7.64,6.96 -5.73,5.05 -15.97,17.74 -22.38,21.43 -2.73,-1.37 -10.78,-10.37 -13.24,-12.69 -2.59,-2.59 -10.51,-11.05 -12.97,-12.42 -1.37,1.77 1.23,1.37 -1.77,1.37 -1.64,-2.05 -2.18,-1.5 -3.55,-0.82 -0.14,0 0.68,4.09 -0.68,0.41 0,-0.14 -0.27,0.14 -0.41,0.14l-0.27 -0.96c0,-0.14 -0.14,-0.27 -0.14,-0.41 0,-0.14 -0.14,-0.27 -0.14,-0.41 0,-0.27 -0.27,-1.09 -0.41,-1.37 -0.41,-1.91 -0.82,0.14 -0.27,-2.87 -0.14,0.14 -0.68,0.82 -2.87,-0.96l-3.14 5.05 0.28 0.13z"/>
    <path class="fil1" d="M257.11 260.11c4.78,0.68 17.47,0 23.47,0 8.05,0 16.24,0 24.29,0 10.51,0 40.4,-1.23 48.72,0.54 0,-4.09 -3.96,-2.18 -11.05,-2.59 2.32,-1.77 -0.82,-0.68 1.37,-1.64 2.59,-1.09 7.64,0.41 9.28,-3 0,0 0,-0.27 0.14,-0.41l10.65 0c-5.32,-2.87 -8.46,-0.96 -19.24,-1.64 -7.78,-0.41 -16.24,0.41 -19.93,0 -9.55,-0.82 -30.84,-0.14 -39.99,0.14 -5.6,0.14 -19.38,-1.91 -24.97,0.27 -1.37,0.54 -1.23,0.41 -2.05,1.09l10.1 0c-1.91,1.5 -0.68,-0.27 -1.23,2.18l5.19 2.18c0.14,0 0.41,0 0.54,0.14 3.96,0.41 2.87,-0.54 6.41,0 5.32,0.96 3.96,-0.14 4.09,-1.37 0.82,-0.14 -0.14,2.05 1.5,-1.23 2.18,-4.5 -0.82,-1.91 -0.96,-1.77 4.64,0 3,0.54 3.82,1.64l1.5 0.82c2.59,-1.37 0.14,0.14 3.41,0 3,-0.14 2.18,1.09 3.41,2.46l-38.9 0c-0.27,2.32 -0.41,-0.54 -2.73,-1.09 -0.54,4.09 -3,3.68 -4.5,4.64 0.14,2.05 0.14,8.05 1.5,9.01 2.87,1.91 -0.82,-1.77 0.68,0.68 0.14,0.14 0.27,1.5 1.64,1.5 -2.87,0 -0.82,0 -1.77,1.09 -3.14,3 3.14,0.54 -0.68,1.09 0.54,1.09 0.41,1.91 2.46,1.77l-2.32 1.64c-1.91,2.32 -0.27,8.32 -0.14,11.74 0.14,2.18 -0.41,4.5 -0.68,6.69 2.18,1.64 1.91,1.09 5.05,0.54l0.54 3.68c0,0.27 0.14,0.54 0.27,0.68l0.14 -38.62c0.68,-2.46 0,-1.23 1.5,-2.87l-0.54 0z"/>
    <path class="fil1" d="M353.46 261.89l-55.95 55.82c-1.77,1.77 -0.82,0 -1.64,2.32 -2.46,4.64 2.73,-0.27 3.14,6.41 1.5,-1.91 1.23,-0.54 1.37,-3.55l2.87 0.68c7.23,-5.6 23.34,-24.43 33.57,-33.44 5.32,-4.64 32.21,-32.07 33.03,-34.53 -0.68,-2.87 0.14,-0.68 -1.64,-1.91 2.59,0.54 1.91,-0.54 2.18,-2.18l-2.59 -0.41c-1.23,1.37 -0.68,0.68 -1.64,2.73 -0.54,-1.64 2.87,-1.09 -2.87,-1.23 -0.41,0 -1.91,0.14 -2.18,0.27 -0.27,0.14 -0.41,0.14 -0.68,0.27 -2.87,0.82 -3.14,1.37 -2.18,6.69 -1.09,0.68 -2.87,0.68 -4.91,2.18l0.13 -0.14z"/>
    <path class="fil1" d="M132.24 178.78l1.37 -0.68 2.87 -0.41 -1.91 -2.46c0.96,0.68 0,2.05 1.91,0 1.37,-1.5 1.23,-1.09 -0.27,-2.46 -0.14,-0.14 1.77,-3 -2.73,-0.14 -1.77,1.09 -1.23,0.54 -0.68,2.05 -2.32,-2.73 2.87,1.23 -0.96,-1.5 -1.77,-1.23 -0.82,-1.23 -1.77,-0.14l2.87 -2.87c-3,-1.5 -0.68,1.37 -3,-0.68l1.37 -32.07c0,-0.27 0.14,-0.41 0.27,-0.68l-2.32 1.77c-2.18,1.37 -5.05,1.37 -5.19,4.78 0,3.96 -0.14,8.19 2.46,11.33l3.41 -5.73c-1.37,2.05 -0.27,0.41 -0.14,2.05 0.14,6 -0.41,5.73 -1.09,11.6 -2.18,0.27 -2.18,0.68 -4.78,0.68 0.27,2.87 1.23,5.32 -0.68,7.78l-0.82 0.82c4.91,4.23 -2.18,12.56 3,12.28 2.32,-0.14 1.91,-0.68 3.14,-1.64 0,0 0.14,0 0.14,-0.14 -0.27,4.23 1.5,2.87 1.37,7.51 -1.09,-2.46 -1.64,-1.5 -3.55,-0.96 -1.77,6.55 0.82,0 -0.27,7.1 -0.27,1.37 0,0.96 -0.14,1.64l-0.14 1.23c-0.68,3.55 -1.09,5.73 1.77,8.19 1.91,1.64 -1.23,0.54 2.18,1.09l-5.6 -0.68c0,2.05 -0.82,0.96 0.96,1.64 -5.6,0 -1.09,-0.27 -2.87,1.23 0,0.96 0,5.6 0,6.55 0.41,5.32 0.82,0.14 1.5,4.64 0.41,3 -1.37,-0.41 -0.41,2.46l2.46 3.55c-2.59,-0.54 -0.68,1.77 -2.59,-1.09l-0.82 7.64c0,5.6 0.54,7.78 -0.41,13.51l5.05 -1.23c3.41,-1.09 0.96,0.14 2.73,-2.46l0 5.05 -2.59 0.82c-0.14,0 -0.54,0.14 -0.68,0.27 -1.09,0.54 -2.05,0.68 -1.23,2.87l0.96 1.64c0.54,2.46 -0.82,-2.32 -0.41,1.23 0.41,3 -1.91,-0.27 1.09,2.46 0.27,-1.64 0.14,0 1.37,-1.5 0.68,-0.82 0.68,-1.23 1.5,-0.68 -1.37,4.23 1.09,3.28 -0.68,3.55 0.14,0.14 -0.41,-0.82 -1.5,-0.82 -2.59,0.14 -1.5,-0.54 -3,4.78 0,0.14 -0.82,2.46 -0.82,2.46 -1.23,3 0,-2.59 -0.82,1.64 -0.68,3.28 0.96,4.64 2.59,5.73 1.37,-0.96 2.73,-1.23 2.87,-3.96 -2.18,1.91 -1.23,0.96 -2.18,4.23 0.96,0.41 1.91,0.96 2.87,1.37l-1.23 6.55c-0.14,0.14 -0.27,0.27 -0.27,0.41l-0.82 0.96c-0.14,0.14 -0.27,0.41 -0.54,0.54 3.96,0 2.73,0 3.28,0.82l1.09 5.6c0,-2.87 -0.96,-105.76 0.27,-109.18 0.68,-2.05 -0.27,-0.54 1.23,-2.05l-0.01 0.14z"/>
    <path class="fil1" d="M177.41 655.33c0,4.5 -0.68,16.24 0.41,19.79 5.19,2.18 177.41,0.41 216.31,0.82 3.96,0 4.5,0.68 5.6,-2.05l-54.18 0.54c-24.7,-0.54 -162.26,1.09 -166.22,-0.54 -1.5,-3.96 -0.96,-27.7 -0.14,-32.62l166.5 -0.14c9.28,0 49.54,-1.64 54.32,1.09l-0.27 -2.73 -221.36 0.41c-1.23,4.5 -0.68,10.24 -0.68,15.28l-0.27 0.14z"/>
    <path class="fil1" d="M177.69 524.46c0.68,-5.46 -0.27,-19.65 -0.27,-27.57 0,-9.69 0,-19.51 0,-29.21 0,-19.51 -0.27,-39.17 0.14,-58.54 -4.78,-0.96 -1.23,-0.68 -2.59,0.82 0.68,1.91 1.91,8.19 -0.41,11.05 -2.32,3 -1.09,-0.27 -2.18,3.96 3.68,1.37 2.87,-0.96 2.46,2.46l-1.23 3.28c3.82,2.46 2.05,0.82 1.64,2.32 0,0.14 -0.14,0.27 -0.14,0.41 0,0.14 -0.14,0.27 -0.14,0.41 -0.82,2.87 0.27,7.78 0.14,12.01l-2.46 0.96c-0.27,-1.64 -0.82,-0.96 0.82,-2.87l0.82 -0.96c-0.14,-0.14 -0.54,-0.54 -0.68,-0.27l-2.05 -0.82c-1.23,-0.82 0.54,1.37 -0.41,-0.54 0,0 -0.14,-0.27 -0.14,-0.27 0,-0.14 -0.14,-0.27 -0.14,-0.41l-0.82 -3.28c0,-0.14 -0.14,-0.27 -0.14,-0.41 0,-0.14 -0.14,-0.27 -0.14,-0.41 0,-0.27 -2.32,-0.27 1.5,-2.05 -1.37,-2.87 -1.5,-2.18 -2.59,-3.55 0.14,-0.41 0.27,-1.64 0.41,-2.05 0,-0.14 0.14,-0.41 0.14,-0.54 0,-0.14 0.14,-0.41 0.14,-0.54 0,-0.14 0.14,-0.27 0.14,-0.54l0.27 -0.82c0.27,-1.91 -0.27,-0.54 -0.82,-2.59l0.14 57.59c6.55,1.64 0.82,-0.41 -0.27,3.68 -0.41,1.5 0.14,3.28 0.41,4.91l1.77 -2.46c0,0 1.09,0.68 0,-2.18 0,-0.14 -0.14,-0.27 -0.27,-0.41 3.55,2.87 0.14,-0.96 2.73,0.27 0.54,1.91 -0.14,0.96 0,4.5 -0.14,0 -0.27,-0.27 -0.27,-0.14l-1.64 -0.41c-3,0.14 0.27,-0.27 -1.37,0.27 -0.96,2.32 -0.96,2.46 1.5,7.1 0.96,1.64 1.37,1.5 2.46,2.18 -0.96,-0.82 -2.46,-0.41 -3.55,0.54 -1.77,1.37 -0.41,-0.54 -1.37,1.77 -0.54,1.37 -0.27,1.37 0,2.73 0.41,0.27 0.82,1.64 3,0.54 -1.91,0.27 -1.5,0.68 -2.32,2.87 1.23,0.68 0.27,0.14 1.23,0.96 0.14,0.14 0.27,0.27 0.41,0.41l2.32 2.18c1.09,1.09 0.54,0.96 0.82,4.09l0.82 3.41c-0.96,-0.68 -1.37,-3.96 -5.46,1.37l1.09 0.82c0.14,0.14 0.82,0.54 0.96,0.68 0.41,0.27 1.37,0.68 1.37,0.68 -0.27,0.14 -2.46,-0.41 -3.68,1.37 1.5,2.73 -1.37,0 1.23,1.23 0.27,0.14 1.23,0 1.5,0 -3,1.23 -2.73,0.54 -2.73,4.5 3.28,-0.96 2.46,2.05 3.14,-3.14 0.27,0 1.77,0.54 1.91,0.54 0.82,-0.41 1.23,3.82 0.54,-2.32 0.41,0.41 2.05,0.96 2.05,0.96l0.28 -0.55z"/>
    <path class="fil1" d="M409.82 131.15c5.05,0.96 22.38,0.41 28.52,0.27 15.15,-0.41 192.29,-0.54 198.29,0.27l0 35.48 -226.68 -0.14 -0.14 -35.89 -0 0zm206.21 37.67c4.91,-0.14 17.6,0.96 21.29,-0.82 1.37,-3.41 1.23,-31.8 0.68,-37.12l-4.91 -0.41 -209.76 0c-2.73,0 -11.6,-0.41 -13.51,0.68 -1.77,0.41 -1.5,-1.5 -1.5,7.64 0,5.6 -0.82,27.29 0.68,29.07l102.76 1.09c34.39,0.41 69.87,0.41 104.13,0l0.14 -0.14z"/>
    <path class="fil1" d="M340.5 397.54c-6.96,-0.82 -41.08,-0.68 -48.99,-0.14 2.32,-1.91 3.82,-3.82 6.41,-5.87 5.73,-4.78 16.38,-17.47 19.93,-20.74l13.92 -13.92c0.14,-0.14 0.54,-0.54 0.68,-0.82 0.68,-0.68 0.96,-1.09 1.77,-1.77 8.05,-7.23 26.88,-27.43 36.98,-37.26l20.34 -20.34c1.37,-1.37 1.91,-1.77 3.28,-3.14l2.46 -2.59c1.37,-1.23 -0.68,0.27 1.37,-1.09 -1.37,14.33 0,34.66 0.14,49.4l-7.1 7.51c-1.5,1.64 -9.42,8.05 -14.74,13.78 -8.87,9.69 -23.06,22.93 -32.75,32.89 -1.37,1.5 -2.32,3.14 -3.41,4.23l-0.27 -0.14zm-51.18 1.5c6,0.41 48.18,0.96 51.04,0.14 2.32,-0.68 43.12,-41.76 49.13,-48.04 13.24,-13.92 10.78,-5.73 10.51,-38.35l0 -17.88c0,-2.32 0.14,-4.23 -1.09,-6 -4.09,1.23 -67.01,65.64 -75.88,74.92 -2.46,2.59 -4.91,4.5 -7.1,7.1 -5.32,6.14 -3.68,3.68 -7.1,6.41 -0.96,0.82 -3.55,4.64 -6.41,7.1 -3.14,2.73 -4.37,3 -7.1,6.41 -2.05,2.73 -1.23,1.77 -3.55,3.68 -0.54,0.41 -2.05,0.41 -2.59,4.09l0.14 0.41z"/>
    <path class="fil1" d="M177.28 244.42l0 -0.68 -0.14 87.07c0,4.09 -0.54,3.55 2.05,4.78 0,-0.41 -0.68,-5.19 -0.68,-7.64 0,-3.41 0.14,-6.55 0,-9.96l0 -59.23c0,-13.1 -0.14,-26.2 0,-39.3 0.14,-12.56 -0.96,-27.7 0.41,-39.99l220.81 0.27 -0.54 -2.05 -221.49 0.14 -0.41 66.6 -0 0.01z"/>
    <path class="fil1" d="M390.72 444.62c-2.87,-5.19 -31.12,-31.25 -34.39,-35.48 -0.82,-1.09 -1.23,-1.77 -2.32,-2.73 -1.23,-1.09 -2.05,-1.5 -3.41,-2.46 1.91,-2.87 12.15,-12.01 13.24,-13.51 1.37,-1.77 1.37,-1.91 3.14,-3.28 2.05,-1.64 1.77,-1.64 3.55,-3.68l16.92 -16.65c1.23,-1.23 1.91,-1.91 3.55,-3.55 1.37,-1.37 1.77,-2.05 3,-3.41l10.78 -10.24c10.1,8.6 36.85,36.03 46.81,46.26 2.46,2.46 4.37,5.46 6.82,6.82 -3.82,2.05 -7.23,6.69 -10.24,9.69l-20.74 19.93c-3.41,3.68 -2.18,4.23 -10.1,10.51l-13.51 13.51c-3.82,-2.73 -8.05,-9.42 -13.1,-12.15l-0 0.41zm0 0c1.09,2.73 11.87,12.97 13.24,13.65 3.55,-1.91 5.87,-4.09 8.6,-7.51 1.09,-1.37 0.14,-0.41 1.77,-1.77 1.77,-1.5 2.05,-1.64 3.68,-3.55 2.05,-2.32 4.37,-4.78 6.69,-6.96 2.46,-2.32 4.37,-4.37 7.37,-6.96 4.37,-3.55 8.87,-9.42 13.78,-13.92l13.37 -14.33 -40.4 -41.21c-3.41,-3.14 -10.78,-11.87 -14.33,-13.78 -3.96,2.32 -27.16,26.2 -31.25,30.3 -3.96,4.09 -6.55,5.73 -10.65,10.65 -4.23,5.19 -9.42,8.46 -13.24,14.19 2.32,4.09 6.14,7.1 9.69,10.65 3.41,3.68 29.07,29.48 31.66,30.43l0 0.14z"/>
    <path class="fil1" d="M543.97 455.27c-1.37,2.87 -3.14,3.55 -5.46,5.6l-11.33 11.46c-2.05,1.91 -3.68,3.55 -5.73,5.73l-22.25 22.65c-3.82,3.68 -6.96,7.91 -10.92,11.19l-28.66 28.52c-1.23,1.64 -3.96,4.64 -5.46,6.14 1.09,2.18 25.11,1.23 29.07,1.23l6.41 0c10.65,0 21.43,0 32.07,0 5.46,0 10.92,0 16.38,0 3.96,0 13.51,1.5 15.42,-1.64 -1.37,-0.96 3.14,0.27 -1.37,-0.41 -4.91,-0.82 -95.39,0.14 -95.67,0.14l26.61 -26.07c1.5,-1.5 1.23,-1.5 2.59,-3.14l7.37 -7.64c2.87,-2.73 8.87,-10.37 12.83,-13.65l20.47 -20.2c3.68,-4.23 20.74,-19.65 22.65,-23.88 -2.18,1.09 -0.82,0.41 -2.59,1.91 -1.09,0.96 0,0.14 -1.09,0.96 -1.09,0.82 -0.68,0.54 -1.64,0.82l0.27 0.27z"/>
    <path class="fil1" d="M561.03 480.92c-0.27,-4.09 -0.27,-1.09 -1.91,-2.73 -1.5,-1.37 -0.68,-1.09 -3.14,-2.59 0,-3.55 0.68,-23.75 -0.68,-27.16l0.68 92.8 3.96 -2.87c-1.37,-0.82 -1.77,1.64 -1.91,-2.46 -0.14,-3.28 -0.41,-1.5 2.46,-2.87l-1.09 -0.54c-0.82,-0.54 -1.64,0.96 -1.09,-1.23 0.27,-1.37 1.23,-1.23 2.46,-1.5l0 17.33c0.14,-0.27 0.14,-0.82 0.27,-0.68l0.54 -12.83c0.54,-30.98 -0.54,-65.64 0.27,-96.35 -2.05,3.68 -0.96,39.85 -0.96,43.94l0.13 -0.28z"/>
    <path class="fil1" d="M130.06 294.5c0.27,-0.54 3.28,-0.14 -2.18,-2.32 0.41,2.73 0.27,3 0.41,3.28 0.41,1.23 -0.14,0 1.09,1.23 -3.41,2.46 1.91,-0.82 -4.37,4.78 0.14,0.14 0.41,0.14 0.54,0.41 0,0.27 0.41,0.27 0.54,0.41l0.68 0.54c1.09,1.77 0.27,-1.37 -0.14,1.23 -0.54,3 0,1.5 0.82,4.5 2.73,-2.46 0.54,0.82 1.5,-2.05 0.82,-2.73 -0.27,-1.64 -0.41,-1.64 2.18,3 3.68,7.37 -0.96,10.24l-2.46 2.18c-0.14,0.27 -0.27,0.41 -0.41,0.54l-0.96 1.37c0.68,-0.41 2.32,-0.68 0,-0.82l-0.82 0.14c0.14,3.82 0.54,3.14 -0.41,7.1 0.82,0.27 1.91,-1.91 2.05,1.64l0 1.64c-0.82,4.64 -0.27,0.27 -1.64,0.96l1.23 3.14c0,0.14 0.27,0.27 0.27,0.41 -0.14,0.14 -0.27,0.14 -0.27,0.41l-0.96 1.5c0,0 -0.41,1.91 -0.41,2.32 0.14,0 0.27,-0.14 0.27,0 0.96,3.55 -0.68,-1.23 2.05,0.41 -0.82,0.82 -0.68,3.82 -0.54,4.91l0.41 2.73c-1.91,0.82 -1.37,-0.54 -2.05,1.5 -0.82,2.18 0.96,2.73 1.23,4.09l-0.68 1.37c0,0.14 -0.14,0.27 -0.14,0.41 -0.41,1.23 -0.54,-0.68 -0.27,1.91 0.14,0 0.27,-0.14 0.27,0 0.54,2.46 0.54,0 0.54,0 1.77,0.27 2.18,1.77 2.46,2.46 0.96,-0.68 1.37,0.82 2.05,-2.32 3.68,7.91 -1.23,5.19 -3.28,9.28l-0.27 1.91c0,0.14 0.41,0.68 0.41,0.68 1.77,1.91 0,0.54 1.23,0.54 3.41,0 -0.96,0.96 0.96,-0.27 -0.68,3.41 0.68,3.28 0.14,5.73l-2.32 4.91c3.82,-0.82 2.73,-1.37 4.91,-1.37 0,0 0.14,-3 -0.27,0.54 -0.14,1.77 0.41,3.14 0.96,4.5l-0.68 -86.79 -0.13 -0.26z"/>
    <path class="fil1" d="M409 518.04c3.14,-0.27 9.14,-7.64 11.46,-10.24 8.73,-9.42 25.79,-25.11 33.98,-34.53l22.93 -22.65c3.96,-3.55 7.64,-7.64 11.33,-11.46 2.18,-2.18 3.41,-3.68 5.73,-5.73 2.32,-2.18 3.41,-3.82 5.87,-6l13.92 -14.47c-1.64,-1.09 0.14,-0.54 -1.23,0l-25.25 25.25c-5.32,5.73 -9.28,8.19 -13.51,12.83 -4.23,4.64 -8.19,8.6 -12.69,12.97 -10.92,10.37 -21.56,22.25 -32.48,33.3l-12.97 12.83c-2.18,2.18 -3.55,4.78 -6.41,6.69 -0.54,-13.24 0,-27.02 0,-40.26 0,-13.92 -0.14,-8.46 15.01,-24.84l30.16 -29.75c1.91,-1.64 8.32,-7.1 8.46,-9.01l-0.27 -0.96 -53.77 53.91c-3.55,4.09 -0.82,52.13 -0.54,52.41l0.27 -0.27z"/>
    <path class="fil1" d="M247.42 497.71c-0.96,-0.68 -0.27,-0.41 -0.82,0.68 2.05,0.82 1.64,0.82 3.28,1.37l0.27 13.51c0,0.14 -0.54,0.54 -0.82,0.68 0.27,1.09 0.41,2.46 0.82,3.41l1.37 3c0,0 0.14,-0.27 -0.27,0.82 0,0 -0.14,0.27 -0.14,0.27 0,0.14 -0.14,0.27 -0.14,0.41 -0.54,1.23 -1.64,3.68 -0.82,5.19 1.23,2.18 -0.54,1.09 2.59,1.37 1.64,0.14 3,-2.32 1.5,-0.41 1.37,1.23 0.68,10.65 0.68,12.97 1.64,-3.96 0.68,-77.38 0.68,-80.65 -0.96,2.32 -0.68,4.78 -0.68,7.1l-1.09 -0.68c-0.82,-0.54 0.41,0.54 -0.41,-0.41l-1.37 -1.5c-2.46,2.18 -2.18,0.96 -2.59,3.41l0.54 9.14c0,0.41 -0.14,1.5 -0.27,2.05l-0.27 14.74c-1.37,4.64 -0.27,1.37 -2.18,3.28l0.14 0.27z"/>
    <path class="fil1" d="M550.8 249.06l-0.41 1.77 -105.49 0 39.17 0.27c4.5,-0.27 8.87,-0.27 13.51,-0.27 17.74,0 36.3,0.68 53.5,0.14 -1.77,1.91 -1.37,2.05 -7.1,1.91 -2.32,0 -4.64,0 -6.96,0 2.18,0.54 1.64,0.96 1.77,4.09 -2.18,-0.14 -1.5,-0.96 -0.96,1.09 -2.73,-0.14 -3.55,-0.96 -4.37,-0.82 -0.82,0.14 -1.64,1.09 -5.05,1.5 0.96,-3.28 -0.41,-1.5 2.05,-3.55l-1.37 0.14c-1.5,-0.14 -1.37,1.23 -1.91,1.77 -0.96,0.96 0.68,0.54 -1.77,0.96 -2.87,0.41 -0.14,0.27 -2.05,-0.14 -0.27,-1.23 -0.96,-0.96 1.09,-4.5 0,-0.14 0.27,-0.27 0.27,-0.41l3.68 0.54c-4.5,-0.82 -9.69,-0.54 -15.28,-0.54 2.46,-1.23 2.32,2.46 1.77,-0.68l5.87 0.27c2.73,1.09 0.27,-1.09 2.59,1.77l-2.73 3c-0.14,0.14 -0.27,0.27 -0.41,0.41 -3.41,-0.68 -3.96,-1.91 -4.23,-2.05 -0.14,0 1.23,-0.27 -0.82,0.41 -2.32,0.68 0,0.27 -2.05,0.14l0.14 1.5 38.07 -0.68c0.14,-0.14 0.41,-0.54 0.54,-0.54 0.41,-0.27 0.41,-0.41 1.64,-0.82 1.5,-0.54 -0.54,0.14 2.18,-0.54 -0.68,5.19 -1.91,3.68 -9.01,4.09 -25.11,1.37 -65.51,-0.96 -89.25,0.68 2.18,-2.73 3.28,-1.23 3,-3.55 -2.05,-0.68 -7.64,0.54 -8.73,0.27 -3.82,-1.23 0.54,2.59 -1.37,-0.96 -0.82,3.41 0,-0.41 -0.68,2.87 -3.14,-2.73 -0.41,0.82 -1.64,-2.05 -1.37,-3.41 -0.68,-0.68 0.14,-1.5 -1.09,0.96 1.09,-0.54 -1.23,0.54 -1.23,0.54 -0.68,0.27 -1.64,0.82 2.32,1.09 0.82,-0.41 0.68,6.41 -1.09,0.82 -0.41,0.14 -2.05,0.27l0.96 1.23 0.96 -1.64c0.14,-0.14 0.82,-0.96 1.09,-1.09l3.96 -1.09c-0.68,1.77 -0.68,2.87 -0.82,5.6 4.78,-0.27 3.82,0.68 8.46,-0.14 -1.64,-2.18 -3.41,-2.59 -4.09,-5.73 9.82,-0.82 95.67,-1.09 98.81,0.54 1.77,3.28 0.82,86.79 0.54,97.71 1.37,-1.5 0.41,0 1.23,-2.05 0.82,-2.46 0.27,-94.44 0.27,-96.35l0.82 5.73c0,1.64 0,3.28 0,5.05 -0.54,-0.27 -0.54,-1.37 -0.54,-1.77 0,-4.78 2.73,-3.28 0.14,-8.19l2.05 -0.82c0.27,0 1.37,-0.27 1.64,-0.27 3.82,0.14 1.77,0.96 1.77,1.09l0 -5.73c-1.09,2.05 1.5,1.37 -1.5,0.68 -2.18,-0.41 -0.68,0.14 -2.32,-2.18 -0.14,-0.14 -0.14,-0.27 -0.27,-0.41l-0.68 -1.09c0,-0.14 -0.14,-0.27 -0.14,-0.27l0 -1.23c-1.23,-0.82 -0.54,-0.27 -1.23,-1.09 -0.14,0.27 1.37,2.87 -2.73,0.41l-1.37 -0.96 -0.14 0z"/>
    <path class="fil1" d="M467.96 397.81c0.96,1.23 0.14,0.96 2.46,1.64 4.09,1.09 45.72,-0.14 48.18,-0.41 -1.64,-0.82 -0.27,-0.27 -1.23,-1.5 -0.54,-0.68 -0.54,-0.96 -1.23,-1.64l-42.72 -42.99c-4.09,-4.91 -25.52,-24.56 -29.21,-28.66 -4.78,-5.32 -11.87,-14.33 -17.19,-17.19 -1.23,1.5 -0.41,1.77 -0.41,2.05l48.99 48.72c9.42,8.87 20.06,20.74 29.21,29.34 2.32,2.18 9.96,8.05 10.65,11.05 -4.64,-1.5 -41.08,-0.82 -47.49,-0.14l-0.01 -0.28z"/>
    <path class="fil1" d="M635.55 324.26l2.46 -0.41c1.09,-10.78 0.27,-25.52 0.27,-36.71l0 -101.4c0,-5.87 0.68,-7.1 -1.64,-7.78 -3.82,2.05 -114.77,0.41 -129.92,0.68 3.14,1.64 26.88,0.68 32.21,0.68 10.92,0 21.84,0 32.75,0 21.43,0 43.4,0.41 64.82,-0.14 0.54,24.02 0.27,48.86 0.14,72.88 0,12.15 -0.14,24.29 0,36.44 0,6.14 0,12.42 0,18.56 0,3.14 0,6.14 0,9.28 0,6.69 -0.54,4.91 -1.09,7.78l-0 0.14z"/>
    <path class="fil1" d="M203.62 338.04c1.5,1.23 -0.27,0.41 1.91,0.68l3.82 -0.27c2.46,-0.27 2.87,-0.41 5.19,-0.82 8.6,-1.64 24.29,-0.96 31.39,1.09 0.96,3.96 0.96,28.79 -0.54,31.25l-15.42 15.83c-13.65,12.56 -7.64,11.87 -19.93,11.74 -9.82,-0.14 -21.84,-0.54 -31.39,0.41l-0.14 -44.9c0,-2.59 0,-5.32 0,-7.91 0,-1.09 0,-2.32 0.27,-3.41 0.41,-1.64 0.14,-0.68 0.68,-1.77l0.68 -1.09c-3.55,0.27 -2.87,1.37 -2.73,5.6 0,2.59 0.14,5.19 0.14,7.91 0,6.82 -0.54,44.9 0.27,46.26 1.64,2.32 36.57,1.23 37.39,1.09 2.73,-0.27 2.87,-0.82 4.37,-2.32l22.25 -21.97c2.46,-2.87 4.5,-3.55 6,-7.1l0 -30.43c-6.55,-2.73 -20.74,-2.46 -29.07,-2.32l-12.83 1.91c-2.05,0.54 -0.68,0 -1.91,0.82l-0.42 -0.27z"/>
    <path class="fil1" d="M558.17 430.02l0 1.37c0.14,0.14 0.54,0 0.68,0.27l2.46 1.64c0.14,-0.14 1.91,-1.09 1.23,-2.73 0.96,0.96 -1.23,0.27 1.5,0.82 3.14,0.54 1.37,-0.14 1.5,-0.14l-1.77 1.77c-0.14,0.14 -0.27,0.41 -0.41,0.54 1.64,1.64 -0.41,0.68 2.32,0.96l15.83 -15.69c0.14,-1.5 0.27,-3 0.14,-3.55 -0.54,-3.41 -1.64,-1.09 0.54,-3.41 1.64,-1.77 1.37,1.91 1.23,-2.32 -0.14,0 -0.27,0 -0.27,0l-0.82 0c-0.96,0 0.27,1.09 -0.54,0 0.68,-1.64 1.77,-2.05 0.41,-4.09 -2.05,2.46 -3.82,4.09 -6,6.28l-17.88 18.56 -0.14 -0.28z"/>
    <path class="fil1" d="M574.95 380.75c1.5,4.37 6.14,6.96 9.28,10.1l7.37 7.51c1.64,0.96 2.32,0.82 4.09,0.96l39.44 -0.14c2.59,-0.68 0.68,0.27 2.05,-1.09 1.64,-2.18 1.91,-67.14 0.27,-71.51l-1.5 0.27c1.5,7.78 0.54,26.75 0.54,35.75 0,11.46 0.41,23.61 -0.14,35.07 -10.51,-1.23 -32.34,-0.82 -43.26,0l-18.15 -16.92 -0 -0z"/>
    <path class="fil1" d="M483.24 547.79c-3.96,0 -27.98,1.09 -29.07,-1.23 -0.54,-0.68 -1.91,-1.37 -1.64,-2.59l-0.14 -1.37c-1.5,0.96 -1.09,-2.32 -1.23,1.77l-0.14 1.77c-0.14,0.14 -0.27,0.41 -0.27,0.54l-0.96 1.37c-1.09,-1.77 -1.23,-1.77 -2.87,-2.87 1.64,-1.23 -0.14,0 -0.14,0 0.27,1.91 -1.91,-2.05 1.09,1.64 0.14,0.14 0.41,0.41 0.54,0.54 -4.23,0 -3.28,0.14 -3.28,3.28l0.14 3.14c0.68,2.05 -0.54,0.54 0.27,0.68l41.9 0c-3,-0.68 -4.5,1.64 -4.09,-2.87 0.14,-1.37 1.64,0.54 0.14,-0.82 2.59,2.59 -0.27,0.68 -1.37,1.37l-1.5 -2.87 -21.43 -1.23c0.27,0 0.41,0 0.68,-0.14 0.27,0 0.41,0 0.68,-0.14 0.27,0 0.41,0 0.68,-0.14l1.37 -0.14c4.23,-0.41 4.09,0.27 6.41,0.41 3.28,0.14 10.24,-2.32 14.33,-0.54l-0.14 0.41z"/>
    <path class="fil1" d="M200.88 335.45c9.42,-0.54 17.33,-2.05 26.88,-1.77 3.55,0.41 16.65,0.96 18.97,-0.27 1.23,-1.37 0.14,0.54 0.82,-1.5 0.14,-0.54 0.27,-2.05 0.41,-2.59l0.14 -15.01c0.14,-14.6 -0.68,-50.63 0.41,-60.59 -1.5,-0.41 -0.82,-0.27 -1.5,1.09l-0.68 16.65c0,19.38 -0.54,43.4 0.14,61.69 -4.78,-0.82 -7.91,0.27 -12.01,-0.54 -17.06,-3.41 -19.24,1.37 -34.25,1.5 0.68,1.37 -0.68,1.5 0.68,1.23l0 0.14z"/>
    <path class="fil1" d="M583.69 402.86l-1.5 2.32c1.37,1.91 0.27,2.46 -0.41,4.09 0.82,1.09 -0.41,0 0.54,0l0.82 0c0,0 0.27,0 0.27,0 0.14,4.23 0.41,0.54 -1.23,2.32 -2.18,2.32 -1.09,0 -0.54,3.41 0.14,0.54 -0.14,2.05 -0.14,3.55 0.14,-0.14 8.32,-7.91 8.6,-9.28 -0.14,-2.46 -0.68,-0.96 0.27,-3l11.33 0c-1.37,-0.54 -3.14,-1.77 -3.41,-3.14 -1.09,-4.23 0,-1.64 3.14,-1.64l-8.87 -0.96c0.27,-0.14 0.14,-2.59 0.27,0.27 0.14,2.73 0.27,-0.14 -0.27,1.5 -0.14,-0.14 -0.41,-0.27 -0.54,-0.41l-3.28 -2.18c-1.23,-0.68 0.68,-0.41 -1.91,0.14 0,0 0.27,0.82 0.27,0.96 0,0.14 0,0.41 0,0.54l-0.68 1.64c0,-0.14 -0.27,0.41 -0.41,0.54 -2.73,-0.41 -0.82,0.68 -2.32,-0.82l-0 0.14z"/>
    <path class="fil1" d="M554.89 249.6c0.68,0.68 0,0.14 1.23,1.09 5.73,1.09 2.73,0.82 6.55,2.87 0,0 0.82,0.27 0.14,-1.77 -0.14,-0.27 -0.82,-1.09 -0.96,-1.09 -4.5,-3.55 -0.27,4.23 -12.42,-9.14l-13.1 -13.37c-1.5,-1.64 -2.59,-2.87 -4.23,-4.37l-2.73 -3c-0.14,-0.14 -0.27,-0.27 -0.41,-0.41 -1.23,-1.09 0.54,-0.41 -1.5,-0.68 2.59,5.87 4.64,6.14 6.55,7.91l2.87 2.87c0.14,0.14 0.27,0.27 0.41,0.27 4.23,3.82 1.64,2.87 6.82,7.37l10.65 11.33 0.13 0.14z"/>
    <path class="fil1" d="M132.24 408.46l0.14 0.14c-0.54,0 -1.91,-0.14 -2.05,-0.14l-6.82 0.27 -0.54 4.64c0.54,-0.82 0.54,0.14 0.96,-1.5 0.41,-1.77 -0.27,0 -0.41,0.14l3.28 5.32 3.82 1.09c0,-4.23 -0.82,-7.64 1.5,-9.96l0.14 0z"/>
   </g>
  </g>
 </g>
</svg>
