<?xml version="1.0" encoding="UTF-8"?>
<!DOCTYPE svg PUBLIC "-//W3C//DTD SVG 1.1//EN" "http://www.w3.org/Graphics/SVG/1.1/DTD/svg11.dtd">
<!-- Creator: CorelDRAW -->
<svg xmlns="http://www.w3.org/2000/svg" xml:space="preserve" width="29.797mm" height="29.7971mm" version="1.1" style="shape-rendering:geometricPrecision; text-rendering:geometricPrecision; image-rendering:optimizeQuality; fill-rule:evenodd; clip-rule:evenodd"
viewBox="0 0 2378.92 2378.93"
 xmlns:xlink="http://www.w3.org/1999/xlink"
 xmlns:xodm="http://www.corel.com/coreldraw/odm/2003">
 <defs>
  <style type="text/css">
   <![CDATA[
    .fil1 {fill:#2B2A29}
    .fil0 {fill:#C0A57C}
   ]]>
  </style>
 </defs>
 <g id="Слой_x0020_1">
  <metadata id="CorelCorpID_0Corel-Layer"/>
  <g id="_2450387527696">
   <path class="fil0" d="M760.8 0l857.31 0c420.11,0 760.8,340.69 760.8,760.8l0 857.32c0,420.11 -340.69,760.8 -760.8,760.8l-857.31 0c-420.11,0 -760.8,-340.69 -760.8,-760.8l0 -857.32c0,-420.11 340.69,-760.8 760.8,-760.8z"/>
   <rect class="fil1" x="437.1" y="2127.6" width="1503.52" height="29.36"/>
   <rect class="fil1" x="437.1" y="2042.75" width="1503.52" height="29.36"/>
   <rect class="fil1" x="466.45" y="1973.59" width="1446.42" height="29.36"/>
   <rect class="fil1" x="466.45" y="1221.63" width="1446.42" height="29.36"/>
   <rect class="fil1" x="466.45" y="1160.11" width="1446.42" height="29.36"/>
   <rect class="fil1" x="466.45" y="468.06" width="1446.42" height="29.36"/>
   <rect class="fil1" x="466.45" y="411.37" width="1446.42" height="29.36"/>
   <rect class="fil1" x="437.1" y="315.66" width="1503.52" height="29.36"/>
   <rect class="fil1" transform="matrix(9.74411E-14 3.0385 -3.02735 6.62163E-14 495.618 414.243)" width="522.75" height="9.65"/>
   <rect class="fil1" transform="matrix(9.74411E-14 3.03743 -3.02735 6.61931E-14 1912.68 414.798)" width="522.75" height="9.65"/>
   <rect class="fil1" transform="matrix(9.74411E-14 0.218167 -3.02735 4.75439E-15 466.303 2042.73)" width="522.75" height="9.65"/>
   <rect class="fil1" transform="matrix(9.74411E-14 0.218167 -3.02735 4.75439E-15 1940.39 2042.73)" width="522.75" height="9.65"/>
   <polygon class="fil1" points="1887.14,1986.86 1913.27,2053.22 1940.21,2042.76 1898.79,1936.6 "/>
   <polygon class="fil1" points="490.18,1986.86 464.44,2053.22 437.1,2042.76 478.51,1936.6 "/>
   <polygon class="fil1" points="1878.69,421.02 1913.27,334.56 1940.21,345.02 1898.79,451.18 "/>
   <polygon class="fil1" points="499.03,424.63 464.44,334.56 437.1,345.02 478.51,451.18 "/>
   <rect class="fil1" transform="matrix(9.74411E-14 1.09128 -3.02735 2.37817E-14 603.506 1330.76)" width="522.75" height="9.65"/>
   <rect class="fil1" transform="matrix(9.74411E-14 1.09128 -3.02735 2.37817E-14 1800.97 1330.76)" width="522.75" height="9.65"/>
   <rect class="fil1" x="574.22" y="1871.85" width="1226.86" height="29.36"/>
   <rect class="fil1" x="574.22" y="1330.61" width="1226.86" height="29.36"/>
   <rect class="fil1" x="635.74" y="1389.31" width="1101" height="29.36"/>
   <rect class="fil1" x="635.74" y="1811.54" width="1101" height="29.36"/>
   <rect class="fil1" transform="matrix(9.74411E-14 0.863599 -3.02735 1.88199E-14 664.95 1389.32)" width="522.75" height="9.65"/>
   <rect class="fil1" transform="matrix(9.74411E-14 0.863599 -3.02735 1.88199E-14 1736.79 1389.32)" width="522.75" height="9.65"/>
   <rect class="fil1" x="437.1" y="246.9" width="1503.52" height="29.36"/>
   <rect class="fil1" transform="matrix(9.74411E-14 0.18816 -3.02735 4.10047E-15 466.303 246.71)" width="522.75" height="9.65"/>
   <rect class="fil1" transform="matrix(9.74411E-14 0.18816 -3.02735 4.10047E-15 1940.39 246.71)" width="522.75" height="9.65"/>
   <g>
    <path class="fil1" d="M1662.35 1004.09l-1.6 0 1.21 -1.6 0.4 1.6zm-827.96 -220.36l1.6 0 -1.21 1.6 -0.4 -1.6zm0 0c-10.05,-2.82 -2.82,-10.05 0,0zm827.96 220.36l6.43 9.65c4.42,6.83 9.65,11.66 16.09,16.89 3.22,2.41 6.04,5.63 8.85,8.85 1.6,1.6 2.41,2.41 3.62,3.62 43.43,51.87 19.7,49.46 30.56,98.92 2.82,12.46 20.51,30.96 30.56,37.8l19.7 -20.51c-13.27,-19.3 -22.52,-13.67 -22.52,-40.61 0,-40.21 -7.64,-66.75 -34.59,-93.29 -1.6,-1.6 -2.01,-2.01 -3.62,-3.62l-12.06 -11.66c-11.66,-11.66 -8.04,-12.46 -18.1,-11.66 0,-10.86 -6.43,-12.46 -12.46,-18.5 -1.21,-1.21 -12.87,-15.28 -16.09,-33.37 -2.82,-17.69 2.41,-34.98 6.43,-51.87 1.21,-4.42 3.62,-11.66 4.02,-16.49 15.28,3.62 70.37,34.18 80.83,48.65 3.22,4.42 5.63,8.04 8.85,12.06 19.7,26.14 20.1,23.73 47.85,38.6 15.28,8.04 28.15,14.47 45.44,20.1 10.05,3.22 22.52,6.83 31.37,11.66 -1.6,-7.24 -1.21,-2.41 0,-4.42 8.85,-0.81 16.49,-5.63 26.95,-6.04 -1.21,-4.82 -4.42,-8.45 -7.64,-11.66 -13.67,-14.88 -51.87,-18.1 -71.18,-29.76l-27.34 -14.47c-8.85,-4.42 -14.08,-12.46 -19.7,-20.1 -22.12,-28.95 -31.77,-36.59 -67.15,-54.69l-38.2 -20.91c-2.41,-1.6 -4.42,-1.6 -7.24,-3.22 -2.82,-1.6 -4.02,-2.41 -6.43,-4.02 -4.02,-2.82 -7.24,-4.82 -11.26,-8.04l-54.29 -58.71c-2.41,-2.82 -2.41,-3.22 -4.42,-6.04 -12.87,-15.28 -38.6,-40.61 -57.5,-45.04 3.22,-4.42 0.81,-2.01 6.04,-4.42 4.02,-1.6 4.02,-2.01 7.64,-4.42 9.65,-6.43 15.28,-15.28 20.91,-24.93 1.6,-2.41 3.22,-4.42 4.82,-7.24l8.04 -14.47c1.6,-2.41 2.41,-4.82 4.02,-8.04 2.82,-5.63 5.23,-10.46 8.04,-15.68 10.05,-20.51 28.15,-60.32 33.37,-82.84 1.6,-6.83 2.01,-14.08 3.62,-20.1 3.62,-12.87 21.31,-30.56 32.57,-37.4 4.82,-2.82 10.86,-6.04 13.67,-10.05 -1.21,-1.6 -2.82,-4.42 -4.02,-6.43 -4.42,-5.63 -8.85,-12.06 -15.28,-16.09 -3.22,2.01 -3.22,2.82 -6.83,4.82 -6.83,4.02 -16.09,8.85 -20.91,14.88 -2.41,3.22 -2.01,3.62 -5.23,6.83 -26.95,28.95 -20.1,32.97 -27.34,59.11 -3.62,12.87 -8.45,23.32 -13.67,35.79l-31.77 66.35c-2.82,5.23 -5.23,10.05 -8.45,15.28 -12.06,19.3 -23.32,20.1 -43.43,30.96 -36.19,-31.77 -30.56,-30.56 -51.47,-71.98 -17.29,-33.78 -24.93,-46.24 -64.34,-60.72 -52.28,-19.3 -40.21,-8.45 -88.06,-37 -19.3,-11.26 -39.01,-22.92 -57.1,-36.59 -6.04,-4.82 -12.46,-8.85 -14.08,-16.89 -10.86,0 -20.91,2.41 -29.76,4.42 0.4,11.26 9.25,23.32 17.69,30.16 2.41,2.01 2.01,0.81 4.42,3.22 2.01,1.6 2.41,2.82 4.42,4.42 12.06,9.65 25.33,16.89 38.6,25.33l29.76 17.69c39.41,24.53 58.31,21.72 92.48,37 20.1,8.85 29.76,21.72 38.6,41.82 1.6,3.62 2.82,6.83 4.42,10.46l10.86 21.72c2.41,4.02 3.62,6.43 6.04,10.46l13.67 18.9c3.22,3.22 5.23,5.23 8.04,8.04 3.22,3.22 6.43,4.82 8.45,7.64 -6.83,9.25 -22.12,17.29 -35.79,40.21 -2.82,4.82 -4.02,6.04 -6.43,12.87l-4.42 14.88c-3.62,15.28 -48.25,80.83 -58.71,94.5 -5.63,7.64 -10.46,15.68 -20.51,18.1 -36.19,10.05 -38.6,67.15 -45.44,107.76 -4.02,24.53 -12.06,32.97 -28.15,49.06 -15.68,16.09 -36.19,14.08 -54.69,22.52l-38.6 -28.15c-12.06,-8.85 -19.3,-23.73 -32.17,-34.59 -8.45,-7.24 -18.5,-15.28 -29.36,-19.7 -5.23,-2.01 -7.64,-3.22 -12.46,-5.23 -24.93,-10.05 -75.2,-24.93 -93.29,-40.21 -3.22,-2.82 -11.26,-20.91 -17.69,-31.37l-15.68 -18.5c-11.26,-10.86 -22.12,-22.92 -34.59,-32.17 -27.74,-20.91 -37.8,-18.1 -61.12,-57.91l-18.1 -30.96c-21.72,-35.38 -24.53,-40.61 -38.2,-80.83 -11.26,-33.78 -10.86,-60.72 -17.69,-83.64 -2.01,-6.43 -8.04,-14.47 -12.06,-20.51l-28.15 -39.01c-4.82,-6.43 -9.65,-13.27 -13.67,-20.91 -8.04,-15.68 -11.26,-33.78 -18.9,-49.46l-28.15 8.85c6.04,26.54 19.3,56.7 35.79,78.82 2.01,2.41 3.22,4.02 5.23,6.83 2.41,3.62 3.22,3.62 5.23,6.43l14.47 20.91c1.6,2.41 2.82,4.42 4.82,7.24 11.66,17.29 7.64,16.89 10.86,35.38 2.41,14.88 4.42,26.14 7.64,39.81 1.6,6.83 3.22,11.26 5.23,16.89 2.01,5.63 4.02,11.66 5.63,18.1 3.22,12.06 11.26,24.93 13.27,34.18 -12.87,0 -72.78,-16.49 -80.83,-24.53 -1.21,-1.21 -11.26,-21.31 -20.51,-31.77 -12.06,-13.67 -15.68,-13.67 -32.17,-21.31 -16.49,-7.64 -32.17,-15.28 -49.86,-21.31 -9.25,-3.22 -19.3,-4.02 -27.74,-6.43 -16.49,-5.63 -21.72,-27.74 -30.16,-41.01 -10.05,-14.88 -18.5,-25.73 -31.37,-38.6 -8.04,-8.04 -30.96,-27.34 -39.41,-32.17 -9.65,-5.23 -17.29,-4.82 -28.15,-4.82 0,5.63 1.6,10.05 2.82,14.88 4.82,19.7 5.23,10.86 17.29,21.31 4.02,3.22 6.83,5.23 10.46,8.85l20.51 18.5c22.12,17.29 28.55,48.25 46.65,67.96 2.01,2.01 8.45,7.24 10.86,8.45 8.85,5.23 19.3,7.24 29.36,9.25 1.21,0.4 5.23,0.81 7.64,1.6 2.82,0.81 4.02,1.6 7.64,2.82 18.1,6.43 34.98,15.68 52.68,22.92 9.25,3.62 14.08,11.66 19.3,19.3 2.82,4.42 4.02,8.04 6.43,12.87 2.82,4.82 5.63,6.43 9.25,10.05 14.47,14.47 92.08,40.61 116.21,27.74 1.21,4.82 5.23,9.65 7.24,13.27l16.09 27.34c3.22,6.43 5.23,7.64 8.85,13.67 27.74,41.82 43.43,36.59 69.16,61.52 12.87,12.46 17.69,14.08 32.17,33.37 22.52,30.16 8.45,34.98 53.08,56.7 35.38,17.29 91.69,24.93 116.61,57.1 7.64,9.65 16.09,20.91 26.54,28.55 2.41,2.01 3.22,2.82 5.63,4.82 8.45,6.83 34.98,20.51 35.79,30.96 3.62,-3.62 5.63,-0.81 16.09,8.04 12.06,10.05 34.59,36.59 39.01,53.08l2.82 -6.04c9.25,2.01 17.29,9.65 26.95,12.06 0,-16.09 0.81,-13.27 -4.82,-24.93l-30.16 -44.23c-3.22,-3.22 -5.23,-4.82 -7.64,-8.45 33.37,-2.82 72.38,-41.82 80.83,-72.38 4.42,-15.68 6.43,-33.37 8.45,-49.46 1.6,-13.67 5.23,-33.78 12.46,-45.44 3.62,-5.63 5.23,-5.23 12.06,-7.24 26.95,-8.45 61.12,-72.78 76.8,-97.31 2.41,-4.02 5.63,-8.85 6.83,-12.46 2.01,-5.23 3.62,-8.45 6.04,-13.27l11.26 -27.74c2.01,-4.02 5.23,-7.64 8.04,-11.26 3.22,-4.02 24.93,-26.54 29.76,-28.15 6.43,0.4 7.24,2.41 12.06,4.42 20.91,9.65 32.97,16.49 48.65,32.97 16.09,16.89 28.95,36.59 45.44,52.68 7.64,7.64 24.53,27.34 35.38,30.16 -9.25,39.01 -32.17,82.84 -0.81,128.67 4.42,6.83 12.06,15.28 18.9,20.1l0 -4.42 -0.78 0.42z"/>
    <path class="fil1" d="M480.93 914.82c10.86,5.63 19.3,8.85 28.95,15.28l18.9 10.86c3.22,1.6 6.83,2.82 10.46,4.42 19.7,7.64 56.7,18.1 66.75,38.6 5.23,10.46 20.91,40.21 27.34,48.25 1.6,2.41 5.23,5.63 7.24,7.24 2.01,1.6 2.01,1.21 4.42,3.22 18.1,14.88 47.05,29.36 69.16,43.83 26.54,17.69 34.18,32.17 39.81,36.19 -1.6,7.24 0,20.91 1.6,29.76 2.01,11.66 4.42,16.49 8.85,25.33 9.65,-5.23 16.09,-11.26 25.33,-16.49 -4.02,-7.64 -6.04,-18.5 -6.04,-29.76 0,-26.95 -16.49,-39.01 -33.78,-55.5 -12.87,-12.06 -27.74,-20.1 -42.23,-28.95 -41.82,-25.73 -46.65,-21.31 -65.95,-60.32 -6.04,-11.66 -9.25,-14.08 -13.27,-22.12 -5.23,-9.65 -3.22,-8.85 -11.66,-14.88 -23.32,-17.29 -40.21,-22.12 -65.95,-32.17 -13.27,-5.23 -22.52,-11.26 -34.98,-18.5l-24.93 -12.46c-1.21,5.63 -2.82,8.85 -5.23,14.08 -2.01,4.82 -4.42,9.65 -5.23,14.08l0.42 -0.01z"/>
   </g>
  </g>
 </g>
</svg>
