<?xml version="1.0" encoding="UTF-8"?>
<!DOCTYPE svg PUBLIC "-//W3C//DTD SVG 1.1//EN" "http://www.w3.org/Graphics/SVG/1.1/DTD/svg11.dtd">
<!-- Creator: CorelDRAW -->
<svg xmlns="http://www.w3.org/2000/svg" xml:space="preserve" width="29.797mm" height="29.7971mm" version="1.1" style="shape-rendering:geometricPrecision; text-rendering:geometricPrecision; image-rendering:optimizeQuality; fill-rule:evenodd; clip-rule:evenodd"
viewBox="0 0 2443.57 2443.58"
 xmlns:xlink="http://www.w3.org/1999/xlink"
 xmlns:xodm="http://www.corel.com/coreldraw/odm/2003">
 <defs>
  <style type="text/css">
   <![CDATA[
    .fil1 {fill:#2D2C2C}
    .fil0 {fill:#C0A57C}
   ]]>
  </style>
 </defs>
 <g id="Слой_x0020_1">
  <metadata id="CorelCorpID_0Corel-Layer"/>
  <g id="_2450387536432">
   <path class="fil0" d="M781.48 0l880.61 0c431.53,0 781.48,349.95 781.48,781.48l0 880.62c0,431.53 -349.95,781.48 -781.48,781.48l-880.61 0c-431.52,0 -781.48,-349.95 -781.48,-781.48l0 -880.62c0,-431.53 349.96,-781.48 781.48,-781.48z"/>
   <g>
    <path class="fil1" d="M1726.11 1720.75l173.89 -74.35 1.24 237.5c-53.7,-9.5 -93.76,-9.5 -99.96,-68.57 -9.5,-87.15 -34.28,-71.87 -74.76,-94.59l-0.41 0zm462.19 -308.96l-1.24 79.3 -466.33 201.16c-35.94,16.11 -40.89,11.98 -45.85,-28.5 -8.26,-65.26 47.09,-73.52 94.18,-90.87 70.63,-26.02 383.72,-152.41 418.83,-161.09l0.41 0zm-528.69 191.65c-18.59,40.48 -17.34,63.61 1.65,102.85 -38.82,-0.41 -611.72,-124.32 -662.53,-135.07 -110.28,-23.13 -221.8,-43.37 -332.92,-66.91 -56.17,-11.98 -109.87,-22.31 -165.63,-34.28 -46.26,-9.91 -142.91,-9.09 -154.07,-50.8 -23.13,-85.09 86.74,-42.96 126.81,-35.53 57,10.32 112.35,20.65 168.93,30.98l676.16 123.91c112.35,21.48 230.06,46.67 341.58,64.43l0.01 0.41zm-704.25 -403.54c44.61,-8.26 241.63,30.56 298.63,39.65l289.96 44.19c-28.09,14.46 -68.57,17.34 -101.2,30.56 -30.15,12.39 -56.17,29.33 -87.57,39.65 -46.67,15.7 -75.18,0.41 -161.5,29.33 -55.35,18.59 -34.28,3.71 -43.37,19.41 30.15,7.02 94.59,-18.59 131.35,-21.48 60.31,-4.95 74.76,-5.78 123.91,-30.98 40.07,-20.24 67.33,-27.26 113.59,-40.89 66.5,-19.83 60.72,-21.48 134.66,-9.91 59.06,9.09 521.67,66.91 534.48,76.82 -5.37,11.98 -169.34,71.04 -194.13,80.96 -65.26,25.61 -130.52,51.63 -196.61,76.41 -155.72,57.82 -96.65,47.92 -215.2,27.68 -299.05,-50.8 -621.63,-114.83 -925.22,-169.76 -73.94,-13.63 -159.85,-25.19 -230.06,-43.37l528.28 -147.05 -0.01 -1.22zm948.77 916.14l21.07 0c7.85,-44.61 0.83,-400.24 2.07,-481.61 26.02,-9.5 270.96,-118.13 283.76,-129.28 9.91,-15.29 4.54,-292.85 5.37,-352.33 0.83,-66.5 10.32,-95 -21.48,-95.42 -11.98,17.34 -6.2,49.16 -6.61,71.04 -53.7,4.54 -422.54,-50.8 -507.22,-61.55 -162.33,-21.07 -346.55,-34.7 -504.74,-63.19l-41.31 -4.54 0.41 -21.48 -1.65 -565.46c0,-31.8 -0.41,-63.61 -0.41,-95.42 0,-28.09 9.09,-65.67 -15.7,-74.76 -20.65,16.11 -11.56,62.37 -11.56,88.4l0.83 672.85c2.07,17.76 -1.65,7.44 6.2,18.17 11.98,8.26 972.72,127.63 1072.68,137.13 7.02,31.39 1.65,102.03 1.24,140.02l-2.89 35.94 -30.56 5.37c-87.98,-18.17 -201.16,-24.78 -293.68,-38.82 -98.3,-14.87 -196.19,-27.68 -293.68,-42.55 -78.89,-11.98 -551,-75.18 -581.57,-91.28 -7.85,-9.09 -3.3,-704.25 -2.89,-827.74 0,-86.74 11.56,-102.03 -23.54,-101.2 -9.5,39.24 -4.54,864.5 -5.37,933.07l-266.42 76.41c-9.5,-220.16 -0.83,-526.22 -1.65,-762.9l-0.41 -191.24c0,-29.33 4.13,-40.07 -16.93,-43.78 -16.93,16.93 -10.32,69.8 -10.32,111.93l0 891.76c-42.13,16.11 -214.37,57.82 -279.22,77.65 -64.43,19.83 -72.28,71.87 -53.28,109.87 25.19,50.8 94.18,31.39 128.87,52.46 7.85,35.53 3.3,292.85 2.48,363.48 0,30.56 -15.29,116.06 22.72,102.03 9.91,-23.54 7.02,-413.05 2.48,-463.85 61.55,8.26 130.93,26.02 191.65,38.41l761.24 156.95c31.39,6.61 62.37,12.39 94.59,19.41 32.22,7.02 63.61,12.8 97.89,20.24 123.91,26.02 136.3,18.59 145.39,81.79 15.29,109.05 70.63,71.04 128.05,104.5 4.13,54.11 -7.85,154.07 3.71,199.92l0.42 -0.43z"/>
    <path class="fil1" d="M872.34 1393.61c20.65,12.39 73.11,0 93.76,-10.32 62.37,-31.39 53.7,-43.37 155.72,-62.37 25.19,-4.54 62.78,-10.32 79.72,-31.8 -30.98,7.44 -54.52,16.93 -89.22,21.89 -139.61,19 -121.03,57.82 -201.16,71.87 -33.46,5.78 -26.85,-0.83 -39.24,11.15l0.42 -0.42z"/>
    <path class="fil1" d="M1445.24 1504.31c41.72,-18.17 64.02,-37.58 115.24,-45.43 25.61,-4.13 43.37,-5.78 66.91,-14.04 30.15,-10.74 42.96,-14.46 48.74,-28.09 -19.83,-8.26 -38,6.61 -59.06,13.22 -30.98,9.91 -168.93,22.31 -171.83,74.76l0.01 -0.42z"/>
   </g>
  </g>
 </g>
</svg>
