<?xml version="1.0" encoding="UTF-8"?>
<!DOCTYPE svg PUBLIC "-//W3C//DTD SVG 1.1//EN" "http://www.w3.org/Graphics/SVG/1.1/DTD/svg11.dtd">
<!-- Creator: CorelDRAW -->
<svg xmlns="http://www.w3.org/2000/svg" xml:space="preserve" width="28.6588mm" height="28.6588mm" version="1.1" style="shape-rendering:geometricPrecision; text-rendering:geometricPrecision; image-rendering:optimizeQuality; fill-rule:evenodd; clip-rule:evenodd"
viewBox="0 0 244.65 244.65"
 xmlns:xlink="http://www.w3.org/1999/xlink"
 xmlns:xodm="http://www.corel.com/coreldraw/odm/2003">
 <defs>
  <style type="text/css">
   <![CDATA[
    .fil0 {fill:#C0A57C}
   ]]>
  </style>
 </defs>
 <g id="Слой_x0020_1">
  <metadata id="CorelCorpID_0Corel-Layer"/>
  <path class="fil0" d="M122.32 0c67.55,0 122.32,54.78 122.32,122.32 0,67.55 -54.78,122.32 -122.32,122.32 -67.55,0 -122.32,-54.78 -122.32,-122.32 0,-67.55 54.78,-122.32 122.32,-122.32zm-86.25 61.44l172.59 0c-28.76,23.82 -57.53,47.64 -86.29,71.46l-86.29 -71.46 -0 0zm86.29 83.16l24.85 -20.6 59.21 59.21 -168.37 0 59.33 -59.33 24.98 20.68 0 0.04zm-31.95 -26.49l-58.56 58.56 0 -107.1 58.56 48.5 0 0.04zm122.41 -48.46l0 107.15 -58.6 -58.6 58.6 -48.54z"/>
 </g>
</svg>
