<?xml version="1.0" encoding="UTF-8"?>
<!DOCTYPE svg PUBLIC "-//W3C//DTD SVG 1.1//EN" "http://www.w3.org/Graphics/SVG/1.1/DTD/svg11.dtd">
<!-- Creator: CorelDRAW -->
<svg xmlns="http://www.w3.org/2000/svg" xml:space="preserve" width="247.711mm" height="57.9747mm" version="1.1" style="shape-rendering:geometricPrecision; text-rendering:geometricPrecision; image-rendering:optimizeQuality; fill-rule:evenodd; clip-rule:evenodd"
viewBox="0 0 548.51 128.37"
 xmlns:xlink="http://www.w3.org/1999/xlink"
 xmlns:xodm="http://www.corel.com/coreldraw/odm/2003">
 <defs>
  <style type="text/css">
   <![CDATA[
    .fil3 {fill:#D9D9D5}
    .fil2 {fill:#D9D9D5;fill-rule:nonzero}
    .fil0 {fill:url(#id0)}
    .fil1 {fill:url(#id1)}
   ]]>
  </style>
  <linearGradient id="id0" gradientUnits="userSpaceOnUse" x1="1.15" y1="63.86" x2="102.62" y2="63.86">
   <stop offset="0" style="stop-opacity:1; stop-color:#DADAD8"/>
   <stop offset="1" style="stop-opacity:1; stop-color:#C0A47B"/>
  </linearGradient>
  <linearGradient id="id1" gradientUnits="userSpaceOnUse" xlink:href="#id0" x1="-0" y1="64.19" x2="103.78" y2="64.19">
  </linearGradient>
 </defs>
 <g id="Слой_x0020_1">
  <metadata id="CorelCorpID_0Corel-Layer"/>
  <g id="_2465485893632">
   <path class="fil0" d="M22.15 36.42l-14.55 10.31 -6.45 23.11 0.44 0.71c0.16,0.26 15.89,25.68 19.21,47.31l0.22 1.4 52.47 7.36 0.66 -1.01c4.77,-7.28 18.85,-26.76 26.7,-29.46l1.77 -0.61 -11.12 -34.57 -18.61 -2.64 5.66 -5.42 -36.39 -51.83 -20.02 35.34zm17.74 18.44l3.01 -46.09 30.65 43.65 -5.5 5.26 -28.16 -2.83zm-6.58 -3.48l-7.53 -13.64 12.88 -22.74 -2.51 38.49 -2.84 -2.1zm-22.4 -2.33l12.05 -8.53 7.41 13.44 0.96 0.71 -25.18 11.44 4.76 -17.05zm-4.96 21.33l28.89 -13.12 3.06 2.26 -14.88 50.22c-4.34,-16.94 -13.79,-33.82 -17.06,-39.36zm57.43 3.24l-19.67 -14.55 24.8 2.49 20.09 2.85 8.42 26.17 -33.63 -16.96zm-38.23 42.35l16.01 -54.04 19.49 14.42 9.48 45.94 -44.99 -6.31zm39.89 -37.27l31.03 15.67c-8.01,5.34 -17.94,18.77 -22.55,25.38l-8.47 -41.05z"/>
   <path class="fil1" d="M-0 128.37l103.78 0 0 -128.37 -103.78 0 0 128.37zm3.1 -125.27l97.57 0 0 122.17 -97.57 0 0 -122.17z"/>
  </g>
  <g id="_2465485911392">
   <polygon class="fil2" points="127.14,80.82 127.14,32.46 135.01,32.46 149.94,58.58 164.86,32.46 172.73,32.46 172.73,80.82 166.65,80.82 166.65,40.06 152.01,65.62 147.86,65.62 133.22,40.06 133.22,80.82 "/>
   <path class="fil2" d="M189.17 63l20.31 0 -6.42 -25.14 -7.46 0 -6.42 25.14zm-10.91 17.82l12.57 -48.35 16.99 0 12.57 48.35 -6.36 0 -3.18 -12.43 -23.07 0 -3.18 12.43 -6.36 0z"/>
   <polygon class="fil2" points="225.92,75.29 225.92,37.99 231.45,32.46 257.01,32.46 257.01,38.13 232.14,38.13 232.14,75.15 257.7,75.15 257.7,80.82 231.45,80.82 "/>
   <polygon class="fil2" points="276,80.82 276,37.99 261.15,37.99 261.15,32.46 297.07,32.46 297.07,37.99 282.22,37.99 282.22,80.82 "/>
   <polygon class="fil2" points="302.6,80.82 302.6,32.46 335.75,32.46 335.75,37.99 308.81,37.99 308.81,53.19 332.3,53.19 332.3,58.71 308.81,58.71 308.81,75.29 336.44,75.29 336.44,80.82 "/>
   <path class="fil2" d="M348.88 64.93l23.49 0 0 -26.94 -23.49 0 0 26.94zm29.7 -26.94l0 26.94 -5.53 5.53 -24.18 0 0 10.36 -6.22 0 0 -48.35 30.39 0 5.53 5.53z"/>
   <polygon class="fil2" points="385.49,75.29 385.49,37.99 391.01,32.46 416.57,32.46 416.57,38.13 391.71,38.13 391.71,75.15 417.27,75.15 417.27,80.82 391.01,80.82 "/>
   <polygon class="fil2" points="423.48,80.82 423.48,32.46 429.7,32.46 429.7,53.53 441.1,53.53 454.08,32.46 461.4,32.46 446.9,55.26 462.44,80.82 455.26,80.82 442.06,59.06 429.7,59.06 429.7,80.82 "/>
   <path class="fil2" d="M475.15 63l20.31 0 -6.42 -25.14 -7.46 0 -6.42 25.14zm-10.91 17.82l12.57 -48.35 16.99 0 12.57 48.35 -6.36 0 -3.18 -12.43 -23.07 0 -3.18 12.43 -6.36 0z"/>
   <path class="fil2" d="M542.29 37.99l-24.18 0 0 20.72 24.18 0 0 -20.72zm-30.39 0l5.53 -5.53 31.09 0 0 48.35 -6.22 0 0 -16.58 -19.69 0 -7.81 16.58 -6.7 0 8.43 -17.48 -4.63 -4.63 0 -20.72z"/>
   <polygon class="fil2" points="177.27,113.96 177.27,96.44 180.12,96.44 185.53,105.9 190.93,96.44 193.78,96.44 193.78,113.96 191.58,113.96 191.58,99.2 186.28,108.46 184.77,108.46 179.47,99.2 179.47,113.96 "/>
   <path class="fil2" d="M199.04 108.21l8.51 0 0 -9.76 -8.51 0 0 9.76zm10.76 -9.76l0 9.76 -2 2 -8.76 0 0 3.75 -2.25 0 0 -17.52 11.01 0 2 2z"/>
   <path class="fil2" d="M215.26 107.51l7.36 0 -2.33 -9.11 -2.7 0 -2.33 9.11zm-3.95 6.46l4.55 -17.52 6.16 0 4.56 17.52 -2.3 0 -1.15 -4.51 -8.36 0 -1.15 4.51 -2.3 0z"/>
   <polygon class="fil2" points="228.57,113.96 228.57,96.44 231.43,96.44 236.83,105.9 242.24,96.44 245.09,96.44 245.09,113.96 242.89,113.96 242.89,99.2 237.58,108.46 236.08,108.46 230.78,99.2 230.78,113.96 "/>
   <path class="fil2" d="M250.35 111.96l9.51 0 0 -13.52 -9.51 0 0 13.52zm-2.25 0l0 -13.52 2 -2 10.01 0 2 2 0 13.52 -2 2 -10.01 0 -2 -2z"/>
   <path class="fil2" d="M267.37 108.21l8.51 0 0 -9.76 -8.51 0 0 9.76zm10.76 -9.76l0 9.76 -2 2 -8.76 0 0 3.75 -2.25 0 0 -17.52 11.01 0 2 2z"/>
   <polygon class="fil2" points="280.63,113.96 280.63,96.44 282.88,96.44 282.88,103.95 292.15,103.95 292.15,96.44 294.4,96.44 294.4,113.96 292.15,113.96 292.15,105.96 282.88,105.96 282.88,113.96 "/>
   <path class="fil2" d="M313.42 96.44l2.25 0 0 17.52 -2.25 0 0 -17.52zm-4.76 5.76l-9.01 0 0 9.76 9.01 0 0 -9.76zm2.25 0l0 9.76 -2 2 -11.51 0 0 -17.52 2.25 0 0 3.75 9.26 0 2 2z"/>
   <polygon class="fil2" points="317.67,113.96 322.18,104.7 318.05,96.44 320.5,96.44 324.18,103.95 326.68,103.95 330.36,96.44 332.82,96.44 328.69,104.7 333.19,113.96 330.74,113.96 326.94,105.96 323.93,105.96 320.13,113.96 "/>
   <polygon class="fil2" points="355.72,113.96 353.46,113.96 353.46,98.77 344.9,113.96 341.7,113.96 341.7,96.44 343.95,96.44 343.95,111.64 352.51,96.44 355.72,96.44 "/>
   <polygon class="fil2" points="358.72,113.96 358.72,96.44 360.97,96.44 360.97,103.95 370.23,103.95 370.23,96.44 372.48,96.44 372.48,113.96 370.23,113.96 370.23,105.96 360.97,105.96 360.97,113.96 "/>
   <polygon class="fil2" points="379.87,113.96 379.87,98.45 374.49,98.45 374.49,96.44 387.5,96.44 387.5,98.45 382.12,98.45 382.12,113.96 "/>
   <polygon class="fil2" points="389.5,113.96 389.5,96.44 401.52,96.44 401.52,98.45 391.76,98.45 391.76,103.95 400.27,103.95 400.27,105.96 391.76,105.96 391.76,111.96 401.77,111.96 401.77,113.96 "/>
   <path class="fil2" d="M406.27 108.21l8.51 0 0 -9.76 -8.51 0 0 9.76zm10.76 -9.76l0 9.76 -2 2 -8.76 0 0 3.75 -2.25 0 0 -17.52 11.01 0 2 2z"/>
   <path class="fil2" d="M430.8 102.2l-9.01 0 0 9.76 9.01 0 0 -9.76zm2.25 0l0 9.76 -2 2 -11.51 0 0 -17.52 2.25 0 0 3.75 9.26 0 2 2z"/>
   <polygon class="fil2" points="435.56,113.96 435.56,96.44 447.57,96.44 447.57,98.45 437.81,98.45 437.81,103.95 446.32,103.95 446.32,105.96 437.81,105.96 437.81,111.96 447.82,111.96 447.82,113.96 "/>
   <path class="fil2" d="M452.32 108.21l8.51 0 0 -9.76 -8.51 0 0 9.76zm10.76 -9.76l0 9.76 -2 2 -8.76 0 0 3.75 -2.25 0 0 -17.52 11.01 0 2 2z"/>
   <path class="fil2" d="M467.84 111.96l9.51 0 0 -13.52 -9.51 0 0 13.52zm-2.25 0l0 -13.52 2 -2 10.01 0 2 2 0 13.52 -2 2 -10.01 0 -2 -2z"/>
   <path class="fil2" d="M484.86 111.96l9.01 0 0 -6.13 -9.01 0 0 6.13zm0 -8.13l8.51 0 0 -5.38 -8.51 0 0 5.38zm10.76 -5.38l0 5.03 -1.18 1.08 1.68 1.5 0 5.91 -2 2 -11.51 0 0 -17.52 11.01 0 2 2z"/>
   <polygon class="fil3" points="168.24,100.6 158.54,100.6 158.54,110.3 168.24,110.3 "/>
   <polygon class="fil3" points="514.35,100.6 504.65,100.6 504.65,110.3 514.35,110.3 "/>
  </g>
 </g>
</svg>
