<?xml version="1.0" encoding="UTF-8"?>
<!DOCTYPE svg PUBLIC "-//W3C//DTD SVG 1.1//EN" "http://www.w3.org/Graphics/SVG/1.1/DTD/svg11.dtd">
<!-- Creator: CorelDRAW -->
<svg xmlns="http://www.w3.org/2000/svg" xml:space="preserve" width="168.047mm" height="110.107mm" version="1.1" style="shape-rendering:geometricPrecision; text-rendering:geometricPrecision; image-rendering:optimizeQuality; fill-rule:evenodd; clip-rule:evenodd"
viewBox="0 0 239.71 157.06"
 xmlns:xlink="http://www.w3.org/1999/xlink"
 xmlns:xodm="http://www.corel.com/coreldraw/odm/2003">
 <defs>
  <style type="text/css">
   <![CDATA[
    .fil3 {fill:#EBECEC}
    .fil2 {fill:#EBECEC;fill-rule:nonzero}
    .fil0 {fill:url(#id0)}
    .fil1 {fill:url(#id1)}
   ]]>
  </style>
  <linearGradient id="id0" gradientUnits="userSpaceOnUse" x1="81.21" y1="48.65" x2="158.5" y2="48.65">
   <stop offset="0" style="stop-opacity:1; stop-color:#DADAD8"/>
   <stop offset="1" style="stop-opacity:1; stop-color:#C0A47B"/>
  </linearGradient>
  <linearGradient id="id1" gradientUnits="userSpaceOnUse" xlink:href="#id0" x1="80.33" y1="48.9" x2="159.38" y2="48.9">
  </linearGradient>
 </defs>
 <g id="Слой_x0020_1">
  <metadata id="CorelCorpID_0Corel-Layer"/>
  <g id="_2460430789120">
   <path class="fil0" d="M97.2 27.75l-11.08 7.85 -4.91 17.6 0.34 0.54c0.12,0.19 12.1,19.56 14.64,36.04l0.16 1.07 39.97 5.61 0.5 -0.77c3.63,-5.55 14.36,-20.39 20.34,-22.44l1.35 -0.46 -8.47 -26.33 -14.17 -2.01 4.31 -4.13 -27.72 -39.48 -15.25 26.92zm13.51 14.05l2.29 -35.11 23.35 33.25 -4.19 4.01 -21.45 -2.16zm-5.01 -2.65l-5.73 -10.39 9.81 -17.33 -1.92 29.32 -2.17 -1.6zm-17.06 -1.77l9.18 -6.5 5.65 10.23 0.73 0.54 -19.18 8.71 3.63 -12.99zm-3.78 16.25l22.01 -10 2.33 1.72 -11.34 38.26c-3.31,-12.91 -10.5,-25.76 -13,-29.99zm43.75 2.47l-14.98 -11.09 18.89 1.9 15.3 2.17 6.41 19.94 -25.62 -12.92zm-29.12 32.26l12.2 -41.17 14.85 10.98 7.22 34.99 -34.27 -4.81zm30.38 -28.39l23.63 11.94c-6.1,4.07 -13.67,14.3 -17.18,19.33l-6.46 -31.27z"/>
   <path class="fil1" d="M80.33 97.79l79.05 0 0 -97.79 -79.05 0 0 97.79zm2.36 -95.43l74.33 0 0 93.06 -74.33 0 0 -93.06z"/>
   <polygon class="fil2" points="-0,138.2 -0,110.7 4.48,110.7 12.97,125.55 21.46,110.7 25.94,110.7 25.94,138.2 22.48,138.2 22.48,115.02 14.15,129.56 11.79,129.56 3.46,115.02 3.46,138.2 "/>
   <path class="fil2" d="M35.29 128.07l11.55 0 -3.65 -14.3 -4.24 0 -3.65 14.3zm-6.21 10.14l7.15 -27.51 9.67 0 7.15 27.51 -3.62 0 -1.81 -7.07 -13.13 0 -1.81 7.07 -3.62 0z"/>
   <polygon class="fil2" points="56.19,135.06 56.19,113.84 59.34,110.7 73.88,110.7 73.88,113.92 59.73,113.92 59.73,134.98 74.27,134.98 74.27,138.2 59.34,138.2 "/>
   <polygon class="fil2" points="84.68,138.2 84.68,113.84 76.23,113.84 76.23,110.7 96.67,110.7 96.67,113.84 88.22,113.84 88.22,138.2 "/>
   <polygon class="fil2" points="99.81,138.2 99.81,110.7 118.67,110.7 118.67,113.84 103.35,113.84 103.35,122.49 116.71,122.49 116.71,125.63 103.35,125.63 103.35,135.06 119.07,135.06 119.07,138.2 "/>
   <path class="fil2" d="M126.14 129.17l13.36 0 0 -15.33 -13.36 0 0 15.33zm16.9 -15.33l0 15.33 -3.14 3.14 -13.75 0 0 5.89 -3.54 0 0 -27.51 17.29 0 3.14 3.14z"/>
   <polygon class="fil2" points="146.97,135.06 146.97,113.84 150.11,110.7 164.65,110.7 164.65,113.92 150.5,113.92 150.5,134.98 165.04,134.98 165.04,138.2 150.11,138.2 "/>
   <polygon class="fil2" points="168.58,138.2 168.58,110.7 172.12,110.7 172.12,122.68 178.6,122.68 185.99,110.7 190.15,110.7 181.9,123.66 190.74,138.2 186.66,138.2 179.15,125.83 172.12,125.83 172.12,138.2 "/>
   <path class="fil2" d="M197.97 128.07l11.55 0 -3.65 -14.3 -4.24 0 -3.65 14.3zm-6.21 10.14l7.15 -27.51 9.67 0 7.15 27.51 -3.62 0 -1.81 -7.07 -13.13 0 -1.81 7.07 -3.62 0z"/>
   <path class="fil2" d="M236.17 113.84l-13.75 0 0 11.79 13.75 0 0 -11.79zm-17.29 0l3.14 -3.14 17.68 0 0 27.51 -3.54 0 0 -9.43 -11.2 0 -4.44 9.43 -3.81 0 4.79 -9.94 -2.63 -2.63 0 -11.79z"/>
   <polygon class="fil2" points="28.52,157.06 28.52,147.09 30.14,147.09 33.21,152.47 36.29,147.09 37.91,147.09 37.91,157.06 36.66,157.06 36.66,148.66 33.64,153.93 32.79,153.93 29.77,148.66 29.77,157.06 "/>
   <path class="fil2" d="M40.9 153.78l4.84 0 0 -5.55 -4.84 0 0 5.55zm6.12 -5.55l0 5.55 -1.14 1.14 -4.98 0 0 2.14 -1.28 0 0 -9.97 6.26 0 1.14 1.14z"/>
   <path class="fil2" d="M50.13 153.39l4.19 0 -1.32 -5.18 -1.54 0 -1.32 5.18zm-2.25 3.67l2.59 -9.97 3.5 0 2.59 9.97 -1.31 0 -0.65 -2.56 -4.76 0 -0.65 2.56 -1.31 0z"/>
   <polygon class="fil2" points="57.7,157.06 57.7,147.09 59.33,147.09 62.4,152.47 65.48,147.09 67.1,147.09 67.1,157.06 65.85,157.06 65.85,148.66 62.83,153.93 61.97,153.93 58.96,148.66 58.96,157.06 "/>
   <path class="fil2" d="M70.09 155.92l5.41 0 0 -7.69 -5.41 0 0 7.69zm-1.28 0l0 -7.69 1.14 -1.14 5.7 0 1.14 1.14 0 7.69 -1.14 1.14 -5.7 0 -1.14 -1.14z"/>
   <path class="fil2" d="M79.77 153.78l4.84 0 0 -5.55 -4.84 0 0 5.55zm6.12 -5.55l0 5.55 -1.14 1.14 -4.98 0 0 2.14 -1.28 0 0 -9.97 6.26 0 1.14 1.14z"/>
   <polygon class="fil2" points="87.32,157.06 87.32,147.09 88.6,147.09 88.6,151.36 93.87,151.36 93.87,147.09 95.15,147.09 95.15,157.06 93.87,157.06 93.87,152.5 88.6,152.5 88.6,157.06 "/>
   <path class="fil2" d="M105.97 147.09l1.28 0 0 9.97 -1.28 0 0 -9.97zm-2.71 3.27l-5.13 0 0 5.55 5.13 0 0 -5.55zm1.28 0l0 5.55 -1.14 1.14 -6.55 0 0 -9.97 1.28 0 0 2.14 5.27 0 1.14 1.14z"/>
   <polygon class="fil2" points="108.39,157.06 110.95,151.79 108.6,147.09 110,147.09 112.09,151.36 113.51,151.36 115.61,147.09 117,147.09 114.65,151.79 117.22,157.06 115.82,157.06 113.66,152.5 111.95,152.5 109.78,157.06 "/>
   <polygon class="fil2" points="130.03,157.06 128.75,157.06 128.75,148.42 123.88,157.06 122.06,157.06 122.06,147.09 123.34,147.09 123.34,155.74 128.21,147.09 130.03,147.09 "/>
   <polygon class="fil2" points="131.74,157.06 131.74,147.09 133.02,147.09 133.02,151.36 138.29,151.36 138.29,147.09 139.57,147.09 139.57,157.06 138.29,157.06 138.29,152.5 133.02,152.5 133.02,157.06 "/>
   <polygon class="fil2" points="143.77,157.06 143.77,148.23 140.71,148.23 140.71,147.09 148.11,147.09 148.11,148.23 145.05,148.23 145.05,157.06 "/>
   <polygon class="fil2" points="149.25,157.06 149.25,147.09 156.09,147.09 156.09,148.23 150.53,148.23 150.53,151.36 155.37,151.36 155.37,152.5 150.53,152.5 150.53,155.92 156.23,155.92 156.23,157.06 "/>
   <path class="fil2" d="M158.79 153.78l4.84 0 0 -5.55 -4.84 0 0 5.55zm6.12 -5.55l0 5.55 -1.14 1.14 -4.98 0 0 2.14 -1.28 0 0 -9.97 6.26 0 1.14 1.14z"/>
   <path class="fil2" d="M172.74 150.37l-5.13 0 0 5.55 5.13 0 0 -5.55zm1.28 0l0 5.55 -1.14 1.14 -6.55 0 0 -9.97 1.28 0 0 2.14 5.27 0 1.14 1.14z"/>
   <polygon class="fil2" points="175.45,157.06 175.45,147.09 182.28,147.09 182.28,148.23 176.73,148.23 176.73,151.36 181.57,151.36 181.57,152.5 176.73,152.5 176.73,155.92 182.43,155.92 182.43,157.06 "/>
   <path class="fil2" d="M184.99 153.78l4.84 0 0 -5.55 -4.84 0 0 5.55zm6.12 -5.55l0 5.55 -1.14 1.14 -4.98 0 0 2.14 -1.28 0 0 -9.97 6.26 0 1.14 1.14z"/>
   <path class="fil2" d="M193.81 155.92l5.41 0 0 -7.69 -5.41 0 0 7.69zm-1.28 0l0 -7.69 1.14 -1.14 5.69 0 1.14 1.14 0 7.69 -1.14 1.14 -5.69 0 -1.14 -1.14z"/>
   <path class="fil2" d="M203.5 155.92l5.13 0 0 -3.49 -5.13 0 0 3.49zm0 -4.63l4.84 0 0 -3.06 -4.84 0 0 3.06zm6.12 -3.06l0 2.86 -0.67 0.61 0.95 0.85 0 3.36 -1.14 1.14 -6.55 0 0 -9.97 6.26 0 1.14 1.14z"/>
   <polygon class="fil3" points="23.38,149.46 17.86,149.46 17.86,154.98 23.38,154.98 "/>
   <polygon class="fil3" points="220.27,149.46 214.75,149.46 214.75,154.98 220.27,154.98 "/>
  </g>
 </g>
</svg>
