<?xml version="1.0" encoding="UTF-8"?>
<!DOCTYPE svg PUBLIC "-//W3C//DTD SVG 1.1//EN" "http://www.w3.org/Graphics/SVG/1.1/DTD/svg11.dtd">
<!-- Creator: CorelDRAW -->
<svg xmlns="http://www.w3.org/2000/svg" xml:space="preserve" width="40.067mm" height="40.067mm" version="1.1" style="shape-rendering:geometricPrecision; text-rendering:geometricPrecision; image-rendering:optimizeQuality; fill-rule:evenodd; clip-rule:evenodd"
viewBox="0 0 415.03 415.03"
 xmlns:xlink="http://www.w3.org/1999/xlink"
 xmlns:xodm="http://www.corel.com/coreldraw/odm/2003">
 <defs>
  <style type="text/css">
   <![CDATA[
    .str0 {stroke:#C0A57C;stroke-width:10.38;stroke-miterlimit:22.9256}
    .str1 {stroke:black;stroke-width:0.79;stroke-miterlimit:22.9256}
    .fil0 {fill:none}
    .fil1 {fill:#C0A57C}
    .fil2 {fill:#FEFEFE}
   ]]>
  </style>
    <clipPath id="id0">
     <path d="M207.52 5.19c111.7,0 202.33,90.57 202.33,202.33 0,111.7 -90.57,202.33 -202.33,202.33 -111.7,0 -202.33,-90.57 -202.33,-202.33 0,-111.7 90.57,-202.33 202.33,-202.33zm0 47.16c85.67,0 155.16,69.44 155.16,155.16 0,85.67 -69.44,155.16 -155.16,155.16 -85.67,0 -155.16,-69.44 -155.16,-155.16 0,-85.67 69.44,-155.16 155.16,-155.16z"/>
    </clipPath>
    <clipPath id="id1">
     <path d="M207.52 5.19c111.7,0 202.33,90.57 202.33,202.33 0,111.7 -90.57,202.33 -202.33,202.33 -111.7,0 -202.33,-90.57 -202.33,-202.33 0,-111.7 90.57,-202.33 202.33,-202.33zm0 47.16c85.67,0 155.16,69.44 155.16,155.16 0,85.67 -69.44,155.16 -155.16,155.16 -85.67,0 -155.16,-69.44 -155.16,-155.16 0,-85.67 69.44,-155.16 155.16,-155.16z"/>
    </clipPath>
 </defs>
 <g id="Слой_x0020_1">
  <metadata id="CorelCorpID_0Corel-Layer"/>
  <g id="_2456801771584">
   <circle class="fil0 str0" cx="207.52" cy="207.52" r="202.33"/>
   <circle class="fil1" cx="207.52" cy="207.52" r="155.16"/>
   <g>
    <path class="fil2" d="M130.61 190.25c2.82,10.02 7.51,18.94 12.94,27.44 15.34,23.95 43.98,51.81 70.9,64.22 14.3,6.57 29.79,9.23 43.93,1.51 -9.44,-11.01 -21.08,-21.91 -31.51,-32.19 -1.2,-1.25 -2.3,-3.39 -4.33,-3.13 -5.84,5.64 -21.13,-8.87 -23.53,-11.37 -8.82,-9.08 -21.08,-18.99 -28.07,-29.58 -6,-9.03 -3.34,-10.49 -1.83,-14.56l-17.79 -18.21c-2.19,-2.3 -16.07,-17.01 -18.36,-17.79 -5.58,8.3 -7.93,13.46 -2.3,33.65l-0.05 -0z"/>
    <path class="fil2" d="M136.77 154.51l35.37 35.43c15.13,-10.28 13.88,-13.25 3.44,-24 -4.23,-4.33 -8.09,-8.35 -12.31,-12.68 -2.5,-2.61 -9.13,-11.58 -14.19,-10.75 -3.23,0.52 -12.52,10.75 -12.36,12.05l0.05 -0.05z"/>
    <path class="fil2" d="M226.19 244.14c0.99,3.44 34.8,36 34.8,36 2.97,0.42 11.9,-11.22 11.63,-15.03 -3.44,-5.16 -5.43,-6 -10.75,-11.48l-16.54 -17.11c-8.5,-8.87 -12.73,4.49 -19.15,7.62z"/>
    <path class="fil2" d="M222.33 134.37c-2.82,0.21 -10.17,0.89 -7.62,8.19 3.91,6.26 18.89,-5.64 39.81,12.1 17.63,14.97 12.68,35.06 14.24,38.14 0.94,1.88 3.81,2.82 6.57,1.67 12.83,-5.22 -5.48,-60.16 -53.06,-60.16l0.05 0.05z"/>
    <path class="fil2" d="M206.32 164.16c1.67,7.56 20.09,-4.23 34.33,13.56 3.7,4.59 5.9,11.17 5.16,18.94 -1.04,10.8 8.92,10.02 10.07,0.94 5.37,-40.85 -53.22,-49.93 -49.62,-33.44l0.05 0z"/>
   </g>
   <g>
   </g>
   <g style="clip-path:url(#id0)">
   </g>
   <path class="fil0" d="M207.52 5.19c111.7,0 202.33,90.57 202.33,202.33 0,111.7 -90.57,202.33 -202.33,202.33 -111.7,0 -202.33,-90.57 -202.33,-202.33 0,-111.7 90.57,-202.33 202.33,-202.33zm0 47.16c85.67,0 155.16,69.44 155.16,155.16 0,85.67 -69.44,155.16 -155.16,155.16 -85.67,0 -155.16,-69.44 -155.16,-155.16 0,-85.67 69.44,-155.16 155.16,-155.16z"/>
   <g style="clip-path:url(#id1)">
    <path id="_1" class="fil0 str1" d="M5.19 5.19l404.65 404.65m0 -404.65l-404.65 404.65"/>
   </g>
  </g>
 </g>
</svg>
