<?xml version="1.0" encoding="UTF-8"?>
<!DOCTYPE svg PUBLIC "-//W3C//DTD SVG 1.1//EN" "http://www.w3.org/Graphics/SVG/1.1/DTD/svg11.dtd">
<!-- Creator: CorelDRAW -->
<svg xmlns="http://www.w3.org/2000/svg" xml:space="preserve" width="22.8509mm" height="23.115mm" version="1.1" style="shape-rendering:geometricPrecision; text-rendering:geometricPrecision; image-rendering:optimizeQuality; fill-rule:evenodd; clip-rule:evenodd"
viewBox="0 0 640.5 647.9"
 xmlns:xlink="http://www.w3.org/1999/xlink"
 xmlns:xodm="http://www.corel.com/coreldraw/odm/2003">
 <defs>
  <style type="text/css">
   <![CDATA[
    .fil0 {fill:#C0A57C}
   ]]>
  </style>
 </defs>
 <g id="Слой_x0020_1">
  <metadata id="CorelCorpID_0Corel-Layer"/>
  <g id="_2456801775184">
   <path class="fil0" d="M13.42 235.34c11.72,42.21 31.62,79.91 54.49,115.62 64.66,100.94 185.36,218.26 298.87,270.63 60.14,27.81 125.5,38.96 185.22,6.35 -39.95,-46.45 -88.8,-92.33 -132.84,-135.67 -5.08,-5.22 -9.74,-14.12 -18.21,-13.27 -24.71,23.72 -88.94,-37.41 -99.11,-47.86 -37.27,-38.26 -88.66,-79.91 -118.3,-124.8 -25.27,-38.12 -14.12,-44.19 -7.76,-61.27l-75.1 -76.66c-9.32,-9.74 -67.62,-71.58 -77.36,-74.96 -23.44,35.01 -33.46,56.89 -9.74,141.88l-0.15 -0.01z"/>
   <path class="fil0" d="M39.26 84.99l149.08 149.22c63.67,-43.2 58.45,-55.9 14.54,-101.08 -17.79,-18.35 -34.16,-35.15 -51.81,-53.51 -10.45,-10.87 -38.4,-48.85 -59.72,-45.32 -13.55,2.12 -52.8,45.32 -51.95,50.82l-0.14 -0.14z"/>
   <path class="fil0" d="M416.34 462.49c4.24,14.54 146.68,151.76 146.68,151.76 12.57,1.69 50.12,-47.15 48.99,-63.25 -14.54,-21.74 -22.87,-25.27 -45.32,-48.42l-69.6 -72.14c-35.86,-37.41 -53.65,18.78 -80.61,32.05l-0.14 0z"/>
   <path class="fil0" d="M399.96 0c-11.72,0.85 -42.92,3.81 -32.05,34.59 16.52,26.4 79.62,-23.86 167.86,51.11 74.26,63.11 53.37,147.67 60.14,160.66 3.95,7.76 16.09,11.86 27.81,7.06 54.07,-21.88 -23.15,-253.41 -223.62,-253.41l-0.14 0z"/>
   <path class="fil0" d="M332.48 125.5c7.06,31.91 84.7,-17.65 144.7,57.18 15.53,19.34 24.85,47.01 21.74,79.76 -4.38,45.6 37.55,42.21 42.49,3.95 22.59,-172.09 -224.33,-210.35 -208.94,-140.89z"/>
  </g>
 </g>
</svg>
