<?xml version="1.0" encoding="UTF-8"?>
<!DOCTYPE svg PUBLIC "-//W3C//DTD SVG 1.1//EN" "http://www.w3.org/Graphics/SVG/1.1/DTD/svg11.dtd">
<!-- Creator: CorelDRAW -->
<svg xmlns="http://www.w3.org/2000/svg" xml:space="preserve" width="27.5968mm" height="23.2486mm" version="1.1" style="shape-rendering:geometricPrecision; text-rendering:geometricPrecision; image-rendering:optimizeQuality; fill-rule:evenodd; clip-rule:evenodd"
viewBox="0 0 452.15 380.91"
 xmlns:xlink="http://www.w3.org/1999/xlink"
 xmlns:xodm="http://www.corel.com/coreldraw/odm/2003">
 <defs>
  <style type="text/css">
   <![CDATA[
    .fil0 {fill:#C0A57C}
   ]]>
  </style>
 </defs>
 <g id="Слой_x0020_1">
  <metadata id="CorelCorpID_0Corel-Layer"/>
  <path class="fil0" d="M168.25 318.61c-4.95,-0.08 -5.03,-4.54 -6.44,-8.99l-10.81 -34.74c-21.46,-70.89 -25.58,-57.52 9.41,-79.96l37.88 -23.44c12.71,-7.51 25.09,-15.68 37.88,-23.44 12.71,-7.67 25.42,-15.68 37.8,-23.44 25.25,-15.93 50.59,-31.03 75.59,-46.96 3.14,-1.98 6.68,-4.04 9.74,-6.02 2.39,-1.57 6.93,-5.86 10.48,-4.21 3.63,1.57 3.8,6.85 0.99,9.49l-57.11 50.26c-6.52,5.2 -17.16,15.35 -24.51,21.62 -12.13,10.23 -27.89,24.76 -40.6,35.9l-32.43 28.8c-2.48,2.31 -5.69,4.7 -8.17,7.01l-16.5 14.44c-1.65,1.4 -2.72,2.39 -4.21,3.71 -8.25,7.1 -11.72,13.04 -12.63,25.09 -1.32,18.24 -4.29,36.72 -6.44,54.88l0.09 0zm260.11 -318.54c-8.33,1.16 -31.69,11.14 -41.01,14.77 -93.66,35.98 -187.24,73.45 -280.82,109.43 -26.74,10.32 -53.14,20.88 -79.96,31.11 -9.32,3.55 -22.61,6.85 -25.75,15.68 -1.32,3.8 -0.99,8.91 0.74,12.3 3.22,6.35 9.57,7.67 17.74,10.07 7.35,2.15 14.61,4.21 21.87,6.44 14.28,4.37 28.63,8.58 42.91,12.63 18.07,5.12 30.86,5.45 35.4,20.63l33.26 106.12c2.56,7.92 4.87,13.53 10.32,17.5 7.01,5.03 15.27,2.23 20.79,-2.06 1.65,-1.24 2.56,-1.82 3.71,-3.05l44.56 -45.55c8.75,-8.58 7.26,-7.92 25.75,5.61 10.73,7.92 21.04,15.76 31.94,23.6l48.44 35.32c11.06,7.84 26.24,17.41 37.8,2.39 4.54,-5.86 5.86,-12.21 7.59,-20.63 22.53,-107.61 45.47,-214.72 67.42,-322.33 1.73,-8.5 1.9,-16.01 -3.05,-22.28 -4.04,-5.12 -10.64,-8.75 -19.72,-7.51l0.09 -0.17z"/>
 </g>
</svg>
