<?xml version="1.0" encoding="UTF-8"?>
<!DOCTYPE svg PUBLIC "-//W3C//DTD SVG 1.1//EN" "http://www.w3.org/Graphics/SVG/1.1/DTD/svg11.dtd">
<!-- Creator: CorelDRAW -->
<svg xmlns="http://www.w3.org/2000/svg" xml:space="preserve" width="23.7176mm" height="23.8783mm" version="1.1" style="shape-rendering:geometricPrecision; text-rendering:geometricPrecision; image-rendering:optimizeQuality; fill-rule:evenodd; clip-rule:evenodd"
viewBox="0 0 228.77 230.32"
 xmlns:xlink="http://www.w3.org/1999/xlink"
 xmlns:xodm="http://www.corel.com/coreldraw/odm/2003">
 <defs>
  <style type="text/css">
   <![CDATA[
    .fil0 {fill:#ffffff}
   ]]>
  </style>
 </defs>
 <g id="Слой_x0020_1">
  <metadata id="CorelCorpID_0Corel-Layer"/>
  <g id="_2450387539360">
   <path class="fil0" d="M26.33 87.88c3.55,-25.41 30.56,-53.34 50.82,-59.85 4.95,-7.87 41.1,-10.1 54.31,-7.97 52.66,8.6 90.6,62.82 74.52,118.2 -15.64,53.97 -74.28,81.52 -125.49,60.68 -10.3,-4.18 -12.24,-9.91 -23.76,-6.12 -9.09,3.01 -17.78,6.61 -27.5,8.5 2.53,-9.67 5.93,-17.68 8.94,-27.11 3.45,-10.78 -4.13,-15.01 -8.36,-25.7 -5.64,-14.23 -11.61,-47.22 -3.45,-60.63l-0.05 0zm-26.28 142.34c12.24,-2.09 33.23,-10.45 46.3,-14.38 27.69,-8.36 9.62,-1.7 45.47,6.41 108.29,24.44 183.98,-111.45 102.99,-189.81 -82.44,-79.77 -214.97,-0.34 -187.91,107.22 8.99,35.76 16.95,20.16 7.68,46.06 -4.66,13.07 -12.15,32.26 -14.57,44.6l0.05 -0.1z"/>
   <path class="fil0" d="M60.09 91.08c9.86,25.36 22.83,46.74 46.78,62.48 31.38,20.6 70.2,21.47 67.04,-13.36 -7.72,-3.06 -20.16,-12.05 -28.86,-12.78 -4.91,3.89 -7.48,9.04 -14.23,13.94 -16.27,-4.03 -38.57,-25.55 -41.39,-36.63 -2.33,-9.18 13.07,-8.45 7.77,-23.61 -4.52,-12.97 -5.98,-22.49 -13.85,-23.51 -17.44,-0.63 -24.14,14.72 -23.32,33.52l0.05 -0.05z"/>
  </g>
 </g>
</svg>
